<svg width="36" height="35" viewBox="0 0 36 35" fill="none" xmlns="http://www.w3.org/2000/svg">
<g clip-path="url(#clip0_6_2)">
<path d="M6.36 0H29.64C33.12 0 36 2.8718 36 6.34188V28.5983C36 32.1282 33.12 34.9402 29.64 34.9402H6.36C2.88 35 0 32.1282 0 28.6581V6.34188C0 2.8718 2.88 0 6.36 0Z" fill="#B30B00"/>
<path d="M28.92 20.282C28.2 19.5043 26.82 19.1453 24.84 19.1453C23.76 19.1453 22.62 19.265 21.54 19.4444C20.82 18.7863 20.22 18.0085 19.62 17.2308C19.2 16.6325 18.78 16.0342 18.42 15.3761C19.02 13.7009 19.38 11.906 19.5 10.1111C19.5 8.49572 18.84 6.76068 17.04 6.76068C16.44 6.76068 15.84 7.11966 15.54 7.65812C14.76 8.97436 15.06 11.6667 16.32 14.4786C15.9 15.735 15.42 16.9915 14.88 18.3675C14.4 19.5641 13.86 20.7009 13.2 21.7778C11.34 22.4957 7.44001 24.2906 7.08001 26.265C6.96001 26.8632 7.14001 27.4615 7.62001 27.8205C8.04001 28.1795 8.64001 28.4188 9.24001 28.359C11.58 28.359 13.92 25.1282 15.54 22.3162C16.44 22.0171 17.34 21.7179 18.3 21.4786C19.32 21.2393 20.28 21 21.18 20.8205C23.7 22.9744 25.92 23.3333 27 23.3333C28.5 23.3333 29.1 22.6752 29.28 22.1367C29.52 21.4786 29.4 20.7607 28.92 20.282ZM27.3 21.4188C27.24 21.8376 26.76 22.1367 26.16 22.1367C25.98 22.1367 25.8 22.1367 25.62 22.0769C24.42 21.7778 23.28 21.1795 22.32 20.4017C23.1 20.282 23.94 20.2222 24.72 20.2222C25.26 20.2222 25.8 20.282 26.34 20.3419C26.88 20.4615 27.48 20.7009 27.3 21.4188ZM16.56 8.19658C16.68 8.01709 16.86 7.89743 17.1 7.8376C17.7 7.8376 17.82 8.49572 17.82 9.09401C17.76 10.4701 17.52 11.7863 17.1 13.1026C16.08 10.5299 16.2 8.79487 16.56 8.19658ZM19.92 19.6838C19.26 19.8034 18.6 19.9829 17.94 20.1624C17.46 20.282 16.98 20.4615 16.44 20.5812C16.68 20.0427 16.92 19.5043 17.16 19.0256C17.46 18.3675 17.7 17.7094 17.94 17.0513C18.18 17.4103 18.36 17.7094 18.6 18.0085C19.02 18.6068 19.5 19.1453 19.92 19.6838ZM12.66 23.1538C11.16 25.547 9.66001 27.1026 8.82001 27.1026C8.70001 27.1026 8.52001 27.0427 8.46001 26.9829C8.28001 26.8632 8.22001 26.6239 8.28001 26.4444C8.40001 25.547 10.14 24.2906 12.66 23.1538Z" fill="white"/>
</g>
<defs>
<clipPath id="clip0_6_2">
<rect width="36" height="35" fill="white"/>
</clipPath>
</defs>
</svg>
