<svg width="160" height="100" viewBox="0 0 160 100" fill="none" xmlns="http://www.w3.org/2000/svg">
<rect x="0.05" y="0.05" width="159.9" height="99.9" rx="4.95" stroke="#94A3B8" stroke-width="0.1"/>
<path d="M56.1506 50.9318V48.0256L63.4375 36.5455H65.9432V40.5682H64.4602L59.8665 47.8381V47.9744H70.2216V50.9318H56.1506ZM64.5284 54V50.0455L64.5966 48.7585V36.5455H68.0568V54H64.5284ZM79.5241 54.3835C78.0582 54.3778 76.7969 54.017 75.7401 53.3011C74.6889 52.5852 73.8793 51.5483 73.3111 50.1903C72.7486 48.8324 72.4702 47.1989 72.4759 45.2898C72.4759 43.3864 72.7571 41.7642 73.3196 40.4233C73.8878 39.0824 74.6974 38.0625 75.7486 37.3636C76.8054 36.6591 78.0639 36.3068 79.5241 36.3068C80.9844 36.3068 82.2401 36.6591 83.2912 37.3636C84.348 38.0682 85.1605 39.0909 85.7287 40.4318C86.2969 41.767 86.5781 43.3864 86.5724 45.2898C86.5724 47.2045 86.2884 48.8409 85.7202 50.1989C85.1577 51.5568 84.3509 52.5937 83.2997 53.3097C82.2486 54.0256 80.9901 54.3835 79.5241 54.3835ZM79.5241 51.3239C80.5241 51.3239 81.3224 50.821 81.919 49.8153C82.5156 48.8097 82.8111 47.3011 82.8054 45.2898C82.8054 43.9659 82.669 42.8636 82.3963 41.983C82.1293 41.1023 81.7486 40.4403 81.2543 39.9972C80.7656 39.554 80.1889 39.3324 79.5241 39.3324C78.5298 39.3324 77.7344 39.8295 77.1378 40.8239C76.5412 41.8182 76.2401 43.3068 76.2344 45.2898C76.2344 46.6307 76.3679 47.75 76.6349 48.6477C76.9077 49.5398 77.2912 50.2102 77.7855 50.6591C78.2798 51.1023 78.8594 51.3239 79.5241 51.3239ZM88.9396 50.9318V48.0256L96.2266 36.5455H98.7322V40.5682H97.2493L92.6555 47.8381V47.9744H103.011V50.9318H88.9396ZM97.3175 54V50.0455L97.3857 48.7585V36.5455H100.846V54H97.3175Z" fill="#64748B"/>
<path d="M61.6477 59.7273V67H60.7955L56.8324 61.2898H56.7614V67H55.8807V59.7273H56.733L60.7102 65.4517H60.7812V59.7273H61.6477ZM65.5123 67.1136C65.0198 67.1136 64.5878 66.9964 64.2161 66.7621C63.8468 66.5277 63.5579 66.1998 63.3496 65.7784C63.1436 65.357 63.0407 64.8646 63.0407 64.3011C63.0407 63.733 63.1436 63.237 63.3496 62.8132C63.5579 62.3894 63.8468 62.0604 64.2161 61.826C64.5878 61.5916 65.0198 61.4744 65.5123 61.4744C66.0047 61.4744 66.4355 61.5916 66.8049 61.826C67.1766 62.0604 67.4654 62.3894 67.6713 62.8132C67.8797 63.237 67.9838 63.733 67.9838 64.3011C67.9838 64.8646 67.8797 65.357 67.6713 65.7784C67.4654 66.1998 67.1766 66.5277 66.8049 66.7621C66.4355 66.9964 66.0047 67.1136 65.5123 67.1136ZM65.5123 66.3608C65.8863 66.3608 66.1941 66.2649 66.4355 66.0732C66.677 65.8814 66.8558 65.6293 66.9718 65.3168C67.0878 65.0043 67.1458 64.6657 67.1458 64.3011C67.1458 63.9366 67.0878 63.5968 66.9718 63.282C66.8558 62.9671 66.677 62.7126 66.4355 62.5185C66.1941 62.3243 65.8863 62.2273 65.5123 62.2273C65.1382 62.2273 64.8304 62.3243 64.589 62.5185C64.3475 62.7126 64.1687 62.9671 64.0527 63.282C63.9367 63.5968 63.8787 63.9366 63.8787 64.3011C63.8787 64.6657 63.9367 65.0043 64.0527 65.3168C64.1687 65.6293 64.3475 65.8814 64.589 66.0732C64.8304 66.2649 65.1382 66.3608 65.5123 66.3608ZM71.6353 61.5455V62.2557H68.8086V61.5455H71.6353ZM69.6325 60.2386H70.4705V65.4375C70.4705 65.6742 70.5049 65.8518 70.5735 65.9702C70.6445 66.0862 70.7345 66.1643 70.8434 66.2045C70.9547 66.2424 71.0719 66.2614 71.195 66.2614C71.2873 66.2614 71.363 66.2566 71.4222 66.2472C71.4814 66.2353 71.5288 66.2259 71.5643 66.2188L71.7347 66.9716C71.6779 66.9929 71.5986 67.0142 71.4968 67.0355C71.395 67.0592 71.266 67.071 71.1097 67.071C70.873 67.071 70.641 67.0201 70.4137 66.9183C70.1888 66.8165 70.0018 66.6615 69.8526 66.4531C69.7058 66.2448 69.6325 65.982 69.6325 65.6648V60.2386ZM78.1374 61.5455V62.2557H75.1971V61.5455H78.1374ZM76.0778 67V60.7926C76.0778 60.4801 76.1512 60.2197 76.2979 60.0114C76.4447 59.803 76.6353 59.6468 76.8697 59.5426C77.104 59.4384 77.3514 59.3864 77.6119 59.3864C77.8178 59.3864 77.9859 59.4029 78.1161 59.4361C78.2463 59.4692 78.3434 59.5 78.4073 59.5284L78.1658 60.2528C78.1232 60.2386 78.064 60.2209 77.9883 60.1996C77.9149 60.1783 77.8178 60.1676 77.6971 60.1676C77.4201 60.1676 77.2201 60.2375 77.0969 60.3771C76.9762 60.5168 76.9158 60.7216 76.9158 60.9915V67H76.0778ZM81.3033 67.1136C80.8108 67.1136 80.3788 66.9964 80.0071 66.7621C79.6378 66.5277 79.349 66.1998 79.1406 65.7784C78.9347 65.357 78.8317 64.8646 78.8317 64.3011C78.8317 63.733 78.9347 63.237 79.1406 62.8132C79.349 62.3894 79.6378 62.0604 80.0071 61.826C80.3788 61.5916 80.8108 61.4744 81.3033 61.4744C81.7957 61.4744 82.2266 61.5916 82.5959 61.826C82.9676 62.0604 83.2564 62.3894 83.4624 62.8132C83.6707 63.237 83.7749 63.733 83.7749 64.3011C83.7749 64.8646 83.6707 65.357 83.4624 65.7784C83.2564 66.1998 82.9676 66.5277 82.5959 66.7621C82.2266 66.9964 81.7957 67.1136 81.3033 67.1136ZM81.3033 66.3608C81.6773 66.3608 81.9851 66.2649 82.2266 66.0732C82.468 65.8814 82.6468 65.6293 82.7628 65.3168C82.8788 65.0043 82.9368 64.6657 82.9368 64.3011C82.9368 63.9366 82.8788 63.5968 82.7628 63.282C82.6468 62.9671 82.468 62.7126 82.2266 62.5185C81.9851 62.3243 81.6773 62.2273 81.3033 62.2273C80.9292 62.2273 80.6214 62.3243 80.38 62.5185C80.1385 62.7126 79.9598 62.9671 79.8438 63.282C79.7277 63.5968 79.6697 63.9366 79.6697 64.3011C79.6697 64.6657 79.7277 65.0043 79.8438 65.3168C79.9598 65.6293 80.1385 65.8814 80.38 66.0732C80.6214 66.2649 80.9292 66.3608 81.3033 66.3608ZM88.4917 64.7699V61.5455H89.3297V67H88.4917V66.0767H88.4348C88.307 66.3537 88.1081 66.5893 87.8382 66.7834C87.5684 66.9751 87.2275 67.071 86.8155 67.071C86.4746 67.071 86.1716 66.9964 85.9064 66.8473C85.6413 66.6958 85.4329 66.4685 85.2814 66.1655C85.1299 65.8601 85.0542 65.4754 85.0542 65.0114V61.5455H85.8922V64.9545C85.8922 65.3523 86.0035 65.6695 86.226 65.9062C86.4509 66.143 86.7374 66.2614 87.0854 66.2614C87.2937 66.2614 87.5056 66.2081 87.7211 66.1016C87.9389 65.995 88.1212 65.8317 88.2679 65.6115C88.4171 65.3913 88.4917 65.1108 88.4917 64.7699ZM91.7028 63.7188V67H90.8647V61.5455H91.6744V62.3977H91.7454C91.8732 62.1207 92.0674 61.8982 92.3278 61.7301C92.5882 61.5597 92.9244 61.4744 93.3363 61.4744C93.7056 61.4744 94.0288 61.5502 94.3058 61.7017C94.5827 61.8509 94.7982 62.0781 94.9521 62.3835C95.1059 62.6866 95.1829 63.0701 95.1829 63.5341V67H94.3448V63.5909C94.3448 63.1624 94.2335 62.8286 94.011 62.5895C93.7885 62.348 93.4831 62.2273 93.0948 62.2273C92.8273 62.2273 92.5882 62.2853 92.3775 62.4013C92.1692 62.5173 92.0046 62.6866 91.8839 62.9091C91.7631 63.1316 91.7028 63.4015 91.7028 63.7188ZM98.774 67.1136C98.3194 67.1136 97.9181 66.9988 97.5701 66.7692C97.2221 66.5372 96.9499 66.2105 96.7534 65.7891C96.5569 65.3653 96.4586 64.8646 96.4586 64.2869C96.4586 63.714 96.5569 63.2169 96.7534 62.7955C96.9499 62.3741 97.2233 62.0485 97.5737 61.8189C97.9241 61.5893 98.3289 61.4744 98.7882 61.4744C99.1433 61.4744 99.4238 61.5336 99.6298 61.652C99.8381 61.768 99.9967 61.9006 100.106 62.0497C100.217 62.1965 100.303 62.3172 100.365 62.4119H100.436V59.7273H101.274V67H100.464V66.1619H100.365C100.303 66.2614 100.216 66.3868 100.102 66.5384C99.9885 66.6875 99.8263 66.8213 99.6156 66.9396C99.4049 67.0556 99.1243 67.1136 98.774 67.1136ZM98.8876 66.3608C99.2238 66.3608 99.5079 66.2732 99.7399 66.098C99.9719 65.9205 100.148 65.6754 100.269 65.3629C100.39 65.0481 100.45 64.6847 100.45 64.2727C100.45 63.8655 100.391 63.5092 100.273 63.2038C100.154 62.8961 99.979 62.657 99.747 62.4865C99.515 62.3137 99.2285 62.2273 98.8876 62.2273C98.5325 62.2273 98.2366 62.3184 97.9998 62.5007C97.7654 62.6806 97.5891 62.9257 97.4707 63.2358C97.3547 63.5436 97.2967 63.8892 97.2967 64.2727C97.2967 64.661 97.3559 65.0137 97.4743 65.331C97.595 65.6458 97.7725 65.8968 98.0069 66.0838C98.2437 66.2685 98.5372 66.3608 98.8876 66.3608ZM103.536 67.0568C103.361 67.0568 103.211 66.9941 103.085 66.8686C102.96 66.7431 102.897 66.5928 102.897 66.4176C102.897 66.2424 102.96 66.0921 103.085 65.9666C103.211 65.8411 103.361 65.7784 103.536 65.7784C103.711 65.7784 103.862 65.8411 103.987 65.9666C104.113 66.0921 104.175 66.2424 104.175 66.4176C104.175 66.5336 104.146 66.6402 104.086 66.7372C104.03 66.8343 103.953 66.9124 103.856 66.9716C103.761 67.0284 103.654 67.0568 103.536 67.0568Z" fill="#94A3B8"/>
</svg>