<svg width="160" height="100" viewBox="0 0 160 100" fill="none" xmlns="http://www.w3.org/2000/svg">
<rect x="0.05" y="0.05" width="159.9" height="99.9" rx="4.95" fill="white" stroke="#94A3B8" stroke-width="0.1"/>
<rect x="38.5" y="22.5" width="40" height="54" rx="1.5" fill="white" stroke="#64748B"/>
<path d="M44 37H55" stroke="#B4B4B4" stroke-linecap="round"/>
<path d="M49 42H67" stroke="#828282" stroke-linecap="round"/>
<rect x="44.5" y="39.5" width="27" height="5" rx="2.5" stroke="#828282"/>
<path d="M44 49H55" stroke="#B4B4B4" stroke-linecap="round"/>
<path d="M49 54H67" stroke="#828282" stroke-linecap="round"/>
<rect x="44.5" y="51.5" width="27" height="5" rx="2.5" stroke="#828282"/>
<path d="M59 67H69" stroke="#E11D48" stroke-linecap="round"/>
<rect x="56.5" y="64.5" width="15" height="5" rx="2.5" stroke="#E11D48"/>
<path d="M51.4403 30V26.3636H51.8807V29.6094H53.571V30H51.4403ZM55.304 30.0568C55.0578 30.0568 54.8417 29.9982 54.6559 29.881C54.4712 29.7638 54.3268 29.5999 54.2227 29.3892C54.1197 29.1785 54.0682 28.9323 54.0682 28.6506C54.0682 28.3665 54.1197 28.1185 54.2227 27.9066C54.3268 27.6947 54.4712 27.5302 54.6559 27.413C54.8417 27.2958 55.0578 27.2372 55.304 27.2372C55.5502 27.2372 55.7656 27.2958 55.9503 27.413C56.1361 27.5302 56.2805 27.6947 56.3835 27.9066C56.4877 28.1185 56.5398 28.3665 56.5398 28.6506C56.5398 28.9323 56.4877 29.1785 56.3835 29.3892C56.2805 29.5999 56.1361 29.7638 55.9503 29.881C55.7656 29.9982 55.5502 30.0568 55.304 30.0568ZM55.304 29.6804C55.491 29.6804 55.6449 29.6325 55.7656 29.5366C55.8864 29.4407 55.9757 29.3146 56.0337 29.1584C56.0917 29.0021 56.1207 28.8329 56.1207 28.6506C56.1207 28.4683 56.0917 28.2984 56.0337 28.141C55.9757 27.9835 55.8864 27.8563 55.7656 27.7592C55.6449 27.6622 55.491 27.6136 55.304 27.6136C55.117 27.6136 54.9631 27.6622 54.8423 27.7592C54.7216 27.8563 54.6322 27.9835 54.5742 28.141C54.5162 28.2984 54.4872 28.4683 54.4872 28.6506C54.4872 28.8329 54.5162 29.0021 54.5742 29.1584C54.6322 29.3146 54.7216 29.4407 54.8423 29.5366C54.9631 29.6325 55.117 29.6804 55.304 29.6804ZM58.2803 31.0795C58.0779 31.0795 57.9039 31.0535 57.7583 31.0014C57.6127 30.9505 57.4913 30.883 57.3943 30.799C57.2984 30.7161 57.222 30.6274 57.1652 30.5327L57.499 30.2983C57.5369 30.348 57.5848 30.4048 57.6428 30.4688C57.7008 30.5339 57.7802 30.5901 57.8808 30.6374C57.9826 30.686 58.1157 30.7102 58.2803 30.7102C58.5004 30.7102 58.6821 30.657 58.8254 30.5504C58.9686 30.4439 59.0402 30.277 59.0402 30.0497V29.4957H59.0047C58.9739 29.5455 58.9301 29.607 58.8733 29.6804C58.8177 29.7526 58.7372 29.8171 58.6318 29.8739C58.5277 29.9296 58.3868 29.9574 58.2093 29.9574C57.9891 29.9574 57.7914 29.9053 57.6162 29.8011C57.4422 29.697 57.3043 29.5455 57.2025 29.3466C57.1019 29.1477 57.0516 28.9062 57.0516 28.6222C57.0516 28.3428 57.1007 28.0996 57.199 27.8924C57.2972 27.6841 57.4339 27.5231 57.6091 27.4094C57.7843 27.2946 57.9867 27.2372 58.2164 27.2372C58.3939 27.2372 58.5348 27.2668 58.6389 27.326C58.7443 27.384 58.8248 27.4503 58.8804 27.5249C58.9372 27.5982 58.981 27.6586 59.0118 27.706H59.0544V27.2727H59.4593V30.0781C59.4593 30.3125 59.406 30.5031 59.2994 30.6499C59.1941 30.7978 59.0521 30.9061 58.8733 30.9748C58.6958 31.0446 58.4981 31.0795 58.2803 31.0795ZM58.2661 29.581C58.4342 29.581 58.5762 29.5425 58.6922 29.4656C58.8082 29.3886 58.8964 29.2779 58.9568 29.1335C59.0171 28.9891 59.0473 28.8163 59.0473 28.6151C59.0473 28.4186 59.0177 28.2451 58.9585 28.0948C58.8994 27.9445 58.8118 27.8267 58.6958 27.7415C58.5798 27.6562 58.4365 27.6136 58.2661 27.6136C58.0885 27.6136 57.9405 27.6586 57.8222 27.7486C57.705 27.8385 57.6168 27.9593 57.5576 28.1108C57.4996 28.2623 57.4706 28.4304 57.4706 28.6151C57.4706 28.8045 57.5002 28.9719 57.5594 29.1175C57.6198 29.262 57.7085 29.3756 57.8257 29.4585C57.9441 29.5401 58.0909 29.581 58.2661 29.581ZM61.6325 30V27.2727H62.0516V30H61.6325ZM61.8456 26.8182C61.7639 26.8182 61.6935 26.7904 61.6343 26.7347C61.5763 26.6791 61.5473 26.6122 61.5473 26.5341C61.5473 26.456 61.5763 26.3891 61.6343 26.3335C61.6935 26.2778 61.7639 26.25 61.8456 26.25C61.9273 26.25 61.9971 26.2778 62.0551 26.3335C62.1143 26.3891 62.1439 26.456 62.1439 26.5341C62.1439 26.6122 62.1143 26.6791 62.0551 26.7347C61.9971 26.7904 61.9273 26.8182 61.8456 26.8182ZM63.2381 28.3594V30H62.8191V27.2727H63.2239V27.6989H63.2594C63.3233 27.5604 63.4204 27.4491 63.5506 27.3651C63.6808 27.2798 63.8489 27.2372 64.0549 27.2372C64.2395 27.2372 64.4011 27.2751 64.5396 27.3509C64.6781 27.4254 64.7858 27.5391 64.8627 27.6918C64.9397 27.8433 64.9782 28.035 64.9782 28.267V30H64.5591V28.2955C64.5591 28.0812 64.5035 27.9143 64.3922 27.7947C64.281 27.674 64.1283 27.6136 63.9341 27.6136C63.8004 27.6136 63.6808 27.6426 63.5755 27.7006C63.4713 27.7586 63.389 27.8433 63.3287 27.9545C63.2683 28.0658 63.2381 28.2008 63.2381 28.3594Z" fill="#E11D48"/>
<rect x="81.5" y="22.5" width="40" height="54" rx="1.5" fill="white" stroke="#64748B"/>
<path d="M87 37H98" stroke="#B4B4B4" stroke-linecap="round"/>
<path d="M92 42H110" stroke="#828282" stroke-linecap="round"/>
<rect x="87.5" y="39.5" width="27" height="5" rx="2.5" stroke="#828282"/>
<path d="M87 49H98" stroke="#B4B4B4" stroke-linecap="round"/>
<path d="M92 54H110" stroke="#828282" stroke-linecap="round"/>
<rect x="87.5" y="51.5" width="27" height="5" rx="2.5" stroke="#828282"/>
<path d="M102 67H112" stroke="#E11D48" stroke-linecap="round"/>
<rect x="99.5" y="64.5" width="15" height="5" rx="2.5" stroke="#E11D48"/>
<path d="M94.429 27.2727C94.4077 27.0928 94.3213 26.9531 94.1697 26.8537C94.0182 26.7543 93.8324 26.7045 93.6122 26.7045C93.4512 26.7045 93.3104 26.7306 93.1896 26.7827C93.0701 26.8348 92.9766 26.9064 92.9091 26.9975C92.8428 27.0887 92.8097 27.1922 92.8097 27.3082C92.8097 27.4053 92.8327 27.4888 92.8789 27.5586C92.9263 27.6272 92.9866 27.6847 93.06 27.7308C93.1334 27.7758 93.2103 27.8131 93.2908 27.8427C93.3713 27.8711 93.4453 27.8942 93.5128 27.9119L93.8821 28.0114C93.9768 28.0362 94.0821 28.0705 94.1982 28.1143C94.3153 28.1581 94.4272 28.2179 94.5337 28.2937C94.6415 28.3683 94.7302 28.4641 94.8001 28.5813C94.8699 28.6985 94.9048 28.8423 94.9048 29.0128C94.9048 29.2093 94.8533 29.3868 94.7504 29.5455C94.6486 29.7041 94.4994 29.8301 94.3029 29.9237C94.1076 30.0172 93.8703 30.0639 93.5909 30.0639C93.3305 30.0639 93.105 30.0219 92.9144 29.9379C92.725 29.8538 92.5759 29.7366 92.467 29.5863C92.3593 29.436 92.2983 29.2614 92.2841 29.0625H92.7386C92.7505 29.1998 92.7966 29.3134 92.8771 29.4034C92.9588 29.4922 93.0618 29.5585 93.1861 29.6023C93.3116 29.6449 93.4465 29.6662 93.5909 29.6662C93.759 29.6662 93.9099 29.639 94.0437 29.5845C94.1774 29.5289 94.2834 29.4519 94.3615 29.3537C94.4396 29.2543 94.4787 29.1383 94.4787 29.0057C94.4787 28.8849 94.445 28.7867 94.3775 28.7109C94.31 28.6352 94.2212 28.5736 94.1112 28.5263C94.0011 28.4789 93.8821 28.4375 93.7543 28.402L93.3068 28.2741C93.0227 28.1925 92.7978 28.0759 92.6321 27.9244C92.4664 27.7728 92.3835 27.5746 92.3835 27.3295C92.3835 27.1259 92.4386 26.9484 92.5487 26.7969C92.6599 26.6442 92.8091 26.5258 92.9961 26.4418C93.1843 26.3565 93.3944 26.3139 93.6264 26.3139C93.8608 26.3139 94.0691 26.3559 94.2514 26.44C94.4337 26.5228 94.5781 26.6365 94.6847 26.7809C94.7924 26.9253 94.8492 27.0893 94.8551 27.2727H94.429ZM95.572 30V27.2727H95.991V30H95.572ZM95.7851 26.8182C95.7034 26.8182 95.633 26.7904 95.5738 26.7347C95.5158 26.6791 95.4868 26.6122 95.4868 26.5341C95.4868 26.456 95.5158 26.3891 95.5738 26.3335C95.633 26.2778 95.7034 26.25 95.7851 26.25C95.8667 26.25 95.9366 26.2778 95.9946 26.3335C96.0538 26.3891 96.0834 26.456 96.0834 26.5341C96.0834 26.6122 96.0538 26.6791 95.9946 26.7347C95.9366 26.7904 95.8667 26.8182 95.7851 26.8182ZM97.8594 31.0795C97.657 31.0795 97.483 31.0535 97.3374 31.0014C97.1918 30.9505 97.0704 30.883 96.9734 30.799C96.8775 30.7161 96.8011 30.6274 96.7443 30.5327L97.0781 30.2983C97.116 30.348 97.1639 30.4048 97.2219 30.4688C97.2799 30.5339 97.3593 30.5901 97.4599 30.6374C97.5617 30.686 97.6948 30.7102 97.8594 30.7102C98.0795 30.7102 98.2612 30.657 98.4045 30.5504C98.5477 30.4439 98.6193 30.277 98.6193 30.0497V29.4957H98.5838C98.553 29.5455 98.5092 29.607 98.4524 29.6804C98.3968 29.7526 98.3163 29.8171 98.2109 29.8739C98.1068 29.9296 97.9659 29.9574 97.7884 29.9574C97.5682 29.9574 97.3705 29.9053 97.1953 29.8011C97.0213 29.697 96.8834 29.5455 96.7816 29.3466C96.681 29.1477 96.6307 28.9062 96.6307 28.6222C96.6307 28.3428 96.6798 28.0996 96.7781 27.8924C96.8763 27.6841 97.013 27.5231 97.1882 27.4094C97.3634 27.2946 97.5658 27.2372 97.7955 27.2372C97.973 27.2372 98.1139 27.2668 98.218 27.326C98.3234 27.384 98.4039 27.4503 98.4595 27.5249C98.5163 27.5982 98.5601 27.6586 98.5909 27.706H98.6335V27.2727H99.0384V30.0781C99.0384 30.3125 98.9851 30.5031 98.8786 30.6499C98.7732 30.7978 98.6312 30.9061 98.4524 30.9748C98.2749 31.0446 98.0772 31.0795 97.8594 31.0795ZM97.8452 29.581C98.0133 29.581 98.1553 29.5425 98.2713 29.4656C98.3873 29.3886 98.4755 29.2779 98.5359 29.1335C98.5962 28.9891 98.6264 28.8163 98.6264 28.6151C98.6264 28.4186 98.5968 28.2451 98.5376 28.0948C98.4785 27.9445 98.3909 27.8267 98.2749 27.7415C98.1589 27.6562 98.0156 27.6136 97.8452 27.6136C97.6676 27.6136 97.5196 27.6586 97.4013 27.7486C97.2841 27.8385 97.1959 27.9593 97.1367 28.1108C97.0787 28.2623 97.0497 28.4304 97.0497 28.6151C97.0497 28.8045 97.0793 28.9719 97.1385 29.1175C97.1989 29.262 97.2876 29.3756 97.4048 29.4585C97.5232 29.5401 97.67 29.581 97.8452 29.581ZM100.224 28.3594V30H99.8054V27.2727H100.21V27.6989H100.246C100.31 27.5604 100.407 27.4491 100.537 27.3651C100.667 27.2798 100.835 27.2372 101.041 27.2372C101.226 27.2372 101.387 27.2751 101.526 27.3509C101.664 27.4254 101.772 27.5391 101.849 27.6918C101.926 27.8433 101.964 28.035 101.964 28.267V30H101.545V28.2955C101.545 28.0812 101.49 27.9143 101.379 27.7947C101.267 27.674 101.115 27.6136 100.92 27.6136C100.787 27.6136 100.667 27.6426 100.562 27.7006C100.458 27.7586 100.375 27.8433 100.315 27.9545C100.255 28.0658 100.224 28.2008 100.224 28.3594ZM105.855 28.8849V27.2727H106.274V30H105.855V29.5384H105.827C105.763 29.6768 105.663 29.7946 105.528 29.8917C105.394 29.9876 105.223 30.0355 105.017 30.0355C104.847 30.0355 104.695 29.9982 104.563 29.9237C104.43 29.8479 104.326 29.7343 104.25 29.5827C104.174 29.43 104.136 29.2377 104.136 29.0057V27.2727H104.555V28.9773C104.555 29.1761 104.611 29.3348 104.722 29.4531C104.835 29.5715 104.978 29.6307 105.152 29.6307C105.256 29.6307 105.362 29.604 105.47 29.5508C105.579 29.4975 105.67 29.4158 105.743 29.3058C105.818 29.1957 105.855 29.0554 105.855 28.8849ZM107.042 31.0227V27.2727H107.447V27.706H107.496C107.527 27.6586 107.57 27.5982 107.624 27.5249C107.68 27.4503 107.759 27.384 107.862 27.326C107.966 27.2668 108.107 27.2372 108.285 27.2372C108.514 27.2372 108.717 27.2946 108.892 27.4094C109.067 27.5243 109.204 27.687 109.302 27.8977C109.4 28.1084 109.449 28.357 109.449 28.6435C109.449 28.9323 109.4 29.1826 109.302 29.3945C109.204 29.6052 109.068 29.7686 108.894 29.8846C108.72 29.9994 108.519 30.0568 108.292 30.0568C108.117 30.0568 107.976 30.0278 107.871 29.9698C107.766 29.9106 107.684 29.8437 107.628 29.7692C107.571 29.6934 107.527 29.6307 107.496 29.581H107.461V31.0227H107.042ZM107.454 28.6364C107.454 28.8423 107.484 29.024 107.544 29.1815C107.605 29.3377 107.693 29.4602 107.809 29.549C107.925 29.6366 108.067 29.6804 108.235 29.6804C108.41 29.6804 108.556 29.6342 108.673 29.5419C108.792 29.4484 108.881 29.3229 108.94 29.1655C109 29.0069 109.03 28.8305 109.03 28.6364C109.03 28.4446 109.001 28.2718 108.942 28.1179C108.884 27.9628 108.795 27.8403 108.677 27.7504C108.56 27.6592 108.412 27.6136 108.235 27.6136C108.064 27.6136 107.921 27.6568 107.805 27.7433C107.689 27.8285 107.602 27.948 107.542 28.1019C107.483 28.2546 107.454 28.4328 107.454 28.6364Z" fill="#E11D48"/>
</svg>
