<svg width="160" height="100" viewBox="0 0 160 100" fill="none" xmlns="http://www.w3.org/2000/svg">
<rect x="0.05" y="0.05" width="159.9" height="99.9" rx="4.95" fill="white" stroke="#94A3B8" stroke-width="0.1"/>
<rect x="16.5" y="24.5" width="127" height="66" rx="1.5" fill="white" stroke="#B4B4B4"/>
<line x1="16" y1="32.5" x2="144" y2="32.5" stroke="#828282"/>
<line x1="17" y1="42.5" x2="143" y2="42.5" stroke="#828282"/>
<line x1="17" y1="52.5" x2="143" y2="52.5" stroke="#828282"/>
<line x1="17" y1="62.5" x2="143" y2="62.5" stroke="#828282"/>
<line x1="17" y1="72.5" x2="143" y2="72.5001" stroke="#828282"/>
<line x1="17" y1="82.5001" x2="143" y2="82.5001" stroke="#828282"/>
<path d="M73.733 13H72.8523C72.8002 12.7467 72.709 12.5241 72.5788 12.3324C72.451 12.1406 72.2947 11.9796 72.1101 11.8494C71.9278 11.7169 71.7254 11.6174 71.5028 11.5511C71.2803 11.4848 71.0483 11.4517 70.8068 11.4517C70.3665 11.4517 69.9676 11.563 69.6101 11.7855C69.255 12.008 68.9721 12.3359 68.7614 12.7692C68.553 13.2024 68.4489 13.7339 68.4489 14.3636C68.4489 14.9934 68.553 15.5249 68.7614 15.9581C68.9721 16.3913 69.255 16.7192 69.6101 16.9418C69.9676 17.1643 70.3665 17.2756 70.8068 17.2756C71.0483 17.2756 71.2803 17.2424 71.5028 17.1761C71.7254 17.1098 71.9278 17.0116 72.1101 16.8814C72.2947 16.7488 72.451 16.5866 72.5788 16.3949C72.709 16.2008 72.8002 15.9782 72.8523 15.7273H73.733C73.6667 16.099 73.5459 16.4316 73.3707 16.7251C73.1955 17.0187 72.9777 17.2685 72.7173 17.4744C72.4569 17.678 72.1645 17.8331 71.8402 17.9396C71.5182 18.0462 71.1738 18.0994 70.8068 18.0994C70.1866 18.0994 69.6349 17.9479 69.152 17.6449C68.669 17.3419 68.2891 16.911 68.0121 16.3523C67.7351 15.7936 67.5966 15.1307 67.5966 14.3636C67.5966 13.5966 67.7351 12.9337 68.0121 12.375C68.2891 11.8163 68.669 11.3854 69.152 11.0824C69.6349 10.7794 70.1866 10.6278 70.8068 10.6278C71.1738 10.6278 71.5182 10.6811 71.8402 10.7876C72.1645 10.8942 72.4569 11.0504 72.7173 11.2564C72.9777 11.46 73.1955 11.7086 73.3707 12.0021C73.5459 12.2933 73.6667 12.6259 73.733 13ZM76.6475 18.1278C76.3019 18.1278 75.9882 18.0627 75.7065 17.9325C75.4248 17.8 75.2011 17.6094 75.0353 17.3608C74.8696 17.1098 74.7868 16.8068 74.7868 16.4517C74.7868 16.1392 74.8483 15.8859 74.9714 15.6918C75.0945 15.4953 75.2591 15.3414 75.465 15.2301C75.671 15.1188 75.8983 15.036 76.1468 14.9815C76.3978 14.9247 76.6499 14.8797 76.9032 14.8466C77.2347 14.804 77.5034 14.772 77.7093 14.7507C77.9177 14.727 78.0692 14.688 78.1639 14.6335C78.2609 14.5791 78.3095 14.4844 78.3095 14.3494V14.321C78.3095 13.9706 78.2136 13.6984 78.0218 13.5043C77.8324 13.3101 77.5448 13.2131 77.1589 13.2131C76.7588 13.2131 76.4451 13.3007 76.2179 13.4759C75.9906 13.651 75.8308 13.8381 75.7385 14.0369L74.943 13.7528C75.085 13.4214 75.2744 13.1634 75.5112 12.9787C75.7503 12.7917 76.0107 12.6615 76.2924 12.5881C76.5765 12.5123 76.8559 12.4744 77.1305 12.4744C77.3057 12.4744 77.5069 12.4957 77.7342 12.5384C77.9638 12.5786 78.1852 12.6626 78.3983 12.7905C78.6137 12.9183 78.7924 13.1113 78.9345 13.3693C79.0765 13.6274 79.1475 13.973 79.1475 14.4062V18H78.3095V17.2614H78.2669C78.21 17.3797 78.1154 17.5064 77.9828 17.6413C77.8502 17.7763 77.6738 17.8911 77.4537 17.9858C77.2335 18.0805 76.9648 18.1278 76.6475 18.1278ZM76.7754 17.375C77.1068 17.375 77.3862 17.3099 77.6135 17.1797C77.8431 17.0495 78.0159 16.8814 78.1319 16.6754C78.2503 16.4695 78.3095 16.2528 78.3095 16.0256V15.2585C78.274 15.3011 78.1958 15.3402 78.0751 15.3757C77.9567 15.4089 77.8194 15.4384 77.6632 15.4645C77.5093 15.4882 77.359 15.5095 77.2122 15.5284C77.0678 15.545 76.9506 15.5592 76.8606 15.571C76.6428 15.5994 76.4392 15.6456 76.2498 15.7095C76.0628 15.7711 75.9113 15.8646 75.7953 15.9901C75.6816 16.1132 75.6248 16.2812 75.6248 16.4943C75.6248 16.7855 75.7325 17.0057 75.948 17.1548C76.1658 17.3016 76.4416 17.375 76.7754 17.375ZM81.5153 10.7273V18H80.6772V10.7273H81.5153ZM85.3372 18.1136C84.8116 18.1136 84.3583 17.9976 83.9771 17.7656C83.5983 17.5312 83.3059 17.2045 83.1 16.7855C82.8964 16.3641 82.7946 15.8741 82.7946 15.3153C82.7946 14.7566 82.8964 14.2642 83.1 13.8381C83.3059 13.4096 83.5924 13.0758 83.9593 12.8366C84.3287 12.5952 84.7595 12.4744 85.252 12.4744C85.536 12.4744 85.8166 12.5218 86.0936 12.6165C86.3706 12.7112 86.6227 12.8651 86.85 13.0781C87.0772 13.2888 87.2583 13.5682 87.3933 13.9162C87.5282 14.2642 87.5957 14.6927 87.5957 15.2017V15.5568H83.3912V14.8324H86.7434C86.7434 14.5246 86.6819 14.25 86.5588 14.0085C86.438 13.767 86.2652 13.5765 86.0403 13.4368C85.8178 13.2971 85.555 13.2273 85.252 13.2273C84.9181 13.2273 84.6293 13.3101 84.3855 13.4759C84.144 13.6392 83.9582 13.8523 83.8279 14.1151C83.6977 14.3778 83.6326 14.6596 83.6326 14.9602V15.4432C83.6326 15.8551 83.7037 16.2043 83.8457 16.4908C83.9901 16.7749 84.1902 16.9915 84.4458 17.1406C84.7015 17.2874 84.9986 17.3608 85.3372 17.3608C85.5574 17.3608 85.7562 17.33 85.9338 17.2685C86.1137 17.2045 86.2688 17.1098 86.399 16.9844C86.5292 16.8565 86.6298 16.6979 86.7008 16.5085L87.5105 16.7358C87.4252 17.0104 87.282 17.2519 87.0808 17.4602C86.8796 17.6662 86.631 17.8272 86.335 17.9432C86.0391 18.0568 85.7065 18.1136 85.3372 18.1136ZM89.7086 14.7188V18H88.8706V12.5455H89.6802V13.3977H89.7512C89.8791 13.1207 90.0732 12.8982 90.3336 12.7301C90.594 12.5597 90.9302 12.4744 91.3422 12.4744C91.7115 12.4744 92.0346 12.5502 92.3116 12.7017C92.5886 12.8509 92.804 13.0781 92.9579 13.3835C93.1118 13.6866 93.1887 14.0701 93.1887 14.5341V18H92.3507V14.5909C92.3507 14.1624 92.2394 13.8286 92.0169 13.5895C91.7943 13.348 91.4889 13.2273 91.1007 13.2273C90.8332 13.2273 90.594 13.2853 90.3833 13.4013C90.175 13.5173 90.0105 13.6866 89.8897 13.9091C89.769 14.1316 89.7086 14.4015 89.7086 14.7188ZM96.7798 18.1136C96.3253 18.1136 95.924 17.9988 95.576 17.7692C95.228 17.5372 94.9557 17.2105 94.7592 16.7891C94.5627 16.3653 94.4645 15.8646 94.4645 15.2869C94.4645 14.714 94.5627 14.2169 94.7592 13.7955C94.9557 13.3741 95.2292 13.0485 95.5795 12.8189C95.9299 12.5893 96.3348 12.4744 96.794 12.4744C97.1491 12.4744 97.4297 12.5336 97.6357 12.652C97.844 12.768 98.0026 12.9006 98.1115 13.0497C98.2228 13.1965 98.3092 13.3172 98.3707 13.4119H98.4418V10.7273H99.2798V18H98.4702V17.1619H98.3707C98.3092 17.2614 98.2216 17.3868 98.108 17.5384C97.9943 17.6875 97.8321 17.8213 97.6214 17.9396C97.4107 18.0556 97.1302 18.1136 96.7798 18.1136ZM96.8935 17.3608C97.2296 17.3608 97.5137 17.2732 97.7457 17.098C97.9777 16.9205 98.1541 16.6754 98.2749 16.3629C98.3956 16.0481 98.456 15.6847 98.456 15.2727C98.456 14.8655 98.3968 14.5092 98.2784 14.2038C98.16 13.8961 97.9848 13.657 97.7528 13.4865C97.5208 13.3137 97.2344 13.2273 96.8935 13.2273C96.5384 13.2273 96.2424 13.3184 96.0057 13.5007C95.7713 13.6806 95.5949 13.9257 95.4766 14.2358C95.3606 14.5436 95.3026 14.8892 95.3026 15.2727C95.3026 15.661 95.3617 16.0137 95.4801 16.331C95.6009 16.6458 95.7784 16.8968 96.0128 17.0838C96.2495 17.2685 96.5431 17.3608 96.8935 17.3608ZM102.536 18.1278C102.191 18.1278 101.877 18.0627 101.595 17.9325C101.313 17.8 101.09 17.6094 100.924 17.3608C100.758 17.1098 100.675 16.8068 100.675 16.4517C100.675 16.1392 100.737 15.8859 100.86 15.6918C100.983 15.4953 101.148 15.3414 101.354 15.2301C101.56 15.1188 101.787 15.036 102.036 14.9815C102.286 14.9247 102.539 14.8797 102.792 14.8466C103.123 14.804 103.392 14.772 103.598 14.7507C103.806 14.727 103.958 14.688 104.053 14.6335C104.15 14.5791 104.198 14.4844 104.198 14.3494V14.321C104.198 13.9706 104.102 13.6984 103.911 13.5043C103.721 13.3101 103.433 13.2131 103.048 13.2131C102.647 13.2131 102.334 13.3007 102.107 13.4759C101.879 13.651 101.719 13.8381 101.627 14.0369L100.832 13.7528C100.974 13.4214 101.163 13.1634 101.4 12.9787C101.639 12.7917 101.899 12.6615 102.181 12.5881C102.465 12.5123 102.745 12.4744 103.019 12.4744C103.194 12.4744 103.396 12.4957 103.623 12.5384C103.853 12.5786 104.074 12.6626 104.287 12.7905C104.502 12.9183 104.681 13.1113 104.823 13.3693C104.965 13.6274 105.036 13.973 105.036 14.4062V18H104.198V17.2614H104.156C104.099 17.3797 104.004 17.5064 103.871 17.6413C103.739 17.7763 103.563 17.8911 103.342 17.9858C103.122 18.0805 102.853 18.1278 102.536 18.1278ZM102.664 17.375C102.996 17.375 103.275 17.3099 103.502 17.1797C103.732 17.0495 103.905 16.8814 104.021 16.6754C104.139 16.4695 104.198 16.2528 104.198 16.0256V15.2585C104.163 15.3011 104.085 15.3402 103.964 15.3757C103.845 15.4089 103.708 15.4384 103.552 15.4645C103.398 15.4882 103.248 15.5095 103.101 15.5284C102.956 15.545 102.839 15.5592 102.749 15.571C102.531 15.5994 102.328 15.6456 102.138 15.7095C101.951 15.7711 101.8 15.8646 101.684 15.9901C101.57 16.1132 101.513 16.2812 101.513 16.4943C101.513 16.7855 101.621 17.0057 101.837 17.1548C102.054 17.3016 102.33 17.375 102.664 17.375ZM106.566 18V12.5455H107.376V13.3693H107.432C107.532 13.0994 107.712 12.8804 107.972 12.7124C108.233 12.5443 108.526 12.4602 108.853 12.4602C108.914 12.4602 108.991 12.4614 109.084 12.4638C109.176 12.4661 109.246 12.4697 109.293 12.4744V13.3267C109.265 13.3196 109.2 13.3089 109.098 13.2947C108.998 13.2782 108.893 13.2699 108.782 13.2699C108.517 13.2699 108.28 13.3255 108.072 13.4368C107.866 13.5457 107.702 13.6972 107.581 13.8913C107.463 14.0831 107.404 14.3021 107.404 14.5483V18H106.566Z" fill="#E11D48"/>
<line x1="34.5" y1="24" x2="34.5" y2="90" stroke="#B4B4B4"/>
<line x1="52.7" y1="24" x2="52.7" y2="90" stroke="#B4B4B4"/>
<line x1="70.9" y1="24" x2="70.9" y2="90" stroke="#B4B4B4"/>
<line x1="89.1" y1="24" x2="89.1" y2="90" stroke="#B4B4B4"/>
<line x1="107.3" y1="24" x2="107.3" y2="90" stroke="#B4B4B4"/>
<line x1="125.5" y1="24" x2="125.5" y2="90" stroke="#B4B4B4"/>
<path d="M22.9432 27.8182C22.9261 27.6742 22.857 27.5625 22.7358 27.483C22.6146 27.4034 22.4659 27.3636 22.2898 27.3636C22.161 27.3636 22.0483 27.3845 21.9517 27.4261C21.8561 27.4678 21.7813 27.5251 21.7273 27.598C21.6742 27.6709 21.6477 27.7538 21.6477 27.8466C21.6477 27.9242 21.6662 27.991 21.7031 28.0469C21.741 28.1018 21.7893 28.1477 21.848 28.1847C21.9067 28.2206 21.9683 28.2505 22.0327 28.2741C22.0971 28.2969 22.1562 28.3153 22.2102 28.3295L22.5057 28.4091C22.5814 28.429 22.6657 28.4564 22.7585 28.4915C22.8523 28.5265 22.9418 28.5743 23.027 28.6349C23.1132 28.6946 23.1842 28.7713 23.2401 28.8651C23.2959 28.9588 23.3239 29.0739 23.3239 29.2102C23.3239 29.3674 23.2827 29.5095 23.2003 29.6364C23.1188 29.7633 22.9995 29.8641 22.8423 29.9389C22.6861 30.0137 22.4962 30.0511 22.2727 30.0511C22.0644 30.0511 21.884 30.0175 21.7315 29.9503C21.58 29.883 21.4607 29.7893 21.3736 29.669C21.2874 29.5488 21.2386 29.4091 21.2273 29.25H21.5909C21.6004 29.3598 21.6373 29.4508 21.7017 29.5227C21.767 29.5937 21.8494 29.6468 21.9489 29.6818C22.0492 29.7159 22.1572 29.733 22.2727 29.733C22.4072 29.733 22.5279 29.7112 22.6349 29.6676C22.742 29.6231 22.8267 29.5616 22.8892 29.483C22.9517 29.4034 22.983 29.3106 22.983 29.2045C22.983 29.108 22.956 29.0294 22.902 28.9688C22.848 28.9081 22.777 28.8589 22.6889 28.821C22.6009 28.7831 22.5057 28.75 22.4034 28.7216L22.0455 28.6193C21.8182 28.554 21.6383 28.4607 21.5057 28.3395C21.3731 28.2183 21.3068 28.0597 21.3068 27.8636C21.3068 27.7008 21.3509 27.5587 21.4389 27.4375C21.5279 27.3153 21.6473 27.2206 21.7969 27.1534C21.9474 27.0852 22.1155 27.0511 22.3011 27.0511C22.4886 27.0511 22.6553 27.0848 22.8011 27.152C22.947 27.2183 23.0625 27.3092 23.1477 27.4247C23.2339 27.5402 23.2794 27.6714 23.2841 27.8182H22.9432ZM25.2326 29.108V27.8182H25.5678V30H25.2326V29.6307H25.2099C25.1587 29.7415 25.0792 29.8357 24.9712 29.9134C24.8633 29.9901 24.7269 30.0284 24.5621 30.0284C24.4258 30.0284 24.3046 29.9986 24.1985 29.9389C24.0924 29.8783 24.0091 29.7874 23.9485 29.6662C23.8879 29.544 23.8576 29.3902 23.8576 29.2045V27.8182H24.1928V29.1818C24.1928 29.3409 24.2373 29.4678 24.3263 29.5625C24.4163 29.6572 24.5309 29.7045 24.6701 29.7045C24.7534 29.7045 24.8382 29.6832 24.9244 29.6406C25.0115 29.598 25.0844 29.5327 25.1431 29.4446C25.2028 29.3565 25.2326 29.2443 25.2326 29.108ZM26.517 28.6875V30H26.1818V27.8182H26.5057V28.1591H26.5341C26.5852 28.0483 26.6629 27.9593 26.767 27.892C26.8712 27.8239 27.0057 27.7898 27.1705 27.7898C27.3182 27.7898 27.4474 27.8201 27.5582 27.8807C27.669 27.9403 27.7552 28.0312 27.8168 28.1534C27.8783 28.2746 27.9091 28.428 27.9091 28.6136V30H27.5739V28.6364C27.5739 28.465 27.5294 28.3314 27.4403 28.2358C27.3513 28.1392 27.2292 28.0909 27.0739 28.0909C26.9669 28.0909 26.8712 28.1141 26.7869 28.1605C26.7036 28.2069 26.6378 28.2746 26.5895 28.3636C26.5412 28.4527 26.517 28.5606 26.517 28.6875Z" fill="black"/>
<path d="M40.3523 27.0909H40.7727L41.7614 29.5057H41.7955L42.7841 27.0909H43.2045V30H42.875V27.7898H42.8466L41.9375 30H41.6193L40.7102 27.7898H40.6818V30H40.3523V27.0909ZM44.7518 30.0455C44.5548 30.0455 44.382 29.9986 44.2333 29.9048C44.0856 29.8111 43.9701 29.6799 43.8867 29.5114C43.8043 29.3428 43.7631 29.1458 43.7631 28.9205C43.7631 28.6932 43.8043 28.4948 43.8867 28.3253C43.9701 28.1558 44.0856 28.0241 44.2333 27.9304C44.382 27.8366 44.5548 27.7898 44.7518 27.7898C44.9487 27.7898 45.1211 27.8366 45.2688 27.9304C45.4175 28.0241 45.533 28.1558 45.6154 28.3253C45.6987 28.4948 45.7404 28.6932 45.7404 28.9205C45.7404 29.1458 45.6987 29.3428 45.6154 29.5114C45.533 29.6799 45.4175 29.8111 45.2688 29.9048C45.1211 29.9986 44.9487 30.0455 44.7518 30.0455ZM44.7518 29.7443C44.9014 29.7443 45.0245 29.706 45.1211 29.6293C45.2177 29.5526 45.2892 29.4517 45.3356 29.3267C45.382 29.2017 45.4052 29.0663 45.4052 28.9205C45.4052 28.7746 45.382 28.6387 45.3356 28.5128C45.2892 28.3868 45.2177 28.285 45.1211 28.2074C45.0245 28.1297 44.9014 28.0909 44.7518 28.0909C44.6022 28.0909 44.479 28.1297 44.3825 28.2074C44.2859 28.285 44.2144 28.3868 44.168 28.5128C44.1216 28.6387 44.0984 28.7746 44.0984 28.9205C44.0984 29.0663 44.1216 29.2017 44.168 29.3267C44.2144 29.4517 44.2859 29.5526 44.3825 29.6293C44.479 29.706 44.6022 29.7443 44.7518 29.7443ZM46.5874 28.6875V30H46.2521V27.8182H46.576V28.1591H46.6044C46.6555 28.0483 46.7332 27.9593 46.8374 27.892C46.9415 27.8239 47.076 27.7898 47.2408 27.7898C47.3885 27.7898 47.5178 27.8201 47.6286 27.8807C47.7393 27.9403 47.8255 28.0312 47.8871 28.1534C47.9486 28.2746 47.9794 28.428 47.9794 28.6136V30H47.6442V28.6364C47.6442 28.465 47.5997 28.3314 47.5107 28.2358C47.4216 28.1392 47.2995 28.0909 47.1442 28.0909C47.0372 28.0909 46.9415 28.1141 46.8572 28.1605C46.7739 28.2069 46.7081 28.2746 46.6598 28.3636C46.6115 28.4527 46.5874 28.5606 46.5874 28.6875Z" fill="black"/>
<path d="M57.1932 27.4034V27.0909H59.375V27.4034H58.4602V30H58.108V27.4034H57.1932ZM60.9513 29.108V27.8182H61.2866V30H60.9513V29.6307H60.9286C60.8775 29.7415 60.7979 29.8357 60.69 29.9134C60.582 29.9901 60.4457 30.0284 60.2809 30.0284C60.1445 30.0284 60.0233 29.9986 59.9173 29.9389C59.8112 29.8783 59.7279 29.7874 59.6673 29.6662C59.6067 29.544 59.5763 29.3902 59.5763 29.2045V27.8182H59.9116V29.1818C59.9116 29.3409 59.9561 29.4678 60.0451 29.5625C60.1351 29.6572 60.2496 29.7045 60.3888 29.7045C60.4722 29.7045 60.5569 29.6832 60.6431 29.6406C60.7302 29.598 60.8031 29.5327 60.8619 29.4446C60.9215 29.3565 60.9513 29.2443 60.9513 29.108ZM62.8153 30.0455C62.6051 30.0455 62.4238 29.9991 62.2713 29.9062C62.1198 29.8125 62.0028 29.6818 61.9205 29.5142C61.839 29.3456 61.7983 29.1496 61.7983 28.9261C61.7983 28.7027 61.839 28.5057 61.9205 28.3352C62.0028 28.1638 62.1174 28.0303 62.2642 27.9347C62.4119 27.8381 62.5843 27.7898 62.7812 27.7898C62.8949 27.7898 63.0071 27.8087 63.1179 27.8466C63.2287 27.8845 63.3295 27.946 63.4205 28.0312C63.5114 28.1155 63.5838 28.2273 63.6378 28.3665C63.6918 28.5057 63.7188 28.6771 63.7188 28.8807V29.0227H62.0369V28.733H63.3778C63.3778 28.6098 63.3532 28.5 63.304 28.4034C63.2557 28.3068 63.1866 28.2306 63.0966 28.1747C63.0076 28.1188 62.9025 28.0909 62.7812 28.0909C62.6477 28.0909 62.5322 28.1241 62.4347 28.1903C62.3381 28.2557 62.2637 28.3409 62.2116 28.446C62.1596 28.5511 62.1335 28.6638 62.1335 28.7841V28.9773C62.1335 29.142 62.1619 29.2817 62.2188 29.3963C62.2765 29.5099 62.3565 29.5966 62.4588 29.6562C62.5611 29.715 62.6799 29.7443 62.8153 29.7443C62.9034 29.7443 62.983 29.732 63.054 29.7074C63.1259 29.6818 63.188 29.6439 63.2401 29.5938C63.2921 29.5426 63.3324 29.4792 63.3608 29.4034L63.6847 29.4943C63.6506 29.6042 63.5933 29.7008 63.5128 29.7841C63.4323 29.8665 63.3329 29.9309 63.2145 29.9773C63.0961 30.0227 62.9631 30.0455 62.8153 30.0455Z" fill="black"/>
<path d="M76.8807 30L76.0852 27.0909H76.4432L77.0511 29.4602H77.0795L77.6989 27.0909H78.0966L78.7159 29.4602H78.7443L79.3523 27.0909H79.7102L78.9148 30H78.5511L77.9091 27.6818H77.8864L77.2443 30H76.8807ZM80.8153 30.0455C80.6051 30.0455 80.4238 29.9991 80.2713 29.9062C80.1198 29.8125 80.0028 29.6818 79.9205 29.5142C79.839 29.3456 79.7983 29.1496 79.7983 28.9261C79.7983 28.7027 79.839 28.5057 79.9205 28.3352C80.0028 28.1638 80.1174 28.0303 80.2642 27.9347C80.4119 27.8381 80.5843 27.7898 80.7812 27.7898C80.8949 27.7898 81.0071 27.8087 81.1179 27.8466C81.2287 27.8845 81.3295 27.946 81.4205 28.0312C81.5114 28.1155 81.5838 28.2273 81.6378 28.3665C81.6918 28.5057 81.7188 28.6771 81.7188 28.8807V29.0227H80.0369V28.733H81.3778C81.3778 28.6098 81.3532 28.5 81.304 28.4034C81.2557 28.3068 81.1866 28.2306 81.0966 28.1747C81.0076 28.1188 80.9025 28.0909 80.7812 28.0909C80.6477 28.0909 80.5322 28.1241 80.4347 28.1903C80.3381 28.2557 80.2637 28.3409 80.2116 28.446C80.1596 28.5511 80.1335 28.6638 80.1335 28.7841V28.9773C80.1335 29.142 80.1619 29.2817 80.2188 29.3963C80.2765 29.5099 80.3565 29.5966 80.4588 29.6562C80.5611 29.715 80.6799 29.7443 80.8153 29.7443C80.9034 29.7443 80.983 29.732 81.054 29.7074C81.1259 29.6818 81.188 29.6439 81.2401 29.5938C81.2921 29.5426 81.3324 29.4792 81.3608 29.4034L81.6847 29.4943C81.6506 29.6042 81.5933 29.7008 81.5128 29.7841C81.4323 29.8665 81.3329 29.9309 81.2145 29.9773C81.0961 30.0227 80.9631 30.0455 80.8153 30.0455ZM83.0526 30.0455C82.8707 30.0455 82.7102 29.9995 82.571 29.9077C82.4318 29.8149 82.3229 29.6842 82.2443 29.5156C82.1657 29.3461 82.1264 29.1458 82.1264 28.9148C82.1264 28.6856 82.1657 28.4867 82.2443 28.3182C82.3229 28.1496 82.4323 28.0194 82.5724 27.9276C82.7126 27.8357 82.8745 27.7898 83.0582 27.7898C83.2003 27.7898 83.3125 27.8134 83.3949 27.8608C83.4782 27.9072 83.5417 27.9602 83.5852 28.0199C83.6297 28.0786 83.6643 28.1269 83.6889 28.1648H83.7173V27.0909H84.0526V30H83.7287V29.6648H83.6889C83.6643 29.7045 83.6293 29.7547 83.5838 29.8153C83.5384 29.875 83.4735 29.9285 83.3892 29.9759C83.3049 30.0223 83.1927 30.0455 83.0526 30.0455ZM83.098 29.7443C83.2325 29.7443 83.3461 29.7093 83.4389 29.6392C83.5317 29.5682 83.6023 29.4702 83.6506 29.3452C83.6989 29.2192 83.723 29.0739 83.723 28.9091C83.723 28.7462 83.6993 28.6037 83.652 28.4815C83.6046 28.3584 83.5346 28.2628 83.4418 28.1946C83.349 28.1255 83.2344 28.0909 83.098 28.0909C82.956 28.0909 82.8376 28.1274 82.7429 28.2003C82.6491 28.2723 82.5786 28.3703 82.5312 28.4943C82.4848 28.6174 82.4616 28.7557 82.4616 28.9091C82.4616 29.0644 82.4853 29.2055 82.5327 29.3324C82.581 29.4583 82.652 29.5587 82.7457 29.6335C82.8404 29.7074 82.9579 29.7443 83.098 29.7443Z" fill="black"/>
<path d="M94.1932 27.4034V27.0909H96.375V27.4034H95.4602V30H95.108V27.4034H94.1932ZM97.2085 28.6875V30H96.8732V27.0909H97.2085V28.1591H97.2369C97.288 28.0464 97.3647 27.9569 97.467 27.8906C97.5702 27.8234 97.7075 27.7898 97.8789 27.7898C98.0276 27.7898 98.1578 27.8196 98.2695 27.8793C98.3813 27.938 98.4679 28.0284 98.5295 28.1506C98.592 28.2718 98.6232 28.4261 98.6232 28.6136V30H98.288V28.6364C98.288 28.4631 98.243 28.3291 98.1531 28.2344C98.064 28.1387 97.9405 28.0909 97.7823 28.0909C97.6725 28.0909 97.574 28.1141 97.4869 28.1605C97.4007 28.2069 97.3325 28.2746 97.2823 28.3636C97.2331 28.4527 97.2085 28.5606 97.2085 28.6875ZM100.612 29.108V27.8182H100.947V30H100.612V29.6307H100.589C100.538 29.7415 100.458 29.8357 100.35 29.9134C100.242 29.9901 100.106 30.0284 99.9411 30.0284C99.8047 30.0284 99.6835 29.9986 99.5774 29.9389C99.4714 29.8783 99.388 29.7874 99.3274 29.6662C99.2668 29.544 99.2365 29.3902 99.2365 29.2045V27.8182H99.5717V29.1818C99.5717 29.3409 99.6162 29.4678 99.7053 29.5625C99.7952 29.6572 99.9098 29.7045 100.049 29.7045C100.132 29.7045 100.217 29.6832 100.303 29.6406C100.39 29.598 100.463 29.5327 100.522 29.4446C100.582 29.3565 100.612 29.2443 100.612 29.108Z" fill="black"/>
<path d="M112.352 30V27.0909H114.097V27.4034H112.705V28.3864H113.966V28.6989H112.705V30H112.352ZM114.631 30V27.8182H114.955V28.1477H114.978C115.017 28.0398 115.089 27.9522 115.194 27.8849C115.298 27.8177 115.415 27.7841 115.546 27.7841C115.57 27.7841 115.601 27.7846 115.638 27.7855C115.675 27.7865 115.703 27.7879 115.722 27.7898V28.1307C115.711 28.1278 115.685 28.1236 115.644 28.1179C115.604 28.1113 115.562 28.108 115.517 28.108C115.411 28.108 115.317 28.1302 115.233 28.1747C115.151 28.2183 115.086 28.2789 115.037 28.3565C114.99 28.4332 114.966 28.5208 114.966 28.6193V30H114.631ZM116.119 30V27.8182H116.455V30H116.119ZM116.29 27.4545C116.224 27.4545 116.168 27.4323 116.121 27.3878C116.074 27.3433 116.051 27.2898 116.051 27.2273C116.051 27.1648 116.074 27.1113 116.121 27.0668C116.168 27.0223 116.224 27 116.29 27C116.355 27 116.411 27.0223 116.457 27.0668C116.505 27.1113 116.528 27.1648 116.528 27.2273C116.528 27.2898 116.505 27.3433 116.457 27.3878C116.411 27.4323 116.355 27.4545 116.29 27.4545Z" fill="black"/>
<path d="M131.943 27.8182C131.926 27.6742 131.857 27.5625 131.736 27.483C131.615 27.4034 131.466 27.3636 131.29 27.3636C131.161 27.3636 131.048 27.3845 130.952 27.4261C130.856 27.4678 130.781 27.5251 130.727 27.598C130.674 27.6709 130.648 27.7538 130.648 27.8466C130.648 27.9242 130.666 27.991 130.703 28.0469C130.741 28.1018 130.789 28.1477 130.848 28.1847C130.907 28.2206 130.968 28.2505 131.033 28.2741C131.097 28.2969 131.156 28.3153 131.21 28.3295L131.506 28.4091C131.581 28.429 131.666 28.4564 131.759 28.4915C131.852 28.5265 131.942 28.5743 132.027 28.6349C132.113 28.6946 132.184 28.7713 132.24 28.8651C132.296 28.9588 132.324 29.0739 132.324 29.2102C132.324 29.3674 132.283 29.5095 132.2 29.6364C132.119 29.7633 132 29.8641 131.842 29.9389C131.686 30.0137 131.496 30.0511 131.273 30.0511C131.064 30.0511 130.884 30.0175 130.732 29.9503C130.58 29.883 130.461 29.7893 130.374 29.669C130.287 29.5488 130.239 29.4091 130.227 29.25H130.591C130.6 29.3598 130.637 29.4508 130.702 29.5227C130.767 29.5937 130.849 29.6468 130.949 29.6818C131.049 29.7159 131.157 29.733 131.273 29.733C131.407 29.733 131.528 29.7112 131.635 29.6676C131.742 29.6231 131.827 29.5616 131.889 29.483C131.952 29.4034 131.983 29.3106 131.983 29.2045C131.983 29.108 131.956 29.0294 131.902 28.9688C131.848 28.9081 131.777 28.8589 131.689 28.821C131.601 28.7831 131.506 28.75 131.403 28.7216L131.045 28.6193C130.818 28.554 130.638 28.4607 130.506 28.3395C130.373 28.2183 130.307 28.0597 130.307 27.8636C130.307 27.7008 130.351 27.5587 130.439 27.4375C130.528 27.3153 130.647 27.2206 130.797 27.1534C130.947 27.0852 131.116 27.0511 131.301 27.0511C131.489 27.0511 131.655 27.0848 131.801 27.152C131.947 27.2183 132.063 27.3092 132.148 27.4247C132.234 27.5402 132.279 27.6714 132.284 27.8182H131.943ZM133.5 30.0511C133.361 30.0511 133.236 30.0251 133.123 29.973C133.011 29.92 132.921 29.8438 132.855 29.7443C132.788 29.6439 132.755 29.5227 132.755 29.3807C132.755 29.2557 132.78 29.1544 132.829 29.0767C132.878 28.9981 132.944 28.9366 133.027 28.892C133.109 28.8475 133.2 28.8144 133.299 28.7926C133.4 28.7699 133.501 28.7519 133.602 28.7386C133.734 28.7216 133.842 28.7088 133.924 28.7003C134.008 28.6908 134.068 28.6752 134.106 28.6534C134.145 28.6316 134.164 28.5937 134.164 28.5398V28.5284C134.164 28.3883 134.126 28.2794 134.049 28.2017C133.974 28.1241 133.859 28.0852 133.704 28.0852C133.544 28.0852 133.419 28.1203 133.328 28.1903C133.237 28.2604 133.173 28.3352 133.136 28.4148L132.818 28.3011C132.875 28.1686 132.95 28.0653 133.045 27.9915C133.141 27.9167 133.245 27.8646 133.358 27.8352C133.471 27.8049 133.583 27.7898 133.693 27.7898C133.763 27.7898 133.843 27.7983 133.934 27.8153C134.026 27.8314 134.115 27.8651 134.2 27.9162C134.286 27.9673 134.358 28.0445 134.414 28.1477C134.471 28.2509 134.5 28.3892 134.5 28.5625V30H134.164V29.7045H134.147C134.125 29.7519 134.087 29.8026 134.034 29.8565C133.981 29.9105 133.91 29.9564 133.822 29.9943C133.734 30.0322 133.627 30.0511 133.5 30.0511ZM133.551 29.75C133.683 29.75 133.795 29.724 133.886 29.6719C133.978 29.6198 134.047 29.5526 134.093 29.4702C134.141 29.3878 134.164 29.3011 134.164 29.2102V28.9034C134.15 28.9205 134.119 28.9361 134.071 28.9503C134.023 28.9635 133.968 28.9754 133.906 28.9858C133.844 28.9953 133.784 29.0038 133.725 29.0114C133.668 29.018 133.621 29.0237 133.585 29.0284C133.498 29.0398 133.416 29.0582 133.341 29.0838C133.266 29.1084 133.205 29.1458 133.159 29.196C133.113 29.2453 133.091 29.3125 133.091 29.3977C133.091 29.5142 133.134 29.6023 133.22 29.6619C133.307 29.7206 133.417 29.75 133.551 29.75ZM136.06 27.8182V28.1023H134.93V27.8182H136.06ZM135.259 27.2955H135.594V29.375C135.594 29.4697 135.608 29.5407 135.636 29.5881C135.664 29.6345 135.7 29.6657 135.744 29.6818C135.788 29.697 135.835 29.7045 135.884 29.7045C135.921 29.7045 135.951 29.7027 135.975 29.6989C135.999 29.6941 136.018 29.6903 136.032 29.6875L136.1 29.9886C136.077 29.9972 136.046 30.0057 136.005 30.0142C135.964 30.0237 135.913 30.0284 135.85 30.0284C135.755 30.0284 135.663 30.008 135.572 29.9673C135.482 29.9266 135.407 29.8646 135.347 29.7812C135.289 29.6979 135.259 29.5928 135.259 29.4659V27.2955Z" fill="black"/>
<path d="M113 38H120" stroke="#64748B" stroke-linecap="round"/>
<path d="M131 38H138" stroke="#64748B" stroke-linecap="round"/>
<path d="M22 48H29" stroke="#64748B" stroke-linecap="round"/>
<path d="M40 48H47" stroke="#64748B" stroke-linecap="round"/>
<path d="M59 48H66" stroke="#64748B" stroke-linecap="round"/>
<path d="M77 48H84" stroke="#64748B" stroke-linecap="round"/>
<path d="M95 48H102" stroke="#64748B" stroke-linecap="round"/>
<path d="M113 48H120" stroke="#64748B" stroke-linecap="round"/>
<path d="M131 48H138" stroke="#64748B" stroke-linecap="round"/>
<path d="M22 58H29" stroke="#64748B" stroke-linecap="round"/>
<path d="M40 58H47" stroke="#64748B" stroke-linecap="round"/>
<path d="M59 58H66" stroke="#64748B" stroke-linecap="round"/>
<path d="M77 58H84" stroke="#64748B" stroke-linecap="round"/>
<path d="M95 58H102" stroke="#64748B" stroke-linecap="round"/>
<path d="M113 58H120" stroke="#64748B" stroke-linecap="round"/>
<path d="M131 58H138" stroke="#64748B" stroke-linecap="round"/>
<path d="M22 67H29" stroke="#64748B" stroke-linecap="round"/>
<path d="M40 67H47" stroke="#64748B" stroke-linecap="round"/>
<path d="M59 67H66" stroke="#64748B" stroke-linecap="round"/>
<path d="M77 67H84" stroke="#64748B" stroke-linecap="round"/>
<path d="M95 67H102" stroke="#64748B" stroke-linecap="round"/>
<path d="M113 67H120" stroke="#64748B" stroke-linecap="round"/>
<path d="M131 67H138" stroke="#64748B" stroke-linecap="round"/>
<path d="M22 77H29" stroke="#64748B" stroke-linecap="round"/>
<path d="M40 77H47" stroke="#64748B" stroke-linecap="round"/>
<path d="M59 77H66" stroke="#64748B" stroke-linecap="round"/>
<path d="M77 77H84" stroke="#64748B" stroke-linecap="round"/>
<path d="M95 77H102" stroke="#64748B" stroke-linecap="round"/>
<path d="M113 77H120" stroke="#64748B" stroke-linecap="round"/>
<path d="M131 77H138" stroke="#64748B" stroke-linecap="round"/>
<path d="M22 86H29" stroke="#64748B" stroke-linecap="round"/>
</svg>
