<svg width="160" height="100" viewBox="0 0 160 100" fill="none" xmlns="http://www.w3.org/2000/svg">
<rect x="0.05" y="0.05" width="159.9" height="99.9" rx="4.95" stroke="#94A3B8" stroke-width="0.1"/>
<path d="M80.5 34C80.5 33.7239 80.2761 33.5 80 33.5C79.7239 33.5 79.5 33.7239 79.5 34H80.5ZM80.5 49V34H79.5V49H80.5Z" fill="#E11D48"/>
<path d="M97.9354 37.396C98.1541 37.2273 98.1946 36.9134 98.026 36.6947C97.8574 36.476 97.5434 36.4354 97.3247 36.604L97.9354 37.396ZM81.3053 50.2194L97.9354 37.396L97.3247 36.604L80.6947 49.4275L81.3053 50.2194Z" fill="#1DBEE1"/>
<path d="M51 49.5C50.7239 49.5 50.5 49.7239 50.5 50C50.5 50.2761 50.7239 50.5 51 50.5L51 49.5ZM81 49.5L51 49.5L51 50.5L81 50.5L81 49.5Z" fill="#64748B"/>
<circle cx="80" cy="50" r="35.5" stroke="#64748B"/>
<circle cx="80" cy="50" r="2" fill="#64748B"/>
</svg>
