<svg width="160" height="100" viewBox="0 0 160 100" fill="none" xmlns="http://www.w3.org/2000/svg">
<rect x="0.05" y="0.05" width="159.9" height="99.9" rx="4.95" stroke="#94A3B8" stroke-width="0.1"/>
<path d="M20.6023 83.5341V83.8864C20.286 83.8864 20.0644 83.9527 19.9375 84.0852C19.8125 84.2178 19.75 84.4394 19.75 84.75V85.6591C19.75 85.9205 19.7244 86.1468 19.6733 86.3381C19.6241 86.5294 19.5426 86.6875 19.429 86.8125C19.3153 86.9375 19.1638 87.0303 18.9744 87.0909C18.785 87.1515 18.5511 87.1818 18.2727 87.1818V86.625C18.4924 86.625 18.6648 86.59 18.7898 86.5199C18.9167 86.4517 19.0057 86.3466 19.0568 86.2045C19.1098 86.0625 19.1364 85.8807 19.1364 85.6591V84.5227C19.1364 84.375 19.1553 84.2405 19.1932 84.1193C19.233 83.9981 19.3049 83.8939 19.4091 83.8068C19.5133 83.7197 19.661 83.6525 19.8523 83.6051C20.0455 83.5578 20.2955 83.5341 20.6023 83.5341ZM18.2727 79.9091C18.5511 79.9091 18.785 79.9394 18.9744 80C19.1638 80.0606 19.3153 80.1534 19.429 80.2784C19.5426 80.4034 19.6241 80.5616 19.6733 80.7528C19.7244 80.9441 19.75 81.1705 19.75 81.4318V82.3409C19.75 82.6515 19.8125 82.8731 19.9375 83.0057C20.0644 83.1383 20.286 83.2045 20.6023 83.2045V83.5568C20.2955 83.5568 20.0455 83.5331 19.8523 83.4858C19.661 83.4384 19.5133 83.3712 19.4091 83.2841C19.3049 83.197 19.233 83.0928 19.1932 82.9716C19.1553 82.8504 19.1364 82.7159 19.1364 82.5682V81.4318C19.1364 81.2102 19.1098 81.0284 19.0568 80.8864C19.0057 80.7424 18.9167 80.6364 18.7898 80.5682C18.6648 80.5 18.4924 80.4659 18.2727 80.4659V79.9091ZM20.6023 83.2045V83.8864H19.9318V83.2045H20.6023Z" fill="#64748B"/>
<path d="M18.6136 27V22.6364H19.2841V27H18.6136ZM18.9545 21.9091C18.8239 21.9091 18.7112 21.8646 18.6165 21.7756C18.5237 21.6866 18.4773 21.5795 18.4773 21.4545C18.4773 21.3295 18.5237 21.2225 18.6165 21.1335C18.7112 21.0445 18.8239 21 18.9545 21C19.0852 21 19.197 21.0445 19.2898 21.1335C19.3845 21.2225 19.4318 21.3295 19.4318 21.4545C19.4318 21.5795 19.3845 21.6866 19.2898 21.7756C19.197 21.8646 19.0852 21.9091 18.9545 21.9091ZM20.5121 27V22.6364H21.1598V23.3182H21.2166C21.3075 23.0852 21.4543 22.9044 21.657 22.7756C21.8596 22.6449 22.103 22.5795 22.3871 22.5795C22.675 22.5795 22.9145 22.6449 23.1058 22.7756C23.299 22.9044 23.4496 23.0852 23.5575 23.3182H23.603C23.7147 23.0928 23.8823 22.9138 24.1058 22.7812C24.3293 22.6468 24.5973 22.5795 24.9098 22.5795C25.3 22.5795 25.6191 22.7017 25.8672 22.946C26.1153 23.1884 26.2393 23.5663 26.2393 24.0795V27H25.5689V24.0795C25.5689 23.7576 25.4808 23.5275 25.3047 23.3892C25.1286 23.2509 24.9212 23.1818 24.6825 23.1818C24.3757 23.1818 24.138 23.2746 23.9695 23.4602C23.8009 23.6439 23.7166 23.8769 23.7166 24.1591V27H23.0348V24.0114C23.0348 23.7633 22.9543 23.5634 22.7933 23.4119C22.6323 23.2585 22.425 23.1818 22.1712 23.1818C21.9969 23.1818 21.834 23.2282 21.6825 23.321C21.5329 23.4138 21.4117 23.5426 21.3189 23.7074C21.228 23.8703 21.1825 24.0587 21.1825 24.2727V27H20.5121ZM27.4652 28.6364V22.6364H28.1129V23.3295H28.1925C28.2417 23.2538 28.3099 23.1572 28.397 23.0398C28.486 22.9205 28.6129 22.8144 28.7777 22.7216C28.9444 22.6269 29.1697 22.5795 29.4538 22.5795C29.8213 22.5795 30.1451 22.6714 30.4254 22.8551C30.7057 23.0388 30.9245 23.2992 31.0817 23.6364C31.2389 23.9735 31.3175 24.3712 31.3175 24.8295C31.3175 25.2917 31.2389 25.6922 31.0817 26.0312C30.9245 26.3684 30.7067 26.6297 30.4283 26.8153C30.1499 26.9991 29.8288 27.0909 29.4652 27.0909C29.1849 27.0909 28.9605 27.0445 28.7919 26.9517C28.6233 26.857 28.4936 26.75 28.4027 26.6307C28.3118 26.5095 28.2417 26.4091 28.1925 26.3295H28.1357V28.6364H27.4652ZM28.1243 24.8182C28.1243 25.1477 28.1726 25.4384 28.2692 25.6903C28.3658 25.9403 28.5069 26.1364 28.6925 26.2784C28.8781 26.4186 29.1054 26.4886 29.3743 26.4886C29.6546 26.4886 29.8885 26.4148 30.076 26.267C30.2654 26.1174 30.4074 25.9167 30.5021 25.6648C30.5987 25.411 30.647 25.1288 30.647 24.8182C30.647 24.5114 30.5997 24.2348 30.505 23.9886C30.4122 23.7405 30.2711 23.5445 30.0817 23.4006C29.8942 23.2547 29.6584 23.1818 29.3743 23.1818C29.1016 23.1818 28.8724 23.2509 28.6868 23.3892C28.5012 23.5256 28.361 23.7169 28.2663 23.9631C28.1716 24.2074 28.1243 24.4924 28.1243 24.8182ZM34.1129 27.0909C33.719 27.0909 33.3733 26.9972 33.076 26.8097C32.7805 26.6222 32.5495 26.3598 32.3828 26.0227C32.218 25.6856 32.1357 25.2917 32.1357 24.8409C32.1357 24.3864 32.218 23.9896 32.3828 23.6506C32.5495 23.3116 32.7805 23.0483 33.076 22.8608C33.3733 22.6733 33.719 22.5795 34.1129 22.5795C34.5069 22.5795 34.8516 22.6733 35.147 22.8608C35.4444 23.0483 35.6754 23.3116 35.8402 23.6506C36.0069 23.9896 36.0902 24.3864 36.0902 24.8409C36.0902 25.2917 36.0069 25.6856 35.8402 26.0227C35.6754 26.3598 35.4444 26.6222 35.147 26.8097C34.8516 26.9972 34.5069 27.0909 34.1129 27.0909ZM34.1129 26.4886C34.4122 26.4886 34.6584 26.4119 34.8516 26.2585C35.0447 26.1051 35.1877 25.9034 35.2805 25.6534C35.3733 25.4034 35.4197 25.1326 35.4197 24.8409C35.4197 24.5492 35.3733 24.2775 35.2805 24.0256C35.1877 23.7737 35.0447 23.5701 34.8516 23.4148C34.6584 23.2595 34.4122 23.1818 34.1129 23.1818C33.8137 23.1818 33.5675 23.2595 33.3743 23.4148C33.1811 23.5701 33.0381 23.7737 32.9453 24.0256C32.8525 24.2775 32.8061 24.5492 32.8061 24.8409C32.8061 25.1326 32.8525 25.4034 32.9453 25.6534C33.0381 25.9034 33.1811 26.1051 33.3743 26.2585C33.5675 26.4119 33.8137 26.4886 34.1129 26.4886ZM37.1136 27V22.6364H37.7614V23.2955H37.8068C37.8864 23.0795 38.0303 22.9044 38.2386 22.7699C38.447 22.6354 38.6818 22.5682 38.9432 22.5682C38.9924 22.5682 39.054 22.5691 39.1278 22.571C39.2017 22.5729 39.2576 22.5758 39.2955 22.5795V23.2614C39.2727 23.2557 39.2206 23.2472 39.1392 23.2358C39.0597 23.2225 38.9754 23.2159 38.8864 23.2159C38.6742 23.2159 38.4848 23.2604 38.3182 23.3494C38.1534 23.4366 38.0227 23.5578 37.9261 23.7131C37.8314 23.8665 37.7841 24.0417 37.7841 24.2386V27H37.1136ZM42.2614 22.6364V23.2045H40V22.6364H42.2614ZM40.6591 21.5909H41.3295V25.75C41.3295 25.9394 41.357 26.0814 41.4119 26.1761C41.4688 26.2689 41.5407 26.3314 41.6278 26.3636C41.7169 26.3939 41.8106 26.4091 41.9091 26.4091C41.983 26.4091 42.0436 26.4053 42.0909 26.3977C42.1383 26.3883 42.1761 26.3807 42.2045 26.375L42.3409 26.9773C42.2955 26.9943 42.232 27.0114 42.1506 27.0284C42.0691 27.0473 41.9659 27.0568 41.8409 27.0568C41.6515 27.0568 41.4659 27.0161 41.2841 26.9347C41.1042 26.8532 40.9545 26.7292 40.8352 26.5625C40.7178 26.3958 40.6591 26.1856 40.6591 25.9318V21.5909ZM71.3224 22.6364V23.2045H68.9702V22.6364H71.3224ZM69.6747 27V22.0341C69.6747 21.7841 69.7334 21.5758 69.8509 21.4091C69.9683 21.2424 70.1207 21.1174 70.3082 21.0341C70.4957 20.9508 70.6937 20.9091 70.902 20.9091C71.0668 20.9091 71.2012 20.9223 71.3054 20.9489C71.4096 20.9754 71.4872 21 71.5384 21.0227L71.3452 21.6023C71.3111 21.5909 71.2637 21.5767 71.2031 21.5597C71.1444 21.5426 71.0668 21.5341 70.9702 21.5341C70.7486 21.5341 70.5885 21.59 70.4901 21.7017C70.3935 21.8134 70.3452 21.9773 70.3452 22.1932V27H69.6747ZM72.2621 27V22.6364H72.9098V23.2955H72.9553C73.0348 23.0795 73.1787 22.9044 73.3871 22.7699C73.5954 22.6354 73.8303 22.5682 74.0916 22.5682C74.1409 22.5682 74.2024 22.5691 74.2763 22.571C74.3501 22.5729 74.406 22.5758 74.4439 22.5795V23.2614C74.4212 23.2557 74.3691 23.2472 74.2876 23.2358C74.2081 23.2225 74.1238 23.2159 74.0348 23.2159C73.8227 23.2159 73.6333 23.2604 73.4666 23.3494C73.3018 23.4366 73.1712 23.5578 73.0746 23.7131C72.9799 23.8665 72.9325 24.0417 72.9325 24.2386V27H72.2621ZM76.8786 27.0909C76.4846 27.0909 76.139 26.9972 75.8416 26.8097C75.5462 26.6222 75.3151 26.3598 75.1484 26.0227C74.9837 25.6856 74.9013 25.2917 74.9013 24.8409C74.9013 24.3864 74.9837 23.9896 75.1484 23.6506C75.3151 23.3116 75.5462 23.0483 75.8416 22.8608C76.139 22.6733 76.4846 22.5795 76.8786 22.5795C77.2725 22.5795 77.6172 22.6733 77.9126 22.8608C78.21 23.0483 78.4411 23.3116 78.6058 23.6506C78.7725 23.9896 78.8558 24.3864 78.8558 24.8409C78.8558 25.2917 78.7725 25.6856 78.6058 26.0227C78.4411 26.3598 78.21 26.6222 77.9126 26.8097C77.6172 26.9972 77.2725 27.0909 76.8786 27.0909ZM76.8786 26.4886C77.1778 26.4886 77.424 26.4119 77.6172 26.2585C77.8104 26.1051 77.9534 25.9034 78.0462 25.6534C78.139 25.4034 78.1854 25.1326 78.1854 24.8409C78.1854 24.5492 78.139 24.2775 78.0462 24.0256C77.9534 23.7737 77.8104 23.5701 77.6172 23.4148C77.424 23.2595 77.1778 23.1818 76.8786 23.1818C76.5793 23.1818 76.3331 23.2595 76.1399 23.4148C75.9467 23.5701 75.8037 23.7737 75.7109 24.0256C75.6181 24.2775 75.5717 24.5492 75.5717 24.8409C75.5717 25.1326 75.6181 25.4034 75.7109 25.6534C75.8037 25.9034 75.9467 26.1051 76.1399 26.2585C76.3331 26.4119 76.5793 26.4886 76.8786 26.4886ZM79.8793 27V22.6364H80.527V23.3182H80.5838C80.6747 23.0852 80.8215 22.9044 81.0241 22.7756C81.2268 22.6449 81.4702 22.5795 81.7543 22.5795C82.0421 22.5795 82.2817 22.6449 82.473 22.7756C82.6662 22.9044 82.8168 23.0852 82.9247 23.3182H82.9702C83.0819 23.0928 83.2495 22.9138 83.473 22.7812C83.6965 22.6468 83.9645 22.5795 84.277 22.5795C84.6671 22.5795 84.9863 22.7017 85.2344 22.946C85.4825 23.1884 85.6065 23.5663 85.6065 24.0795V27H84.9361V24.0795C84.9361 23.7576 84.848 23.5275 84.6719 23.3892C84.4957 23.2509 84.2884 23.1818 84.0497 23.1818C83.7429 23.1818 83.5052 23.2746 83.3366 23.4602C83.1681 23.6439 83.0838 23.8769 83.0838 24.1591V27H82.402V24.0114C82.402 23.7633 82.3215 23.5634 82.1605 23.4119C81.9995 23.2585 81.7921 23.1818 81.5384 23.1818C81.3641 23.1818 81.2012 23.2282 81.0497 23.321C80.9001 23.4138 80.7789 23.5426 80.6861 23.7074C80.5952 23.8703 80.5497 24.0587 80.5497 24.2727V27H79.8793ZM88.8551 23V22.4886C88.8551 22.3333 88.8826 22.1686 88.9375 21.9943C88.9943 21.8182 89.0758 21.6487 89.1818 21.4858C89.2898 21.321 89.4195 21.178 89.571 21.0568L89.9347 21.3523C89.8153 21.5227 89.7112 21.7008 89.6222 21.8864C89.535 22.0701 89.4915 22.267 89.4915 22.4773V23H88.8551ZM90.3097 23V22.4886C90.3097 22.3333 90.3371 22.1686 90.392 21.9943C90.4489 21.8182 90.5303 21.6487 90.6364 21.4858C90.7443 21.321 90.8741 21.178 91.0256 21.0568L91.3892 21.3523C91.2699 21.5227 91.1657 21.7008 91.0767 21.8864C90.9896 22.0701 90.946 22.267 90.946 22.4773V23H90.3097ZM92.1293 27V22.6364H92.777V23.2955H92.8224C92.902 23.0795 93.0459 22.9044 93.2543 22.7699C93.4626 22.6354 93.6974 22.5682 93.9588 22.5682C94.008 22.5682 94.0696 22.5691 94.1435 22.571C94.2173 22.5729 94.2732 22.5758 94.3111 22.5795V23.2614C94.2884 23.2557 94.2363 23.2472 94.1548 23.2358C94.0753 23.2225 93.991 23.2159 93.902 23.2159C93.6899 23.2159 93.5005 23.2604 93.3338 23.3494C93.169 23.4366 93.0384 23.5578 92.9418 23.7131C92.8471 23.8665 92.7997 24.0417 92.7997 24.2386V27H92.1293ZM96.8026 27.0909C96.3821 27.0909 96.0194 26.9981 95.7145 26.8125C95.4115 26.625 95.1776 26.3636 95.0128 26.0284C94.8499 25.6913 94.7685 25.2992 94.7685 24.8523C94.7685 24.4053 94.8499 24.0114 95.0128 23.6705C95.1776 23.3277 95.4067 23.0606 95.7003 22.8693C95.9957 22.6761 96.3404 22.5795 96.7344 22.5795C96.9616 22.5795 97.1861 22.6174 97.4077 22.6932C97.6293 22.7689 97.831 22.892 98.0128 23.0625C98.1946 23.2311 98.3395 23.4545 98.4474 23.733C98.5554 24.0114 98.6094 24.3542 98.6094 24.7614V25.0455H95.2457V24.4659H97.9276C97.9276 24.2197 97.8783 24 97.7798 23.8068C97.6832 23.6136 97.545 23.4612 97.3651 23.3494C97.187 23.2377 96.9768 23.1818 96.7344 23.1818C96.4673 23.1818 96.2363 23.2481 96.0412 23.3807C95.848 23.5114 95.6993 23.6818 95.5952 23.892C95.491 24.1023 95.4389 24.3277 95.4389 24.5682V24.9545C95.4389 25.2841 95.4957 25.5634 95.6094 25.7926C95.7249 26.0199 95.8849 26.1932 96.0895 26.3125C96.294 26.4299 96.5317 26.4886 96.8026 26.4886C96.9787 26.4886 97.1378 26.464 97.2798 26.4148C97.4238 26.3636 97.5478 26.2879 97.652 26.1875C97.7562 26.0852 97.8366 25.9583 97.8935 25.8068L98.5412 25.9886C98.473 26.2083 98.3584 26.4015 98.1974 26.5682C98.0365 26.733 97.8376 26.8617 97.6009 26.9545C97.3641 27.0455 97.098 27.0909 96.8026 27.0909ZM100.913 27.1023C100.637 27.1023 100.386 27.0502 100.161 26.946C99.9351 26.84 99.7562 26.6875 99.6236 26.4886C99.491 26.2879 99.4247 26.0455 99.4247 25.7614C99.4247 25.5114 99.474 25.3087 99.5724 25.1534C99.6709 24.9962 99.8026 24.8731 99.9673 24.7841C100.132 24.6951 100.314 24.6288 100.513 24.5852C100.714 24.5398 100.915 24.5038 101.118 24.4773C101.383 24.4432 101.598 24.4176 101.763 24.4006C101.929 24.3816 102.051 24.3504 102.126 24.3068C102.204 24.2633 102.243 24.1875 102.243 24.0795V24.0568C102.243 23.7765 102.166 23.5587 102.013 23.4034C101.861 23.2481 101.631 23.1705 101.322 23.1705C101.002 23.1705 100.751 23.2405 100.57 23.3807C100.388 23.5208 100.26 23.6705 100.186 23.8295L99.5497 23.6023C99.6634 23.3371 99.8149 23.1307 100.004 22.983C100.196 22.8333 100.404 22.7292 100.629 22.6705C100.857 22.6098 101.08 22.5795 101.3 22.5795C101.44 22.5795 101.601 22.5966 101.783 22.6307C101.966 22.6629 102.143 22.7301 102.314 22.8324C102.486 22.9347 102.629 23.089 102.743 23.2955C102.857 23.5019 102.913 23.7784 102.913 24.125V27H102.243V26.4091H102.209C102.163 26.5038 102.088 26.6051 101.982 26.7131C101.875 26.821 101.734 26.9129 101.558 26.9886C101.382 27.0644 101.167 27.1023 100.913 27.1023ZM101.016 26.5C101.281 26.5 101.504 26.4479 101.686 26.3438C101.87 26.2396 102.008 26.1051 102.101 25.9403C102.196 25.7756 102.243 25.6023 102.243 25.4205V24.8068C102.214 24.8409 102.152 24.8722 102.055 24.9006C101.961 24.9271 101.851 24.9508 101.726 24.9716C101.603 24.9905 101.482 25.0076 101.365 25.0227C101.25 25.036 101.156 25.0473 101.084 25.0568C100.91 25.0795 100.747 25.1165 100.595 25.1676C100.446 25.2169 100.324 25.2917 100.232 25.392C100.141 25.4905 100.095 25.625 100.095 25.7955C100.095 26.0284 100.181 26.2045 100.354 26.3239C100.528 26.4413 100.749 26.5 101.016 26.5ZM105.91 27.0909C105.501 27.0909 105.148 26.9943 104.853 26.8011C104.558 26.608 104.33 26.3419 104.171 26.0028C104.012 25.6638 103.933 25.2765 103.933 24.8409C103.933 24.3977 104.014 24.0066 104.177 23.6676C104.342 23.3267 104.571 23.0606 104.864 22.8693C105.16 22.6761 105.504 22.5795 105.898 22.5795C106.205 22.5795 106.482 22.6364 106.728 22.75C106.974 22.8636 107.176 23.0227 107.333 23.2273C107.49 23.4318 107.588 23.6705 107.626 23.9432H106.955C106.904 23.7443 106.79 23.5682 106.614 23.4148C106.44 23.2595 106.205 23.1818 105.91 23.1818C105.648 23.1818 105.419 23.25 105.222 23.3864C105.027 23.5208 104.875 23.7112 104.765 23.9574C104.657 24.2017 104.603 24.4886 104.603 24.8182C104.603 25.1553 104.656 25.4489 104.762 25.6989C104.87 25.9489 105.022 26.143 105.217 26.2812C105.414 26.4195 105.645 26.4886 105.91 26.4886C106.084 26.4886 106.242 26.4583 106.384 26.3977C106.526 26.3371 106.647 26.25 106.745 26.1364C106.844 26.0227 106.914 25.8864 106.955 25.7273H107.626C107.588 25.9848 107.494 26.2169 107.344 26.4233C107.197 26.6278 107.001 26.7907 106.756 26.9119C106.514 27.0312 106.232 27.0909 105.91 27.0909ZM110.504 22.6364V23.2045H108.242V22.6364H110.504ZM108.901 21.5909H109.572V25.75C109.572 25.9394 109.599 26.0814 109.654 26.1761C109.711 26.2689 109.783 26.3314 109.87 26.3636C109.959 26.3939 110.053 26.4091 110.151 26.4091C110.225 26.4091 110.286 26.4053 110.333 26.3977C110.38 26.3883 110.418 26.3807 110.447 26.375L110.583 26.9773C110.538 26.9943 110.474 27.0114 110.393 27.0284C110.311 27.0473 110.208 27.0568 110.083 27.0568C109.894 27.0568 109.708 27.0161 109.526 26.9347C109.346 26.8532 109.197 26.7292 109.077 26.5625C108.96 26.3958 108.901 26.1856 108.901 25.9318V21.5909ZM112.33 21.1818V21.6932C112.33 21.8485 112.301 22.0142 112.244 22.1903C112.189 22.3646 112.108 22.5341 112 22.6989C111.894 22.8617 111.765 23.0038 111.614 23.125L111.25 22.8295C111.369 22.6591 111.473 22.482 111.56 22.2983C111.649 22.1127 111.693 21.9148 111.693 21.7045V21.1818H112.33ZM113.784 21.1818V21.6932C113.784 21.8485 113.756 22.0142 113.699 22.1903C113.644 22.3646 113.562 22.5341 113.455 22.6989C113.348 22.8617 113.22 23.0038 113.068 23.125L112.705 22.8295C112.824 22.6591 112.927 22.482 113.014 22.2983C113.103 22.1127 113.148 21.9148 113.148 21.7045V21.1818H113.784ZM115.332 26.2045L115.287 26.5114C115.255 26.7273 115.205 26.9583 115.139 27.2045C115.075 27.4508 115.008 27.6828 114.938 27.9006C114.867 28.1184 114.81 28.2917 114.764 28.4205H114.253C114.277 28.2992 114.31 28.1392 114.349 27.9403C114.389 27.7415 114.429 27.5189 114.469 27.2727C114.51 27.0284 114.545 26.7784 114.571 26.5227L114.605 26.2045H115.332ZM114.923 23.8068C114.783 23.8068 114.663 23.7566 114.562 23.6562C114.462 23.5559 114.412 23.4356 114.412 23.2955C114.412 23.1553 114.462 23.035 114.562 22.9347C114.663 22.8343 114.783 22.7841 114.923 22.7841C115.063 22.7841 115.184 22.8343 115.284 22.9347C115.384 23.035 115.435 23.1553 115.435 23.2955C115.435 23.3883 115.411 23.4735 115.364 23.5511C115.318 23.6288 115.257 23.6913 115.179 23.7386C115.103 23.7841 115.018 23.8068 114.923 23.8068Z" fill="#64748B"/>
<path d="M45.6108 27V21.1818H47.5767C48.0313 21.1818 48.4044 21.2595 48.696 21.4148C48.9877 21.5682 49.2036 21.7794 49.3438 22.0483C49.4839 22.3172 49.554 22.6231 49.554 22.9659C49.554 23.3087 49.4839 23.6127 49.3438 23.8778C49.2036 24.143 48.9886 24.3513 48.6989 24.5028C48.4091 24.6525 48.0388 24.7273 47.5881 24.7273H45.9972V24.0909H47.5653C47.8759 24.0909 48.1259 24.0455 48.3153 23.9545C48.5066 23.8636 48.6449 23.7348 48.7301 23.5682C48.8172 23.3996 48.8608 23.1989 48.8608 22.9659C48.8608 22.733 48.8172 22.5294 48.7301 22.3551C48.643 22.1809 48.5038 22.0464 48.3125 21.9517C48.1212 21.8551 47.8684 21.8068 47.554 21.8068H46.3153V27H45.6108ZM48.3494 24.3864L49.7812 27H48.9631L47.554 24.3864H48.3494ZM52.4197 27.0909C51.9993 27.0909 51.6366 26.9981 51.3317 26.8125C51.0286 26.625 50.7947 26.3636 50.63 26.0284C50.4671 25.6913 50.3857 25.2992 50.3857 24.8523C50.3857 24.4053 50.4671 24.0114 50.63 23.6705C50.7947 23.3277 51.0239 23.0606 51.3175 22.8693C51.6129 22.6761 51.9576 22.5795 52.3516 22.5795C52.5788 22.5795 52.8033 22.6174 53.0249 22.6932C53.2464 22.7689 53.4482 22.892 53.63 23.0625C53.8118 23.2311 53.9567 23.4545 54.0646 23.733C54.1726 24.0114 54.2266 24.3542 54.2266 24.7614V25.0455H50.8629V24.4659H53.5447C53.5447 24.2197 53.4955 24 53.397 23.8068C53.3004 23.6136 53.1622 23.4612 52.9822 23.3494C52.8042 23.2377 52.594 23.1818 52.3516 23.1818C52.0845 23.1818 51.8535 23.2481 51.6584 23.3807C51.4652 23.5114 51.3165 23.6818 51.2124 23.892C51.1082 24.1023 51.0561 24.3277 51.0561 24.5682V24.9545C51.0561 25.2841 51.1129 25.5634 51.2266 25.7926C51.3421 26.0199 51.5021 26.1932 51.7067 26.3125C51.9112 26.4299 52.1489 26.4886 52.4197 26.4886C52.5959 26.4886 52.755 26.464 52.897 26.4148C53.041 26.3636 53.165 26.2879 53.2692 26.1875C53.3733 26.0852 53.4538 25.9583 53.5107 25.8068L54.1584 25.9886C54.0902 26.2083 53.9756 26.4015 53.8146 26.5682C53.6536 26.733 53.4548 26.8617 53.218 26.9545C52.9813 27.0455 52.7152 27.0909 52.4197 27.0909ZM56.5305 27.1023C56.254 27.1023 56.0031 27.0502 55.7777 26.946C55.5523 26.84 55.3733 26.6875 55.2408 26.4886C55.1082 26.2879 55.0419 26.0455 55.0419 25.7614C55.0419 25.5114 55.0911 25.3087 55.1896 25.1534C55.2881 24.9962 55.4197 24.8731 55.5845 24.7841C55.7493 24.6951 55.9311 24.6288 56.13 24.5852C56.3307 24.5398 56.5324 24.5038 56.7351 24.4773C57.0002 24.4432 57.2152 24.4176 57.38 24.4006C57.5466 24.3816 57.6679 24.3504 57.7436 24.3068C57.8213 24.2633 57.8601 24.1875 57.8601 24.0795V24.0568C57.8601 23.7765 57.7834 23.5587 57.63 23.4034C57.4785 23.2481 57.2483 23.1705 56.9396 23.1705C56.6196 23.1705 56.3686 23.2405 56.1868 23.3807C56.005 23.5208 55.8771 23.6705 55.8033 23.8295L55.1669 23.6023C55.2805 23.3371 55.4321 23.1307 55.6214 22.983C55.8127 22.8333 56.0211 22.7292 56.2464 22.6705C56.4737 22.6098 56.6972 22.5795 56.9169 22.5795C57.0571 22.5795 57.218 22.5966 57.3999 22.6307C57.5836 22.6629 57.7607 22.7301 57.9311 22.8324C58.1035 22.9347 58.2464 23.089 58.3601 23.2955C58.4737 23.5019 58.5305 23.7784 58.5305 24.125V27H57.8601V26.4091H57.826C57.7805 26.5038 57.7048 26.6051 57.5987 26.7131C57.4927 26.821 57.3516 26.9129 57.1754 26.9886C56.9993 27.0644 56.7843 27.1023 56.5305 27.1023ZM56.6328 26.5C56.898 26.5 57.1214 26.4479 57.3033 26.3438C57.487 26.2396 57.6252 26.1051 57.718 25.9403C57.8127 25.7756 57.8601 25.6023 57.8601 25.4205V24.8068C57.8317 24.8409 57.7692 24.8722 57.6726 24.9006C57.5779 24.9271 57.468 24.9508 57.343 24.9716C57.2199 24.9905 57.0997 25.0076 56.9822 25.0227C56.8667 25.036 56.773 25.0473 56.701 25.0568C56.5268 25.0795 56.3639 25.1165 56.2124 25.1676C56.0627 25.2169 55.9415 25.2917 55.8487 25.392C55.7578 25.4905 55.7124 25.625 55.7124 25.7955C55.7124 26.0284 55.7985 26.2045 55.9709 26.3239C56.1451 26.4413 56.3658 26.5 56.6328 26.5ZM61.527 27.0909C61.1179 27.0909 60.7656 26.9943 60.4702 26.8011C60.1747 26.608 59.9474 26.3419 59.7884 26.0028C59.6293 25.6638 59.5497 25.2765 59.5497 24.8409C59.5497 24.3977 59.6312 24.0066 59.794 23.6676C59.9588 23.3267 60.188 23.0606 60.4815 22.8693C60.777 22.6761 61.1217 22.5795 61.5156 22.5795C61.8224 22.5795 62.099 22.6364 62.3452 22.75C62.5914 22.8636 62.7931 23.0227 62.9503 23.2273C63.1075 23.4318 63.205 23.6705 63.2429 23.9432H62.5724C62.5213 23.7443 62.4077 23.5682 62.2315 23.4148C62.0573 23.2595 61.8224 23.1818 61.527 23.1818C61.2656 23.1818 61.0365 23.25 60.8395 23.3864C60.6444 23.5208 60.492 23.7112 60.3821 23.9574C60.2741 24.2017 60.2202 24.4886 60.2202 24.8182C60.2202 25.1553 60.2732 25.4489 60.3793 25.6989C60.4872 25.9489 60.6387 26.143 60.8338 26.2812C61.0308 26.4195 61.2618 26.4886 61.527 26.4886C61.7012 26.4886 61.8594 26.4583 62.0014 26.3977C62.1435 26.3371 62.2637 26.25 62.3622 26.1364C62.4607 26.0227 62.5308 25.8864 62.5724 25.7273H63.2429C63.205 25.9848 63.1113 26.2169 62.9616 26.4233C62.8139 26.6278 62.6179 26.7907 62.3736 26.9119C62.1312 27.0312 61.849 27.0909 61.527 27.0909ZM66.1207 22.6364V23.2045H63.8594V22.6364H66.1207ZM64.5185 21.5909H65.1889V25.75C65.1889 25.9394 65.2164 26.0814 65.2713 26.1761C65.3281 26.2689 65.4001 26.3314 65.4872 26.3636C65.5762 26.3939 65.67 26.4091 65.7685 26.4091C65.8423 26.4091 65.9029 26.4053 65.9503 26.3977C65.9976 26.3883 66.0355 26.3807 66.0639 26.375L66.2003 26.9773C66.1548 26.9943 66.0914 27.0114 66.0099 27.0284C65.9285 27.0473 65.8253 27.0568 65.7003 27.0568C65.5109 27.0568 65.3253 27.0161 65.1435 26.9347C64.9635 26.8532 64.8139 26.7292 64.6946 26.5625C64.5772 26.3958 64.5185 26.1856 64.5185 25.9318V21.5909Z" fill="#E11D48"/>
<path d="M20.3864 41.0909C19.9773 41.0909 19.625 40.9943 19.3295 40.8011C19.0341 40.608 18.8068 40.3419 18.6477 40.0028C18.4886 39.6638 18.4091 39.2765 18.4091 38.8409C18.4091 38.3977 18.4905 38.0066 18.6534 37.6676C18.8182 37.3267 19.0473 37.0606 19.3409 36.8693C19.6364 36.6761 19.9811 36.5795 20.375 36.5795C20.6818 36.5795 20.9583 36.6364 21.2045 36.75C21.4508 36.8636 21.6525 37.0227 21.8097 37.2273C21.9669 37.4318 22.0644 37.6705 22.1023 37.9432H21.4318C21.3807 37.7443 21.267 37.5682 21.0909 37.4148C20.9167 37.2595 20.6818 37.1818 20.3864 37.1818C20.125 37.1818 19.8958 37.25 19.6989 37.3864C19.5038 37.5208 19.3513 37.7112 19.2415 37.9574C19.1335 38.2017 19.0795 38.4886 19.0795 38.8182C19.0795 39.1553 19.1326 39.4489 19.2386 39.6989C19.3466 39.9489 19.4981 40.143 19.6932 40.2812C19.8902 40.4195 20.1212 40.4886 20.3864 40.4886C20.5606 40.4886 20.7188 40.4583 20.8608 40.3977C21.0028 40.3371 21.1231 40.25 21.2216 40.1364C21.3201 40.0227 21.3902 39.8864 21.4318 39.7273H22.1023C22.0644 39.9848 21.9706 40.2169 21.821 40.4233C21.6733 40.6278 21.4773 40.7907 21.233 40.9119C20.9905 41.0312 20.7083 41.0909 20.3864 41.0909ZM24.8551 41.0909C24.4612 41.0909 24.1155 40.9972 23.8182 40.8097C23.5227 40.6222 23.2917 40.3598 23.125 40.0227C22.9602 39.6856 22.8778 39.2917 22.8778 38.8409C22.8778 38.3864 22.9602 37.9896 23.125 37.6506C23.2917 37.3116 23.5227 37.0483 23.8182 36.8608C24.1155 36.6733 24.4612 36.5795 24.8551 36.5795C25.2491 36.5795 25.5938 36.6733 25.8892 36.8608C26.1866 37.0483 26.4176 37.3116 26.5824 37.6506C26.7491 37.9896 26.8324 38.3864 26.8324 38.8409C26.8324 39.2917 26.7491 39.6856 26.5824 40.0227C26.4176 40.3598 26.1866 40.6222 25.8892 40.8097C25.5938 40.9972 25.2491 41.0909 24.8551 41.0909ZM24.8551 40.4886C25.1544 40.4886 25.4006 40.4119 25.5938 40.2585C25.7869 40.1051 25.9299 39.9034 26.0227 39.6534C26.1155 39.4034 26.1619 39.1326 26.1619 38.8409C26.1619 38.5492 26.1155 38.2775 26.0227 38.0256C25.9299 37.7737 25.7869 37.5701 25.5938 37.4148C25.4006 37.2595 25.1544 37.1818 24.8551 37.1818C24.5559 37.1818 24.3097 37.2595 24.1165 37.4148C23.9233 37.5701 23.7803 37.7737 23.6875 38.0256C23.5947 38.2775 23.5483 38.5492 23.5483 38.8409C23.5483 39.1326 23.5947 39.4034 23.6875 39.6534C23.7803 39.9034 23.9233 40.1051 24.1165 40.2585C24.3097 40.4119 24.5559 40.4886 24.8551 40.4886ZM28.5263 38.375V41H27.8558V36.6364H28.5036V37.3182H28.5604C28.6626 37.0966 28.8179 36.9186 29.0263 36.7841C29.2346 36.6477 29.5036 36.5795 29.8331 36.5795C30.1286 36.5795 30.3871 36.6402 30.6087 36.7614C30.8303 36.8807 31.0026 37.0625 31.1257 37.3068C31.2488 37.5492 31.3104 37.8561 31.3104 38.2273V41H30.6399V38.2727C30.6399 37.9299 30.5509 37.6629 30.3729 37.4716C30.1948 37.2784 29.9505 37.1818 29.6399 37.1818C29.4259 37.1818 29.2346 37.2282 29.0661 37.321C28.8994 37.4138 28.7678 37.5492 28.6712 37.7273C28.5746 37.9053 28.5263 38.1212 28.5263 38.375ZM35.6264 37.6136L35.0241 37.7841C34.9863 37.6837 34.9304 37.5862 34.8565 37.4915C34.7846 37.3949 34.6861 37.3153 34.5611 37.2528C34.4361 37.1903 34.276 37.1591 34.081 37.1591C33.8139 37.1591 33.5914 37.2206 33.4134 37.3438C33.2372 37.465 33.1491 37.6193 33.1491 37.8068C33.1491 37.9735 33.2098 38.1051 33.331 38.2017C33.4522 38.2983 33.6416 38.3788 33.8991 38.4432L34.5469 38.6023C34.937 38.697 35.2277 38.8419 35.419 39.0369C35.6103 39.2301 35.706 39.4792 35.706 39.7841C35.706 40.0341 35.634 40.2576 35.4901 40.4545C35.348 40.6515 35.1491 40.8068 34.8935 40.9205C34.6378 41.0341 34.3404 41.0909 34.0014 41.0909C33.5563 41.0909 33.188 40.9943 32.8963 40.8011C32.6046 40.608 32.42 40.3258 32.3423 39.9545L32.9787 39.7955C33.0393 40.0303 33.1539 40.2064 33.3224 40.3239C33.4929 40.4413 33.7154 40.5 33.9901 40.5C34.3026 40.5 34.5507 40.4337 34.7344 40.3011C34.92 40.1667 35.0128 40.0057 35.0128 39.8182C35.0128 39.6667 34.9598 39.5398 34.8537 39.4375C34.7476 39.3333 34.5848 39.2557 34.3651 39.2045L33.6378 39.0341C33.2382 38.9394 32.9446 38.7926 32.7571 38.5938C32.5715 38.393 32.4787 38.142 32.4787 37.8409C32.4787 37.5947 32.5478 37.3769 32.6861 37.1875C32.8262 36.9981 33.0166 36.8494 33.2571 36.7415C33.4995 36.6335 33.7741 36.5795 34.081 36.5795C34.5128 36.5795 34.8518 36.6742 35.098 36.8636C35.3461 37.053 35.5223 37.303 35.6264 37.6136ZM38.6129 36.6364V37.2045H36.3516V36.6364H38.6129ZM37.0107 35.5909H37.6811V39.75C37.6811 39.9394 37.7086 40.0814 37.7635 40.1761C37.8203 40.2689 37.8923 40.3314 37.9794 40.3636C38.0684 40.3939 38.1622 40.4091 38.2607 40.4091C38.3345 40.4091 38.3951 40.4053 38.4425 40.3977C38.4898 40.3883 38.5277 40.3807 38.5561 40.375L38.6925 40.9773C38.647 40.9943 38.5836 41.0114 38.5021 41.0284C38.4207 41.0473 38.3175 41.0568 38.1925 41.0568C38.0031 41.0568 37.8175 41.0161 37.6357 40.9347C37.4557 40.8532 37.3061 40.7292 37.1868 40.5625C37.0694 40.3958 37.0107 40.1856 37.0107 39.9318V35.5909ZM42.201 41H41.4624L43.5987 35.1818H44.326L46.4624 41H45.7237L43.9851 36.1023H43.9396L42.201 41ZM42.4737 38.7273H45.451V39.3523H42.4737V38.7273ZM47.2777 42.6364V36.6364H47.9254V37.3295H48.005C48.0542 37.2538 48.1224 37.1572 48.2095 37.0398C48.2985 36.9205 48.4254 36.8144 48.5902 36.7216C48.7569 36.6269 48.9822 36.5795 49.2663 36.5795C49.6338 36.5795 49.9576 36.6714 50.2379 36.8551C50.5182 37.0388 50.737 37.2992 50.8942 37.6364C51.0514 37.9735 51.13 38.3712 51.13 38.8295C51.13 39.2917 51.0514 39.6922 50.8942 40.0312C50.737 40.3684 50.5192 40.6297 50.2408 40.8153C49.9624 40.9991 49.6413 41.0909 49.2777 41.0909C48.9974 41.0909 48.773 41.0445 48.6044 40.9517C48.4358 40.857 48.3061 40.75 48.2152 40.6307C48.1243 40.5095 48.0542 40.4091 48.005 40.3295H47.9482V42.6364H47.2777ZM47.9368 38.8182C47.9368 39.1477 47.9851 39.4384 48.0817 39.6903C48.1783 39.9403 48.3194 40.1364 48.505 40.2784C48.6906 40.4186 48.9179 40.4886 49.1868 40.4886C49.4671 40.4886 49.701 40.4148 49.8885 40.267C50.0779 40.1174 50.2199 39.9167 50.3146 39.6648C50.4112 39.411 50.4595 39.1288 50.4595 38.8182C50.4595 38.5114 50.4122 38.2348 50.3175 37.9886C50.2247 37.7405 50.0836 37.5445 49.8942 37.4006C49.7067 37.2547 49.4709 37.1818 49.1868 37.1818C48.9141 37.1818 48.6849 37.2509 48.4993 37.3892C48.3137 37.5256 48.1735 37.7169 48.0788 37.9631C47.9841 38.2074 47.9368 38.4924 47.9368 38.8182ZM52.1527 42.6364V36.6364H52.8004V37.3295H52.88C52.9292 37.2538 52.9974 37.1572 53.0845 37.0398C53.1735 36.9205 53.3004 36.8144 53.4652 36.7216C53.6319 36.6269 53.8572 36.5795 54.1413 36.5795C54.5088 36.5795 54.8326 36.6714 55.1129 36.8551C55.3932 37.0388 55.612 37.2992 55.7692 37.6364C55.9264 37.9735 56.005 38.3712 56.005 38.8295C56.005 39.2917 55.9264 39.6922 55.7692 40.0312C55.612 40.3684 55.3942 40.6297 55.1158 40.8153C54.8374 40.9991 54.5163 41.0909 54.1527 41.0909C53.8724 41.0909 53.648 41.0445 53.4794 40.9517C53.3108 40.857 53.1811 40.75 53.0902 40.6307C52.9993 40.5095 52.9292 40.4091 52.88 40.3295H52.8232V42.6364H52.1527ZM52.8118 38.8182C52.8118 39.1477 52.8601 39.4384 52.9567 39.6903C53.0533 39.9403 53.1944 40.1364 53.38 40.2784C53.5656 40.4186 53.7929 40.4886 54.0618 40.4886C54.3421 40.4886 54.576 40.4148 54.7635 40.267C54.9529 40.1174 55.0949 39.9167 55.1896 39.6648C55.2862 39.411 55.3345 39.1288 55.3345 38.8182C55.3345 38.5114 55.2872 38.2348 55.1925 37.9886C55.0997 37.7405 54.9586 37.5445 54.7692 37.4006C54.5817 37.2547 54.3459 37.1818 54.0618 37.1818C53.7891 37.1818 53.5599 37.2509 53.3743 37.3892C53.1887 37.5256 53.0485 37.7169 52.9538 37.9631C52.8591 38.2074 52.8118 38.4924 52.8118 38.8182ZM61.8004 38.1932V37.5795H65.3004V38.1932H61.8004ZM61.8004 39.875V39.2614H65.3004V39.875H61.8004ZM69.2898 38.5455C69.2898 37.8295 69.3826 37.1714 69.5682 36.571C69.7557 35.9687 70.0227 35.4148 70.3693 34.9091H70.9602C70.8239 35.0966 70.696 35.3277 70.5767 35.6023C70.4593 35.875 70.3561 36.1752 70.267 36.5028C70.178 36.8286 70.108 37.1657 70.0568 37.5142C70.0076 37.8627 69.983 38.2064 69.983 38.5455C69.983 38.9962 70.0265 39.4536 70.1136 39.9176C70.2008 40.3816 70.3182 40.8125 70.4659 41.2102C70.6136 41.608 70.7784 41.9318 70.9602 42.1818H70.3693C70.0227 41.6761 69.7557 41.1231 69.5682 40.5227C69.3826 39.9205 69.2898 39.2614 69.2898 38.5455ZM73.3814 38.5455C73.3814 39.2614 73.2876 39.9205 73.1001 40.5227C72.9145 41.1231 72.6484 41.6761 72.3018 42.1818H71.7109C71.8473 41.9943 71.9742 41.7633 72.0916 41.4886C72.2109 41.2159 72.3151 40.9167 72.4041 40.5909C72.4931 40.2633 72.5623 39.9252 72.6115 39.5767C72.6626 39.2263 72.6882 38.8826 72.6882 38.5455C72.6882 38.0947 72.6446 37.6373 72.5575 37.1733C72.4704 36.7093 72.353 36.2784 72.2053 35.8807C72.0575 35.483 71.8928 35.1591 71.7109 34.9091H72.3018C72.6484 35.4148 72.9145 35.9687 73.1001 36.571C73.2876 37.1714 73.3814 37.8295 73.3814 38.5455ZM80.7855 41L80.348 40.5682L82.4616 38.4545L80.348 36.3466L80.7855 35.9091L83.331 38.4545L80.7855 41ZM77.4844 39.4432V38.8182H82.5469L81.9219 39.4432H77.4844ZM77.4844 38.0909V37.4659H81.9219L82.5469 38.0909H77.4844ZM86.6626 38.5568V38.2045C86.9789 38.2045 87.1996 38.1383 87.3246 38.0057C87.4515 37.8731 87.5149 37.6515 87.5149 37.3409V36.4318C87.5149 36.1705 87.5395 35.9441 87.5888 35.7528C87.6399 35.5616 87.7223 35.4034 87.8359 35.2784C87.9496 35.1534 88.1011 35.0606 88.2905 35C88.4799 34.9394 88.7138 34.9091 88.9922 34.9091V35.4659C88.7725 35.4659 88.5992 35.5 88.4723 35.5682C88.3473 35.6364 88.2583 35.7424 88.2053 35.8864C88.1541 36.0284 88.1286 36.2102 88.1286 36.4318V37.5682C88.1286 37.7159 88.1087 37.8504 88.0689 37.9716C88.031 38.0928 87.96 38.197 87.8558 38.2841C87.7517 38.3712 87.603 38.4384 87.4098 38.4858C87.2185 38.5331 86.9695 38.5568 86.6626 38.5568ZM88.9922 42.1818C88.7138 42.1818 88.4799 42.1515 88.2905 42.0909C88.1011 42.0303 87.9496 41.9375 87.8359 41.8125C87.7223 41.6875 87.6399 41.5294 87.5888 41.3381C87.5395 41.1468 87.5149 40.9205 87.5149 40.6591V39.75C87.5149 39.4394 87.4515 39.2178 87.3246 39.0852C87.1996 38.9527 86.9789 38.8864 86.6626 38.8864V38.5341C86.9695 38.5341 87.2185 38.5578 87.4098 38.6051C87.603 38.6525 87.7517 38.7197 87.8558 38.8068C87.96 38.8939 88.031 38.9981 88.0689 39.1193C88.1087 39.2405 88.1286 39.375 88.1286 39.5227V40.6591C88.1286 40.8807 88.1541 41.0625 88.2053 41.2045C88.2583 41.3466 88.3473 41.4517 88.4723 41.5199C88.5992 41.59 88.7725 41.625 88.9922 41.625V42.1818ZM86.6626 38.8864V38.2045H87.3331V38.8864H86.6626Z" fill="#64748B"/>
<path d="M25.6136 53V48.6364H26.2614V49.2955H26.3068C26.3864 49.0795 26.5303 48.9044 26.7386 48.7699C26.947 48.6354 27.1818 48.5682 27.4432 48.5682C27.4924 48.5682 27.554 48.5691 27.6278 48.571C27.7017 48.5729 27.7576 48.5758 27.7955 48.5795V49.2614C27.7727 49.2557 27.7206 49.2472 27.6392 49.2358C27.5597 49.2225 27.4754 49.2159 27.3864 49.2159C27.1742 49.2159 26.9848 49.2604 26.8182 49.3494C26.6534 49.4366 26.5227 49.5578 26.4261 49.7131C26.3314 49.8665 26.2841 50.0417 26.2841 50.2386V53H25.6136ZM30.2869 53.0909C29.8665 53.0909 29.5038 52.9981 29.1989 52.8125C28.8958 52.625 28.6619 52.3636 28.4972 52.0284C28.3343 51.6913 28.2528 51.2992 28.2528 50.8523C28.2528 50.4053 28.3343 50.0114 28.4972 49.6705C28.6619 49.3277 28.8911 49.0606 29.1847 48.8693C29.4801 48.6761 29.8248 48.5795 30.2188 48.5795C30.446 48.5795 30.6705 48.6174 30.892 48.6932C31.1136 48.7689 31.3153 48.892 31.4972 49.0625C31.679 49.2311 31.8239 49.4545 31.9318 49.733C32.0398 50.0114 32.0938 50.3542 32.0938 50.7614V51.0455H28.7301V50.4659H31.4119C31.4119 50.2197 31.3627 50 31.2642 49.8068C31.1676 49.6136 31.0294 49.4612 30.8494 49.3494C30.6714 49.2377 30.4612 49.1818 30.2188 49.1818C29.9517 49.1818 29.7206 49.2481 29.5256 49.3807C29.3324 49.5114 29.1837 49.6818 29.0795 49.892C28.9754 50.1023 28.9233 50.3277 28.9233 50.5682V50.9545C28.9233 51.2841 28.9801 51.5634 29.0938 51.7926C29.2093 52.0199 29.3693 52.1932 29.5739 52.3125C29.7784 52.4299 30.0161 52.4886 30.2869 52.4886C30.4631 52.4886 30.6222 52.464 30.7642 52.4148C30.9081 52.3636 31.0322 52.2879 31.1364 52.1875C31.2405 52.0852 31.321 51.9583 31.3778 51.8068L32.0256 51.9886C31.9574 52.2083 31.8428 52.4015 31.6818 52.5682C31.5208 52.733 31.322 52.8617 31.0852 52.9545C30.8485 53.0455 30.5824 53.0909 30.2869 53.0909ZM35.0114 48.6364V49.2045H32.75V48.6364H35.0114ZM33.4091 47.5909H34.0795V51.75C34.0795 51.9394 34.107 52.0814 34.1619 52.1761C34.2188 52.2689 34.2907 52.3314 34.3778 52.3636C34.4669 52.3939 34.5606 52.4091 34.6591 52.4091C34.733 52.4091 34.7936 52.4053 34.8409 52.3977C34.8883 52.3883 34.9261 52.3807 34.9545 52.375L35.0909 52.9773C35.0455 52.9943 34.982 53.0114 34.9006 53.0284C34.8191 53.0473 34.7159 53.0568 34.5909 53.0568C34.4015 53.0568 34.2159 53.0161 34.0341 52.9347C33.8542 52.8532 33.7045 52.7292 33.5852 52.5625C33.4678 52.3958 33.4091 52.1856 33.4091 51.9318V47.5909ZM38.7699 51.2159V48.6364H39.4403V53H38.7699V52.2614H38.7244C38.6222 52.483 38.4631 52.6714 38.2472 52.8267C38.0313 52.9801 37.7585 53.0568 37.429 53.0568C37.1562 53.0568 36.9138 52.9972 36.7017 52.8778C36.4896 52.7566 36.3229 52.5748 36.2017 52.3324C36.0805 52.0881 36.0199 51.7803 36.0199 51.4091V48.6364H36.6903V51.3636C36.6903 51.6818 36.7794 51.9356 36.9574 52.125C37.1373 52.3144 37.3665 52.4091 37.6449 52.4091C37.8116 52.4091 37.9811 52.3665 38.1534 52.2812C38.3277 52.196 38.4735 52.0653 38.5909 51.8892C38.7102 51.7131 38.7699 51.4886 38.7699 51.2159ZM40.6683 53V48.6364H41.3161V49.2955H41.3615C41.4411 49.0795 41.585 48.9044 41.7933 48.7699C42.0017 48.6354 42.2365 48.5682 42.4979 48.5682C42.5471 48.5682 42.6087 48.5691 42.6825 48.571C42.7564 48.5729 42.8123 48.5758 42.8501 48.5795V49.2614C42.8274 49.2557 42.7753 49.2472 42.6939 49.2358C42.6143 49.2225 42.5301 49.2159 42.4411 49.2159C42.2289 49.2159 42.0395 49.2604 41.8729 49.3494C41.7081 49.4366 41.5774 49.5578 41.4808 49.7131C41.3861 49.8665 41.3388 50.0417 41.3388 50.2386V53H40.6683ZM44.3153 50.375V53H43.6449V48.6364H44.2926V49.3182H44.3494C44.4517 49.0966 44.607 48.9186 44.8153 48.7841C45.0237 48.6477 45.2926 48.5795 45.6222 48.5795C45.9176 48.5795 46.1761 48.6402 46.3977 48.7614C46.6193 48.8807 46.7917 49.0625 46.9148 49.3068C47.0379 49.5492 47.0994 49.8561 47.0994 50.2273V53H46.429V50.2727C46.429 49.9299 46.34 49.6629 46.1619 49.4716C45.9839 49.2784 45.7396 49.1818 45.429 49.1818C45.215 49.1818 45.0237 49.2282 44.8551 49.321C44.6884 49.4138 44.5568 49.5492 44.4602 49.7273C44.3636 49.9053 44.3153 50.1212 44.3153 50.375ZM48.5632 50.5455C48.5632 49.8295 48.656 49.1714 48.8416 48.571C49.0291 47.9687 49.2962 47.4148 49.6428 46.9091H50.2337C50.0973 47.0966 49.9695 47.3277 49.8501 47.6023C49.7327 47.875 49.6295 48.1752 49.5405 48.5028C49.4515 48.8286 49.3814 49.1657 49.3303 49.5142C49.281 49.8627 49.2564 50.2064 49.2564 50.5455C49.2564 50.9962 49.3 51.4536 49.3871 51.9176C49.4742 52.3816 49.5916 52.8125 49.7393 53.2102C49.8871 53.608 50.0518 53.9318 50.2337 54.1818H49.6428C49.2962 53.6761 49.0291 53.1231 48.8416 52.5227C48.656 51.9205 48.5632 51.2614 48.5632 50.5455Z" fill="#64748B"/>
<path d="M27.8068 61.9545V61.5L31.4659 59.6364V60.3636L28.6591 61.7159L28.6818 61.6705V61.7841L28.6591 61.7386L31.4659 63.0909V63.8182L27.8068 61.9545ZM32.8871 65.6364V59.6364H33.5348V60.3295H33.6143C33.6636 60.2538 33.7318 60.1572 33.8189 60.0398C33.9079 59.9205 34.0348 59.8144 34.1996 59.7216C34.3662 59.6269 34.5916 59.5795 34.8757 59.5795C35.2431 59.5795 35.567 59.6714 35.8473 59.8551C36.1276 60.0388 36.3464 60.2992 36.5036 60.6364C36.6607 60.9735 36.7393 61.3712 36.7393 61.8295C36.7393 62.2917 36.6607 62.6922 36.5036 63.0312C36.3464 63.3684 36.1286 63.6297 35.8501 63.8153C35.5717 63.9991 35.2507 64.0909 34.8871 64.0909C34.6068 64.0909 34.3823 64.0445 34.2138 63.9517C34.0452 63.857 33.9155 63.75 33.8246 63.6307C33.7337 63.5095 33.6636 63.4091 33.6143 63.3295H33.5575V65.6364H32.8871ZM33.5462 61.8182C33.5462 62.1477 33.5945 62.4384 33.6911 62.6903C33.7876 62.9403 33.9287 63.1364 34.1143 63.2784C34.3 63.4186 34.5272 63.4886 34.7962 63.4886C35.0765 63.4886 35.3104 63.4148 35.4979 63.267C35.6873 63.1174 35.8293 62.9167 35.924 62.6648C36.0206 62.411 36.0689 62.1288 36.0689 61.8182C36.0689 61.5114 36.0215 61.2348 35.9268 60.9886C35.834 60.7405 35.6929 60.5445 35.5036 60.4006C35.3161 60.2547 35.0803 60.1818 34.7962 60.1818C34.5234 60.1818 34.2943 60.2509 34.1087 60.3892C33.9231 60.5256 33.7829 60.7169 33.6882 60.9631C33.5935 61.2074 33.5462 61.4924 33.5462 61.8182ZM41.6143 61.9545L37.9553 63.8182V63.0909L40.7621 61.7386L40.7393 61.7841V61.6705L40.7621 61.7159L37.9553 60.3636V59.6364L41.6143 61.5V61.9545ZM43.1264 64V58.1818H43.831V60.7727H46.9332V58.1818H47.6378V64H46.9332V61.3977H43.831V64H43.1264ZM50.7869 64.0909C50.3665 64.0909 50.0038 63.9981 49.6989 63.8125C49.3958 63.625 49.1619 63.3636 48.9972 63.0284C48.8343 62.6913 48.7528 62.2992 48.7528 61.8523C48.7528 61.4053 48.8343 61.0114 48.9972 60.6705C49.1619 60.3277 49.3911 60.0606 49.6847 59.8693C49.9801 59.6761 50.3248 59.5795 50.7188 59.5795C50.946 59.5795 51.1705 59.6174 51.392 59.6932C51.6136 59.7689 51.8153 59.892 51.9972 60.0625C52.179 60.2311 52.3239 60.4545 52.4318 60.733C52.5398 61.0114 52.5938 61.3542 52.5938 61.7614V62.0455H49.2301V61.4659H51.9119C51.9119 61.2197 51.8627 61 51.7642 60.8068C51.6676 60.6136 51.5294 60.4612 51.3494 60.3494C51.1714 60.2377 50.9612 60.1818 50.7188 60.1818C50.4517 60.1818 50.2206 60.2481 50.0256 60.3807C49.8324 60.5114 49.6837 60.6818 49.5795 60.892C49.4754 61.1023 49.4233 61.3277 49.4233 61.5682V61.9545C49.4233 62.2841 49.4801 62.5634 49.5938 62.7926C49.7093 63.0199 49.8693 63.1932 50.0739 63.3125C50.2784 63.4299 50.5161 63.4886 50.7869 63.4886C50.9631 63.4886 51.1222 63.464 51.2642 63.4148C51.4081 63.3636 51.5322 63.2879 51.6364 63.1875C51.7405 63.0852 51.821 62.9583 51.8778 62.8068L52.5256 62.9886C52.4574 63.2083 52.3428 63.4015 52.1818 63.5682C52.0208 63.733 51.822 63.8617 51.5852 63.9545C51.3485 64.0455 51.0824 64.0909 50.7869 64.0909ZM54.2841 58.1818V64H53.6136V58.1818H54.2841ZM56.1825 58.1818V64H55.5121V58.1818H56.1825ZM59.1832 64.0909C58.7893 64.0909 58.4437 63.9972 58.1463 63.8097C57.8509 63.6222 57.6198 63.3598 57.4531 63.0227C57.2884 62.6856 57.206 62.2917 57.206 61.8409C57.206 61.3864 57.2884 60.9896 57.4531 60.6506C57.6198 60.3116 57.8509 60.0483 58.1463 59.8608C58.4437 59.6733 58.7893 59.5795 59.1832 59.5795C59.5772 59.5795 59.9219 59.6733 60.2173 59.8608C60.5147 60.0483 60.7457 60.3116 60.9105 60.6506C61.0772 60.9896 61.1605 61.3864 61.1605 61.8409C61.1605 62.2917 61.0772 62.6856 60.9105 63.0227C60.7457 63.3598 60.5147 63.6222 60.2173 63.8097C59.9219 63.9972 59.5772 64.0909 59.1832 64.0909ZM59.1832 63.4886C59.4825 63.4886 59.7287 63.4119 59.9219 63.2585C60.1151 63.1051 60.258 62.9034 60.3509 62.6534C60.4437 62.4034 60.4901 62.1326 60.4901 61.8409C60.4901 61.5492 60.4437 61.2775 60.3509 61.0256C60.258 60.7737 60.1151 60.5701 59.9219 60.4148C59.7287 60.2595 59.4825 60.1818 59.1832 60.1818C58.884 60.1818 58.6378 60.2595 58.4446 60.4148C58.2514 60.5701 58.1084 60.7737 58.0156 61.0256C57.9228 61.2775 57.8764 61.5492 57.8764 61.8409C57.8764 62.1326 57.9228 62.4034 58.0156 62.6534C58.1084 62.9034 58.2514 63.1051 58.4446 63.2585C58.6378 63.4119 58.884 63.4886 59.1832 63.4886ZM65.4226 64L64.093 59.6364H64.7976L65.7408 62.9773H65.7862L66.718 59.6364H67.4339L68.3544 62.9659H68.3999L69.343 59.6364H70.0476L68.718 64H68.0589L67.1044 60.6477H67.0362L66.0817 64H65.4226ZM72.5582 64.0909C72.1643 64.0909 71.8187 63.9972 71.5213 63.8097C71.2259 63.6222 70.9948 63.3598 70.8281 63.0227C70.6634 62.6856 70.581 62.2917 70.581 61.8409C70.581 61.3864 70.6634 60.9896 70.8281 60.6506C70.9948 60.3116 71.2259 60.0483 71.5213 59.8608C71.8187 59.6733 72.1643 59.5795 72.5582 59.5795C72.9522 59.5795 73.2969 59.6733 73.5923 59.8608C73.8897 60.0483 74.1207 60.3116 74.2855 60.6506C74.4522 60.9896 74.5355 61.3864 74.5355 61.8409C74.5355 62.2917 74.4522 62.6856 74.2855 63.0227C74.1207 63.3598 73.8897 63.6222 73.5923 63.8097C73.2969 63.9972 72.9522 64.0909 72.5582 64.0909ZM72.5582 63.4886C72.8575 63.4886 73.1037 63.4119 73.2969 63.2585C73.4901 63.1051 73.633 62.9034 73.7259 62.6534C73.8187 62.4034 73.8651 62.1326 73.8651 61.8409C73.8651 61.5492 73.8187 61.2775 73.7259 61.0256C73.633 60.7737 73.4901 60.5701 73.2969 60.4148C73.1037 60.2595 72.8575 60.1818 72.5582 60.1818C72.259 60.1818 72.0128 60.2595 71.8196 60.4148C71.6264 60.5701 71.4834 60.7737 71.3906 61.0256C71.2978 61.2775 71.2514 61.5492 71.2514 61.8409C71.2514 62.1326 71.2978 62.4034 71.3906 62.6534C71.4834 62.9034 71.6264 63.1051 71.8196 63.2585C72.0128 63.4119 72.259 63.4886 72.5582 63.4886ZM75.5589 64V59.6364H76.2067V60.2955H76.2521C76.3317 60.0795 76.4756 59.9044 76.6839 59.7699C76.8923 59.6354 77.1271 59.5682 77.3885 59.5682C77.4377 59.5682 77.4993 59.5691 77.5732 59.571C77.647 59.5729 77.7029 59.5758 77.7408 59.5795V60.2614C77.718 60.2557 77.666 60.2472 77.5845 60.2358C77.505 60.2225 77.4207 60.2159 77.3317 60.2159C77.1196 60.2159 76.9302 60.2604 76.7635 60.3494C76.5987 60.4366 76.468 60.5578 76.3714 60.7131C76.2768 60.8665 76.2294 61.0417 76.2294 61.2386V64H75.5589ZM79.206 58.1818V64H78.5355V58.1818H79.206ZM82.0817 64.0909C81.718 64.0909 81.397 63.9991 81.1186 63.8153C80.8402 63.6297 80.6224 63.3684 80.4652 63.0312C80.308 62.6922 80.2294 62.2917 80.2294 61.8295C80.2294 61.3712 80.308 60.9735 80.4652 60.6364C80.6224 60.2992 80.8411 60.0388 81.1214 59.8551C81.4018 59.6714 81.7256 59.5795 82.093 59.5795C82.3771 59.5795 82.6016 59.6269 82.7663 59.7216C82.933 59.8144 83.0599 59.9205 83.147 60.0398C83.236 60.1572 83.3052 60.2538 83.3544 60.3295H83.4112V58.1818H84.0817V64H83.4339V63.3295H83.3544C83.3052 63.4091 83.2351 63.5095 83.1442 63.6307C83.0533 63.75 82.9235 63.857 82.755 63.9517C82.5864 64.0445 82.362 64.0909 82.0817 64.0909ZM82.1726 63.4886C82.4415 63.4886 82.6688 63.4186 82.8544 63.2784C83.04 63.1364 83.1811 62.9403 83.2777 62.6903C83.3743 62.4384 83.4226 62.1477 83.4226 61.8182C83.4226 61.4924 83.3752 61.2074 83.2805 60.9631C83.1858 60.7169 83.0457 60.5256 82.8601 60.3892C82.6745 60.2509 82.4453 60.1818 82.1726 60.1818C81.8885 60.1818 81.6518 60.2547 81.4624 60.4006C81.2749 60.5445 81.1338 60.7405 81.0391 60.9886C80.9463 61.2348 80.8999 61.5114 80.8999 61.8182C80.8999 62.1288 80.9472 62.411 81.0419 62.6648C81.1385 62.9167 81.2805 63.1174 81.468 63.267C81.6574 63.4148 81.8923 63.4886 82.1726 63.4886ZM85.5959 61.9545V61.5L89.255 59.6364V60.3636L86.4482 61.7159L86.4709 61.6705V61.7841L86.4482 61.7386L89.255 63.0909V63.8182L85.5959 61.9545ZM92.733 57.9091L90.858 64.875H90.2443L92.1193 57.9091H92.733ZM93.5277 65.6364V59.6364H94.1754V60.3295H94.255C94.3042 60.2538 94.3724 60.1572 94.4595 60.0398C94.5485 59.9205 94.6754 59.8144 94.8402 59.7216C95.0069 59.6269 95.2322 59.5795 95.5163 59.5795C95.8838 59.5795 96.2076 59.6714 96.4879 59.8551C96.7682 60.0388 96.987 60.2992 97.1442 60.6364C97.3014 60.9735 97.38 61.3712 97.38 61.8295C97.38 62.2917 97.3014 62.6922 97.1442 63.0312C96.987 63.3684 96.7692 63.6297 96.4908 63.8153C96.2124 63.9991 95.8913 64.0909 95.5277 64.0909C95.2474 64.0909 95.023 64.0445 94.8544 63.9517C94.6858 63.857 94.5561 63.75 94.4652 63.6307C94.3743 63.5095 94.3042 63.4091 94.255 63.3295H94.1982V65.6364H93.5277ZM94.1868 61.8182C94.1868 62.1477 94.2351 62.4384 94.3317 62.6903C94.4283 62.9403 94.5694 63.1364 94.755 63.2784C94.9406 63.4186 95.1679 63.4886 95.4368 63.4886C95.7171 63.4886 95.951 63.4148 96.1385 63.267C96.3279 63.1174 96.4699 62.9167 96.5646 62.6648C96.6612 62.411 96.7095 62.1288 96.7095 61.8182C96.7095 61.5114 96.6622 61.2348 96.5675 60.9886C96.4747 60.7405 96.3336 60.5445 96.1442 60.4006C95.9567 60.2547 95.7209 60.1818 95.4368 60.1818C95.1641 60.1818 94.9349 60.2509 94.7493 60.3892C94.5637 60.5256 94.4235 60.7169 94.3288 60.9631C94.2341 61.2074 94.1868 61.4924 94.1868 61.8182ZM102.255 61.9545L98.5959 63.8182V63.0909L101.403 61.7386L101.38 61.7841V61.6705L101.403 61.7159L98.5959 60.3636V59.6364L102.255 61.5V61.9545Z" fill="#64748B"/>
<path d="M27.0455 72.5455C27.0455 73.2614 26.9517 73.9205 26.7642 74.5227C26.5786 75.1231 26.3125 75.6761 25.9659 76.1818H25.375C25.5114 75.9943 25.6383 75.7633 25.7557 75.4886C25.875 75.2159 25.9792 74.9167 26.0682 74.5909C26.1572 74.2633 26.2263 73.9252 26.2756 73.5767C26.3267 73.2263 26.3523 72.8826 26.3523 72.5455C26.3523 72.0947 26.3087 71.6373 26.2216 71.1733C26.1345 70.7093 26.017 70.2784 25.8693 69.8807C25.7216 69.483 25.5568 69.1591 25.375 68.9091H25.9659C26.3125 69.4148 26.5786 69.9687 26.7642 70.571C26.9517 71.1714 27.0455 71.8295 27.0455 72.5455ZM29.5121 74.2045L29.4666 74.5114C29.4344 74.7273 29.3852 74.9583 29.3189 75.2045C29.2545 75.4508 29.1873 75.6828 29.1172 75.9006C29.0471 76.1184 28.9893 76.2917 28.9439 76.4205H28.4325C28.4571 76.2992 28.4893 76.1392 28.5291 75.9403C28.5689 75.7415 28.6087 75.5189 28.6484 75.2727C28.6901 75.0284 28.7242 74.7784 28.7507 74.5227L28.7848 74.2045H29.5121ZM29.103 71.8068C28.9628 71.8068 28.8426 71.7566 28.7422 71.6562C28.6418 71.5559 28.5916 71.4356 28.5916 71.2955C28.5916 71.1553 28.6418 71.035 28.7422 70.9347C28.8426 70.8343 28.9628 70.7841 29.103 70.7841C29.2431 70.7841 29.3634 70.8343 29.4638 70.9347C29.5642 71.035 29.6143 71.1553 29.6143 71.2955C29.6143 71.3883 29.5907 71.4735 29.5433 71.5511C29.4979 71.6288 29.4363 71.6913 29.3587 71.7386C29.2829 71.7841 29.1977 71.8068 29.103 71.8068Z" fill="#64748B"/>
<rect x="11.5" y="7.5" width="136" height="84" rx="1.5" stroke="#64748B"/>
<circle cx="15.5" cy="11.5" r="1.5" fill="#E11D48"/>
<circle cx="21.5" cy="11.5" r="1.5" fill="#EBFF00"/>
<circle cx="27.5" cy="11.5" r="1.5" fill="#00FF29"/>
</svg>
