<svg width="160" height="100" viewBox="0 0 160 100" fill="none" xmlns="http://www.w3.org/2000/svg">
<rect x="0.05" y="0.05" width="159.9" height="99.9" rx="4.95" fill="white" stroke="#94A3B8" stroke-width="0.1"/>
<path d="M54.733 22H53.8523C53.8002 21.7467 53.709 21.5241 53.5788 21.3324C53.451 21.1406 53.2947 20.9796 53.1101 20.8494C52.9278 20.7169 52.7254 20.6174 52.5028 20.5511C52.2803 20.4848 52.0483 20.4517 51.8068 20.4517C51.3665 20.4517 50.9676 20.563 50.6101 20.7855C50.255 21.008 49.9721 21.3359 49.7614 21.7692C49.553 22.2024 49.4489 22.7339 49.4489 23.3636C49.4489 23.9934 49.553 24.5249 49.7614 24.9581C49.9721 25.3913 50.255 25.7192 50.6101 25.9418C50.9676 26.1643 51.3665 26.2756 51.8068 26.2756C52.0483 26.2756 52.2803 26.2424 52.5028 26.1761C52.7254 26.1098 52.9278 26.0116 53.1101 25.8814C53.2947 25.7488 53.451 25.5866 53.5788 25.3949C53.709 25.2008 53.8002 24.9782 53.8523 24.7273H54.733C54.6667 25.099 54.5459 25.4316 54.3707 25.7251C54.1955 26.0187 53.9777 26.2685 53.7173 26.4744C53.4569 26.678 53.1645 26.8331 52.8402 26.9396C52.5182 27.0462 52.1738 27.0994 51.8068 27.0994C51.1866 27.0994 50.6349 26.9479 50.152 26.6449C49.669 26.3419 49.2891 25.911 49.0121 25.3523C48.7351 24.7936 48.5966 24.1307 48.5966 23.3636C48.5966 22.5966 48.7351 21.9337 49.0121 21.375C49.2891 20.8163 49.669 20.3854 50.152 20.0824C50.6349 19.7794 51.1866 19.6278 51.8068 19.6278C52.1738 19.6278 52.5182 19.6811 52.8402 19.7876C53.1645 19.8942 53.4569 20.0504 53.7173 20.2564C53.9777 20.46 54.1955 20.7086 54.3707 21.0021C54.5459 21.2933 54.6667 21.6259 54.733 22ZM58.2583 27.1136C57.7659 27.1136 57.3339 26.9964 56.9622 26.7621C56.5929 26.5277 56.304 26.1998 56.0957 25.7784C55.8897 25.357 55.7868 24.8646 55.7868 24.3011C55.7868 23.733 55.8897 23.237 56.0957 22.8132C56.304 22.3894 56.5929 22.0604 56.9622 21.826C57.3339 21.5916 57.7659 21.4744 58.2583 21.4744C58.7508 21.4744 59.1816 21.5916 59.551 21.826C59.9226 22.0604 60.2115 22.3894 60.4174 22.8132C60.6258 23.237 60.7299 23.733 60.7299 24.3011C60.7299 24.8646 60.6258 25.357 60.4174 25.7784C60.2115 26.1998 59.9226 26.5277 59.551 26.7621C59.1816 26.9964 58.7508 27.1136 58.2583 27.1136ZM58.2583 26.3608C58.6324 26.3608 58.9402 26.2649 59.1816 26.0732C59.4231 25.8814 59.6019 25.6293 59.7179 25.3168C59.8339 25.0043 59.8919 24.6657 59.8919 24.3011C59.8919 23.9366 59.8339 23.5968 59.7179 23.282C59.6019 22.9671 59.4231 22.7126 59.1816 22.5185C58.9402 22.3243 58.6324 22.2273 58.2583 22.2273C57.8843 22.2273 57.5765 22.3243 57.335 22.5185C57.0936 22.7126 56.9148 22.9671 56.7988 23.282C56.6828 23.5968 56.6248 23.9366 56.6248 24.3011C56.6248 24.6657 56.6828 25.0043 56.7988 25.3168C56.9148 25.6293 57.0936 25.8814 57.335 26.0732C57.5765 26.2649 57.8843 26.3608 58.2583 26.3608ZM62.0092 27V21.5455H62.8189V22.3977H62.8899C63.0036 22.1065 63.187 21.8804 63.4403 21.7195C63.6937 21.5561 63.9979 21.4744 64.353 21.4744C64.7128 21.4744 65.0123 21.5561 65.2514 21.7195C65.4929 21.8804 65.6811 22.1065 65.8161 22.3977H65.8729C66.0125 22.116 66.2221 21.8923 66.5014 21.7266C66.7808 21.5585 67.1158 21.4744 67.5064 21.4744C67.9941 21.4744 68.393 21.6271 68.7031 21.9325C69.0133 22.2356 69.1683 22.7079 69.1683 23.3494V27H68.3303V23.3494C68.3303 22.947 68.2202 22.6593 68 22.4865C67.7798 22.3137 67.5206 22.2273 67.2223 22.2273C66.8388 22.2273 66.5417 22.3433 66.331 22.5753C66.1203 22.8049 66.0149 23.0961 66.0149 23.4489V27H65.1626V23.2642C65.1626 22.9541 65.062 22.7043 64.8608 22.5149C64.6596 22.3232 64.4003 22.2273 64.0831 22.2273C63.8653 22.2273 63.6617 22.2853 63.4723 22.4013C63.2853 22.5173 63.1338 22.6783 63.0178 22.8842C62.9041 23.0878 62.8473 23.3234 62.8473 23.5909V27H62.0092ZM70.7006 27V21.5455H71.5387V27H70.7006ZM71.1268 20.6364C70.9634 20.6364 70.8226 20.5807 70.7042 20.4695C70.5882 20.3582 70.5302 20.2244 70.5302 20.0682C70.5302 19.9119 70.5882 19.7782 70.7042 19.6669C70.8226 19.5556 70.9634 19.5 71.1268 19.5C71.2901 19.5 71.4298 19.5556 71.5458 19.6669C71.6642 19.7782 71.7234 19.9119 71.7234 20.0682C71.7234 20.2244 71.6642 20.3582 71.5458 20.4695C71.4298 20.5807 71.2901 20.6364 71.1268 20.6364ZM73.9118 23.7188V27H73.0737V21.5455H73.8833V22.3977H73.9544C74.0822 22.1207 74.2763 21.8982 74.5368 21.7301C74.7972 21.5597 75.1333 21.4744 75.5453 21.4744C75.9146 21.4744 76.2377 21.5502 76.5147 21.7017C76.7917 21.8509 77.0072 22.0781 77.161 22.3835C77.3149 22.6866 77.3919 23.0701 77.3919 23.5341V27H76.5538V23.5909C76.5538 23.1624 76.4425 22.8286 76.22 22.5895C75.9975 22.348 75.6921 22.2273 75.3038 22.2273C75.0363 22.2273 74.7972 22.2853 74.5865 22.4013C74.3781 22.5173 74.2136 22.6866 74.0929 22.9091C73.9721 23.1316 73.9118 23.4015 73.9118 23.7188ZM81.125 29.1591C80.7202 29.1591 80.3722 29.107 80.081 29.0028C79.7898 28.901 79.5471 28.7661 79.353 28.598C79.1612 28.4323 79.0085 28.2547 78.8949 28.0653L79.5625 27.5966C79.6383 27.696 79.7341 27.8097 79.8501 27.9375C79.9661 28.0677 80.1248 28.1802 80.326 28.2749C80.5296 28.3719 80.7959 28.4205 81.125 28.4205C81.5653 28.4205 81.9287 28.3139 82.2152 28.1009C82.5017 27.8878 82.6449 27.554 82.6449 27.0994V25.9915H82.5739C82.5123 26.0909 82.4247 26.214 82.3111 26.3608C82.1998 26.5052 82.0388 26.6342 81.8281 26.7479C81.6198 26.8591 81.3381 26.9148 80.983 26.9148C80.5426 26.9148 80.1473 26.8106 79.7969 26.6023C79.4489 26.3939 79.1731 26.0909 78.9695 25.6932C78.7682 25.2955 78.6676 24.8125 78.6676 24.2443C78.6676 23.6856 78.7659 23.1991 78.9624 22.7848C79.1589 22.3681 79.4323 22.0462 79.7827 21.8189C80.133 21.5893 80.5379 21.4744 80.9972 21.4744C81.3523 21.4744 81.634 21.5336 81.8423 21.652C82.053 21.768 82.214 21.9006 82.3253 22.0497C82.4389 22.1965 82.5265 22.3172 82.5881 22.4119H82.6733V21.5455H83.483V27.1562C83.483 27.625 83.3764 28.0062 83.1634 28.2997C82.9527 28.5956 82.6686 28.8123 82.3111 28.9496C81.956 29.0893 81.5606 29.1591 81.125 29.1591ZM81.0966 26.1619C81.4328 26.1619 81.7169 26.085 81.9489 25.9311C82.1809 25.7772 82.3572 25.5559 82.478 25.267C82.5987 24.9782 82.6591 24.6326 82.6591 24.2301C82.6591 23.8371 82.5999 23.4903 82.4815 23.1896C82.3632 22.889 82.188 22.6534 81.956 22.483C81.724 22.3125 81.4375 22.2273 81.0966 22.2273C80.7415 22.2273 80.4455 22.3172 80.2088 22.4972C79.9744 22.6771 79.7981 22.9186 79.6797 23.2216C79.5637 23.5246 79.5057 23.8608 79.5057 24.2301C79.5057 24.6089 79.5649 24.9439 79.6832 25.2351C79.804 25.5239 79.9815 25.7512 80.2159 25.9169C80.4527 26.0803 80.7462 26.1619 81.0966 26.1619ZM91.9205 21.5455C91.8778 21.1856 91.705 20.9062 91.402 20.7074C91.099 20.5085 90.7273 20.4091 90.2869 20.4091C89.965 20.4091 89.6832 20.4612 89.4418 20.5653C89.2027 20.6695 89.0156 20.8127 88.8807 20.995C88.7481 21.1773 88.6818 21.3845 88.6818 21.6165C88.6818 21.8106 88.728 21.9775 88.8203 22.1172C88.915 22.2545 89.0357 22.3693 89.1825 22.4616C89.3293 22.5516 89.4832 22.6262 89.6442 22.6854C89.8052 22.7422 89.9531 22.7884 90.0881 22.8239L90.8267 23.0227C91.0161 23.0724 91.2268 23.1411 91.4588 23.2287C91.6932 23.3163 91.9169 23.4358 92.13 23.5874C92.3454 23.7365 92.523 23.9283 92.6626 24.1626C92.8023 24.397 92.8722 24.6847 92.8722 25.0256C92.8722 25.4186 92.7692 25.7737 92.5632 26.0909C92.3596 26.4081 92.0613 26.6603 91.6683 26.8473C91.2777 27.0343 90.803 27.1278 90.2443 27.1278C89.7235 27.1278 89.2725 27.0438 88.8913 26.8757C88.5125 26.7076 88.2143 26.4732 87.9964 26.1726C87.781 25.8719 87.6591 25.5227 87.6307 25.125H88.5398C88.5634 25.3996 88.6558 25.6269 88.8168 25.8068C88.9801 25.9844 89.1861 26.117 89.4347 26.2045C89.6856 26.2898 89.9555 26.3324 90.2443 26.3324C90.5805 26.3324 90.8823 26.2779 91.1499 26.169C91.4174 26.0578 91.6293 25.9039 91.7855 25.7074C91.9418 25.5085 92.0199 25.2765 92.0199 25.0114C92.0199 24.7699 91.9524 24.5734 91.8175 24.4219C91.6825 24.2704 91.505 24.1473 91.2848 24.0526C91.0646 23.9579 90.8267 23.875 90.571 23.804L89.6761 23.5483C89.108 23.3849 88.6581 23.1518 88.3267 22.8487C87.9953 22.5457 87.8295 22.1491 87.8295 21.6591C87.8295 21.2519 87.9396 20.8968 88.1598 20.5938C88.3823 20.2884 88.6806 20.0516 89.0547 19.8835C89.4311 19.7131 89.8513 19.6278 90.3153 19.6278C90.7841 19.6278 91.2008 19.7119 91.5653 19.88C91.9299 20.0457 92.2188 20.273 92.4318 20.5618C92.6473 20.8506 92.7609 21.1785 92.7727 21.5455H91.9205ZM96.4224 27.1136C95.93 27.1136 95.4979 26.9964 95.1262 26.7621C94.7569 26.5277 94.4681 26.1998 94.2598 25.7784C94.0538 25.357 93.9508 24.8646 93.9508 24.3011C93.9508 23.733 94.0538 23.237 94.2598 22.8132C94.4681 22.3894 94.7569 22.0604 95.1262 21.826C95.4979 21.5916 95.93 21.4744 96.4224 21.4744C96.9148 21.4744 97.3457 21.5916 97.715 21.826C98.0867 22.0604 98.3755 22.3894 98.5815 22.8132C98.7898 23.237 98.894 23.733 98.894 24.3011C98.894 24.8646 98.7898 25.357 98.5815 25.7784C98.3755 26.1998 98.0867 26.5277 97.715 26.7621C97.3457 26.9964 96.9148 27.1136 96.4224 27.1136ZM96.4224 26.3608C96.7965 26.3608 97.1042 26.2649 97.3457 26.0732C97.5872 25.8814 97.7659 25.6293 97.8819 25.3168C97.9979 25.0043 98.0559 24.6657 98.0559 24.3011C98.0559 23.9366 97.9979 23.5968 97.8819 23.282C97.7659 22.9671 97.5872 22.7126 97.3457 22.5185C97.1042 22.3243 96.7965 22.2273 96.4224 22.2273C96.0484 22.2273 95.7406 22.3243 95.4991 22.5185C95.2576 22.7126 95.0789 22.9671 94.9629 23.282C94.8469 23.5968 94.7889 23.9366 94.7889 24.3011C94.7889 24.6657 94.8469 25.0043 94.9629 25.3168C95.0789 25.6293 95.2576 25.8814 95.4991 26.0732C95.7406 26.2649 96.0484 26.3608 96.4224 26.3608ZM102.389 27.1136C101.897 27.1136 101.465 26.9964 101.093 26.7621C100.724 26.5277 100.435 26.1998 100.227 25.7784C100.021 25.357 99.9176 24.8646 99.9176 24.3011C99.9176 23.733 100.021 23.237 100.227 22.8132C100.435 22.3894 100.724 22.0604 101.093 21.826C101.465 21.5916 101.897 21.4744 102.389 21.4744C102.882 21.4744 103.313 21.5916 103.682 21.826C104.054 22.0604 104.342 22.3894 104.548 22.8132C104.757 23.237 104.861 23.733 104.861 24.3011C104.861 24.8646 104.757 25.357 104.548 25.7784C104.342 26.1998 104.054 26.5277 103.682 26.7621C103.313 26.9964 102.882 27.1136 102.389 27.1136ZM102.389 26.3608C102.763 26.3608 103.071 26.2649 103.312 26.0732C103.554 25.8814 103.733 25.6293 103.849 25.3168C103.965 25.0043 104.023 24.6657 104.023 24.3011C104.023 23.9366 103.965 23.5968 103.849 23.282C103.733 22.9671 103.554 22.7126 103.312 22.5185C103.071 22.3243 102.763 22.2273 102.389 22.2273C102.015 22.2273 101.707 22.3243 101.466 22.5185C101.224 22.7126 101.046 22.9671 100.93 23.282C100.814 23.5968 100.756 23.9366 100.756 24.3011C100.756 24.6657 100.814 25.0043 100.93 25.3168C101.046 25.6293 101.224 25.8814 101.466 26.0732C101.707 26.2649 102.015 26.3608 102.389 26.3608ZM106.978 23.7188V27H106.14V21.5455H106.95V22.3977H107.021C107.149 22.1207 107.343 21.8982 107.603 21.7301C107.864 21.5597 108.2 21.4744 108.612 21.4744C108.981 21.4744 109.304 21.5502 109.581 21.7017C109.858 21.8509 110.074 22.0781 110.227 22.3835C110.381 22.6866 110.458 23.0701 110.458 23.5341V27H109.62V23.5909C109.62 23.1624 109.509 22.8286 109.286 22.5895C109.064 22.348 108.758 22.2273 108.37 22.2273C108.103 22.2273 107.864 22.2853 107.653 22.4013C107.445 22.5173 107.28 22.6866 107.159 22.9091C107.039 23.1316 106.978 23.4015 106.978 23.7188Z" fill="#E11D48"/>
<rect x="23.5" y="38.5" width="20" height="19" rx="1.5" stroke="#828282"/>
<path d="M27.5824 50.5085V49.7841L30.7784 44.7273H31.304V45.8494H30.9489L28.5341 49.6705V49.7273H32.8381V50.5085H27.5824ZM31.0057 52V50.2884V49.951V44.7273H31.8438V52H31.0057ZM36.4416 52.0994C36.0249 52.0994 35.6497 52.0166 35.3159 51.8509C34.9821 51.6851 34.7145 51.4579 34.5133 51.169C34.3121 50.8802 34.202 50.5511 34.1831 50.1818H35.0353C35.0685 50.5109 35.2176 50.7831 35.4828 50.9986C35.7503 51.2116 36.0699 51.3182 36.4416 51.3182C36.7399 51.3182 37.005 51.2483 37.237 51.1087C37.4714 50.969 37.6549 50.7772 37.7875 50.5334C37.9224 50.2872 37.9899 50.009 37.9899 49.6989C37.9899 49.3816 37.92 49.0987 37.7804 48.8501C37.6431 48.5992 37.4537 48.4015 37.2122 48.2571C36.9707 48.1127 36.6949 48.0393 36.3848 48.0369C36.1622 48.0346 35.9338 48.0689 35.6994 48.1399C35.465 48.2086 35.2721 48.2973 35.1206 48.4062L34.2967 48.3068L34.737 44.7273H38.5154V45.5085H35.4757L35.22 47.6534H35.2626C35.4118 47.535 35.5988 47.4368 35.8237 47.3587C36.0486 47.2805 36.283 47.2415 36.5268 47.2415C36.9719 47.2415 37.3684 47.348 37.7164 47.5611C38.0668 47.7718 38.3414 48.0606 38.5403 48.4276C38.7415 48.7945 38.8422 49.2135 38.8422 49.6847C38.8422 50.1487 38.738 50.563 38.5297 50.9276C38.3237 51.2898 38.0396 51.5762 37.6774 51.7869C37.3152 51.9953 36.9032 52.0994 36.4416 52.0994Z" fill="#828282"/>
<rect x="55.5" y="38.5" width="20" height="19" rx="1.5" stroke="#828282"/>
<path d="M62.2102 52.0994C61.7415 52.0994 61.3236 52.0189 60.9567 51.858C60.5921 51.697 60.3021 51.4732 60.0866 51.1868C59.8736 50.898 59.7576 50.563 59.7386 50.1818H60.6335C60.6525 50.4162 60.733 50.6186 60.875 50.7891C61.017 50.9571 61.2029 51.0874 61.4325 51.1797C61.6622 51.272 61.9167 51.3182 62.196 51.3182C62.5085 51.3182 62.7855 51.2637 63.027 51.1548C63.2685 51.0459 63.4579 50.8944 63.5952 50.7003C63.7325 50.5062 63.8011 50.2812 63.8011 50.0256C63.8011 49.758 63.7348 49.5225 63.6023 49.3189C63.4697 49.1129 63.2756 48.9519 63.0199 48.8359C62.7642 48.7199 62.4517 48.6619 62.0824 48.6619H61.5V47.8807H62.0824C62.3712 47.8807 62.6245 47.8286 62.8423 47.7244C63.0625 47.6203 63.2341 47.4735 63.3572 47.2841C63.4827 47.0947 63.5455 46.8722 63.5455 46.6165C63.5455 46.3703 63.491 46.156 63.3821 45.9737C63.2732 45.7914 63.1193 45.6494 62.9205 45.5476C62.724 45.4458 62.492 45.3949 62.2244 45.3949C61.9735 45.3949 61.7367 45.4411 61.5142 45.5334C61.294 45.6233 61.1141 45.7547 60.9744 45.9276C60.8348 46.098 60.759 46.304 60.7472 46.5455H59.8949C59.9091 46.1643 60.0239 45.8305 60.2393 45.544C60.4548 45.2552 60.7365 45.0303 61.0845 44.8693C61.4349 44.7083 61.8196 44.6278 62.2386 44.6278C62.6884 44.6278 63.0743 44.719 63.3963 44.9013C63.7183 45.0812 63.9657 45.3191 64.1385 45.6151C64.3113 45.911 64.3977 46.2306 64.3977 46.5739C64.3977 46.9834 64.29 47.3326 64.0746 47.6214C63.8615 47.9103 63.5715 48.1103 63.2045 48.2216V48.2784C63.6638 48.3542 64.0225 48.5495 64.2805 48.8643C64.5386 49.1768 64.6676 49.5639 64.6676 50.0256C64.6676 50.4209 64.5599 50.776 64.3445 51.0909C64.1314 51.4034 63.8402 51.6496 63.4709 51.8295C63.1016 52.0095 62.6813 52.0994 62.2102 52.0994ZM68.4922 52.0994C67.9571 52.0994 67.5014 51.9538 67.125 51.6626C66.7486 51.3691 66.4609 50.9441 66.2621 50.3878C66.0632 49.8291 65.9638 49.1544 65.9638 48.3636C65.9638 47.5777 66.0632 46.9065 66.2621 46.3501C66.4633 45.7914 66.7521 45.3653 67.1286 45.0717C67.5073 44.7758 67.9619 44.6278 68.4922 44.6278C69.0225 44.6278 69.4759 44.7758 69.8523 45.0717C70.2311 45.3653 70.5199 45.7914 70.7188 46.3501C70.92 46.9065 71.0206 47.5777 71.0206 48.3636C71.0206 49.1544 70.9212 49.8291 70.7223 50.3878C70.5234 50.9441 70.2358 51.3691 69.8594 51.6626C69.483 51.9538 69.0272 52.0994 68.4922 52.0994ZM68.4922 51.3182C69.0225 51.3182 69.4344 51.0625 69.728 50.5511C70.0215 50.0398 70.1683 49.3106 70.1683 48.3636C70.1683 47.7339 70.1009 47.1977 69.9659 46.755C69.8333 46.3123 69.6416 45.9749 69.3906 45.7429C69.142 45.5109 68.8426 45.3949 68.4922 45.3949C67.9666 45.3949 67.5559 45.6541 67.2599 46.1726C66.964 46.6887 66.8161 47.419 66.8161 48.3636C66.8161 48.9934 66.8823 49.5284 67.0149 49.9688C67.1475 50.4091 67.3381 50.7441 67.5866 50.9737C67.8376 51.2034 68.1394 51.3182 68.4922 51.3182Z" fill="#828282"/>
<rect x="87.5" y="38.5" width="20" height="19" rx="1.5" stroke="#828282"/>
<path d="M94.125 52.0994C93.59 52.0994 93.1342 51.9538 92.7578 51.6626C92.3814 51.3691 92.0938 50.9441 91.8949 50.3878C91.696 49.8291 91.5966 49.1544 91.5966 48.3636C91.5966 47.5777 91.696 46.9065 91.8949 46.3501C92.0961 45.7914 92.3849 45.3653 92.7614 45.0717C93.1402 44.7758 93.5947 44.6278 94.125 44.6278C94.6553 44.6278 95.1087 44.7758 95.4851 45.0717C95.8639 45.3653 96.1527 45.7914 96.3516 46.3501C96.5528 46.9065 96.6534 47.5777 96.6534 48.3636C96.6534 49.1544 96.554 49.8291 96.3551 50.3878C96.1562 50.9441 95.8686 51.3691 95.4922 51.6626C95.1158 51.9538 94.66 52.0994 94.125 52.0994ZM94.125 51.3182C94.6553 51.3182 95.0672 51.0625 95.3608 50.5511C95.6544 50.0398 95.8011 49.3106 95.8011 48.3636C95.8011 47.7339 95.7337 47.1977 95.5987 46.755C95.4661 46.3123 95.2744 45.9749 95.0234 45.7429C94.7749 45.5109 94.4754 45.3949 94.125 45.3949C93.5994 45.3949 93.1887 45.6541 92.8928 46.1726C92.5968 46.6887 92.4489 47.419 92.4489 48.3636C92.4489 48.9934 92.5152 49.5284 92.6477 49.9688C92.7803 50.4091 92.9709 50.7441 93.2195 50.9737C93.4704 51.2034 93.7723 51.3182 94.125 51.3182ZM100.418 52.0994C100.119 52.0947 99.821 52.0379 99.5227 51.929C99.2244 51.8201 98.9522 51.6366 98.706 51.3786C98.4598 51.1181 98.2621 50.7666 98.1129 50.3239C97.9638 49.8788 97.8892 49.3201 97.8892 48.6477C97.8892 48.0038 97.9496 47.4332 98.0703 46.9361C98.1911 46.4366 98.3662 46.0163 98.5959 45.6754C98.8255 45.3321 99.1025 45.0717 99.4268 44.8942C99.7536 44.7166 100.122 44.6278 100.531 44.6278C100.938 44.6278 101.301 44.7095 101.618 44.8729C101.938 45.0339 102.198 45.2588 102.399 45.5476C102.6 45.8364 102.731 46.169 102.79 46.5455H101.923C101.843 46.2187 101.687 45.9477 101.455 45.7322C101.223 45.5168 100.915 45.4091 100.531 45.4091C99.9678 45.4091 99.5239 45.6541 99.1996 46.1442C98.8776 46.6342 98.7154 47.322 98.7131 48.2074H98.7699C98.9025 48.0062 99.0599 47.8345 99.2422 47.6925C99.4268 47.5481 99.6304 47.4368 99.853 47.3587C100.076 47.2805 100.311 47.2415 100.56 47.2415C100.976 47.2415 101.357 47.3456 101.703 47.554C102.049 47.7599 102.326 48.0452 102.534 48.4098C102.742 48.772 102.847 49.1875 102.847 49.6562C102.847 50.1061 102.746 50.518 102.545 50.892C102.344 51.2637 102.061 51.5597 101.696 51.7798C101.334 51.9976 100.908 52.1042 100.418 52.0994ZM100.418 51.3182C100.716 51.3182 100.983 51.2436 101.22 51.0945C101.459 50.9453 101.647 50.7453 101.785 50.4943C101.924 50.2434 101.994 49.964 101.994 49.6562C101.994 49.3556 101.927 49.0821 101.792 48.8359C101.659 48.5874 101.476 48.3897 101.241 48.2429C101.009 48.0961 100.744 48.0227 100.446 48.0227C100.221 48.0227 100.012 48.0677 99.8175 48.1577C99.6233 48.2453 99.4529 48.366 99.3061 48.5199C99.1617 48.6738 99.0481 48.8501 98.9652 49.049C98.8823 49.2455 98.8409 49.4527 98.8409 49.6705C98.8409 49.9593 98.9084 50.2292 99.0433 50.4801C99.1806 50.7311 99.3677 50.9335 99.6044 51.0874C99.8435 51.2412 100.115 51.3182 100.418 51.3182Z" fill="#828282"/>
<rect x="119.5" y="38.5" width="18" height="19" rx="1.5" stroke="#828282"/>
<path d="M126.31 44.7273V52H125.429V45.6506H125.386L123.611 46.8295V45.9347L125.429 44.7273H126.31ZM130.731 52.0994C130.243 52.0994 129.812 52.013 129.438 51.8402C129.067 51.665 128.777 51.4247 128.568 51.1193C128.36 50.8116 128.257 50.4612 128.259 50.0682C128.257 49.7604 128.317 49.4763 128.44 49.2159C128.563 48.9531 128.732 48.7341 128.945 48.5589C129.16 48.3814 129.4 48.2689 129.665 48.2216V48.179C129.317 48.089 129.04 47.8937 128.835 47.593C128.629 47.29 128.527 46.9455 128.529 46.5597C128.527 46.1903 128.62 45.8601 128.81 45.5689C128.999 45.2777 129.259 45.0481 129.591 44.88C129.925 44.7119 130.305 44.6278 130.731 44.6278C131.152 44.6278 131.529 44.7119 131.86 44.88C132.192 45.0481 132.452 45.2777 132.641 45.5689C132.833 45.8601 132.93 46.1903 132.933 46.5597C132.93 46.9455 132.825 47.29 132.616 47.593C132.411 47.8937 132.137 48.089 131.796 48.179V48.2216C132.059 48.2689 132.296 48.3814 132.506 48.5589C132.717 48.7341 132.885 48.9531 133.011 49.2159C133.136 49.4763 133.2 49.7604 133.202 50.0682C133.2 50.4612 133.094 50.8116 132.883 51.1193C132.674 51.4247 132.384 51.665 132.013 51.8402C131.643 52.013 131.216 52.0994 130.731 52.0994ZM130.731 51.3182C131.06 51.3182 131.344 51.2649 131.583 51.1584C131.822 51.0518 132.007 50.9015 132.137 50.7074C132.267 50.5133 132.334 50.286 132.336 50.0256C132.334 49.7509 132.263 49.5083 132.123 49.2976C131.983 49.0869 131.793 48.9212 131.551 48.8004C131.312 48.6797 131.039 48.6193 130.731 48.6193C130.421 48.6193 130.144 48.6797 129.9 48.8004C129.658 48.9212 129.468 49.0869 129.328 49.2976C129.191 49.5083 129.123 49.7509 129.126 50.0256C129.123 50.286 129.186 50.5133 129.314 50.7074C129.444 50.9015 129.63 51.0518 129.871 51.1584C130.113 51.2649 130.399 51.3182 130.731 51.3182ZM130.731 47.8665C130.991 47.8665 131.222 47.8144 131.423 47.7102C131.627 47.6061 131.787 47.4605 131.903 47.2734C132.019 47.0864 132.078 46.8674 132.08 46.6165C132.078 46.3703 132.02 46.156 131.906 45.9737C131.793 45.7891 131.635 45.647 131.434 45.5476C131.233 45.4458 130.998 45.3949 130.731 45.3949C130.459 45.3949 130.221 45.4458 130.017 45.5476C129.813 45.647 129.656 45.7891 129.545 45.9737C129.433 46.156 129.379 46.3703 129.381 46.6165C129.379 46.8674 129.435 47.0864 129.548 47.2734C129.664 47.4605 129.824 47.6061 130.028 47.7102C130.231 47.8144 130.466 47.8665 130.731 47.8665Z" fill="#828282"/>
<path d="M71 64.5H91" stroke="#828282" stroke-linecap="round"/>
<path d="M71 70H91" stroke="#828282" stroke-linecap="round"/>
<path d="M61 68L99 68" stroke="#828282" stroke-linecap="round"/>
<rect x="72.5" y="75.5" width="16" height="6" rx="3" fill="#D9D9D9" stroke="#E11D48"/>
<path d="M75 78.5H87" stroke="#E11D48" stroke-linecap="round"/>
</svg>
