<svg width="160" height="100" viewBox="0 0 160 100" fill="none" xmlns="http://www.w3.org/2000/svg">
<rect x="0.05" y="0.05" width="159.9" height="99.9" rx="4.95" fill="none" stroke="#94A3B8" stroke-width="0.1"/>
<path d="M54.125 18H51.8807V10.7273H54.2244C54.9299 10.7273 55.5336 10.8729 56.0355 11.1641C56.5374 11.4529 56.9221 11.8684 57.1896 12.4105C57.4571 12.9503 57.5909 13.5966 57.5909 14.3494C57.5909 15.107 57.456 15.7592 57.1861 16.3061C56.9162 16.8506 56.5232 17.2696 56.0071 17.5632C55.491 17.8544 54.8636 18 54.125 18ZM52.7614 17.2188H54.0682C54.6695 17.2188 55.1679 17.1027 55.5632 16.8707C55.9586 16.6387 56.2533 16.3085 56.4474 15.88C56.6416 15.4515 56.7386 14.9413 56.7386 14.3494C56.7386 13.7623 56.6428 13.2569 56.451 12.8331C56.2592 12.407 55.9728 12.0803 55.5916 11.853C55.2105 11.6233 54.7358 11.5085 54.1676 11.5085H52.7614V17.2188ZM60.5597 18.1278C60.214 18.1278 59.9003 18.0627 59.6186 17.9325C59.3369 17.8 59.1132 17.6094 58.9474 17.3608C58.7817 17.1098 58.6989 16.8068 58.6989 16.4517C58.6989 16.1392 58.7604 15.8859 58.8835 15.6918C59.0066 15.4953 59.1712 15.3414 59.3771 15.2301C59.5831 15.1188 59.8104 15.036 60.0589 14.9815C60.3099 14.9247 60.562 14.8797 60.8153 14.8466C61.1468 14.804 61.4155 14.772 61.6214 14.7507C61.8298 14.727 61.9813 14.688 62.076 14.6335C62.1731 14.5791 62.2216 14.4844 62.2216 14.3494V14.321C62.2216 13.9706 62.1257 13.6984 61.9339 13.5043C61.7446 13.3101 61.4569 13.2131 61.071 13.2131C60.6709 13.2131 60.3572 13.3007 60.13 13.4759C59.9027 13.651 59.7429 13.8381 59.6506 14.0369L58.8551 13.7528C58.9972 13.4214 59.1866 13.1634 59.4233 12.9787C59.6624 12.7917 59.9228 12.6615 60.2045 12.5881C60.4886 12.5123 60.768 12.4744 61.0426 12.4744C61.2178 12.4744 61.419 12.4957 61.6463 12.5384C61.8759 12.5786 62.0973 12.6626 62.3104 12.7905C62.5258 12.9183 62.7045 13.1113 62.8466 13.3693C62.9886 13.6274 63.0597 13.973 63.0597 14.4062V18H62.2216V17.2614H62.179C62.1222 17.3797 62.0275 17.5064 61.8949 17.6413C61.7623 17.7763 61.5859 17.8911 61.3658 17.9858C61.1456 18.0805 60.8769 18.1278 60.5597 18.1278ZM60.6875 17.375C61.0189 17.375 61.2983 17.3099 61.5256 17.1797C61.7552 17.0495 61.928 16.8814 62.044 16.6754C62.1624 16.4695 62.2216 16.2528 62.2216 16.0256V15.2585C62.1861 15.3011 62.108 15.3402 61.9872 15.3757C61.8688 15.4089 61.7315 15.4384 61.5753 15.4645C61.4214 15.4882 61.2711 15.5095 61.1243 15.5284C60.9799 15.545 60.8627 15.5592 60.7727 15.571C60.5549 15.5994 60.3513 15.6456 60.1619 15.7095C59.9749 15.7711 59.8234 15.8646 59.7074 15.9901C59.5938 16.1132 59.5369 16.2812 59.5369 16.4943C59.5369 16.7855 59.6446 17.0057 59.8601 17.1548C60.0779 17.3016 60.3537 17.375 60.6875 17.375ZM68.4529 13.767L67.7001 13.9801C67.6528 13.8546 67.5829 13.7327 67.4906 13.6143C67.4006 13.4936 67.2775 13.3942 67.1213 13.3161C66.965 13.2379 66.765 13.1989 66.5211 13.1989C66.1873 13.1989 65.9092 13.2758 65.6866 13.4297C65.4664 13.5812 65.3564 13.7741 65.3564 14.0085C65.3564 14.2169 65.4321 14.3814 65.5836 14.5021C65.7351 14.6229 65.9719 14.7235 66.2939 14.804L67.1035 15.0028C67.5912 15.1212 67.9546 15.3023 68.1937 15.5462C68.4328 15.7876 68.5524 16.099 68.5524 16.4801C68.5524 16.7926 68.4624 17.072 68.2825 17.3182C68.1049 17.5644 67.8564 17.7585 67.5368 17.9006C67.2172 18.0426 66.8455 18.1136 66.4217 18.1136C65.8654 18.1136 65.4049 17.9929 65.0403 17.7514C64.6757 17.5099 64.4449 17.1572 64.3478 16.6932L65.1433 16.4943C65.219 16.7879 65.3623 17.008 65.573 17.1548C65.786 17.3016 66.0642 17.375 66.4075 17.375C66.7981 17.375 67.1083 17.2921 67.3379 17.1264C67.5699 16.9583 67.6859 16.7571 67.6859 16.5227C67.6859 16.3333 67.6196 16.1747 67.487 16.0469C67.3545 15.9167 67.1509 15.8196 66.8762 15.7557L65.9672 15.5426C65.4676 15.4242 65.1007 15.2408 64.8663 14.9922C64.6343 14.7412 64.5183 14.4276 64.5183 14.0511C64.5183 13.7434 64.6047 13.4711 64.7775 13.2344C64.9527 12.9976 65.1906 12.8118 65.4913 12.6768C65.7943 12.5419 66.1376 12.4744 66.5211 12.4744C67.0609 12.4744 67.4847 12.5928 67.7924 12.8295C68.1026 13.0663 68.3227 13.3788 68.4529 13.767ZM70.652 14.7188V18H69.8139V10.7273H70.652V13.3977H70.723C70.8509 13.116 71.0426 12.8923 71.2983 12.7266C71.5563 12.5585 71.8996 12.4744 72.3281 12.4744C72.6998 12.4744 73.0253 12.549 73.3047 12.6982C73.584 12.8449 73.8007 13.071 73.9545 13.3764C74.1108 13.6795 74.1889 14.0653 74.1889 14.5341V18H73.3509V14.5909C73.3509 14.1577 73.2384 13.8227 73.0135 13.5859C72.791 13.3468 72.482 13.2273 72.0866 13.2273C71.812 13.2273 71.5658 13.2853 71.348 13.4013C71.1326 13.5173 70.9621 13.6866 70.8366 13.9091C70.7135 14.1316 70.652 14.4015 70.652 14.7188ZM75.8358 18V10.7273H76.6738V13.4119H76.7449C76.8064 13.3172 76.8916 13.1965 77.0005 13.0497C77.1118 12.9006 77.2704 12.768 77.4764 12.652C77.6847 12.5336 77.9664 12.4744 78.3216 12.4744C78.7808 12.4744 79.1857 12.5893 79.536 12.8189C79.8864 13.0485 80.1599 13.3741 80.3564 13.7955C80.5529 14.2169 80.6511 14.714 80.6511 15.2869C80.6511 15.8646 80.5529 16.3653 80.3564 16.7891C80.1599 17.2105 79.8876 17.5372 79.5396 17.7692C79.1916 17.9988 78.7903 18.1136 78.3358 18.1136C77.9854 18.1136 77.7048 18.0556 77.4941 17.9396C77.2834 17.8213 77.1213 17.6875 77.0076 17.5384C76.894 17.3868 76.8064 17.2614 76.7449 17.1619H76.6454V18H75.8358ZM76.6596 15.2727C76.6596 15.6847 76.72 16.0481 76.8407 16.3629C76.9615 16.6754 77.1378 16.9205 77.3699 17.098C77.6019 17.2732 77.8859 17.3608 78.2221 17.3608C78.5725 17.3608 78.8649 17.2685 79.0993 17.0838C79.336 16.8968 79.5136 16.6458 79.6319 16.331C79.7527 16.0137 79.813 15.661 79.813 15.2727C79.813 14.8892 79.7538 14.5436 79.6355 14.2358C79.5195 13.9257 79.3431 13.6806 79.1064 13.5007C78.872 13.3184 78.5772 13.2273 78.2221 13.2273C77.8812 13.2273 77.5948 13.3137 77.3627 13.4865C77.1307 13.657 76.9556 13.8961 76.8372 14.2038C76.7188 14.5092 76.6596 14.8655 76.6596 15.2727ZM84.149 18.1136C83.6565 18.1136 83.2245 17.9964 82.8528 17.7621C82.4835 17.5277 82.1947 17.1998 81.9863 16.7784C81.7804 16.357 81.6774 15.8646 81.6774 15.3011C81.6774 14.733 81.7804 14.237 81.9863 13.8132C82.1947 13.3894 82.4835 13.0604 82.8528 12.826C83.2245 12.5916 83.6565 12.4744 84.149 12.4744C84.6414 12.4744 85.0723 12.5916 85.4416 12.826C85.8133 13.0604 86.1021 13.3894 86.3081 13.8132C86.5164 14.237 86.6206 14.733 86.6206 15.3011C86.6206 15.8646 86.5164 16.357 86.3081 16.7784C86.1021 17.1998 85.8133 17.5277 85.4416 17.7621C85.0723 17.9964 84.6414 18.1136 84.149 18.1136ZM84.149 17.3608C84.523 17.3608 84.8308 17.2649 85.0723 17.0732C85.3137 16.8814 85.4925 16.6293 85.6085 16.3168C85.7245 16.0043 85.7825 15.6657 85.7825 15.3011C85.7825 14.9366 85.7245 14.5968 85.6085 14.282C85.4925 13.9671 85.3137 13.7126 85.0723 13.5185C84.8308 13.3243 84.523 13.2273 84.149 13.2273C83.7749 13.2273 83.4672 13.3243 83.2257 13.5185C82.9842 13.7126 82.8055 13.9671 82.6895 14.282C82.5734 14.5968 82.5154 14.9366 82.5154 15.3011C82.5154 15.6657 82.5734 16.0043 82.6895 16.3168C82.8055 16.6293 82.9842 16.8814 83.2257 17.0732C83.4672 17.2649 83.7749 17.3608 84.149 17.3608ZM89.505 18.1278C89.1593 18.1278 88.8456 18.0627 88.5639 17.9325C88.2822 17.8 88.0585 17.6094 87.8928 17.3608C87.727 17.1098 87.6442 16.8068 87.6442 16.4517C87.6442 16.1392 87.7057 15.8859 87.8288 15.6918C87.9519 15.4953 88.1165 15.3414 88.3224 15.2301C88.5284 15.1188 88.7557 15.036 89.0043 14.9815C89.2552 14.9247 89.5073 14.8797 89.7607 14.8466C90.0921 14.804 90.3608 14.772 90.5668 14.7507C90.7751 14.727 90.9266 14.688 91.0213 14.6335C91.1184 14.5791 91.1669 14.4844 91.1669 14.3494V14.321C91.1669 13.9706 91.071 13.6984 90.8793 13.5043C90.6899 13.3101 90.4022 13.2131 90.0163 13.2131C89.6162 13.2131 89.3026 13.3007 89.0753 13.4759C88.848 13.651 88.6882 13.8381 88.5959 14.0369L87.8004 13.7528C87.9425 13.4214 88.1319 13.1634 88.3686 12.9787C88.6077 12.7917 88.8681 12.6615 89.1499 12.5881C89.4339 12.5123 89.7133 12.4744 89.9879 12.4744C90.1631 12.4744 90.3643 12.4957 90.5916 12.5384C90.8213 12.5786 91.0426 12.6626 91.2557 12.7905C91.4711 12.9183 91.6499 13.1113 91.7919 13.3693C91.9339 13.6274 92.005 13.973 92.005 14.4062V18H91.1669V17.2614H91.1243C91.0675 17.3797 90.9728 17.5064 90.8402 17.6413C90.7076 17.7763 90.5313 17.8911 90.3111 17.9858C90.0909 18.0805 89.8222 18.1278 89.505 18.1278ZM89.6328 17.375C89.9643 17.375 90.2436 17.3099 90.4709 17.1797C90.7005 17.0495 90.8733 16.8814 90.9893 16.6754C91.1077 16.4695 91.1669 16.2528 91.1669 16.0256V15.2585C91.1314 15.3011 91.0533 15.3402 90.9325 15.3757C90.8142 15.4089 90.6768 15.4384 90.5206 15.4645C90.3667 15.4882 90.2164 15.5095 90.0696 15.5284C89.9252 15.545 89.808 15.5592 89.718 15.571C89.5002 15.5994 89.2966 15.6456 89.1072 15.7095C88.9202 15.7711 88.7687 15.8646 88.6527 15.9901C88.5391 16.1132 88.4822 16.2812 88.4822 16.4943C88.4822 16.7855 88.59 17.0057 88.8054 17.1548C89.0232 17.3016 89.299 17.375 89.6328 17.375ZM93.5346 18V12.5455H94.3443V13.3693H94.4011C94.5005 13.0994 94.6805 12.8804 94.9409 12.7124C95.2013 12.5443 95.4949 12.4602 95.8216 12.4602C95.8831 12.4602 95.96 12.4614 96.0524 12.4638C96.1447 12.4661 96.2145 12.4697 96.2619 12.4744V13.3267C96.2335 13.3196 96.1684 13.3089 96.0666 13.2947C95.9672 13.2782 95.8618 13.2699 95.7505 13.2699C95.4854 13.2699 95.2486 13.3255 95.0403 13.4368C94.8343 13.5457 94.671 13.6972 94.5502 13.8913C94.4319 14.0831 94.3727 14.3021 94.3727 14.5483V18H93.5346ZM99.149 18.1136C98.6944 18.1136 98.2931 17.9988 97.9451 17.7692C97.5971 17.5372 97.3249 17.2105 97.1284 16.7891C96.9319 16.3653 96.8336 15.8646 96.8336 15.2869C96.8336 14.714 96.9319 14.2169 97.1284 13.7955C97.3249 13.3741 97.5983 13.0485 97.9487 12.8189C98.2991 12.5893 98.7039 12.4744 99.1632 12.4744C99.5183 12.4744 99.7988 12.5336 100.005 12.652C100.213 12.768 100.372 12.9006 100.481 13.0497C100.592 13.1965 100.678 13.3172 100.74 13.4119H100.811V10.7273H101.649V18H100.839V17.1619H100.74C100.678 17.2614 100.591 17.3868 100.477 17.5384C100.363 17.6875 100.201 17.8213 99.9906 17.9396C99.7799 18.0556 99.4993 18.1136 99.149 18.1136ZM99.2626 17.3608C99.5988 17.3608 99.8829 17.2732 100.115 17.098C100.347 16.9205 100.523 16.6754 100.644 16.3629C100.765 16.0481 100.825 15.6847 100.825 15.2727C100.825 14.8655 100.766 14.5092 100.648 14.2038C100.529 13.8961 100.354 13.657 100.122 13.4865C99.89 13.3137 99.6035 13.2273 99.2626 13.2273C98.9075 13.2273 98.6116 13.3184 98.3748 13.5007C98.1404 13.6806 97.9641 13.9257 97.8457 14.2358C97.7297 14.5436 97.6717 14.8892 97.6717 15.2727C97.6717 15.661 97.7309 16.0137 97.8493 16.331C97.97 16.6458 98.1475 16.8968 98.3819 17.0838C98.6187 17.2685 98.9122 17.3608 99.2626 17.3608Z" fill="#0F172A"/>
<rect x="11.5" y="25.5" width="42" height="15" rx="1.5" fill="#D9D9D9" stroke="#828282"/>
<path d="M14 29H33" stroke="#828282" stroke-linecap="round"/>
<path d="M14 36.5H38" stroke="#828282" stroke-linecap="round"/>
<path d="M14 34.5H33" stroke="#828282" stroke-linecap="round"/>
<circle cx="48.5" cy="31.5" r="2.5" fill="#828282"/>
<rect x="59.5" y="25.5" width="42" height="15" rx="1.5" fill="#D9D9D9" stroke="#828282"/>
<path d="M62 29H81" stroke="#828282" stroke-linecap="round"/>
<path d="M62 36.5H86" stroke="#828282" stroke-linecap="round"/>
<path d="M62 34.5H81" stroke="#828282" stroke-linecap="round"/>
<circle cx="96.5" cy="31.5" r="2.5" fill="#828282"/>
<rect x="107.5" y="25.5" width="42" height="15" rx="1.5" fill="#D9D9D9" stroke="#828282"/>
<path d="M110 29H129" stroke="#828282" stroke-linecap="round"/>
<path d="M110 36.5H134" stroke="#828282" stroke-linecap="round"/>
<path d="M110 34.5H129" stroke="#828282" stroke-linecap="round"/>
<circle cx="144.5" cy="31.5" r="2.5" fill="#828282"/>
<rect x="13.5" y="51.5" width="63" height="36" rx="1.5" fill="#D9D9D9" stroke="#828282"/>
<path d="M18.5 75C22 69 28.5 59.5 35 59.5C46 59.5 40.99 77 53.5 77C62 77 64 65 71 62" stroke="#E11D48"/>
<rect x="83.5" y="51.5" width="63" height="36" rx="1.5" fill="#D9D9D9" stroke="#828282"/>
<path d="M89.5 79L96.5 68L104.5 77L111 60L117 76L119 70.5L123.5 76L125.5 70.5L130 76L140 57" stroke="#E11D48"/>
</svg>
