<svg width="164" height="102" viewBox="0 0 164 102" fill="none" xmlns="http://www.w3.org/2000/svg">
<rect x="0.05" y="0.05" width="159.9" height="99.9" rx="4.95" stroke="#94A3B8" stroke-width="0.1"/>
<path d="M11 26L32 26" stroke="#64748B" stroke-linecap="round"/>
<path d="M11 30L32 30" stroke="#64748B" stroke-linecap="round"/>
<path d="M11 34L32 34" stroke="#64748B" stroke-linecap="round"/>
<path d="M11 38L32 38" stroke="#64748B" stroke-linecap="round"/>
<path d="M11 50L32 50" stroke="#64748B" stroke-linecap="round"/>
<path d="M11 54L32 54" stroke="#64748B" stroke-linecap="round"/>
<path d="M11 58L32 58" stroke="#64748B" stroke-linecap="round"/>
<path d="M11 62L32 62" stroke="#64748B" stroke-linecap="round"/>
<path d="M11 74L32 74" stroke="#64748B" stroke-linecap="round"/>
<path d="M11 78L32 78" stroke="#64748B" stroke-linecap="round"/>
<path d="M11 82L32 82" stroke="#64748B" stroke-linecap="round"/>
<path d="M11 86L32 86" stroke="#64748B" stroke-linecap="round"/>
<path d="M55.4119 26.9205C55.4084 26.724 55.4403 26.5659 55.5078 26.4464C55.5753 26.3268 55.6629 26.2398 55.7706 26.1854C55.8795 26.1309 55.9943 26.1037 56.1151 26.1037C56.2358 26.1037 56.3459 26.1303 56.4453 26.1836C56.5459 26.2357 56.6607 26.3179 56.7898 26.4304C56.8774 26.5062 56.9472 26.5594 56.9993 26.5902C57.0526 26.621 57.1106 26.6364 57.1733 26.6364C57.2751 26.6364 57.3556 26.5997 57.4148 26.5263C57.474 26.4517 57.5024 26.344 57.5 26.2031H57.8835C57.8871 26.3996 57.8551 26.5576 57.7876 26.6772C57.7214 26.7968 57.6338 26.8838 57.5249 26.9382C57.416 26.9927 57.3011 27.0199 57.1804 27.0199C57.0597 27.0199 56.9496 26.9938 56.8501 26.9418C56.7507 26.8885 56.6359 26.8056 56.5057 26.6932C56.4193 26.6174 56.3494 26.5642 56.2962 26.5334C56.2429 26.5026 56.1849 26.4872 56.1222 26.4872C56.0263 26.4872 55.947 26.521 55.8842 26.5884C55.8227 26.6547 55.7931 26.7654 55.7955 26.9205H55.4119ZM58.9848 28.0284C58.8972 28.0284 58.8221 27.997 58.7593 27.9343C58.6966 27.8716 58.6652 27.7964 58.6652 27.7088C58.6652 27.6212 58.6966 27.546 58.7593 27.4833C58.8221 27.4206 58.8972 27.3892 58.9848 27.3892C59.0724 27.3892 59.1476 27.4206 59.2103 27.4833C59.2731 27.546 59.3044 27.6212 59.3044 27.7088C59.3044 27.7668 59.2896 27.8201 59.26 27.8686C59.2316 27.9171 59.1932 27.9562 59.1446 27.9858C59.0973 28.0142 59.044 28.0284 58.9848 28.0284ZM58.9848 26.0043C58.8972 26.0043 58.8221 25.9729 58.7593 25.9102C58.6966 25.8474 58.6652 25.7723 58.6652 25.6847C58.6652 25.5971 58.6966 25.5219 58.7593 25.4592C58.8221 25.3964 58.8972 25.3651 58.9848 25.3651C59.0724 25.3651 59.1476 25.3964 59.2103 25.4592C59.2731 25.5219 59.3044 25.5971 59.3044 25.6847C59.3044 25.7427 59.2896 25.7959 59.26 25.8445C59.2316 25.893 59.1932 25.9321 59.1446 25.9616C59.0973 25.9901 59.044 26.0043 58.9848 26.0043ZM61.8817 26.3594V28H61.4626V25.2727H61.8675V25.6989H61.903C61.9669 25.5604 62.064 25.4491 62.1942 25.3651C62.3244 25.2798 62.4925 25.2372 62.6984 25.2372C62.8831 25.2372 63.0447 25.2751 63.1831 25.3509C63.3216 25.4254 63.4294 25.5391 63.5063 25.6918C63.5832 25.8433 63.6217 26.035 63.6217 26.267V28H63.2027V26.2955C63.2027 26.0812 63.147 25.9143 63.0358 25.7947C62.9245 25.674 62.7718 25.6136 62.5777 25.6136C62.4439 25.6136 62.3244 25.6426 62.219 25.7006C62.1148 25.7586 62.0326 25.8433 61.9722 25.9545C61.9118 26.0658 61.8817 26.2008 61.8817 26.3594ZM64.3874 29.0227V25.2727H64.7923V25.706H64.842C64.8728 25.6586 64.9154 25.5982 64.9698 25.5249C65.0254 25.4503 65.1048 25.384 65.2077 25.326C65.3119 25.2668 65.4528 25.2372 65.6303 25.2372C65.86 25.2372 66.0624 25.2946 66.2376 25.4094C66.4128 25.5243 66.5495 25.687 66.6477 25.8977C66.746 26.1084 66.7951 26.357 66.7951 26.6435C66.7951 26.9323 66.746 27.1826 66.6477 27.3945C66.5495 27.6052 66.4134 27.7686 66.2393 27.8846C66.0653 27.9994 65.8647 28.0568 65.6374 28.0568C65.4622 28.0568 65.322 28.0278 65.2166 27.9698C65.1113 27.9106 65.0302 27.8437 64.9734 27.7692C64.9165 27.6934 64.8728 27.6307 64.842 27.581H64.8065V29.0227H64.3874ZM64.7994 26.6364C64.7994 26.8423 64.8295 27.024 64.8899 27.1815C64.9503 27.3377 65.0385 27.4602 65.1545 27.549C65.2705 27.6366 65.4125 27.6804 65.5806 27.6804C65.7558 27.6804 65.902 27.6342 66.0192 27.5419C66.1375 27.4484 66.2263 27.3229 66.2855 27.1655C66.3459 27.0069 66.3761 26.8305 66.3761 26.6364C66.3761 26.4446 66.3465 26.2718 66.2873 26.1179C66.2293 25.9628 66.1411 25.8403 66.0227 25.7504C65.9055 25.6592 65.7582 25.6136 65.5806 25.6136C65.4102 25.6136 65.2669 25.6568 65.1509 25.7433C65.0349 25.8285 64.9473 25.948 64.8881 26.1019C64.829 26.2546 64.7994 26.4328 64.7994 26.6364ZM67.6345 25.2727L68.2879 26.3878L68.9413 25.2727H69.4243L68.5436 26.6364L69.4243 28H68.9413L68.2879 26.9418L67.6345 28H67.1515L68.018 26.6364L67.1515 25.2727H67.6345ZM73.3603 25.8835L72.9838 25.9901C72.9602 25.9273 72.9252 25.8664 72.8791 25.8072C72.8341 25.7468 72.7725 25.6971 72.6944 25.658C72.6163 25.619 72.5163 25.5994 72.3944 25.5994C72.2275 25.5994 72.0884 25.6379 71.9771 25.7148C71.867 25.7906 71.812 25.8871 71.812 26.0043C71.812 26.1084 71.8498 26.1907 71.9256 26.2511C72.0014 26.3114 72.1197 26.3617 72.2807 26.402L72.6855 26.5014C72.9294 26.5606 73.1111 26.6512 73.2306 26.7731C73.3502 26.8938 73.41 27.0495 73.41 27.2401C73.41 27.3963 73.365 27.536 73.275 27.6591C73.1863 27.7822 73.062 27.8793 72.9022 27.9503C72.7424 28.0213 72.5565 28.0568 72.3446 28.0568C72.0665 28.0568 71.8362 27.9964 71.6539 27.8757C71.4717 27.755 71.3562 27.5786 71.3077 27.3466L71.7054 27.2472C71.7433 27.3939 71.8149 27.504 71.9203 27.5774C72.0268 27.6508 72.1659 27.6875 72.3375 27.6875C72.5328 27.6875 72.6879 27.6461 72.8027 27.5632C72.9187 27.4792 72.9767 27.3786 72.9767 27.2614C72.9767 27.1667 72.9436 27.0874 72.8773 27.0234C72.811 26.9583 72.7092 26.9098 72.5719 26.8778L72.1174 26.7713C71.8676 26.7121 71.6841 26.6204 71.5669 26.4961C71.4509 26.3706 71.3929 26.2138 71.3929 26.0256C71.3929 25.8717 71.4361 25.7356 71.5225 25.6172C71.6101 25.4988 71.7291 25.4059 71.8794 25.3384C72.031 25.271 72.2026 25.2372 72.3944 25.2372C72.6642 25.2372 72.8761 25.2964 73.03 25.4148C73.1851 25.5331 73.2952 25.6894 73.3603 25.8835ZM74.4598 26.3594V28H74.0407V24.3636H74.4598V25.6989H74.4953C74.5592 25.558 74.6551 25.4461 74.7829 25.3633C74.912 25.2792 75.0836 25.2372 75.2979 25.2372C75.4837 25.2372 75.6465 25.2745 75.7861 25.3491C75.9258 25.4225 76.0341 25.5355 76.1111 25.6882C76.1892 25.8397 76.2282 26.0327 76.2282 26.267V28H75.8092V26.2955C75.8092 26.0788 75.753 25.9113 75.6405 25.793C75.5293 25.6734 75.3748 25.6136 75.1771 25.6136C75.0398 25.6136 74.9167 25.6426 74.8078 25.7006C74.7001 25.7586 74.6148 25.8433 74.5521 25.9545C74.4906 26.0658 74.4598 26.2008 74.4598 26.3594ZM77.7974 28.0639C77.6246 28.0639 77.4677 28.0314 77.3269 27.9663C77.186 27.9 77.0742 27.8047 76.9913 27.6804C76.9084 27.5549 76.867 27.4034 76.867 27.2259C76.867 27.0696 76.8978 26.9429 76.9593 26.8459C77.0209 26.7476 77.1032 26.6707 77.2061 26.6151C77.3091 26.5594 77.4228 26.518 77.5471 26.4908C77.6725 26.4624 77.7986 26.4399 77.9252 26.4233C78.091 26.402 78.2253 26.386 78.3283 26.3754C78.4325 26.3635 78.5082 26.344 78.5556 26.3168C78.6041 26.2895 78.6284 26.2422 78.6284 26.1747V26.1605C78.6284 25.9853 78.5804 25.8492 78.4846 25.7521C78.3899 25.6551 78.246 25.6065 78.0531 25.6065C77.853 25.6065 77.6962 25.6503 77.5826 25.7379C77.4689 25.8255 77.389 25.919 77.3429 26.0185L76.9451 25.8764C77.0162 25.7107 77.1109 25.5817 77.2292 25.4893C77.3488 25.3958 77.479 25.3307 77.6199 25.294C77.7619 25.2562 77.9016 25.2372 78.0389 25.2372C78.1265 25.2372 78.2271 25.2479 78.3407 25.2692C78.4556 25.2893 78.5662 25.3313 78.6728 25.3952C78.7805 25.4592 78.8699 25.5556 78.9409 25.6847C79.0119 25.8137 79.0474 25.9865 79.0474 26.2031V28H78.6284V27.6307H78.6071C78.5787 27.6899 78.5313 27.7532 78.465 27.8207C78.3987 27.8881 78.3105 27.9455 78.2005 27.9929C78.0904 28.0402 77.956 28.0639 77.7974 28.0639ZM77.8613 27.6875C78.027 27.6875 78.1667 27.6549 78.2804 27.5898C78.3952 27.5247 78.4816 27.4407 78.5396 27.3377C78.5988 27.2347 78.6284 27.1264 78.6284 27.0128V26.6293C78.6106 26.6506 78.5716 26.6701 78.5112 26.6879C78.452 26.7044 78.3833 26.7192 78.3052 26.7322C78.2283 26.7441 78.1531 26.7547 78.0797 26.7642C78.0075 26.7725 77.9489 26.7796 77.9039 26.7855C77.795 26.7997 77.6932 26.8228 77.5985 26.8548C77.505 26.8855 77.4293 26.9323 77.3713 26.995C77.3145 27.0566 77.286 27.1406 77.286 27.2472C77.286 27.3928 77.3399 27.5028 77.4476 27.5774C77.5565 27.6508 77.6944 27.6875 77.8613 27.6875ZM80.8421 28.0568C80.6148 28.0568 80.4142 27.9994 80.2401 27.8846C80.0661 27.7686 79.93 27.6052 79.8318 27.3945C79.7335 27.1826 79.6844 26.9323 79.6844 26.6435C79.6844 26.357 79.7335 26.1084 79.8318 25.8977C79.93 25.687 80.0667 25.5243 80.2419 25.4094C80.4171 25.2946 80.6195 25.2372 80.8492 25.2372C81.0267 25.2372 81.167 25.2668 81.27 25.326C81.3741 25.384 81.4535 25.4503 81.5079 25.5249C81.5635 25.5982 81.6067 25.6586 81.6375 25.706H81.673V24.3636H82.0921V28H81.6872V27.581H81.6375C81.6067 27.6307 81.5629 27.6934 81.5061 27.7692C81.4493 27.8437 81.3682 27.9106 81.2629 27.9698C81.1575 28.0278 81.0173 28.0568 80.8421 28.0568ZM80.8989 27.6804C81.067 27.6804 81.209 27.6366 81.325 27.549C81.441 27.4602 81.5292 27.3377 81.5896 27.1815C81.6499 27.024 81.6801 26.8423 81.6801 26.6364C81.6801 26.4328 81.6505 26.2546 81.5914 26.1019C81.5322 25.948 81.4446 25.8285 81.3286 25.7433C81.2126 25.6568 81.0693 25.6136 80.8989 25.6136C80.7213 25.6136 80.5734 25.6592 80.455 25.7504C80.3378 25.8403 80.2496 25.9628 80.1904 26.1179C80.1324 26.2718 80.1034 26.4446 80.1034 26.6364C80.1034 26.8305 80.133 27.0069 80.1922 27.1655C80.2526 27.3229 80.3414 27.4484 80.4585 27.5419C80.5769 27.6342 80.7237 27.6804 80.8989 27.6804ZM84.0257 28.0568C83.77 28.0568 83.5498 27.9964 83.3651 27.8757C83.1805 27.755 83.0384 27.5887 82.939 27.3768C82.8396 27.1649 82.7899 26.9228 82.7899 26.6506C82.7899 26.3736 82.8408 26.1291 82.9426 25.9173C83.0455 25.7042 83.1888 25.5379 83.3722 25.4183C83.5569 25.2976 83.7723 25.2372 84.0186 25.2372C84.2103 25.2372 84.3831 25.2727 84.537 25.3438C84.6909 25.4148 84.817 25.5142 84.9152 25.642C85.0135 25.7699 85.0744 25.919 85.0981 26.0895H84.6791C84.6471 25.9652 84.5761 25.8551 84.466 25.7592C84.3571 25.6622 84.2103 25.6136 84.0257 25.6136C83.8623 25.6136 83.7191 25.6562 83.596 25.7415C83.474 25.8255 83.3788 25.9445 83.3101 26.0984C83.2426 26.2511 83.2089 26.4304 83.2089 26.6364C83.2089 26.8471 83.242 27.0305 83.3083 27.1868C83.3758 27.343 83.4705 27.4644 83.5924 27.5508C83.7155 27.6372 83.8599 27.6804 84.0257 27.6804C84.1346 27.6804 84.2334 27.6615 84.3222 27.6236C84.411 27.5857 84.4861 27.5312 84.5477 27.4602C84.6092 27.3892 84.653 27.304 84.6791 27.2045H85.0981C85.0744 27.3655 85.0158 27.5105 84.9223 27.6396C84.83 27.7674 84.7075 27.8692 84.5548 27.945C84.4033 28.0195 84.2269 28.0568 84.0257 28.0568ZM86.1297 26.3594V28H85.7107V25.2727H86.1155V25.6989H86.151C86.2149 25.5604 86.312 25.4491 86.4422 25.3651C86.5724 25.2798 86.7405 25.2372 86.9465 25.2372C87.1311 25.2372 87.2927 25.2751 87.4312 25.3509C87.5697 25.4254 87.6774 25.5391 87.7544 25.6918C87.8313 25.8433 87.8698 26.035 87.8698 26.267V28H87.4507V26.2955C87.4507 26.0812 87.3951 25.9143 87.2838 25.7947C87.1726 25.674 87.0199 25.6136 86.8257 25.6136C86.692 25.6136 86.5724 25.6426 86.4671 25.7006C86.3629 25.7586 86.2806 25.8433 86.2203 25.9545C86.1599 26.0658 86.1297 26.2008 86.1297 26.3594ZM90.198 26.2457V26.6364H88.6071V26.2457H90.198ZM92.654 26.8849V25.2727H93.0731V28H92.654V27.5384H92.6256C92.5617 27.6768 92.4623 27.7946 92.3273 27.8917C92.1924 27.9876 92.0219 28.0355 91.816 28.0355C91.6455 28.0355 91.494 27.9982 91.3614 27.9237C91.2288 27.8479 91.1247 27.7343 91.0489 27.5827C90.9732 27.43 90.9353 27.2377 90.9353 27.0057V25.2727H91.3543V26.9773C91.3543 27.1761 91.4099 27.3348 91.5212 27.4531C91.6337 27.5715 91.7769 27.6307 91.9509 27.6307C92.0551 27.6307 92.161 27.604 92.2687 27.5508C92.3776 27.4975 92.4688 27.4158 92.5422 27.3058C92.6167 27.1957 92.654 27.0554 92.654 26.8849ZM93.8406 28V25.2727H94.2596V28H93.8406ZM94.0536 24.8182C93.9719 24.8182 93.9015 24.7904 93.8423 24.7347C93.7843 24.6791 93.7553 24.6122 93.7553 24.5341C93.7553 24.456 93.7843 24.3891 93.8423 24.3335C93.9015 24.2778 93.9719 24.25 94.0536 24.25C94.1353 24.25 94.2051 24.2778 94.2631 24.3335C94.3223 24.3891 94.3519 24.456 94.3519 24.5341C94.3519 24.6122 94.3223 24.6791 94.2631 24.7347C94.2051 24.7904 94.1353 24.8182 94.0536 24.8182ZM97.1222 28.9588C96.76 28.9588 96.4398 28.9091 96.1617 28.8097C95.8835 28.7114 95.6497 28.5664 95.4603 28.3746C95.2709 28.1829 95.1277 27.9479 95.0306 27.6697C94.9336 27.3916 94.885 27.0732 94.885 26.7145C94.885 26.3677 94.9342 26.0575 95.0324 25.7841C95.1318 25.5107 95.2757 25.2786 95.4639 25.0881C95.6533 24.8963 95.8829 24.7501 96.1528 24.6495C96.4239 24.5489 96.7304 24.4986 97.0725 24.4986C97.4052 24.4986 97.6963 24.553 97.9461 24.6619C98.1971 24.7696 98.4066 24.9158 98.5747 25.1005C98.7439 25.284 98.8706 25.4905 98.9546 25.7202C99.0399 25.9498 99.0825 26.1866 99.0825 26.4304C99.0825 26.602 99.0742 26.776 99.0576 26.9524C99.041 27.1288 99.0061 27.291 98.9529 27.4389C98.8996 27.5857 98.8173 27.7041 98.7061 27.794C98.596 27.884 98.4468 27.929 98.2586 27.929C98.1758 27.929 98.0846 27.916 97.9852 27.8899C97.8857 27.8639 97.7976 27.8207 97.7206 27.7603C97.6437 27.6999 97.5981 27.6188 97.5839 27.517H97.5626C97.5342 27.5857 97.4904 27.6508 97.4312 27.7124C97.3732 27.7739 97.2968 27.823 97.2021 27.8597C97.1086 27.8964 96.9944 27.9124 96.8595 27.9077C96.7056 27.9018 96.57 27.8674 96.4529 27.8047C96.3357 27.7408 96.2374 27.6544 96.1581 27.5455C96.08 27.4354 96.0208 27.3081 95.9806 27.1637C95.9415 27.0181 95.922 26.8613 95.922 26.6932C95.922 26.5334 95.9456 26.3872 95.993 26.2546C96.0403 26.122 96.106 26.006 96.1901 25.9066C96.2753 25.8072 96.3747 25.7279 96.4884 25.6687C96.6032 25.6083 96.7269 25.571 96.8595 25.5568C96.9778 25.545 97.0856 25.5503 97.1826 25.5728C97.2797 25.5941 97.3596 25.6267 97.4223 25.6705C97.4851 25.7131 97.5247 25.7604 97.5413 25.8125H97.5626V25.6136H97.939V27.2188C97.939 27.3182 97.9668 27.4058 98.0225 27.4815C98.0781 27.5573 98.1592 27.5952 98.2657 27.5952C98.3865 27.5952 98.4788 27.5537 98.5427 27.4709C98.6078 27.388 98.6522 27.2602 98.6759 27.0874C98.7007 26.9145 98.7132 26.6932 98.7132 26.4233C98.7132 26.2647 98.6913 26.1084 98.6475 25.9545C98.6048 25.7995 98.5397 25.6545 98.4521 25.5195C98.3657 25.3846 98.2562 25.2656 98.1237 25.1626C97.9911 25.0597 97.8354 24.9792 97.6567 24.9212C97.4791 24.862 97.2773 24.8324 97.0512 24.8324C96.7731 24.8324 96.5239 24.8756 96.3037 24.962C96.0847 25.0472 95.8983 25.1721 95.7444 25.3366C95.5917 25.5 95.4751 25.6989 95.3946 25.9332C95.3153 26.1664 95.2757 26.4316 95.2757 26.7287C95.2757 27.0305 95.3153 27.2987 95.3946 27.533C95.4751 27.7674 95.5935 27.9651 95.7497 28.1261C95.9072 28.2871 96.1019 28.409 96.3339 28.4918C96.5659 28.5759 96.8334 28.6179 97.1365 28.6179C97.2667 28.6179 97.3951 28.6055 97.5218 28.5806C97.6484 28.5558 97.7603 28.5285 97.8573 28.4989C97.9544 28.4693 98.0242 28.4474 98.0669 28.4332L98.1663 28.7599C98.0929 28.7907 97.997 28.8215 97.8786 28.8523C97.7615 28.883 97.636 28.9085 97.5022 28.9286C97.3696 28.9487 97.243 28.9588 97.1222 28.9588ZM96.9163 27.5455C97.0749 27.5455 97.2033 27.5135 97.3016 27.4496C97.3998 27.3857 97.4714 27.2892 97.5164 27.1602C97.5614 27.0311 97.5839 26.8684 97.5839 26.6719C97.5839 26.473 97.559 26.3179 97.5093 26.2067C97.4596 26.0954 97.3862 26.0173 97.2892 25.9723C97.1921 25.9273 97.0725 25.9048 96.9305 25.9048C96.7955 25.9048 96.6801 25.9403 96.5843 26.0114C96.4896 26.0812 96.4168 26.1747 96.3659 26.2919C96.3161 26.4079 96.2913 26.5346 96.2913 26.6719C96.2913 26.8234 96.3114 26.966 96.3517 27.0998C96.3919 27.2324 96.4576 27.3401 96.5487 27.4229C96.6399 27.5046 96.7624 27.5455 96.9163 27.5455ZM100.129 24.3636V28H99.7097V24.3636H100.129ZM101.699 28.0639C101.526 28.0639 101.369 28.0314 101.228 27.9663C101.087 27.9 100.976 27.8047 100.893 27.6804C100.81 27.5549 100.768 27.4034 100.768 27.2259C100.768 27.0696 100.799 26.9429 100.861 26.8459C100.922 26.7476 101.005 26.6707 101.108 26.6151C101.21 26.5594 101.324 26.518 101.448 26.4908C101.574 26.4624 101.7 26.4399 101.827 26.4233C101.992 26.402 102.127 26.386 102.23 26.3754C102.334 26.3635 102.41 26.344 102.457 26.3168C102.505 26.2895 102.53 26.2422 102.53 26.1747V26.1605C102.53 25.9853 102.482 25.8492 102.386 25.7521C102.291 25.6551 102.147 25.6065 101.954 25.6065C101.754 25.6065 101.598 25.6503 101.484 25.7379C101.37 25.8255 101.29 25.919 101.244 26.0185L100.847 25.8764C100.918 25.7107 101.012 25.5817 101.131 25.4893C101.25 25.3958 101.38 25.3307 101.521 25.294C101.663 25.2562 101.803 25.2372 101.94 25.2372C102.028 25.2372 102.128 25.2479 102.242 25.2692C102.357 25.2893 102.468 25.3313 102.574 25.3952C102.682 25.4592 102.771 25.5556 102.842 25.6847C102.913 25.8137 102.949 25.9865 102.949 26.2031V28H102.53V27.6307H102.508C102.48 27.6899 102.433 27.7532 102.366 27.8207C102.3 27.8881 102.212 27.9455 102.102 27.9929C101.992 28.0402 101.857 28.0639 101.699 28.0639ZM101.763 27.6875C101.928 27.6875 102.068 27.6549 102.182 27.5898C102.297 27.5247 102.383 27.4407 102.441 27.3377C102.5 27.2347 102.53 27.1264 102.53 27.0128V26.6293C102.512 26.6506 102.473 26.6701 102.413 26.6879C102.353 26.7044 102.285 26.7192 102.207 26.7322C102.13 26.7441 102.054 26.7547 101.981 26.7642C101.909 26.7725 101.85 26.7796 101.805 26.7855C101.696 26.7997 101.595 26.8228 101.5 26.8548C101.406 26.8855 101.331 26.9323 101.273 26.995C101.216 27.0566 101.187 27.1406 101.187 27.2472C101.187 27.3928 101.241 27.5028 101.349 27.5774C101.458 27.6508 101.596 27.6875 101.763 27.6875ZM104.9 25.2727V25.6278H103.486V25.2727H104.9ZM103.898 24.6193H104.317V27.2188C104.317 27.3371 104.334 27.4259 104.369 27.4851C104.404 27.5431 104.449 27.5821 104.504 27.6023C104.559 27.6212 104.618 27.6307 104.68 27.6307C104.726 27.6307 104.764 27.6283 104.793 27.6236C104.823 27.6177 104.846 27.6129 104.864 27.6094L104.949 27.9858C104.921 27.9964 104.881 28.0071 104.83 28.0178C104.78 28.0296 104.715 28.0355 104.637 28.0355C104.519 28.0355 104.403 28.0101 104.289 27.9592C104.176 27.9083 104.083 27.8307 104.008 27.7266C103.935 27.6224 103.898 27.491 103.898 27.3324V24.6193ZM106.644 28.0568C106.381 28.0568 106.155 27.9988 105.964 27.8828C105.775 27.7656 105.629 27.6023 105.526 27.3928C105.424 27.1821 105.373 26.937 105.373 26.6577C105.373 26.3783 105.424 26.1321 105.526 25.919C105.629 25.7048 105.772 25.5379 105.955 25.4183C106.14 25.2976 106.355 25.2372 106.602 25.2372C106.744 25.2372 106.884 25.2609 107.022 25.3082C107.161 25.3556 107.287 25.4325 107.401 25.5391C107.514 25.6444 107.605 25.7841 107.672 25.9581C107.74 26.1321 107.773 26.3464 107.773 26.6009V26.7784H105.671V26.4162H107.347C107.347 26.2623 107.317 26.125 107.255 26.0043C107.195 25.8835 107.108 25.7882 106.996 25.7184C106.884 25.6486 106.753 25.6136 106.602 25.6136C106.435 25.6136 106.29 25.6551 106.168 25.7379C106.048 25.8196 105.955 25.9261 105.89 26.0575C105.824 26.1889 105.792 26.3298 105.792 26.4801V26.7216C105.792 26.9276 105.827 27.1022 105.898 27.2454C105.971 27.3874 106.071 27.4957 106.199 27.5703C106.326 27.6437 106.475 27.6804 106.644 27.6804C106.754 27.6804 106.854 27.665 106.942 27.6342C107.032 27.6023 107.11 27.5549 107.175 27.4922C107.24 27.4283 107.29 27.349 107.326 27.2543L107.731 27.3679C107.688 27.5052 107.617 27.6259 107.516 27.7301C107.415 27.8331 107.291 27.9136 107.143 27.9716C106.995 28.0284 106.829 28.0568 106.644 28.0568ZM110.343 25.8835L109.966 25.9901C109.943 25.9273 109.908 25.8664 109.862 25.8072C109.817 25.7468 109.755 25.6971 109.677 25.658C109.599 25.619 109.499 25.5994 109.377 25.5994C109.21 25.5994 109.071 25.6379 108.96 25.7148C108.849 25.7906 108.794 25.8871 108.794 26.0043C108.794 26.1084 108.832 26.1907 108.908 26.2511C108.984 26.3114 109.102 26.3617 109.263 26.402L109.668 26.5014C109.912 26.5606 110.094 26.6512 110.213 26.7731C110.333 26.8938 110.392 27.0495 110.392 27.2401C110.392 27.3963 110.347 27.536 110.257 27.6591C110.169 27.7822 110.044 27.8793 109.885 27.9503C109.725 28.0213 109.539 28.0568 109.327 28.0568C109.049 28.0568 108.819 27.9964 108.636 27.8757C108.454 27.755 108.339 27.5786 108.29 27.3466L108.688 27.2472C108.726 27.3939 108.797 27.504 108.903 27.5774C109.009 27.6508 109.148 27.6875 109.32 27.6875C109.515 27.6875 109.67 27.6461 109.785 27.5632C109.901 27.4792 109.959 27.3786 109.959 27.2614C109.959 27.1667 109.926 27.0874 109.86 27.0234C109.793 26.9583 109.692 26.9098 109.554 26.8778L109.1 26.7713C108.85 26.7121 108.667 26.6204 108.549 26.4961C108.433 26.3706 108.375 26.2138 108.375 26.0256C108.375 25.8717 108.419 25.7356 108.505 25.6172C108.593 25.4988 108.712 25.4059 108.862 25.3384C109.013 25.271 109.185 25.2372 109.377 25.2372C109.647 25.2372 109.859 25.2964 110.012 25.4148C110.167 25.5331 110.278 25.6894 110.343 25.8835ZM112.209 25.2727V25.6278H110.796V25.2727H112.209ZM111.208 24.6193H111.627V27.2188C111.627 27.3371 111.644 27.4259 111.678 27.4851C111.714 27.5431 111.759 27.5821 111.813 27.6023C111.869 27.6212 111.928 27.6307 111.989 27.6307C112.035 27.6307 112.073 27.6283 112.103 27.6236C112.132 27.6177 112.156 27.6129 112.174 27.6094L112.259 27.9858C112.231 27.9964 112.191 28.0071 112.14 28.0178C112.089 28.0296 112.025 28.0355 111.946 28.0355C111.828 28.0355 111.712 28.0101 111.598 27.9592C111.486 27.9083 111.392 27.8307 111.318 27.7266C111.245 27.6224 111.208 27.491 111.208 27.3324V24.6193ZM114.246 28V25.2727H114.665V28H114.246ZM114.459 24.8182C114.377 24.8182 114.307 24.7904 114.248 24.7347C114.19 24.6791 114.161 24.6122 114.161 24.5341C114.161 24.456 114.19 24.3891 114.248 24.3335C114.307 24.2778 114.377 24.25 114.459 24.25C114.541 24.25 114.61 24.2778 114.668 24.3335C114.728 24.3891 114.757 24.456 114.757 24.5341C114.757 24.6122 114.728 24.6791 114.668 24.7347C114.61 24.7904 114.541 24.8182 114.459 24.8182ZM115.851 26.3594V28H115.432V25.2727H115.837V25.6989H115.873C115.937 25.5604 116.034 25.4491 116.164 25.3651C116.294 25.2798 116.462 25.2372 116.668 25.2372C116.853 25.2372 117.014 25.2751 117.153 25.3509C117.291 25.4254 117.399 25.5391 117.476 25.6918C117.553 25.8433 117.591 26.035 117.591 26.267V28H117.172V26.2955C117.172 26.0812 117.117 25.9143 117.006 25.7947C116.894 25.674 116.742 25.6136 116.547 25.6136C116.414 25.6136 116.294 25.6426 116.189 25.7006C116.085 25.7586 116.002 25.8433 115.942 25.9545C115.882 26.0658 115.851 26.2008 115.851 26.3594ZM118.357 28V25.2727H118.776V28H118.357ZM118.57 24.8182C118.489 24.8182 118.418 24.7904 118.359 24.7347C118.301 24.6791 118.272 24.6122 118.272 24.5341C118.272 24.456 118.301 24.3891 118.359 24.3335C118.418 24.2778 118.489 24.25 118.57 24.25C118.652 24.25 118.722 24.2778 118.78 24.3335C118.839 24.3891 118.869 24.456 118.869 24.5341C118.869 24.6122 118.839 24.6791 118.78 24.7347C118.722 24.7904 118.652 24.8182 118.57 24.8182ZM120.73 25.2727V25.6278H119.316V25.2727H120.73ZM119.728 24.6193H120.147V27.2188C120.147 27.3371 120.165 27.4259 120.199 27.4851C120.234 27.5431 120.279 27.5821 120.334 27.6023C120.389 27.6212 120.448 27.6307 120.51 27.6307C120.556 27.6307 120.594 27.6283 120.623 27.6236C120.653 27.6177 120.676 27.6129 120.694 27.6094L120.779 27.9858C120.751 27.9964 120.711 28.0071 120.661 28.0178C120.61 28.0296 120.545 28.0355 120.467 28.0355C120.349 28.0355 120.233 28.0101 120.119 27.9592C120.007 27.9083 119.913 27.8307 119.838 27.7266C119.765 27.6224 119.728 27.491 119.728 27.3324V24.6193Z" fill="#94A3B8"/>
<path d="M52 40L76 40" stroke="#64748B" stroke-linecap="round"/>
<path d="M52 44L92 44" stroke="#64748B" stroke-linecap="round"/>
<path d="M52 48L104 48" stroke="#64748B" stroke-linecap="round"/>
<path d="M52 52L100 52" stroke="#64748B" stroke-linecap="round"/>
<path d="M52 59L83 59" stroke="#64748B" stroke-linecap="round"/>
<path d="M52 63L101 63" stroke="#64748B" stroke-linecap="round"/>
<path d="M52 67L109 67" stroke="#64748B" stroke-linecap="round"/>
<path d="M52 71L106 71" stroke="#64748B" stroke-linecap="round"/>
<path d="M41 4L41 99" stroke="#94A3B8" stroke-opacity="0.09" stroke-linecap="round"/>
<path d="M53.125 15H50.8807V7.72727H53.2244C53.9299 7.72727 54.5336 7.87287 55.0355 8.16406C55.5374 8.45289 55.9221 8.86837 56.1896 9.41051C56.4571 9.95028 56.5909 10.5966 56.5909 11.3494C56.5909 12.107 56.456 12.7592 56.1861 13.3061C55.9162 13.8506 55.5232 14.2696 55.0071 14.5632C54.491 14.8544 53.8636 15 53.125 15ZM51.7614 14.2188H53.0682C53.6695 14.2188 54.1679 14.1027 54.5632 13.8707C54.9586 13.6387 55.2533 13.3085 55.4474 12.88C55.6416 12.4515 55.7386 11.9413 55.7386 11.3494C55.7386 10.7623 55.6428 10.2569 55.451 9.8331C55.2592 9.40696 54.9728 9.08026 54.5916 8.85298C54.2105 8.62334 53.7358 8.50852 53.1676 8.50852H51.7614V14.2188ZM60.1705 15.1136C59.678 15.1136 59.246 14.9964 58.8743 14.7621C58.505 14.5277 58.2161 14.1998 58.0078 13.7784C57.8018 13.357 57.6989 12.8646 57.6989 12.3011C57.6989 11.733 57.8018 11.237 58.0078 10.8132C58.2161 10.3894 58.505 10.0604 58.8743 9.82599C59.246 9.59162 59.678 9.47443 60.1705 9.47443C60.6629 9.47443 61.0938 9.59162 61.4631 9.82599C61.8348 10.0604 62.1236 10.3894 62.3295 10.8132C62.5379 11.237 62.642 11.733 62.642 12.3011C62.642 12.8646 62.5379 13.357 62.3295 13.7784C62.1236 14.1998 61.8348 14.5277 61.4631 14.7621C61.0938 14.9964 60.6629 15.1136 60.1705 15.1136ZM60.1705 14.3608C60.5445 14.3608 60.8523 14.2649 61.0938 14.0732C61.3352 13.8814 61.514 13.6293 61.63 13.3168C61.746 13.0043 61.804 12.6657 61.804 12.3011C61.804 11.9366 61.746 11.5968 61.63 11.282C61.514 10.9671 61.3352 10.7126 61.0938 10.5185C60.8523 10.3243 60.5445 10.2273 60.1705 10.2273C59.7964 10.2273 59.4886 10.3243 59.2472 10.5185C59.0057 10.7126 58.8269 10.9671 58.7109 11.282C58.5949 11.5968 58.5369 11.9366 58.5369 12.3011C58.5369 12.6657 58.5949 13.0043 58.7109 13.3168C58.8269 13.6293 59.0057 13.8814 59.2472 14.0732C59.4886 14.2649 59.7964 14.3608 60.1705 14.3608ZM66.1373 15.1136C65.6259 15.1136 65.1855 14.9929 64.8162 14.7514C64.4469 14.5099 64.1628 14.1773 63.964 13.7536C63.7651 13.3298 63.6657 12.8456 63.6657 12.3011C63.6657 11.7472 63.7675 11.2583 63.9711 10.8345C64.177 10.4084 64.4635 10.0758 64.8304 9.83665C65.1998 9.59517 65.6306 9.47443 66.123 9.47443C66.5066 9.47443 66.8522 9.54545 67.16 9.6875C67.4677 9.82955 67.7199 10.0284 67.9164 10.2841C68.1129 10.5398 68.2348 10.8381 68.2821 11.179H67.4441C67.3801 10.9304 67.2381 10.7102 67.0179 10.5185C66.8001 10.3243 66.5066 10.2273 66.1373 10.2273C65.8105 10.2273 65.5241 10.3125 65.2779 10.483C65.034 10.651 64.8435 10.889 64.7061 11.1967C64.5712 11.5021 64.5037 11.8608 64.5037 12.2727C64.5037 12.6941 64.57 13.0611 64.7026 13.3736C64.8375 13.6861 65.0269 13.9287 65.2708 14.1016C65.517 14.2744 65.8058 14.3608 66.1373 14.3608C66.3551 14.3608 66.5527 14.3229 66.7303 14.2472C66.9078 14.1714 67.0582 14.0625 67.1813 13.9205C67.3044 13.7784 67.392 13.608 67.4441 13.4091H68.2821C68.2348 13.7311 68.1176 14.0211 67.9306 14.2791C67.7459 14.5348 67.5009 14.7384 67.1955 14.8899C66.8925 15.0391 66.5397 15.1136 66.1373 15.1136ZM72.9448 12.7699V9.54545H73.7828V15H72.9448V14.0767H72.888C72.7601 14.3537 72.5613 14.5893 72.2914 14.7834C72.0215 14.9751 71.6806 15.071 71.2686 15.071C70.9277 15.071 70.6247 14.9964 70.3596 14.8473C70.0944 14.6958 69.8861 14.4685 69.7346 14.1655C69.583 13.8601 69.5073 13.4754 69.5073 13.0114V9.54545H70.3453V12.9545C70.3453 13.3523 70.4566 13.6695 70.6792 13.9062C70.9041 14.143 71.1905 14.2614 71.5385 14.2614C71.7469 14.2614 71.9587 14.2081 72.1742 14.1016C72.392 13.995 72.5743 13.8317 72.7211 13.6115C72.8702 13.3913 72.9448 13.1108 72.9448 12.7699ZM75.3178 15V9.54545H76.1275V10.3977H76.1985C76.3121 10.1065 76.4956 9.88045 76.7489 9.71946C77.0022 9.55611 77.3065 9.47443 77.6616 9.47443C78.0214 9.47443 78.3209 9.55611 78.56 9.71946C78.8015 9.88045 78.9897 10.1065 79.1246 10.3977H79.1815C79.3211 10.116 79.5307 9.89228 79.81 9.72656C80.0894 9.55848 80.4244 9.47443 80.815 9.47443C81.3027 9.47443 81.7016 9.62713 82.0117 9.93253C82.3219 10.2356 82.4769 10.7079 82.4769 11.3494V15H81.6388V11.3494C81.6388 10.947 81.5288 10.6593 81.3086 10.4865C81.0884 10.3137 80.8292 10.2273 80.5309 10.2273C80.1474 10.2273 79.8503 10.3433 79.6396 10.5753C79.4289 10.8049 79.3235 11.0961 79.3235 11.4489V15H78.4712V11.2642C78.4712 10.9541 78.3706 10.7043 78.1694 10.5149C77.9682 10.3232 77.7089 10.2273 77.3917 10.2273C77.1739 10.2273 76.9703 10.2853 76.7809 10.4013C76.5939 10.5173 76.4424 10.6783 76.3263 10.8842C76.2127 11.0878 76.1559 11.3234 76.1559 11.5909V15H75.3178ZM86.2962 15.1136C85.7706 15.1136 85.3172 14.9976 84.9361 14.7656C84.5573 14.5312 84.2649 14.2045 84.0589 13.7855C83.8554 13.3641 83.7536 12.8741 83.7536 12.3153C83.7536 11.7566 83.8554 11.2642 84.0589 10.8381C84.2649 10.4096 84.5514 10.0758 84.9183 9.83665C85.2876 9.59517 85.7185 9.47443 86.2109 9.47443C86.495 9.47443 86.7756 9.52178 87.0526 9.61648C87.3295 9.71117 87.5817 9.86506 87.8089 10.0781C88.0362 10.2888 88.2173 10.5682 88.3523 10.9162C88.4872 11.2642 88.5547 11.6927 88.5547 12.2017V12.5568H84.3501V11.8324H87.7024C87.7024 11.5246 87.6409 11.25 87.5178 11.0085C87.397 10.767 87.2242 10.5765 86.9993 10.4368C86.7768 10.2971 86.514 10.2273 86.2109 10.2273C85.8771 10.2273 85.5883 10.3101 85.3445 10.4759C85.103 10.6392 84.9171 10.8523 84.7869 11.1151C84.6567 11.3778 84.5916 11.6596 84.5916 11.9602V12.4432C84.5916 12.8551 84.6626 13.2043 84.8047 13.4908C84.9491 13.7749 85.1491 13.9915 85.4048 14.1406C85.6605 14.2874 85.9576 14.3608 86.2962 14.3608C86.5163 14.3608 86.7152 14.33 86.8928 14.2685C87.0727 14.2045 87.2277 14.1098 87.358 13.9844C87.4882 13.8565 87.5888 13.6979 87.6598 13.5085L88.4695 13.7358C88.3842 14.0104 88.241 14.2519 88.0398 14.4602C87.8385 14.6662 87.59 14.8272 87.294 14.9432C86.9981 15.0568 86.6655 15.1136 86.2962 15.1136ZM90.6676 11.7188V15H89.8295V9.54545H90.6392V10.3977H90.7102C90.8381 10.1207 91.0322 9.8982 91.2926 9.73011C91.553 9.55966 91.8892 9.47443 92.3011 9.47443C92.6705 9.47443 92.9936 9.55019 93.2706 9.7017C93.5476 9.85085 93.763 10.0781 93.9169 10.3835C94.0708 10.6866 94.1477 11.0701 94.1477 11.5341V15H93.3097V11.5909C93.3097 11.1624 93.1984 10.8286 92.9759 10.5895C92.7533 10.348 92.4479 10.2273 92.0597 10.2273C91.7921 10.2273 91.553 10.2853 91.3423 10.4013C91.134 10.5173 90.9695 10.6866 90.8487 10.9091C90.728 11.1316 90.6676 11.4015 90.6676 11.7188ZM98.0513 9.54545V10.2557H95.2246V9.54545H98.0513ZM96.0485 8.23864H96.8865V13.4375C96.8865 13.6742 96.9209 13.8518 96.9895 13.9702C97.0605 14.0862 97.1505 14.1643 97.2594 14.2045C97.3707 14.2424 97.4879 14.2614 97.611 14.2614C97.7033 14.2614 97.7791 14.2566 97.8382 14.2472C97.8974 14.2353 97.9448 14.2259 97.9803 14.2188L98.1507 14.9716C98.0939 14.9929 98.0146 15.0142 97.9128 15.0355C97.811 15.0592 97.682 15.071 97.5257 15.071C97.289 15.071 97.057 15.0201 96.8297 14.9183C96.6048 14.8165 96.4178 14.6615 96.2686 14.4531C96.1219 14.2448 96.0485 13.982 96.0485 13.6648V8.23864ZM100.917 15.1278C100.571 15.1278 100.258 15.0627 99.976 14.9325C99.6943 14.8 99.4706 14.6094 99.3049 14.3608C99.1391 14.1098 99.0563 13.8068 99.0563 13.4517C99.0563 13.1392 99.1178 12.8859 99.2409 12.6918C99.3641 12.4953 99.5286 12.3414 99.7346 12.2301C99.9405 12.1188 100.168 12.036 100.416 11.9815C100.667 11.9247 100.919 11.8797 101.173 11.8466C101.504 11.804 101.773 11.772 101.979 11.7507C102.187 11.727 102.339 11.688 102.433 11.6335C102.53 11.5791 102.579 11.4844 102.579 11.3494V11.321C102.579 10.9706 102.483 10.6984 102.291 10.5043C102.102 10.3101 101.814 10.2131 101.428 10.2131C101.028 10.2131 100.715 10.3007 100.487 10.4759C100.26 10.651 100.1 10.8381 100.008 11.0369L99.2125 10.7528C99.3546 10.4214 99.544 10.1634 99.7807 9.97869C100.02 9.79167 100.28 9.66146 100.562 9.58807C100.846 9.51231 101.125 9.47443 101.4 9.47443C101.575 9.47443 101.776 9.49574 102.004 9.53835C102.233 9.5786 102.455 9.66264 102.668 9.79048C102.883 9.91832 103.062 10.1113 103.204 10.3693C103.346 10.6274 103.417 10.973 103.417 11.4062V15H102.579V14.2614H102.536C102.48 14.3797 102.385 14.5064 102.252 14.6413C102.12 14.7763 101.943 14.8911 101.723 14.9858C101.503 15.0805 101.234 15.1278 100.917 15.1278ZM101.045 14.375C101.376 14.375 101.656 14.3099 101.883 14.1797C102.113 14.0495 102.285 13.8814 102.401 13.6754C102.52 13.4695 102.579 13.2528 102.579 13.0256V12.2585C102.544 12.3011 102.465 12.3402 102.345 12.3757C102.226 12.4089 102.089 12.4384 101.933 12.4645C101.779 12.4882 101.628 12.5095 101.482 12.5284C101.337 12.545 101.22 12.5592 101.13 12.571C100.912 12.5994 100.709 12.6456 100.519 12.7095C100.332 12.7711 100.181 12.8646 100.065 12.9901C99.9512 13.1132 99.8944 13.2812 99.8944 13.4943C99.8944 13.7855 100.002 14.0057 100.218 14.1548C100.435 14.3016 100.711 14.375 101.045 14.375ZM107.319 9.54545V10.2557H104.492V9.54545H107.319ZM105.316 8.23864H106.154V13.4375C106.154 13.6742 106.188 13.8518 106.257 13.9702C106.328 14.0862 106.418 14.1643 106.527 14.2045C106.638 14.2424 106.755 14.2614 106.879 14.2614C106.971 14.2614 107.047 14.2566 107.106 14.2472C107.165 14.2353 107.212 14.2259 107.248 14.2188L107.418 14.9716C107.362 14.9929 107.282 15.0142 107.18 15.0355C107.079 15.0592 106.95 15.071 106.793 15.071C106.557 15.071 106.325 15.0201 106.097 14.9183C105.872 14.8165 105.685 14.6615 105.536 14.4531C105.389 14.2448 105.316 13.982 105.316 13.6648V8.23864ZM108.58 15V9.54545H109.418V15H108.58ZM109.006 8.63636C108.842 8.63636 108.701 8.58073 108.583 8.46946C108.467 8.35819 108.409 8.22443 108.409 8.06818C108.409 7.91193 108.467 7.77817 108.583 7.6669C108.701 7.55563 108.842 7.5 109.006 7.5C109.169 7.5 109.309 7.55563 109.425 7.6669C109.543 7.77817 109.602 7.91193 109.602 8.06818C109.602 8.22443 109.543 8.35819 109.425 8.46946C109.309 8.58073 109.169 8.63636 109.006 8.63636ZM113.169 15.1136C112.676 15.1136 112.244 14.9964 111.872 14.7621C111.503 14.5277 111.214 14.1998 111.006 13.7784C110.8 13.357 110.697 12.8646 110.697 12.3011C110.697 11.733 110.8 11.237 111.006 10.8132C111.214 10.3894 111.503 10.0604 111.872 9.82599C112.244 9.59162 112.676 9.47443 113.169 9.47443C113.661 9.47443 114.092 9.59162 114.461 9.82599C114.833 10.0604 115.122 10.3894 115.328 10.8132C115.536 11.237 115.64 11.733 115.64 12.3011C115.64 12.8646 115.536 13.357 115.328 13.7784C115.122 14.1998 114.833 14.5277 114.461 14.7621C114.092 14.9964 113.661 15.1136 113.169 15.1136ZM113.169 14.3608C113.543 14.3608 113.85 14.2649 114.092 14.0732C114.333 13.8814 114.512 13.6293 114.628 13.3168C114.744 13.0043 114.802 12.6657 114.802 12.3011C114.802 11.9366 114.744 11.5968 114.628 11.282C114.512 10.9671 114.333 10.7126 114.092 10.5185C113.85 10.3243 113.543 10.2273 113.169 10.2273C112.794 10.2273 112.487 10.3243 112.245 10.5185C112.004 10.7126 111.825 10.9671 111.709 11.282C111.593 11.5968 111.535 11.9366 111.535 12.3011C111.535 12.6657 111.593 13.0043 111.709 13.3168C111.825 13.6293 112.004 13.8814 112.245 14.0732C112.487 14.2649 112.794 14.3608 113.169 14.3608ZM117.757 11.7188V15H116.919V9.54545H117.729V10.3977H117.8C117.928 10.1207 118.122 9.8982 118.382 9.73011C118.643 9.55966 118.979 9.47443 119.391 9.47443C119.76 9.47443 120.083 9.55019 120.36 9.7017C120.637 9.85085 120.853 10.0781 121.007 10.3835C121.161 10.6866 121.238 11.0701 121.238 11.5341V15H120.4V11.5909C120.4 11.1624 120.288 10.8286 120.066 10.5895C119.843 10.348 119.538 10.2273 119.15 10.2273C118.882 10.2273 118.643 10.2853 118.432 10.4013C118.224 10.5173 118.059 10.6866 117.939 10.9091C117.818 11.1316 117.757 11.4015 117.757 11.7188Z" fill="#E11D48"/>
<rect x="50.5" y="20.5" width="84" height="13" rx="3.5" stroke="#64748B"/>
<rect x="53.5" y="79.5" width="41" height="13" rx="3.5" stroke="#94A3B8"/>
<path d="M57.5043 86.3807V86.0966L59.7912 84.9318V85.3864L58.0369 86.2315L58.0511 86.2031V86.2741L58.0369 86.2457L59.7912 87.0909V87.5455L57.5043 86.3807ZM62.5828 84.3636V88H62.1425V84.3636H62.5828ZM63.8279 86.3594V88H63.4089V85.2727H63.8137V85.6989H63.8493C63.9132 85.5604 64.0102 85.4491 64.1404 85.3651C64.2707 85.2798 64.4387 85.2372 64.6447 85.2372C64.8294 85.2372 64.9909 85.2751 65.1294 85.3509C65.2679 85.4254 65.3757 85.5391 65.4526 85.6918C65.5295 85.8433 65.568 86.035 65.568 86.267V88H65.149V86.2955C65.149 86.0812 65.0933 85.9143 64.9821 85.7947C64.8708 85.674 64.7181 85.6136 64.524 85.6136C64.3902 85.6136 64.2707 85.6426 64.1653 85.7006C64.0611 85.7586 63.9789 85.8433 63.9185 85.9545C63.8581 86.0658 63.8279 86.2008 63.8279 86.3594ZM67.5198 85.2727V85.6278H66.1064V85.2727H67.5198ZM66.5184 84.6193H66.9374V87.2188C66.9374 87.3371 66.9546 87.4259 66.9889 87.4851C67.0244 87.5431 67.0694 87.5821 67.1238 87.6023C67.1795 87.6212 67.2381 87.6307 67.2996 87.6307C67.3458 87.6307 67.3837 87.6283 67.4133 87.6236C67.4429 87.6177 67.4665 87.6129 67.4843 87.6094L67.5695 87.9858C67.5411 87.9964 67.5015 88.0071 67.4506 88.0178C67.3997 88.0296 67.3351 88.0355 67.257 88.0355C67.1386 88.0355 67.0226 88.0101 66.909 87.9592C66.7965 87.9083 66.703 87.8307 66.6285 87.7266C66.5551 87.6224 66.5184 87.491 66.5184 87.3324V84.6193ZM68.1501 88V85.2727H68.555V85.6847H68.5834C68.6331 85.5497 68.723 85.4402 68.8532 85.3562C68.9835 85.2721 69.1302 85.2301 69.2936 85.2301C69.3244 85.2301 69.3628 85.2307 69.409 85.2319C69.4552 85.2331 69.4901 85.2348 69.5138 85.2372V85.6634C69.4996 85.6598 69.467 85.6545 69.4161 85.6474C69.3664 85.6391 69.3137 85.6349 69.2581 85.6349C69.1255 85.6349 69.0071 85.6628 68.903 85.7184C68.8 85.7728 68.7183 85.8486 68.6579 85.9457C68.5988 86.0415 68.5692 86.151 68.5692 86.2741V88H68.1501ZM71.0354 88.0568C70.7892 88.0568 70.5732 87.9982 70.3873 87.881C70.2027 87.7638 70.0583 87.5999 69.9541 87.3892C69.8511 87.1785 69.7996 86.9323 69.7996 86.6506C69.7996 86.3665 69.8511 86.1185 69.9541 85.9066C70.0583 85.6947 70.2027 85.5302 70.3873 85.413C70.5732 85.2958 70.7892 85.2372 71.0354 85.2372C71.2816 85.2372 71.4971 85.2958 71.6817 85.413C71.8676 85.5302 72.012 85.6947 72.115 85.9066C72.2191 86.1185 72.2712 86.3665 72.2712 86.6506C72.2712 86.9323 72.2191 87.1785 72.115 87.3892C72.012 87.5999 71.8676 87.7638 71.6817 87.881C71.4971 87.9982 71.2816 88.0568 71.0354 88.0568ZM71.0354 87.6804C71.2224 87.6804 71.3763 87.6325 71.4971 87.5366C71.6178 87.4407 71.7072 87.3146 71.7652 87.1584C71.8232 87.0021 71.8522 86.8329 71.8522 86.6506C71.8522 86.4683 71.8232 86.2984 71.7652 86.141C71.7072 85.9835 71.6178 85.8563 71.4971 85.7592C71.3763 85.6622 71.2224 85.6136 71.0354 85.6136C70.8484 85.6136 70.6945 85.6622 70.5738 85.7592C70.453 85.8563 70.3637 85.9835 70.3057 86.141C70.2477 86.2984 70.2187 86.4683 70.2187 86.6506C70.2187 86.8329 70.2477 87.0021 70.3057 87.1584C70.3637 87.3146 70.453 87.4407 70.5738 87.5366C70.6945 87.6325 70.8484 87.6804 71.0354 87.6804ZM73.9407 88.0568C73.7134 88.0568 73.5128 87.9994 73.3388 87.8846C73.1648 87.7686 73.0286 87.6052 72.9304 87.3945C72.8321 87.1826 72.783 86.9323 72.783 86.6435C72.783 86.357 72.8321 86.1084 72.9304 85.8977C73.0286 85.687 73.1654 85.5243 73.3406 85.4094C73.5157 85.2946 73.7182 85.2372 73.9478 85.2372C74.1254 85.2372 74.2656 85.2668 74.3686 85.326C74.4728 85.384 74.5521 85.4503 74.6065 85.5249C74.6622 85.5982 74.7054 85.6586 74.7362 85.706H74.7717V84.3636H75.1907V88H74.7859V87.581H74.7362C74.7054 87.6307 74.6616 87.6934 74.6048 87.7692C74.5479 87.8437 74.4669 87.9106 74.3615 87.9698C74.2562 88.0278 74.1159 88.0568 73.9407 88.0568ZM73.9975 87.6804C74.1656 87.6804 74.3076 87.6366 74.4237 87.549C74.5397 87.4602 74.6278 87.3377 74.6882 87.1815C74.7486 87.024 74.7788 86.8423 74.7788 86.6364C74.7788 86.4328 74.7492 86.2546 74.69 86.1019C74.6308 85.948 74.5432 85.8285 74.4272 85.7433C74.3112 85.6568 74.168 85.6136 73.9975 85.6136C73.82 85.6136 73.672 85.6592 73.5536 85.7504C73.4364 85.8403 73.3482 85.9628 73.2891 86.1179C73.2311 86.2718 73.2021 86.4446 73.2021 86.6364C73.2021 86.8305 73.2317 87.0069 73.2908 87.1655C73.3512 87.3229 73.44 87.4484 73.5572 87.5419C73.6755 87.6342 73.8223 87.6804 73.9975 87.6804ZM77.7351 86.8849V85.2727H78.1541V88H77.7351V87.5384H77.7067C77.6428 87.6768 77.5433 87.7946 77.4084 87.8917C77.2734 87.9876 77.103 88.0355 76.897 88.0355C76.7266 88.0355 76.575 87.9982 76.4425 87.9237C76.3099 87.8479 76.2057 87.7343 76.13 87.5827C76.0542 87.43 76.0163 87.2377 76.0163 87.0057V85.2727H76.4354V86.9773C76.4354 87.1761 76.491 87.3348 76.6023 87.4531C76.7147 87.5715 76.858 87.6307 77.032 87.6307C77.1361 87.6307 77.2421 87.604 77.3498 87.5508C77.4587 87.4975 77.5498 87.4158 77.6232 87.3058C77.6978 87.1957 77.7351 87.0554 77.7351 86.8849ZM80.0296 88.0568C79.7739 88.0568 79.5537 87.9964 79.3691 87.8757C79.1844 87.755 79.0423 87.5887 78.9429 87.3768C78.8435 87.1649 78.7938 86.9228 78.7938 86.6506C78.7938 86.3736 78.8447 86.1291 78.9465 85.9173C79.0494 85.7042 79.1927 85.5379 79.3762 85.4183C79.5608 85.2976 79.7762 85.2372 80.0225 85.2372C80.2142 85.2372 80.387 85.2727 80.5409 85.3438C80.6948 85.4148 80.8209 85.5142 80.9191 85.642C81.0174 85.7699 81.0783 85.919 81.102 86.0895H80.683C80.651 85.9652 80.58 85.8551 80.4699 85.7592C80.361 85.6622 80.2142 85.6136 80.0296 85.6136C79.8662 85.6136 79.723 85.6562 79.5999 85.7415C79.478 85.8255 79.3827 85.9445 79.314 86.0984C79.2465 86.2511 79.2128 86.4304 79.2128 86.6364C79.2128 86.8471 79.2459 87.0305 79.3122 87.1868C79.3797 87.343 79.4744 87.4644 79.5963 87.5508C79.7194 87.6372 79.8638 87.6804 80.0296 87.6804C80.1385 87.6804 80.2373 87.6615 80.3261 87.6236C80.4149 87.5857 80.49 87.5312 80.5516 87.4602C80.6131 87.3892 80.6569 87.304 80.683 87.2045H81.102C81.0783 87.3655 81.0197 87.5105 80.9262 87.6396C80.8339 87.7674 80.7114 87.8692 80.5587 87.945C80.4072 88.0195 80.2308 88.0568 80.0296 88.0568ZM82.9007 85.2727V85.6278H81.4873V85.2727H82.9007ZM81.8992 84.6193H82.3183V87.2188C82.3183 87.3371 82.3354 87.4259 82.3698 87.4851C82.4053 87.5431 82.4503 87.5821 82.5047 87.6023C82.5603 87.6212 82.6189 87.6307 82.6805 87.6307C82.7267 87.6307 82.7645 87.6283 82.7941 87.6236C82.8237 87.6177 82.8474 87.6129 82.8651 87.6094L82.9504 87.9858C82.922 87.9964 82.8823 88.0071 82.8314 88.0178C82.7805 88.0296 82.716 88.0355 82.6379 88.0355C82.5195 88.0355 82.4035 88.0101 82.2899 87.9592C82.1774 87.9083 82.0839 87.8307 82.0093 87.7266C81.9359 87.6224 81.8992 87.491 81.8992 87.3324V84.6193ZM83.531 88V85.2727H83.95V88H83.531ZM83.7441 84.8182C83.6624 84.8182 83.5919 84.7904 83.5328 84.7347C83.4748 84.6791 83.4458 84.6122 83.4458 84.5341C83.4458 84.456 83.4748 84.3891 83.5328 84.3335C83.5919 84.2778 83.6624 84.25 83.7441 84.25C83.8257 84.25 83.8956 84.2778 83.9536 84.3335C84.0128 84.3891 84.0423 84.456 84.0423 84.5341C84.0423 84.6122 84.0128 84.6791 83.9536 84.7347C83.8956 84.7904 83.8257 84.8182 83.7441 84.8182ZM85.8255 88.0568C85.5792 88.0568 85.3632 87.9982 85.1774 87.881C84.9927 87.7638 84.8483 87.5999 84.7441 87.3892C84.6412 87.1785 84.5897 86.9323 84.5897 86.6506C84.5897 86.3665 84.6412 86.1185 84.7441 85.9066C84.8483 85.6947 84.9927 85.5302 85.1774 85.413C85.3632 85.2958 85.5792 85.2372 85.8255 85.2372C86.0717 85.2372 86.2871 85.2958 86.4718 85.413C86.6576 85.5302 86.802 85.6947 86.905 85.9066C87.0092 86.1185 87.0613 86.3665 87.0613 86.6506C87.0613 86.9323 87.0092 87.1785 86.905 87.3892C86.802 87.5999 86.6576 87.7638 86.4718 87.881C86.2871 87.9982 86.0717 88.0568 85.8255 88.0568ZM85.8255 87.6804C86.0125 87.6804 86.1664 87.6325 86.2871 87.5366C86.4078 87.4407 86.4972 87.3146 86.5552 87.1584C86.6132 87.0021 86.6422 86.8329 86.6422 86.6506C86.6422 86.4683 86.6132 86.2984 86.5552 86.141C86.4972 85.9835 86.4078 85.8563 86.2871 85.7592C86.1664 85.6622 86.0125 85.6136 85.8255 85.6136C85.6384 85.6136 85.4846 85.6622 85.3638 85.7592C85.2431 85.8563 85.1537 85.9835 85.0957 86.141C85.0377 86.2984 85.0087 86.4683 85.0087 86.6506C85.0087 86.8329 85.0377 87.0021 85.0957 87.1584C85.1537 87.3146 85.2431 87.4407 85.3638 87.5366C85.4846 87.6325 85.6384 87.6804 85.8255 87.6804ZM88.1199 86.3594V88H87.7009V85.2727H88.1057V85.6989H88.1412C88.2052 85.5604 88.3022 85.4491 88.4324 85.3651C88.5626 85.2798 88.7307 85.2372 88.9367 85.2372C89.1214 85.2372 89.2829 85.2751 89.4214 85.3509C89.5599 85.4254 89.6676 85.5391 89.7446 85.6918C89.8215 85.8433 89.86 86.035 89.86 86.267V88H89.441V86.2955C89.441 86.0812 89.3853 85.9143 89.2741 85.7947C89.1628 85.674 89.0101 85.6136 88.816 85.6136C88.6822 85.6136 88.5626 85.6426 88.4573 85.7006C88.3531 85.7586 88.2709 85.8433 88.2105 85.9545C88.1501 86.0658 88.1199 86.2008 88.1199 86.3594Z" fill="#94A3B8"/>
<rect x="109.5" y="79.5" width="42" height="13" rx="3.5" stroke="#94A3B8"/>
<path d="M116.366 85.5H115.926C115.9 85.3733 115.855 85.2621 115.789 85.1662C115.725 85.0703 115.647 84.9898 115.555 84.9247C115.464 84.8584 115.363 84.8087 115.251 84.7756C115.14 84.7424 115.024 84.7259 114.903 84.7259C114.683 84.7259 114.484 84.7815 114.305 84.8928C114.127 85.004 113.986 85.168 113.881 85.3846C113.777 85.6012 113.724 85.867 113.724 86.1818C113.724 86.4967 113.777 86.7624 113.881 86.979C113.986 87.1957 114.127 87.3596 114.305 87.4709C114.484 87.5821 114.683 87.6378 114.903 87.6378C115.024 87.6378 115.14 87.6212 115.251 87.5881C115.363 87.5549 115.464 87.5058 115.555 87.4407C115.647 87.3744 115.725 87.2933 115.789 87.1974C115.855 87.1004 115.9 86.9891 115.926 86.8636H116.366C116.333 87.0495 116.273 87.2158 116.185 87.3626C116.098 87.5094 115.989 87.6342 115.859 87.7372C115.728 87.839 115.582 87.9165 115.42 87.9698C115.259 88.0231 115.087 88.0497 114.903 88.0497C114.593 88.0497 114.317 87.974 114.076 87.8224C113.835 87.6709 113.645 87.4555 113.506 87.1761C113.368 86.8968 113.298 86.5653 113.298 86.1818C113.298 85.7983 113.368 85.4669 113.506 85.1875C113.645 84.9081 113.835 84.6927 114.076 84.5412C114.317 84.3897 114.593 84.3139 114.903 84.3139C115.087 84.3139 115.259 84.3406 115.42 84.3938C115.582 84.4471 115.728 84.5252 115.859 84.6282C115.989 84.73 116.098 84.8543 116.185 85.0011C116.273 85.1467 116.333 85.313 116.366 85.5ZM118.129 88.0568C117.883 88.0568 117.667 87.9982 117.481 87.881C117.296 87.7638 117.152 87.5999 117.048 87.3892C116.945 87.1785 116.893 86.9323 116.893 86.6506C116.893 86.3665 116.945 86.1185 117.048 85.9066C117.152 85.6947 117.296 85.5302 117.481 85.413C117.667 85.2958 117.883 85.2372 118.129 85.2372C118.375 85.2372 118.591 85.2958 118.775 85.413C118.961 85.5302 119.106 85.6947 119.209 85.9066C119.313 86.1185 119.365 86.3665 119.365 86.6506C119.365 86.9323 119.313 87.1785 119.209 87.3892C119.106 87.5999 118.961 87.7638 118.775 87.881C118.591 87.9982 118.375 88.0568 118.129 88.0568ZM118.129 87.6804C118.316 87.6804 118.47 87.6325 118.591 87.5366C118.712 87.4407 118.801 87.3146 118.859 87.1584C118.917 87.0021 118.946 86.8329 118.946 86.6506C118.946 86.4683 118.917 86.2984 118.859 86.141C118.801 85.9835 118.712 85.8563 118.591 85.7592C118.47 85.6622 118.316 85.6136 118.129 85.6136C117.942 85.6136 117.788 85.6622 117.668 85.7592C117.547 85.8563 117.457 85.9835 117.399 86.141C117.341 86.2984 117.312 86.4683 117.312 86.6506C117.312 86.8329 117.341 87.0021 117.399 87.1584C117.457 87.3146 117.547 87.4407 117.668 87.5366C117.788 87.6325 117.942 87.6804 118.129 87.6804ZM120.005 88V85.2727H120.409V85.6989H120.445C120.502 85.5533 120.594 85.4402 120.72 85.3597C120.847 85.2781 120.999 85.2372 121.176 85.2372C121.356 85.2372 121.506 85.2781 121.626 85.3597C121.746 85.4402 121.841 85.5533 121.908 85.6989H121.936C122.006 85.558 122.111 85.4461 122.251 85.3633C122.39 85.2792 122.558 85.2372 122.753 85.2372C122.997 85.2372 123.196 85.3136 123.352 85.4663C123.507 85.6178 123.584 85.8539 123.584 86.1747V88H123.165V86.1747C123.165 85.9735 123.11 85.8297 123 85.7433C122.89 85.6568 122.76 85.6136 122.611 85.6136C122.419 85.6136 122.271 85.6716 122.165 85.7876C122.06 85.9025 122.007 86.0481 122.007 86.2244V88H121.581V86.1321C121.581 85.977 121.531 85.8522 121.43 85.7575C121.33 85.6616 121.2 85.6136 121.042 85.6136C120.933 85.6136 120.831 85.6426 120.736 85.7006C120.643 85.7586 120.567 85.8391 120.509 85.9421C120.452 86.0439 120.424 86.1617 120.424 86.2955V88H120.005ZM124.35 89.0227V85.2727H124.755V85.706H124.805C124.836 85.6586 124.878 85.5982 124.933 85.5249C124.988 85.4503 125.068 85.384 125.171 85.326C125.275 85.2668 125.416 85.2372 125.593 85.2372C125.823 85.2372 126.025 85.2946 126.2 85.4094C126.376 85.5243 126.512 85.687 126.611 85.8977C126.709 86.1084 126.758 86.357 126.758 86.6435C126.758 86.9323 126.709 87.1826 126.611 87.3945C126.512 87.6052 126.376 87.7686 126.202 87.8846C126.028 87.9994 125.828 88.0568 125.6 88.0568C125.425 88.0568 125.285 88.0278 125.18 87.9698C125.074 87.9106 124.993 87.8437 124.936 87.7692C124.879 87.6934 124.836 87.6307 124.805 87.581H124.769V89.0227H124.35ZM124.762 86.6364C124.762 86.8423 124.792 87.024 124.853 87.1815C124.913 87.3377 125.001 87.4602 125.117 87.549C125.233 87.6366 125.375 87.6804 125.544 87.6804C125.719 87.6804 125.865 87.6342 125.982 87.5419C126.1 87.4484 126.189 87.3229 126.248 87.1655C126.309 87.0069 126.339 86.8305 126.339 86.6364C126.339 86.4446 126.309 86.2718 126.25 86.1179C126.192 85.9628 126.104 85.8403 125.986 85.7504C125.868 85.6592 125.721 85.6136 125.544 85.6136C125.373 85.6136 125.23 85.6568 125.114 85.7433C124.998 85.8285 124.91 85.948 124.851 86.1019C124.792 86.2546 124.762 86.4328 124.762 86.6364ZM128.505 88.0568C128.259 88.0568 128.043 87.9982 127.857 87.881C127.672 87.7638 127.528 87.5999 127.424 87.3892C127.321 87.1785 127.269 86.9323 127.269 86.6506C127.269 86.3665 127.321 86.1185 127.424 85.9066C127.528 85.6947 127.672 85.5302 127.857 85.413C128.043 85.2958 128.259 85.2372 128.505 85.2372C128.751 85.2372 128.967 85.2958 129.151 85.413C129.337 85.5302 129.482 85.6947 129.585 85.9066C129.689 86.1185 129.741 86.3665 129.741 86.6506C129.741 86.9323 129.689 87.1785 129.585 87.3892C129.482 87.5999 129.337 87.7638 129.151 87.881C128.967 87.9982 128.751 88.0568 128.505 88.0568ZM128.505 87.6804C128.692 87.6804 128.846 87.6325 128.967 87.5366C129.088 87.4407 129.177 87.3146 129.235 87.1584C129.293 87.0021 129.322 86.8329 129.322 86.6506C129.322 86.4683 129.293 86.2984 129.235 86.141C129.177 85.9835 129.088 85.8563 128.967 85.7592C128.846 85.6622 128.692 85.6136 128.505 85.6136C128.318 85.6136 128.164 85.6622 128.044 85.7592C127.923 85.8563 127.833 85.9835 127.775 86.141C127.717 86.2984 127.688 86.4683 127.688 86.6506C127.688 86.8329 127.717 87.0021 127.775 87.1584C127.833 87.3146 127.923 87.4407 128.044 87.5366C128.164 87.6325 128.318 87.6804 128.505 87.6804ZM130.8 86.3594V88H130.381V85.2727H130.785V85.6989H130.821C130.885 85.5604 130.982 85.4491 131.112 85.3651C131.242 85.2798 131.41 85.2372 131.616 85.2372C131.801 85.2372 131.963 85.2751 132.101 85.3509C132.24 85.4254 132.347 85.5391 132.424 85.6918C132.501 85.8433 132.54 86.035 132.54 86.267V88H132.121V86.2955C132.121 86.0812 132.065 85.9143 131.954 85.7947C131.842 85.674 131.69 85.6136 131.496 85.6136C131.362 85.6136 131.242 85.6426 131.137 85.7006C131.033 85.7586 130.951 85.8433 130.89 85.9545C130.83 86.0658 130.8 86.2008 130.8 86.3594ZM134.449 88.0568C134.186 88.0568 133.959 87.9988 133.769 87.8828C133.579 87.7656 133.433 87.6023 133.33 87.3928C133.228 87.1821 133.178 86.937 133.178 86.6577C133.178 86.3783 133.228 86.1321 133.33 85.919C133.433 85.7048 133.576 85.5379 133.76 85.4183C133.945 85.2976 134.16 85.2372 134.406 85.2372C134.548 85.2372 134.689 85.2609 134.827 85.3082C134.966 85.3556 135.092 85.4325 135.205 85.5391C135.319 85.6444 135.409 85.7841 135.477 85.9581C135.544 86.1321 135.578 86.3464 135.578 86.6009V86.7784H133.476V86.4162H135.152C135.152 86.2623 135.121 86.125 135.06 86.0043C134.999 85.8835 134.913 85.7882 134.8 85.7184C134.689 85.6486 134.558 85.6136 134.406 85.6136C134.239 85.6136 134.095 85.6551 133.973 85.7379C133.852 85.8196 133.759 85.9261 133.694 86.0575C133.629 86.1889 133.597 86.3298 133.597 86.4801V86.7216C133.597 86.9276 133.632 87.1022 133.703 87.2454C133.775 87.3874 133.875 87.4957 134.003 87.5703C134.131 87.6437 134.28 87.6804 134.449 87.6804C134.559 87.6804 134.658 87.665 134.747 87.6342C134.837 87.6023 134.915 87.5549 134.98 87.4922C135.045 87.4283 135.095 87.349 135.131 87.2543L135.536 87.3679C135.493 87.5052 135.421 87.6259 135.321 87.7301C135.22 87.8331 135.096 87.9136 134.948 87.9716C134.8 88.0284 134.634 88.0568 134.449 88.0568ZM136.635 86.3594V88H136.216V85.2727H136.62V85.6989H136.656C136.72 85.5604 136.817 85.4491 136.947 85.3651C137.077 85.2798 137.245 85.2372 137.451 85.2372C137.636 85.2372 137.798 85.2751 137.936 85.3509C138.075 85.4254 138.182 85.5391 138.259 85.6918C138.336 85.8433 138.375 86.035 138.375 86.267V88H137.956V86.2955C137.956 86.0812 137.9 85.9143 137.789 85.7947C137.677 85.674 137.525 85.6136 137.331 85.6136C137.197 85.6136 137.077 85.6426 136.972 85.7006C136.868 85.7586 136.786 85.8433 136.725 85.9545C136.665 86.0658 136.635 86.2008 136.635 86.3594ZM140.326 85.2727V85.6278H138.913V85.2727H140.326ZM139.325 84.6193H139.744V87.2188C139.744 87.3371 139.761 87.4259 139.796 87.4851C139.831 87.5431 139.876 87.5821 139.93 87.6023C139.986 87.6212 140.045 87.6307 140.106 87.6307C140.152 87.6307 140.19 87.6283 140.22 87.6236C140.249 87.6177 140.273 87.6129 140.291 87.6094L140.376 87.9858C140.348 87.9964 140.308 88.0071 140.257 88.0178C140.206 88.0296 140.142 88.0355 140.064 88.0355C139.945 88.0355 139.829 88.0101 139.716 87.9592C139.603 87.9083 139.51 87.8307 139.435 87.7266C139.362 87.6224 139.325 87.491 139.325 87.3324V84.6193ZM142.84 85.8835L142.463 85.9901C142.44 85.9273 142.405 85.8664 142.359 85.8072C142.314 85.7468 142.252 85.6971 142.174 85.658C142.096 85.619 141.996 85.5994 141.874 85.5994C141.707 85.5994 141.568 85.6379 141.457 85.7148C141.347 85.7906 141.291 85.8871 141.291 86.0043C141.291 86.1084 141.329 86.1907 141.405 86.2511C141.481 86.3114 141.599 86.3617 141.76 86.402L142.165 86.5014C142.409 86.5606 142.591 86.6512 142.71 86.7731C142.83 86.8938 142.889 87.0495 142.889 87.2401C142.889 87.3963 142.844 87.536 142.755 87.6591C142.666 87.7822 142.541 87.8793 142.382 87.9503C142.222 88.0213 142.036 88.0568 141.824 88.0568C141.546 88.0568 141.316 87.9964 141.133 87.8757C140.951 87.755 140.836 87.5786 140.787 87.3466L141.185 87.2472C141.223 87.3939 141.294 87.504 141.4 87.5774C141.506 87.6508 141.645 87.6875 141.817 87.6875C142.012 87.6875 142.167 87.6461 142.282 87.5632C142.398 87.4792 142.456 87.3786 142.456 87.2614C142.456 87.1667 142.423 87.0874 142.357 87.0234C142.291 86.9583 142.189 86.9098 142.051 86.8778L141.597 86.7713C141.347 86.7121 141.164 86.6204 141.046 86.4961C140.93 86.3706 140.872 86.2138 140.872 86.0256C140.872 85.8717 140.916 85.7356 141.002 85.6172C141.09 85.4988 141.209 85.4059 141.359 85.3384C141.51 85.271 141.682 85.2372 141.874 85.2372C142.144 85.2372 142.356 85.2964 142.509 85.4148C142.665 85.5331 142.775 85.6894 142.84 85.8835ZM147.334 86.7216L145.047 87.8864V87.4318L146.801 86.5866L146.787 86.6151V86.544L146.801 86.5724L145.047 85.7273V85.2727L147.334 86.4375V86.7216Z" fill="#94A3B8"/>
</svg>
