<svg width="160" height="100" viewBox="0 0 160 100" fill="none" xmlns="http://www.w3.org/2000/svg">
<rect x="0.05" y="0.05" width="159.9" height="99.9" rx="4.95" stroke="#94A3B8" stroke-width="0.1"/>
<circle cx="26" cy="63.5" r="4.5" fill="#E11D48"/>
<path d="M44.5 59H57.5" stroke="#64748B" stroke-linecap="round"/>
<path d="M44.5 63H52.5" stroke="#64748B" stroke-linecap="round"/>
<path d="M44.5 66H49.5" stroke="#64748B" stroke-linecap="round"/>
<path d="M44.5 69H51.5" stroke="#64748B" stroke-linecap="round"/>
<path d="M44.5 72H53.5" stroke="#64748B" stroke-linecap="round"/>
<path d="M44.5 75H52.5" stroke="#64748B" stroke-linecap="round"/>
<path d="M44.5 78H49.5" stroke="#64748B" stroke-linecap="round"/>
<path d="M44.5 81H51.5" stroke="#64748B" stroke-linecap="round"/>
<path d="M44.5 84H52.5" stroke="#64748B" stroke-linecap="round"/>
<path d="M71.5 59H84.5" stroke="#64748B" stroke-linecap="round"/>
<path d="M71.5 63H79.5" stroke="#64748B" stroke-linecap="round"/>
<path d="M71.5 66H76.5" stroke="#64748B" stroke-linecap="round"/>
<path d="M71.5 69H78.5" stroke="#64748B" stroke-linecap="round"/>
<path d="M71.5 72H80.5" stroke="#64748B" stroke-linecap="round"/>
<path d="M71.5 75H79.5" stroke="#64748B" stroke-linecap="round"/>
<path d="M71.5 78H76.5" stroke="#64748B" stroke-linecap="round"/>
<path d="M71.5 81H78.5" stroke="#64748B" stroke-linecap="round"/>
<path d="M71.5 84H79.5" stroke="#64748B" stroke-linecap="round"/>
<path d="M98.5 59H111.5" stroke="#64748B" stroke-linecap="round"/>
<path d="M98.5 63H106.5" stroke="#64748B" stroke-linecap="round"/>
<path d="M98.5 66H103.5" stroke="#64748B" stroke-linecap="round"/>
<path d="M98.5 69H105.5" stroke="#64748B" stroke-linecap="round"/>
<path d="M98.5 72H107.5" stroke="#64748B" stroke-linecap="round"/>
<path d="M98.5 75H106.5" stroke="#64748B" stroke-linecap="round"/>
<path d="M98.5 78H103.5" stroke="#64748B" stroke-linecap="round"/>
<path d="M98.5 81H105.5" stroke="#64748B" stroke-linecap="round"/>
<path d="M98.5 84H106.5" stroke="#64748B" stroke-linecap="round"/>
<path d="M125.5 59H138.5" stroke="#64748B" stroke-linecap="round"/>
<path d="M125.5 63H133.5" stroke="#64748B" stroke-linecap="round"/>
<path d="M125.5 66H130.5" stroke="#64748B" stroke-linecap="round"/>
<path d="M125.5 69H132.5" stroke="#64748B" stroke-linecap="round"/>
<path d="M125.5 72H134.5" stroke="#64748B" stroke-linecap="round"/>
<path d="M125.5 75H133.5" stroke="#64748B" stroke-linecap="round"/>
<path d="M125.5 78H130.5" stroke="#64748B" stroke-linecap="round"/>
<path d="M125.5 81H132.5" stroke="#64748B" stroke-linecap="round"/>
<path d="M125.5 84H133.5" stroke="#64748B" stroke-linecap="round"/>
<line y1="53.5" x2="160" y2="53.5" stroke="#64748B"/>
<path d="M20 91H140" stroke="#64748B" stroke-linecap="round"/>
<path d="M69 93.5H91" stroke="#64748B" stroke-linecap="round"/>
<path d="M73 96H88" stroke="#64748B" stroke-linecap="round"/>
<path d="M64.8807 33V25.7273H69.2415V26.5085H65.7614V28.9659H68.9148V29.7472H65.7614V33H64.8807ZM72.4517 33.1136C71.9593 33.1136 71.5272 32.9964 71.1555 32.7621C70.7862 32.5277 70.4974 32.1998 70.2891 31.7784C70.0831 31.357 69.9801 30.8646 69.9801 30.3011C69.9801 29.733 70.0831 29.237 70.2891 28.8132C70.4974 28.3894 70.7862 28.0604 71.1555 27.826C71.5272 27.5916 71.9593 27.4744 72.4517 27.4744C72.9441 27.4744 73.375 27.5916 73.7443 27.826C74.116 28.0604 74.4048 28.3894 74.6108 28.8132C74.8191 29.237 74.9233 29.733 74.9233 30.3011C74.9233 30.8646 74.8191 31.357 74.6108 31.7784C74.4048 32.1998 74.116 32.5277 73.7443 32.7621C73.375 32.9964 72.9441 33.1136 72.4517 33.1136ZM72.4517 32.3608C72.8258 32.3608 73.1335 32.2649 73.375 32.0732C73.6165 31.8814 73.7952 31.6293 73.9112 31.3168C74.0272 31.0043 74.0852 30.6657 74.0852 30.3011C74.0852 29.9366 74.0272 29.5968 73.9112 29.282C73.7952 28.9671 73.6165 28.7126 73.375 28.5185C73.1335 28.3243 72.8258 28.2273 72.4517 28.2273C72.0777 28.2273 71.7699 28.3243 71.5284 28.5185C71.2869 28.7126 71.1082 28.9671 70.9922 29.282C70.8762 29.5968 70.8182 29.9366 70.8182 30.3011C70.8182 30.6657 70.8762 31.0043 70.9922 31.3168C71.1082 31.6293 71.2869 31.8814 71.5284 32.0732C71.7699 32.2649 72.0777 32.3608 72.4517 32.3608ZM78.4185 33.1136C77.9261 33.1136 77.494 32.9964 77.1223 32.7621C76.753 32.5277 76.4642 32.1998 76.2559 31.7784C76.0499 31.357 75.9469 30.8646 75.9469 30.3011C75.9469 29.733 76.0499 29.237 76.2559 28.8132C76.4642 28.3894 76.753 28.0604 77.1223 27.826C77.494 27.5916 77.9261 27.4744 78.4185 27.4744C78.9109 27.4744 79.3418 27.5916 79.7111 27.826C80.0828 28.0604 80.3716 28.3894 80.5776 28.8132C80.7859 29.237 80.8901 29.733 80.8901 30.3011C80.8901 30.8646 80.7859 31.357 80.5776 31.7784C80.3716 32.1998 80.0828 32.5277 79.7111 32.7621C79.3418 32.9964 78.9109 33.1136 78.4185 33.1136ZM78.4185 32.3608C78.7926 32.3608 79.1003 32.2649 79.3418 32.0732C79.5833 31.8814 79.762 31.6293 79.878 31.3168C79.994 31.0043 80.052 30.6657 80.052 30.3011C80.052 29.9366 79.994 29.5968 79.878 29.282C79.762 28.9671 79.5833 28.7126 79.3418 28.5185C79.1003 28.3243 78.7926 28.2273 78.4185 28.2273C78.0444 28.2273 77.7367 28.3243 77.4952 28.5185C77.2537 28.7126 77.075 28.9671 76.959 29.282C76.843 29.5968 76.785 29.9366 76.785 30.3011C76.785 30.6657 76.843 31.0043 76.959 31.3168C77.075 31.6293 77.2537 31.8814 77.4952 32.0732C77.7367 32.2649 78.0444 32.3608 78.4185 32.3608ZM84.5415 27.5455V28.2557H81.7148V27.5455H84.5415ZM82.5387 26.2386H83.3768V31.4375C83.3768 31.6742 83.4111 31.8518 83.4798 31.9702C83.5508 32.0862 83.6407 32.1643 83.7496 32.2045C83.8609 32.2424 83.9781 32.2614 84.1012 32.2614C84.1935 32.2614 84.2693 32.2566 84.3285 32.2472C84.3877 32.2353 84.435 32.2259 84.4705 32.2188L84.641 32.9716C84.5842 32.9929 84.5049 33.0142 84.4031 33.0355C84.3013 33.0592 84.1722 33.071 84.016 33.071C83.7792 33.071 83.5472 33.0201 83.32 32.9183C83.0951 32.8165 82.908 32.6615 82.7589 32.4531C82.6121 32.2448 82.5387 31.982 82.5387 31.6648V26.2386ZM88.0305 33.1136C87.505 33.1136 87.0516 32.9976 86.6705 32.7656C86.2917 32.5312 85.9993 32.2045 85.7933 31.7855C85.5897 31.3641 85.4879 30.8741 85.4879 30.3153C85.4879 29.7566 85.5897 29.2642 85.7933 28.8381C85.9993 28.4096 86.2857 28.0758 86.6527 27.8366C87.022 27.5952 87.4529 27.4744 87.9453 27.4744C88.2294 27.4744 88.5099 27.5218 88.7869 27.6165C89.0639 27.7112 89.3161 27.8651 89.5433 28.0781C89.7706 28.2888 89.9517 28.5682 90.0866 28.9162C90.2216 29.2642 90.2891 29.6927 90.2891 30.2017V30.5568H86.0845V29.8324H89.4368C89.4368 29.5246 89.3752 29.25 89.2521 29.0085C89.1314 28.767 88.9586 28.5765 88.7337 28.4368C88.5111 28.2971 88.2483 28.2273 87.9453 28.2273C87.6115 28.2273 87.3227 28.3101 87.0788 28.4759C86.8374 28.6392 86.6515 28.8523 86.5213 29.1151C86.3911 29.3778 86.326 29.6596 86.326 29.9602V30.4432C86.326 30.8551 86.397 31.2043 86.5391 31.4908C86.6835 31.7749 86.8835 31.9915 87.1392 32.1406C87.3949 32.2874 87.692 32.3608 88.0305 32.3608C88.2507 32.3608 88.4496 32.33 88.6271 32.2685C88.8071 32.2045 88.9621 32.1098 89.0923 31.9844C89.2225 31.8565 89.3232 31.6979 89.3942 31.5085L90.2038 31.7358C90.1186 32.0104 89.9754 32.2519 89.7741 32.4602C89.5729 32.6662 89.3243 32.8272 89.0284 32.9432C88.7325 33.0568 88.3999 33.1136 88.0305 33.1136ZM91.5639 33V27.5455H92.3736V28.3693H92.4304C92.5298 28.0994 92.7098 27.8804 92.9702 27.7124C93.2306 27.5443 93.5241 27.4602 93.8509 27.4602C93.9124 27.4602 93.9893 27.4614 94.0817 27.4638C94.174 27.4661 94.2438 27.4697 94.2912 27.4744V28.3267C94.2628 28.3196 94.1977 28.3089 94.0959 28.2947C93.9964 28.2782 93.8911 28.2699 93.7798 28.2699C93.5147 28.2699 93.2779 28.3255 93.0696 28.4368C92.8636 28.5457 92.7003 28.6972 92.5795 28.8913C92.4612 29.0831 92.402 29.3021 92.402 29.5483V33H91.5639Z" fill="#E11D48"/>
</svg>
