<svg width="160" height="100" viewBox="0 0 160 100" fill="none" xmlns="http://www.w3.org/2000/svg">
<rect x="0.05" y="0.05" width="159.9" height="99.9" rx="4.95" stroke="#94A3B8" stroke-width="0.1"/>
<path d="M137 91H147" stroke="#E11D48" stroke-linecap="round"/>
<rect x="134.5" y="88.5" width="15" height="5" rx="2.5" stroke="#E11D48"/>
<path d="M60 32L96 32" stroke="#64748B" stroke-linecap="round"/>
<rect x="53.5" y="29.5" width="48" height="5" rx="2.5" stroke="#64748B"/>
<path d="M53 26L74 26" stroke="#64748B" stroke-linecap="round"/>
<path d="M7 24L28 24" stroke="#64748B" stroke-linecap="round"/>
<path d="M7 28L28 28" stroke="#64748B" stroke-linecap="round"/>
<path d="M7 32L28 32" stroke="#64748B" stroke-linecap="round"/>
<path d="M7 36L28 36" stroke="#64748B" stroke-linecap="round"/>
<path d="M7 48L28 48" stroke="#64748B" stroke-linecap="round"/>
<path d="M7 52L28 52" stroke="#64748B" stroke-linecap="round"/>
<path d="M7 56L28 56" stroke="#64748B" stroke-linecap="round"/>
<path d="M7 60L28 60" stroke="#64748B" stroke-linecap="round"/>
<path d="M7 72L28 72" stroke="#64748B" stroke-linecap="round"/>
<path d="M7 76L28 76" stroke="#64748B" stroke-linecap="round"/>
<path d="M7 80L28 80" stroke="#64748B" stroke-linecap="round"/>
<path d="M7 84L28 84" stroke="#64748B" stroke-linecap="round"/>
<path d="M60 47L96 47" stroke="#64748B" stroke-linecap="round"/>
<rect x="53.5" y="44.5" width="48" height="5" rx="2.5" stroke="#64748B"/>
<path d="M53 41L74 41" stroke="#64748B" stroke-linecap="round"/>
<path d="M60 62L96 62" stroke="#64748B" stroke-linecap="round"/>
<rect x="53.5" y="59.5" width="48" height="5" rx="2.5" stroke="#64748B"/>
<path d="M53 56L74 56" stroke="#64748B" stroke-linecap="round"/>
<path d="M60 77L96 77" stroke="#64748B" stroke-linecap="round"/>
<rect x="53.5" y="74.5" width="48" height="5" rx="2.5" stroke="#64748B"/>
<path d="M53 71L74 71" stroke="#64748B" stroke-linecap="round"/>
<path d="M37 2L37 97" stroke="#94A3B8" stroke-opacity="0.09" stroke-linecap="round"/>
<path d="M53.8807 19V11.7273H58.2415V12.5085H54.7614V14.9659H57.9148V15.7472H54.7614V19H53.8807ZM61.4517 19.1136C60.9593 19.1136 60.5272 18.9964 60.1555 18.7621C59.7862 18.5277 59.4974 18.1998 59.2891 17.7784C59.0831 17.357 58.9801 16.8646 58.9801 16.3011C58.9801 15.733 59.0831 15.237 59.2891 14.8132C59.4974 14.3894 59.7862 14.0604 60.1555 13.826C60.5272 13.5916 60.9593 13.4744 61.4517 13.4744C61.9441 13.4744 62.375 13.5916 62.7443 13.826C63.116 14.0604 63.4048 14.3894 63.6108 14.8132C63.8191 15.237 63.9233 15.733 63.9233 16.3011C63.9233 16.8646 63.8191 17.357 63.6108 17.7784C63.4048 18.1998 63.116 18.5277 62.7443 18.7621C62.375 18.9964 61.9441 19.1136 61.4517 19.1136ZM61.4517 18.3608C61.8258 18.3608 62.1335 18.2649 62.375 18.0732C62.6165 17.8814 62.7952 17.6293 62.9112 17.3168C63.0272 17.0043 63.0852 16.6657 63.0852 16.3011C63.0852 15.9366 63.0272 15.5968 62.9112 15.282C62.7952 14.9671 62.6165 14.7126 62.375 14.5185C62.1335 14.3243 61.8258 14.2273 61.4517 14.2273C61.0777 14.2273 60.7699 14.3243 60.5284 14.5185C60.2869 14.7126 60.1082 14.9671 59.9922 15.282C59.8762 15.5968 59.8182 15.9366 59.8182 16.3011C59.8182 16.6657 59.8762 17.0043 59.9922 17.3168C60.1082 17.6293 60.2869 17.8814 60.5284 18.0732C60.7699 18.2649 61.0777 18.3608 61.4517 18.3608ZM65.2026 19V13.5455H66.0123V14.3693H66.0691C66.1685 14.0994 66.3484 13.8804 66.6088 13.7124C66.8693 13.5443 67.1628 13.4602 67.4895 13.4602C67.5511 13.4602 67.628 13.4614 67.7203 13.4638C67.8127 13.4661 67.8825 13.4697 67.9299 13.4744V14.3267C67.9015 14.3196 67.8364 14.3089 67.7346 14.2947C67.6351 14.2782 67.5298 14.2699 67.4185 14.2699C67.1534 14.2699 66.9166 14.3255 66.7083 14.4368C66.5023 14.5457 66.339 14.6972 66.2182 14.8913C66.0998 15.0831 66.0407 15.3021 66.0407 15.5483V19H65.2026ZM68.9233 19V13.5455H69.733V14.3977H69.804C69.9176 14.1065 70.1011 13.8804 70.3544 13.7195C70.6077 13.5561 70.9119 13.4744 71.267 13.4744C71.6269 13.4744 71.9264 13.5561 72.1655 13.7195C72.407 13.8804 72.5952 14.1065 72.7301 14.3977H72.7869C72.9266 14.116 73.1361 13.8923 73.4155 13.7266C73.6948 13.5585 74.0298 13.4744 74.4205 13.4744C74.9081 13.4744 75.3071 13.6271 75.6172 13.9325C75.9273 14.2356 76.0824 14.7079 76.0824 15.3494V19H75.2443V15.3494C75.2443 14.947 75.1342 14.6593 74.9141 14.4865C74.6939 14.3137 74.4347 14.2273 74.1364 14.2273C73.7528 14.2273 73.4557 14.3433 73.245 14.5753C73.0343 14.8049 72.929 15.0961 72.929 15.4489V19H72.0767V15.2642C72.0767 14.9541 71.9761 14.7043 71.7749 14.5149C71.5736 14.3232 71.3144 14.2273 70.9972 14.2273C70.7794 14.2273 70.5758 14.2853 70.3864 14.4013C70.1993 14.5173 70.0478 14.6783 69.9318 14.8842C69.8182 15.0878 69.7614 15.3234 69.7614 15.5909V19H68.9233Z" fill="#E11D48"/>
<rect x="114.5" y="88.5" width="16" height="5" rx="2.5" stroke="#64748B"/>
<path d="M118 91H128" stroke="#64748B" stroke-linecap="round"/>
</svg>