<svg width="160" height="100" viewBox="0 0 160 100" fill="none" xmlns="http://www.w3.org/2000/svg">
<rect x="0.05" y="0.05" width="159.9" height="99.9" rx="4.95" stroke="#94A3B8" stroke-width="0.1"/>
<rect x="15.5" y="27.5" width="128" height="8" rx="1.5" stroke="#64748B"/>
<rect x="20" y="29" width="5" height="5" rx="2.5" fill="#E11D48"/>
<path d="M94 31.5H107" stroke="#64748B" stroke-linecap="round"/>
<path d="M110 31.5H123" stroke="#64748B" stroke-linecap="round"/>
<path d="M126 31.5H139" stroke="#64748B" stroke-linecap="round"/>
<rect x="15.5" y="45.5" width="128" height="8" rx="1.5" stroke="#64748B"/>
<rect x="35" y="47" width="5" height="5" rx="2.5" fill="#E11D48"/>
<path d="M82 49.5H95" stroke="#64748B" stroke-linecap="round"/>
<path d="M98 49.5H111" stroke="#64748B" stroke-linecap="round"/>
<path d="M114 49.5H127" stroke="#64748B" stroke-linecap="round"/>
<rect x="15.5" y="63.5" width="128" height="8" rx="1.5" stroke="#64748B"/>
<rect x="20" y="65" width="5" height="5" rx="2.5" fill="#E11D48"/>
<path d="M61 67.5H74" stroke="#64748B" stroke-linecap="round"/>
<path d="M77 67.5H90" stroke="#64748B" stroke-linecap="round"/>
<path d="M93 67.5H106" stroke="#64748B" stroke-linecap="round"/>
<path d="M60.8807 17V9.72727H61.7614V12.9659H65.6392V9.72727H66.5199V17H65.6392V13.7472H61.7614V17H60.8807ZM70.4563 17.1136C69.9308 17.1136 69.4774 16.9976 69.0962 16.7656C68.7174 16.5312 68.4251 16.2045 68.2191 15.7855C68.0155 15.3641 67.9137 14.8741 67.9137 14.3153C67.9137 13.7566 68.0155 13.2642 68.2191 12.8381C68.4251 12.4096 68.7115 12.0758 69.0785 11.8366C69.4478 11.5952 69.8787 11.4744 70.3711 11.4744C70.6552 11.4744 70.9357 11.5218 71.2127 11.6165C71.4897 11.7112 71.7418 11.8651 71.9691 12.0781C72.1964 12.2888 72.3775 12.5682 72.5124 12.9162C72.6474 13.2642 72.7148 13.6927 72.7148 14.2017V14.5568H68.5103V13.8324H71.8626C71.8626 13.5246 71.801 13.25 71.6779 13.0085C71.5572 12.767 71.3844 12.5765 71.1594 12.4368C70.9369 12.2971 70.6741 12.2273 70.3711 12.2273C70.0373 12.2273 69.7485 12.3101 69.5046 12.4759C69.2631 12.6392 69.0773 12.8523 68.9471 13.1151C68.8169 13.3778 68.7518 13.6596 68.7518 13.9602V14.4432C68.7518 14.8551 68.8228 15.2043 68.9648 15.4908C69.1093 15.7749 69.3093 15.9915 69.565 16.1406C69.8207 16.2874 70.1178 16.3608 70.4563 16.3608C70.6765 16.3608 70.8754 16.33 71.0529 16.2685C71.2328 16.2045 71.3879 16.1098 71.5181 15.9844C71.6483 15.8565 71.7489 15.6979 71.82 15.5085L72.6296 15.7358C72.5444 16.0104 72.4012 16.2519 72.1999 16.4602C71.9987 16.6662 71.7501 16.8272 71.4542 16.9432C71.1583 17.0568 70.8256 17.1136 70.4563 17.1136ZM75.5948 17.1278C75.2492 17.1278 74.9355 17.0627 74.6538 16.9325C74.372 16.8 74.1483 16.6094 73.9826 16.3608C73.8169 16.1098 73.734 15.8068 73.734 15.4517C73.734 15.1392 73.7956 14.8859 73.9187 14.6918C74.0418 14.4953 74.2063 14.3414 74.4123 14.2301C74.6183 14.1188 74.8455 14.036 75.0941 13.9815C75.3451 13.9247 75.5972 13.8797 75.8505 13.8466C76.1819 13.804 76.4506 13.772 76.6566 13.7507C76.8649 13.727 77.0165 13.688 77.1112 13.6335C77.2082 13.5791 77.2567 13.4844 77.2567 13.3494V13.321C77.2567 12.9706 77.1609 12.6984 76.9691 12.5043C76.7797 12.3101 76.4921 12.2131 76.1062 12.2131C75.7061 12.2131 75.3924 12.3007 75.1651 12.4759C74.9379 12.651 74.7781 12.8381 74.6857 13.0369L73.8903 12.7528C74.0323 12.4214 74.2217 12.1634 74.4585 11.9787C74.6976 11.7917 74.958 11.6615 75.2397 11.5881C75.5238 11.5123 75.8031 11.4744 76.0778 11.4744C76.253 11.4744 76.4542 11.4957 76.6815 11.5384C76.9111 11.5786 77.1325 11.6626 77.3455 11.7905C77.561 11.9183 77.7397 12.1113 77.8817 12.3693C78.0238 12.6274 78.0948 12.973 78.0948 13.4062V17H77.2567V16.2614H77.2141C77.1573 16.3797 77.0626 16.5064 76.93 16.6413C76.7975 16.7763 76.6211 16.8911 76.4009 16.9858C76.1808 17.0805 75.9121 17.1278 75.5948 17.1278ZM75.7227 16.375C76.0541 16.375 76.3335 16.3099 76.5607 16.1797C76.7904 16.0495 76.9632 15.8814 77.0792 15.6754C77.1976 15.4695 77.2567 15.2528 77.2567 15.0256V14.2585C77.2212 14.3011 77.1431 14.3402 77.0224 14.3757C76.904 14.4089 76.7667 14.4384 76.6104 14.4645C76.4566 14.4882 76.3062 14.5095 76.1594 14.5284C76.015 14.545 75.8978 14.5592 75.8079 14.571C75.5901 14.5994 75.3865 14.6456 75.1971 14.7095C75.0101 14.7711 74.8585 14.8646 74.7425 14.9901C74.6289 15.1132 74.5721 15.2812 74.5721 15.4943C74.5721 15.7855 74.6798 16.0057 74.8952 16.1548C75.113 16.3016 75.3888 16.375 75.7227 16.375ZM81.6841 17.1136C81.2296 17.1136 80.8283 16.9988 80.4803 16.7692C80.1323 16.5372 79.86 16.2105 79.6635 15.7891C79.467 15.3653 79.3688 14.8646 79.3688 14.2869C79.3688 13.714 79.467 13.2169 79.6635 12.7955C79.86 12.3741 80.1335 12.0485 80.4838 11.8189C80.8342 11.5893 81.2391 11.4744 81.6983 11.4744C82.0534 11.4744 82.334 11.5336 82.54 11.652C82.7483 11.768 82.9069 11.9006 83.0158 12.0497C83.1271 12.1965 83.2135 12.3172 83.275 12.4119H83.3461V9.72727H84.1841V17H83.3745V16.1619H83.275C83.2135 16.2614 83.1259 16.3868 83.0123 16.5384C82.8986 16.6875 82.7364 16.8213 82.5257 16.9396C82.315 17.0556 82.0345 17.1136 81.6841 17.1136ZM81.7978 16.3608C82.1339 16.3608 82.418 16.2732 82.65 16.098C82.882 15.9205 83.0584 15.6754 83.1792 15.3629C83.2999 15.0481 83.3603 14.6847 83.3603 14.2727C83.3603 13.8655 83.3011 13.5092 83.1827 13.2038C83.0643 12.8961 82.8891 12.657 82.6571 12.4865C82.4251 12.3137 82.1387 12.2273 81.7978 12.2273C81.4426 12.2273 81.1467 12.3184 80.91 12.5007C80.6756 12.6806 80.4992 12.9257 80.3809 13.2358C80.2649 13.5436 80.2069 13.8892 80.2069 14.2727C80.2069 14.661 80.266 15.0137 80.3844 15.331C80.5051 15.6458 80.6827 15.8968 80.9171 16.0838C81.1538 16.2685 81.4474 16.3608 81.7978 16.3608ZM88.1223 17.1136C87.5968 17.1136 87.1434 16.9976 86.7623 16.7656C86.3835 16.5312 86.0911 16.2045 85.8851 15.7855C85.6815 15.3641 85.5797 14.8741 85.5797 14.3153C85.5797 13.7566 85.6815 13.2642 85.8851 12.8381C86.0911 12.4096 86.3775 12.0758 86.7445 11.8366C87.1138 11.5952 87.5447 11.4744 88.0371 11.4744C88.3212 11.4744 88.6017 11.5218 88.8787 11.6165C89.1557 11.7112 89.4078 11.8651 89.6351 12.0781C89.8624 12.2888 90.0435 12.5682 90.1784 12.9162C90.3134 13.2642 90.3809 13.6927 90.3809 14.2017V14.5568H86.1763V13.8324H89.5286C89.5286 13.5246 89.467 13.25 89.3439 13.0085C89.2232 12.767 89.0504 12.5765 88.8255 12.4368C88.6029 12.2971 88.3401 12.2273 88.0371 12.2273C87.7033 12.2273 87.4145 12.3101 87.1706 12.4759C86.9292 12.6392 86.7433 12.8523 86.6131 13.1151C86.4829 13.3778 86.4178 13.6596 86.4178 13.9602V14.4432C86.4178 14.8551 86.4888 15.2043 86.6309 15.4908C86.7753 15.7749 86.9753 15.9915 87.231 16.1406C87.4867 16.2874 87.7838 16.3608 88.1223 16.3608C88.3425 16.3608 88.5414 16.33 88.7189 16.2685C88.8989 16.2045 89.0539 16.1098 89.1841 15.9844C89.3143 15.8565 89.415 15.6979 89.486 15.5085L90.2956 15.7358C90.2104 16.0104 90.0672 16.2519 89.8659 16.4602C89.6647 16.6662 89.4161 16.8272 89.1202 16.9432C88.8243 17.0568 88.4917 17.1136 88.1223 17.1136ZM91.6557 17V11.5455H92.4654V12.3693H92.5222C92.6216 12.0994 92.8016 11.8804 93.062 11.7124C93.3224 11.5443 93.6159 11.4602 93.9426 11.4602C94.0042 11.4602 94.0811 11.4614 94.1735 11.4638C94.2658 11.4661 94.3356 11.4697 94.383 11.4744V12.3267C94.3546 12.3196 94.2895 12.3089 94.1877 12.2947C94.0882 12.2782 93.9829 12.2699 93.8716 12.2699C93.6065 12.2699 93.3697 12.3255 93.1614 12.4368C92.9554 12.5457 92.7921 12.6972 92.6713 12.8913C92.553 13.0831 92.4938 13.3021 92.4938 13.5483V17H91.6557ZM99.2401 12.767L98.4872 12.9801C98.4399 12.8546 98.37 12.7327 98.2777 12.6143C98.1877 12.4936 98.0646 12.3942 97.9084 12.3161C97.7521 12.2379 97.5521 12.1989 97.3082 12.1989C96.9744 12.1989 96.6963 12.2758 96.4737 12.4297C96.2536 12.5812 96.1435 12.7741 96.1435 13.0085C96.1435 13.2169 96.2192 13.3814 96.3707 13.5021C96.5223 13.6229 96.759 13.7235 97.081 13.804L97.8906 14.0028C98.3783 14.1212 98.7417 14.3023 98.9808 14.5462C99.2199 14.7876 99.3395 15.099 99.3395 15.4801C99.3395 15.7926 99.2495 16.072 99.0696 16.3182C98.892 16.5644 98.6435 16.7585 98.3239 16.9006C98.0043 17.0426 97.6326 17.1136 97.2088 17.1136C96.6525 17.1136 96.192 16.9929 95.8274 16.7514C95.4628 16.5099 95.232 16.1572 95.1349 15.6932L95.9304 15.4943C96.0062 15.7879 96.1494 16.008 96.3601 16.1548C96.5732 16.3016 96.8513 16.375 97.1946 16.375C97.5852 16.375 97.8954 16.2921 98.125 16.1264C98.357 15.9583 98.473 15.7571 98.473 15.5227C98.473 15.3333 98.4067 15.1747 98.2741 15.0469C98.1416 14.9167 97.938 14.8196 97.6634 14.7557L96.7543 14.5426C96.2547 14.4242 95.8878 14.2408 95.6534 13.9922C95.4214 13.7412 95.3054 13.4276 95.3054 13.0511C95.3054 12.7434 95.3918 12.4711 95.5646 12.2344C95.7398 11.9976 95.9777 11.8118 96.2784 11.6768C96.5814 11.5419 96.9247 11.4744 97.3082 11.4744C97.848 11.4744 98.2718 11.5928 98.5795 11.8295C98.8897 12.0663 99.1098 12.3788 99.2401 12.767Z" fill="#E11D48"/>
</svg>