<svg width="160" height="100" viewBox="0 0 160 100" fill="none" xmlns="http://www.w3.org/2000/svg">
<rect x="0.05" y="0.05" width="159.9" height="99.9" rx="4.95" fill="none" stroke="#94A3B8" stroke-width="0.1"/>
<rect x="9" y="8" width="7" height="7" rx="3.5" fill="#828282"/>
<rect x="47" y="10" width="20" height="3" rx="1.5" fill="#828282"/>
<rect x="70" y="10" width="20" height="3" rx="1.5" fill="#828282"/>
<rect x="93" y="10" width="20" height="3" rx="1.5" fill="#828282"/>
<path d="M30.483 27.5085V26.7273H35.9375V27.5085H33.6506V34H32.7699V27.5085H30.483ZM38.0211 30.7188V34H37.1831V26.7273H38.0211V29.3977H38.0922C38.22 29.116 38.4118 28.8923 38.6674 28.7266C38.9255 28.5585 39.2688 28.4744 39.6973 28.4744C40.069 28.4744 40.3945 28.549 40.6738 28.6982C40.9532 28.8449 41.1698 29.071 41.3237 29.3764C41.4799 29.6795 41.5581 30.0653 41.5581 30.5341V34H40.72V30.5909C40.72 30.1577 40.6075 29.8227 40.3826 29.5859C40.1601 29.3468 39.8511 29.2273 39.4558 29.2273C39.1812 29.2273 38.935 29.2853 38.7172 29.4013C38.5017 29.5173 38.3313 29.6866 38.2058 29.9091C38.0827 30.1316 38.0211 30.4015 38.0211 30.7188ZM45.3782 34.1136C44.8526 34.1136 44.3993 33.9976 44.0181 33.7656C43.6393 33.5312 43.3469 33.2045 43.141 32.7855C42.9374 32.3641 42.8356 31.8741 42.8356 31.3153C42.8356 30.7566 42.9374 30.2642 43.141 29.8381C43.3469 29.4096 43.6334 29.0758 44.0004 28.8366C44.3697 28.5952 44.8005 28.4744 45.293 28.4744C45.5771 28.4744 45.8576 28.5218 46.1346 28.6165C46.4116 28.7112 46.6637 28.8651 46.891 29.0781C47.1183 29.2888 47.2994 29.5682 47.4343 29.9162C47.5692 30.2642 47.6367 30.6927 47.6367 31.2017V31.5568H43.4322V30.8324H46.7844C46.7844 30.5246 46.7229 30.25 46.5998 30.0085C46.479 29.767 46.3062 29.5765 46.0813 29.4368C45.8588 29.2971 45.596 29.2273 45.293 29.2273C44.9592 29.2273 44.6703 29.3101 44.4265 29.4759C44.185 29.6392 43.9992 29.8523 43.869 30.1151C43.7388 30.3778 43.6737 30.6596 43.6737 30.9602V31.4432C43.6737 31.8551 43.7447 32.2043 43.8867 32.4908C44.0311 32.7749 44.2312 32.9915 44.4869 33.1406C44.7425 33.2874 45.0397 33.3608 45.3782 33.3608C45.5984 33.3608 45.7972 33.33 45.9748 33.2685C46.1547 33.2045 46.3098 33.1098 46.44 32.9844C46.5702 32.8565 46.6708 32.6979 46.7418 32.5085L47.5515 32.7358C47.4663 33.0104 47.323 33.2519 47.1218 33.4602C46.9206 33.6662 46.672 33.8272 46.3761 33.9432C46.0801 34.0568 45.7475 34.1136 45.3782 34.1136ZM51.8377 34V26.7273H52.6758V29.4119H52.7468C52.8084 29.3172 52.8936 29.1965 53.0025 29.0497C53.1138 28.9006 53.2724 28.768 53.4783 28.652C53.6867 28.5336 53.9684 28.4744 54.3235 28.4744C54.7828 28.4744 55.1876 28.5893 55.538 28.8189C55.8884 29.0485 56.1618 29.3741 56.3583 29.7955C56.5548 30.2169 56.6531 30.714 56.6531 31.2869C56.6531 31.8646 56.5548 32.3653 56.3583 32.7891C56.1618 33.2105 55.8896 33.5372 55.5415 33.7692C55.1935 33.9988 54.7923 34.1136 54.3377 34.1136C53.9873 34.1136 53.7068 34.0556 53.4961 33.9396C53.2854 33.8213 53.1232 33.6875 53.0096 33.5384C52.896 33.3868 52.8084 33.2614 52.7468 33.1619H52.6474V34H51.8377ZM52.6616 31.2727C52.6616 31.6847 52.7219 32.0481 52.8427 32.3629C52.9634 32.6754 53.1398 32.9205 53.3718 33.098C53.6038 33.2732 53.8879 33.3608 54.2241 33.3608C54.5745 33.3608 54.8668 33.2685 55.1012 33.0838C55.3379 32.8968 55.5155 32.6458 55.6339 32.331C55.7546 32.0137 55.815 31.661 55.815 31.2727C55.815 30.8892 55.7558 30.5436 55.6374 30.2358C55.5214 29.9257 55.3451 29.6806 55.1083 29.5007C54.8739 29.3184 54.5792 29.2273 54.2241 29.2273C53.8832 29.2273 53.5967 29.3137 53.3647 29.4865C53.1327 29.657 52.9575 29.8961 52.8391 30.2038C52.7208 30.5092 52.6616 30.8655 52.6616 31.2727ZM60.2219 34.1136C59.6964 34.1136 59.243 33.9976 58.8619 33.7656C58.4831 33.5312 58.1907 33.2045 57.9847 32.7855C57.7811 32.3641 57.6793 31.8741 57.6793 31.3153C57.6793 30.7566 57.7811 30.2642 57.9847 29.8381C58.1907 29.4096 58.4772 29.0758 58.8441 28.8366C59.2134 28.5952 59.6443 28.4744 60.1367 28.4744C60.4208 28.4744 60.7013 28.5218 60.9783 28.6165C61.2553 28.7112 61.5075 28.8651 61.7347 29.0781C61.962 29.2888 62.1431 29.5682 62.2781 29.9162C62.413 30.2642 62.4805 30.6927 62.4805 31.2017V31.5568H58.2759V30.8324H61.6282C61.6282 30.5246 61.5666 30.25 61.4435 30.0085C61.3228 29.767 61.15 29.5765 60.9251 29.4368C60.7025 29.2971 60.4397 29.2273 60.1367 29.2273C59.8029 29.2273 59.5141 29.3101 59.2702 29.4759C59.0288 29.6392 58.8429 29.8523 58.7127 30.1151C58.5825 30.3778 58.5174 30.6596 58.5174 30.9602V31.4432C58.5174 31.8551 58.5884 32.2043 58.7305 32.4908C58.8749 32.7749 59.0749 32.9915 59.3306 33.1406C59.5863 33.2874 59.8834 33.3608 60.2219 33.3608C60.4421 33.3608 60.641 33.33 60.8185 33.2685C60.9985 33.2045 61.1535 33.1098 61.2837 32.9844C61.4139 32.8565 61.5146 32.6979 61.5856 32.5085L62.3952 32.7358C62.31 33.0104 62.1668 33.2519 61.9656 33.4602C61.7643 33.6662 61.5157 33.8272 61.2198 33.9432C60.9239 34.0568 60.5913 34.1136 60.2219 34.1136ZM67.619 29.767L66.8661 29.9801C66.8188 29.8546 66.7489 29.7327 66.6566 29.6143C66.5666 29.4936 66.4435 29.3942 66.2873 29.3161C66.131 29.2379 65.931 29.1989 65.6871 29.1989C65.3533 29.1989 65.0752 29.2758 64.8526 29.4297C64.6325 29.5812 64.5224 29.7741 64.5224 30.0085C64.5224 30.2169 64.5981 30.3814 64.7496 30.5021C64.9012 30.6229 65.1379 30.7235 65.4599 30.804L66.2695 31.0028C66.7572 31.1212 67.1206 31.3023 67.3597 31.5462C67.5988 31.7876 67.7184 32.099 67.7184 32.4801C67.7184 32.7926 67.6284 33.072 67.4485 33.3182C67.271 33.5644 67.0224 33.7585 66.7028 33.9006C66.3832 34.0426 66.0115 34.1136 65.5877 34.1136C65.0314 34.1136 64.5709 33.9929 64.2063 33.7514C63.8417 33.5099 63.6109 33.1572 63.5138 32.6932L64.3093 32.4943C64.3851 32.7879 64.5283 33.008 64.739 33.1548C64.9521 33.3016 65.2302 33.375 65.5735 33.375C65.9641 33.375 66.2743 33.2921 66.5039 33.1264C66.7359 32.9583 66.8519 32.7571 66.8519 32.5227C66.8519 32.3333 66.7856 32.1747 66.6531 32.0469C66.5205 31.9167 66.3169 31.8196 66.0423 31.7557L65.1332 31.5426C64.6336 31.4242 64.2667 31.2408 64.0323 30.9922C63.8003 30.7412 63.6843 30.4276 63.6843 30.0511C63.6843 29.7434 63.7707 29.4711 63.9435 29.2344C64.1187 28.9976 64.3567 28.8118 64.6573 28.6768C64.9603 28.5419 65.3036 28.4744 65.6871 28.4744C66.2269 28.4744 66.6507 28.5928 66.9585 28.8295C67.2686 29.0663 67.4888 29.3788 67.619 29.767ZM71.3521 28.5455V29.2557H68.5254V28.5455H71.3521ZM69.3493 27.2386H70.1873V32.4375C70.1873 32.6742 70.2217 32.8518 70.2903 32.9702C70.3613 33.0862 70.4513 33.1643 70.5602 33.2045C70.6715 33.2424 70.7886 33.2614 70.9118 33.2614C71.0041 33.2614 71.0798 33.2566 71.139 33.2472C71.1982 33.2353 71.2456 33.2259 71.2811 33.2188L71.4515 33.9716C71.3947 33.9929 71.3154 34.0142 71.2136 34.0355C71.1118 34.0592 70.9828 34.071 70.8265 34.071C70.5898 34.071 70.3578 34.0201 70.1305 33.9183C69.9056 33.8165 69.7186 33.6615 69.5694 33.4531C69.4226 33.2448 69.3493 32.982 69.3493 32.6648V27.2386ZM77.8542 28.5455V29.2557H74.9139V28.5455H77.8542ZM75.7946 34V27.7926C75.7946 27.4801 75.868 27.2197 76.0147 27.0114C76.1615 26.803 76.3521 26.6468 76.5865 26.5426C76.8208 26.4384 77.0682 26.3864 77.3287 26.3864C77.5346 26.3864 77.7027 26.4029 77.8329 26.4361C77.9631 26.4692 78.0602 26.5 78.1241 26.5284L77.8826 27.2528C77.84 27.2386 77.7808 27.2209 77.7051 27.1996C77.6317 27.1783 77.5346 27.1676 77.4139 27.1676C77.1369 27.1676 76.9368 27.2375 76.8137 27.3771C76.693 27.5168 76.6326 27.7216 76.6326 27.9915V34H75.7946ZM79.0288 34V28.5455H79.8384V29.3693H79.8952C79.9947 29.0994 80.1746 28.8804 80.435 28.7124C80.6954 28.5443 80.989 28.4602 81.3157 28.4602C81.3772 28.4602 81.4542 28.4614 81.5465 28.4638C81.6388 28.4661 81.7087 28.4697 81.756 28.4744V29.3267C81.7276 29.3196 81.6625 29.3089 81.5607 29.2947C81.4613 29.2782 81.3559 29.2699 81.2447 29.2699C80.9795 29.2699 80.7428 29.3255 80.5344 29.4368C80.3285 29.5457 80.1651 29.6972 80.0444 29.8913C79.926 30.0831 79.8668 30.3021 79.8668 30.5483V34H79.0288ZM84.3546 34.1278C84.0089 34.1278 83.6953 34.0627 83.4135 33.9325C83.1318 33.8 82.9081 33.6094 82.7424 33.3608C82.5766 33.1098 82.4938 32.8068 82.4938 32.4517C82.4938 32.1392 82.5553 31.8859 82.6784 31.6918C82.8016 31.4953 82.9661 31.3414 83.1721 31.2301C83.378 31.1188 83.6053 31.036 83.8539 30.9815C84.1048 30.9247 84.3569 30.8797 84.6103 30.8466C84.9417 30.804 85.2104 30.772 85.4164 30.7507C85.6247 30.727 85.7762 30.688 85.8709 30.6335C85.968 30.5791 86.0165 30.4844 86.0165 30.3494V30.321C86.0165 29.9706 85.9206 29.6984 85.7289 29.5043C85.5395 29.3101 85.2518 29.2131 84.8659 29.2131C84.4658 29.2131 84.1522 29.3007 83.9249 29.4759C83.6976 29.651 83.5378 29.8381 83.4455 30.0369L82.65 29.7528C82.7921 29.4214 82.9815 29.1634 83.2182 28.9787C83.4573 28.7917 83.7177 28.6615 83.9995 28.5881C84.2836 28.5123 84.5629 28.4744 84.8375 28.4744C85.0127 28.4744 85.214 28.4957 85.4412 28.5384C85.6709 28.5786 85.8922 28.6626 86.1053 28.7905C86.3207 28.9183 86.4995 29.1113 86.6415 29.3693C86.7836 29.6274 86.8546 29.973 86.8546 30.4062V34H86.0165V33.2614H85.9739C85.9171 33.3797 85.8224 33.5064 85.6898 33.6413C85.5572 33.7763 85.3809 33.8911 85.1607 33.9858C84.9405 34.0805 84.6718 34.1278 84.3546 34.1278ZM84.4824 33.375C84.8139 33.375 85.0932 33.3099 85.3205 33.1797C85.5501 33.0495 85.723 32.8814 85.839 32.6754C85.9573 32.4695 86.0165 32.2528 86.0165 32.0256V31.2585C85.981 31.3011 85.9029 31.3402 85.7821 31.3757C85.6638 31.4089 85.5265 31.4384 85.3702 31.4645C85.2163 31.4882 85.066 31.5095 84.9192 31.5284C84.7748 31.545 84.6576 31.5592 84.5676 31.571C84.3498 31.5994 84.1462 31.6456 83.9569 31.7095C83.7698 31.7711 83.6183 31.8646 83.5023 31.9901C83.3887 32.1132 83.3319 32.2812 83.3319 32.4943C83.3319 32.7855 83.4396 33.0057 83.655 33.1548C83.8728 33.3016 84.1486 33.375 84.4824 33.375ZM88.3842 34V28.5455H89.1939V29.3977H89.2649C89.3786 29.1065 89.562 28.8804 89.8153 28.7195C90.0687 28.5561 90.3729 28.4744 90.728 28.4744C91.0878 28.4744 91.3873 28.5561 91.6264 28.7195C91.8679 28.8804 92.0561 29.1065 92.1911 29.3977H92.2479C92.3875 29.116 92.5971 28.8923 92.8764 28.7266C93.1558 28.5585 93.4908 28.4744 93.8814 28.4744C94.3691 28.4744 94.768 28.6271 95.0781 28.9325C95.3883 29.2356 95.5433 29.7079 95.5433 30.3494V34H94.7053V30.3494C94.7053 29.947 94.5952 29.6593 94.375 29.4865C94.1548 29.3137 93.8956 29.2273 93.5973 29.2273C93.2138 29.2273 92.9167 29.3433 92.706 29.5753C92.4953 29.8049 92.3899 30.0961 92.3899 30.4489V34H91.5376V30.2642C91.5376 29.9541 91.437 29.7043 91.2358 29.5149C91.0346 29.3232 90.7753 29.2273 90.4581 29.2273C90.2403 29.2273 90.0367 29.2853 89.8473 29.4013C89.6603 29.5173 89.5088 29.6783 89.3928 29.8842C89.2791 30.0878 89.2223 30.3234 89.2223 30.5909V34H88.3842ZM99.3626 34.1136C98.837 34.1136 98.3836 33.9976 98.0025 33.7656C97.6237 33.5312 97.3313 33.2045 97.1254 32.7855C96.9218 32.3641 96.82 31.8741 96.82 31.3153C96.82 30.7566 96.9218 30.2642 97.1254 29.8381C97.3313 29.4096 97.6178 29.0758 97.9847 28.8366C98.354 28.5952 98.7849 28.4744 99.2773 28.4744C99.5614 28.4744 99.842 28.5218 100.119 28.6165C100.396 28.7112 100.648 28.8651 100.875 29.0781C101.103 29.2888 101.284 29.5682 101.419 29.9162C101.554 30.2642 101.621 30.6927 101.621 31.2017V31.5568H97.4165V30.8324H100.769C100.769 30.5246 100.707 30.25 100.584 30.0085C100.463 29.767 100.291 29.5765 100.066 29.4368C99.8432 29.2971 99.5804 29.2273 99.2773 29.2273C98.9435 29.2273 98.6547 29.3101 98.4109 29.4759C98.1694 29.6392 97.9835 29.8523 97.8533 30.1151C97.7231 30.3778 97.658 30.6596 97.658 30.9602V31.4432C97.658 31.8551 97.729 32.2043 97.8711 32.4908C98.0155 32.7749 98.2156 32.9915 98.4712 33.1406C98.7269 33.2874 99.024 33.3608 99.3626 33.3608C99.5827 33.3608 99.7816 33.33 99.9592 33.2685C100.139 33.2045 100.294 33.1098 100.424 32.9844C100.555 32.8565 100.655 32.6979 100.726 32.5085L101.536 32.7358C101.451 33.0104 101.307 33.2519 101.106 33.4602C100.905 33.6662 100.656 33.8272 100.36 33.9432C100.065 34.0568 99.7319 34.1136 99.3626 34.1136ZM104.132 34L102.47 28.5455H103.35L104.529 32.7216H104.586L105.751 28.5455H106.646L107.797 32.7074H107.853L109.032 28.5455H109.913L108.251 34H107.427L106.234 29.8097H106.149L104.956 34H104.132ZM113.051 34.1136C112.559 34.1136 112.127 33.9964 111.755 33.7621C111.386 33.5277 111.097 33.1998 110.889 32.7784C110.683 32.357 110.58 31.8646 110.58 31.3011C110.58 30.733 110.683 30.237 110.889 29.8132C111.097 29.3894 111.386 29.0604 111.755 28.826C112.127 28.5916 112.559 28.4744 113.051 28.4744C113.544 28.4744 113.975 28.5916 114.344 28.826C114.716 29.0604 115.004 29.3894 115.21 29.8132C115.419 30.237 115.523 30.733 115.523 31.3011C115.523 31.8646 115.419 32.357 115.21 32.7784C115.004 33.1998 114.716 33.5277 114.344 33.7621C113.975 33.9964 113.544 34.1136 113.051 34.1136ZM113.051 33.3608C113.425 33.3608 113.733 33.2649 113.975 33.0732C114.216 32.8814 114.395 32.6293 114.511 32.3168C114.627 32.0043 114.685 31.6657 114.685 31.3011C114.685 30.9366 114.627 30.5968 114.511 30.282C114.395 29.9671 114.216 29.7126 113.975 29.5185C113.733 29.3243 113.425 29.2273 113.051 29.2273C112.677 29.2273 112.369 29.3243 112.128 29.5185C111.887 29.7126 111.708 29.9671 111.592 30.282C111.476 30.5968 111.418 30.9366 111.418 31.3011C111.418 31.6657 111.476 32.0043 111.592 32.3168C111.708 32.6293 111.887 32.8814 112.128 33.0732C112.369 33.2649 112.677 33.3608 113.051 33.3608ZM116.802 34V28.5455H117.612V29.3693H117.669C117.768 29.0994 117.948 28.8804 118.208 28.7124C118.469 28.5443 118.762 28.4602 119.089 28.4602C119.151 28.4602 119.228 28.4614 119.32 28.4638C119.412 28.4661 119.482 28.4697 119.529 28.4744V29.3267C119.501 29.3196 119.436 29.3089 119.334 29.2947C119.235 29.2782 119.129 29.2699 119.018 29.2699C118.753 29.2699 118.516 29.3255 118.308 29.4368C118.102 29.5457 117.939 29.6972 117.818 29.8913C117.699 30.0831 117.64 30.3021 117.64 30.5483V34H116.802ZM121.304 32.0114L121.29 30.9744H121.46L123.847 28.5455H124.884L122.341 31.1165H122.27L121.304 32.0114ZM120.523 34V26.7273H121.361V34H120.523ZM123.989 34L121.858 31.3011L122.455 30.7188L125.054 34H123.989Z" fill="#0F172A"/>
<rect x="56" y="50" width="23" height="7" rx="3.5" fill="#E11D48"/>
<path d="M59 53.5H75" stroke="white" stroke-linecap="round"/>
<rect x="81.5" y="50.5" width="22" height="6" rx="3" stroke="#E11D48"/>
<path d="M84 53.5H100" stroke="#E11D48" stroke-linecap="round"/>
<path d="M58 39H101" stroke="#94A3B8" stroke-linecap="round"/>
<path d="M62.5 42L96.5 42" stroke="#94A3B8" stroke-linecap="round"/>
<path d="M69.5 45L89.5 45" stroke="#94A3B8" stroke-linecap="round"/>
<rect x="24" y="75" width="35" height="16" rx="2" fill="#64748B"/>
<rect x="62" y="75" width="35" height="16" rx="2" fill="#64748B"/>
<rect x="100" y="75" width="35" height="16" rx="2" fill="#64748B"/>
</svg>
