<svg width="160" height="100" viewBox="0 0 160 100" fill="none" xmlns="http://www.w3.org/2000/svg">
<rect x="0.05" y="0.05" width="159.9" height="99.9" rx="4.95" stroke="#94A3B8" stroke-width="0.1"/>
<rect x="9" y="8" width="7" height="7" rx="3.5" fill="#64748B"/>
<rect x="47" y="10" width="20" height="3" rx="1.5" fill="#64748B"/>
<rect x="70" y="10" width="20" height="3" rx="1.5" fill="#64748B"/>
<rect x="93" y="10" width="20" height="3" rx="1.5" fill="#64748B"/>
<path d="M30.483 24.5085V23.7273H35.9375V24.5085H33.6506V31H32.7699V24.5085H30.483ZM38.0211 27.7188V31H37.1831V23.7273H38.0211V26.3977H38.0922C38.22 26.116 38.4118 25.8923 38.6674 25.7266C38.9255 25.5585 39.2688 25.4744 39.6973 25.4744C40.069 25.4744 40.3945 25.549 40.6738 25.6982C40.9532 25.8449 41.1698 26.071 41.3237 26.3764C41.4799 26.6795 41.5581 27.0653 41.5581 27.5341V31H40.72V27.5909C40.72 27.1577 40.6075 26.8227 40.3826 26.5859C40.1601 26.3468 39.8511 26.2273 39.4558 26.2273C39.1812 26.2273 38.935 26.2853 38.7172 26.4013C38.5017 26.5173 38.3313 26.6866 38.2058 26.9091C38.0827 27.1316 38.0211 27.4015 38.0211 27.7188ZM45.3782 31.1136C44.8526 31.1136 44.3993 30.9976 44.0181 30.7656C43.6393 30.5312 43.3469 30.2045 43.141 29.7855C42.9374 29.3641 42.8356 28.8741 42.8356 28.3153C42.8356 27.7566 42.9374 27.2642 43.141 26.8381C43.3469 26.4096 43.6334 26.0758 44.0004 25.8366C44.3697 25.5952 44.8005 25.4744 45.293 25.4744C45.5771 25.4744 45.8576 25.5218 46.1346 25.6165C46.4116 25.7112 46.6637 25.8651 46.891 26.0781C47.1183 26.2888 47.2994 26.5682 47.4343 26.9162C47.5692 27.2642 47.6367 27.6927 47.6367 28.2017V28.5568H43.4322V27.8324H46.7844C46.7844 27.5246 46.7229 27.25 46.5998 27.0085C46.479 26.767 46.3062 26.5765 46.0813 26.4368C45.8588 26.2971 45.596 26.2273 45.293 26.2273C44.9592 26.2273 44.6703 26.3101 44.4265 26.4759C44.185 26.6392 43.9992 26.8523 43.869 27.1151C43.7388 27.3778 43.6737 27.6596 43.6737 27.9602V28.4432C43.6737 28.8551 43.7447 29.2043 43.8867 29.4908C44.0311 29.7749 44.2312 29.9915 44.4869 30.1406C44.7425 30.2874 45.0397 30.3608 45.3782 30.3608C45.5984 30.3608 45.7972 30.33 45.9748 30.2685C46.1547 30.2045 46.3098 30.1098 46.44 29.9844C46.5702 29.8565 46.6708 29.6979 46.7418 29.5085L47.5515 29.7358C47.4663 30.0104 47.323 30.2519 47.1218 30.4602C46.9206 30.6662 46.672 30.8272 46.3761 30.9432C46.0801 31.0568 45.7475 31.1136 45.3782 31.1136ZM51.8377 31V23.7273H52.6758V26.4119H52.7468C52.8084 26.3172 52.8936 26.1965 53.0025 26.0497C53.1138 25.9006 53.2724 25.768 53.4783 25.652C53.6867 25.5336 53.9684 25.4744 54.3235 25.4744C54.7828 25.4744 55.1876 25.5893 55.538 25.8189C55.8884 26.0485 56.1618 26.3741 56.3583 26.7955C56.5548 27.2169 56.6531 27.714 56.6531 28.2869C56.6531 28.8646 56.5548 29.3653 56.3583 29.7891C56.1618 30.2105 55.8896 30.5372 55.5415 30.7692C55.1935 30.9988 54.7923 31.1136 54.3377 31.1136C53.9873 31.1136 53.7068 31.0556 53.4961 30.9396C53.2854 30.8213 53.1232 30.6875 53.0096 30.5384C52.896 30.3868 52.8084 30.2614 52.7468 30.1619H52.6474V31H51.8377ZM52.6616 28.2727C52.6616 28.6847 52.7219 29.0481 52.8427 29.3629C52.9634 29.6754 53.1398 29.9205 53.3718 30.098C53.6038 30.2732 53.8879 30.3608 54.2241 30.3608C54.5745 30.3608 54.8668 30.2685 55.1012 30.0838C55.3379 29.8968 55.5155 29.6458 55.6339 29.331C55.7546 29.0137 55.815 28.661 55.815 28.2727C55.815 27.8892 55.7558 27.5436 55.6374 27.2358C55.5214 26.9257 55.3451 26.6806 55.1083 26.5007C54.8739 26.3184 54.5792 26.2273 54.2241 26.2273C53.8832 26.2273 53.5967 26.3137 53.3647 26.4865C53.1327 26.657 52.9575 26.8961 52.8391 27.2038C52.7208 27.5092 52.6616 27.8655 52.6616 28.2727ZM60.2219 31.1136C59.6964 31.1136 59.243 30.9976 58.8619 30.7656C58.4831 30.5312 58.1907 30.2045 57.9847 29.7855C57.7811 29.3641 57.6793 28.8741 57.6793 28.3153C57.6793 27.7566 57.7811 27.2642 57.9847 26.8381C58.1907 26.4096 58.4772 26.0758 58.8441 25.8366C59.2134 25.5952 59.6443 25.4744 60.1367 25.4744C60.4208 25.4744 60.7013 25.5218 60.9783 25.6165C61.2553 25.7112 61.5075 25.8651 61.7347 26.0781C61.962 26.2888 62.1431 26.5682 62.2781 26.9162C62.413 27.2642 62.4805 27.6927 62.4805 28.2017V28.5568H58.2759V27.8324H61.6282C61.6282 27.5246 61.5666 27.25 61.4435 27.0085C61.3228 26.767 61.15 26.5765 60.9251 26.4368C60.7025 26.2971 60.4397 26.2273 60.1367 26.2273C59.8029 26.2273 59.5141 26.3101 59.2702 26.4759C59.0288 26.6392 58.8429 26.8523 58.7127 27.1151C58.5825 27.3778 58.5174 27.6596 58.5174 27.9602V28.4432C58.5174 28.8551 58.5884 29.2043 58.7305 29.4908C58.8749 29.7749 59.0749 29.9915 59.3306 30.1406C59.5863 30.2874 59.8834 30.3608 60.2219 30.3608C60.4421 30.3608 60.641 30.33 60.8185 30.2685C60.9985 30.2045 61.1535 30.1098 61.2837 29.9844C61.4139 29.8565 61.5146 29.6979 61.5856 29.5085L62.3952 29.7358C62.31 30.0104 62.1668 30.2519 61.9656 30.4602C61.7643 30.6662 61.5157 30.8272 61.2198 30.9432C60.9239 31.0568 60.5913 31.1136 60.2219 31.1136ZM67.619 26.767L66.8661 26.9801C66.8188 26.8546 66.7489 26.7327 66.6566 26.6143C66.5666 26.4936 66.4435 26.3942 66.2873 26.3161C66.131 26.2379 65.931 26.1989 65.6871 26.1989C65.3533 26.1989 65.0752 26.2758 64.8526 26.4297C64.6325 26.5812 64.5224 26.7741 64.5224 27.0085C64.5224 27.2169 64.5981 27.3814 64.7496 27.5021C64.9012 27.6229 65.1379 27.7235 65.4599 27.804L66.2695 28.0028C66.7572 28.1212 67.1206 28.3023 67.3597 28.5462C67.5988 28.7876 67.7184 29.099 67.7184 29.4801C67.7184 29.7926 67.6284 30.072 67.4485 30.3182C67.271 30.5644 67.0224 30.7585 66.7028 30.9006C66.3832 31.0426 66.0115 31.1136 65.5877 31.1136C65.0314 31.1136 64.5709 30.9929 64.2063 30.7514C63.8417 30.5099 63.6109 30.1572 63.5138 29.6932L64.3093 29.4943C64.3851 29.7879 64.5283 30.008 64.739 30.1548C64.9521 30.3016 65.2302 30.375 65.5735 30.375C65.9641 30.375 66.2743 30.2921 66.5039 30.1264C66.7359 29.9583 66.8519 29.7571 66.8519 29.5227C66.8519 29.3333 66.7856 29.1747 66.6531 29.0469C66.5205 28.9167 66.3169 28.8196 66.0423 28.7557L65.1332 28.5426C64.6336 28.4242 64.2667 28.2408 64.0323 27.9922C63.8003 27.7412 63.6843 27.4276 63.6843 27.0511C63.6843 26.7434 63.7707 26.4711 63.9435 26.2344C64.1187 25.9976 64.3567 25.8118 64.6573 25.6768C64.9603 25.5419 65.3036 25.4744 65.6871 25.4744C66.2269 25.4744 66.6507 25.5928 66.9585 25.8295C67.2686 26.0663 67.4888 26.3788 67.619 26.767ZM71.3521 25.5455V26.2557H68.5254V25.5455H71.3521ZM69.3493 24.2386H70.1873V29.4375C70.1873 29.6742 70.2217 29.8518 70.2903 29.9702C70.3613 30.0862 70.4513 30.1643 70.5602 30.2045C70.6715 30.2424 70.7886 30.2614 70.9118 30.2614C71.0041 30.2614 71.0798 30.2566 71.139 30.2472C71.1982 30.2353 71.2456 30.2259 71.2811 30.2188L71.4515 30.9716C71.3947 30.9929 71.3154 31.0142 71.2136 31.0355C71.1118 31.0592 70.9828 31.071 70.8265 31.071C70.5898 31.071 70.3578 31.0201 70.1305 30.9183C69.9056 30.8165 69.7186 30.6615 69.5694 30.4531C69.4226 30.2448 69.3493 29.982 69.3493 29.6648V24.2386ZM77.8542 25.5455V26.2557H74.9139V25.5455H77.8542ZM75.7946 31V24.7926C75.7946 24.4801 75.868 24.2197 76.0147 24.0114C76.1615 23.803 76.3521 23.6468 76.5865 23.5426C76.8208 23.4384 77.0682 23.3864 77.3287 23.3864C77.5346 23.3864 77.7027 23.4029 77.8329 23.4361C77.9631 23.4692 78.0602 23.5 78.1241 23.5284L77.8826 24.2528C77.84 24.2386 77.7808 24.2209 77.7051 24.1996C77.6317 24.1783 77.5346 24.1676 77.4139 24.1676C77.1369 24.1676 76.9368 24.2375 76.8137 24.3771C76.693 24.5168 76.6326 24.7216 76.6326 24.9915V31H75.7946ZM79.0288 31V25.5455H79.8384V26.3693H79.8952C79.9947 26.0994 80.1746 25.8804 80.435 25.7124C80.6954 25.5443 80.989 25.4602 81.3157 25.4602C81.3772 25.4602 81.4542 25.4614 81.5465 25.4638C81.6388 25.4661 81.7087 25.4697 81.756 25.4744V26.3267C81.7276 26.3196 81.6625 26.3089 81.5607 26.2947C81.4613 26.2782 81.3559 26.2699 81.2447 26.2699C80.9795 26.2699 80.7428 26.3255 80.5344 26.4368C80.3285 26.5457 80.1651 26.6972 80.0444 26.8913C79.926 27.0831 79.8668 27.3021 79.8668 27.5483V31H79.0288ZM84.3546 31.1278C84.0089 31.1278 83.6953 31.0627 83.4135 30.9325C83.1318 30.8 82.9081 30.6094 82.7424 30.3608C82.5766 30.1098 82.4938 29.8068 82.4938 29.4517C82.4938 29.1392 82.5553 28.8859 82.6784 28.6918C82.8016 28.4953 82.9661 28.3414 83.1721 28.2301C83.378 28.1188 83.6053 28.036 83.8539 27.9815C84.1048 27.9247 84.3569 27.8797 84.6103 27.8466C84.9417 27.804 85.2104 27.772 85.4164 27.7507C85.6247 27.727 85.7762 27.688 85.8709 27.6335C85.968 27.5791 86.0165 27.4844 86.0165 27.3494V27.321C86.0165 26.9706 85.9206 26.6984 85.7289 26.5043C85.5395 26.3101 85.2518 26.2131 84.8659 26.2131C84.4658 26.2131 84.1522 26.3007 83.9249 26.4759C83.6976 26.651 83.5378 26.8381 83.4455 27.0369L82.65 26.7528C82.7921 26.4214 82.9815 26.1634 83.2182 25.9787C83.4573 25.7917 83.7177 25.6615 83.9995 25.5881C84.2836 25.5123 84.5629 25.4744 84.8375 25.4744C85.0127 25.4744 85.214 25.4957 85.4412 25.5384C85.6709 25.5786 85.8922 25.6626 86.1053 25.7905C86.3207 25.9183 86.4995 26.1113 86.6415 26.3693C86.7836 26.6274 86.8546 26.973 86.8546 27.4062V31H86.0165V30.2614H85.9739C85.9171 30.3797 85.8224 30.5064 85.6898 30.6413C85.5572 30.7763 85.3809 30.8911 85.1607 30.9858C84.9405 31.0805 84.6718 31.1278 84.3546 31.1278ZM84.4824 30.375C84.8139 30.375 85.0932 30.3099 85.3205 30.1797C85.5501 30.0495 85.723 29.8814 85.839 29.6754C85.9573 29.4695 86.0165 29.2528 86.0165 29.0256V28.2585C85.981 28.3011 85.9029 28.3402 85.7821 28.3757C85.6638 28.4089 85.5265 28.4384 85.3702 28.4645C85.2163 28.4882 85.066 28.5095 84.9192 28.5284C84.7748 28.545 84.6576 28.5592 84.5676 28.571C84.3498 28.5994 84.1462 28.6456 83.9569 28.7095C83.7698 28.7711 83.6183 28.8646 83.5023 28.9901C83.3887 29.1132 83.3319 29.2812 83.3319 29.4943C83.3319 29.7855 83.4396 30.0057 83.655 30.1548C83.8728 30.3016 84.1486 30.375 84.4824 30.375ZM88.3842 31V25.5455H89.1939V26.3977H89.2649C89.3786 26.1065 89.562 25.8804 89.8153 25.7195C90.0687 25.5561 90.3729 25.4744 90.728 25.4744C91.0878 25.4744 91.3873 25.5561 91.6264 25.7195C91.8679 25.8804 92.0561 26.1065 92.1911 26.3977H92.2479C92.3875 26.116 92.5971 25.8923 92.8764 25.7266C93.1558 25.5585 93.4908 25.4744 93.8814 25.4744C94.3691 25.4744 94.768 25.6271 95.0781 25.9325C95.3883 26.2356 95.5433 26.7079 95.5433 27.3494V31H94.7053V27.3494C94.7053 26.947 94.5952 26.6593 94.375 26.4865C94.1548 26.3137 93.8956 26.2273 93.5973 26.2273C93.2138 26.2273 92.9167 26.3433 92.706 26.5753C92.4953 26.8049 92.3899 27.0961 92.3899 27.4489V31H91.5376V27.2642C91.5376 26.9541 91.437 26.7043 91.2358 26.5149C91.0346 26.3232 90.7753 26.2273 90.4581 26.2273C90.2403 26.2273 90.0367 26.2853 89.8473 26.4013C89.6603 26.5173 89.5088 26.6783 89.3928 26.8842C89.2791 27.0878 89.2223 27.3234 89.2223 27.5909V31H88.3842ZM99.3626 31.1136C98.837 31.1136 98.3836 30.9976 98.0025 30.7656C97.6237 30.5312 97.3313 30.2045 97.1254 29.7855C96.9218 29.3641 96.82 28.8741 96.82 28.3153C96.82 27.7566 96.9218 27.2642 97.1254 26.8381C97.3313 26.4096 97.6178 26.0758 97.9847 25.8366C98.354 25.5952 98.7849 25.4744 99.2773 25.4744C99.5614 25.4744 99.842 25.5218 100.119 25.6165C100.396 25.7112 100.648 25.8651 100.875 26.0781C101.103 26.2888 101.284 26.5682 101.419 26.9162C101.554 27.2642 101.621 27.6927 101.621 28.2017V28.5568H97.4165V27.8324H100.769C100.769 27.5246 100.707 27.25 100.584 27.0085C100.463 26.767 100.291 26.5765 100.066 26.4368C99.8432 26.2971 99.5804 26.2273 99.2773 26.2273C98.9435 26.2273 98.6547 26.3101 98.4109 26.4759C98.1694 26.6392 97.9835 26.8523 97.8533 27.1151C97.7231 27.3778 97.658 27.6596 97.658 27.9602V28.4432C97.658 28.8551 97.729 29.2043 97.8711 29.4908C98.0155 29.7749 98.2156 29.9915 98.4712 30.1406C98.7269 30.2874 99.024 30.3608 99.3626 30.3608C99.5827 30.3608 99.7816 30.33 99.9592 30.2685C100.139 30.2045 100.294 30.1098 100.424 29.9844C100.555 29.8565 100.655 29.6979 100.726 29.5085L101.536 29.7358C101.451 30.0104 101.307 30.2519 101.106 30.4602C100.905 30.6662 100.656 30.8272 100.36 30.9432C100.065 31.0568 99.7319 31.1136 99.3626 31.1136ZM104.132 31L102.47 25.5455H103.35L104.529 29.7216H104.586L105.751 25.5455H106.646L107.797 29.7074H107.853L109.032 25.5455H109.913L108.251 31H107.427L106.234 26.8097H106.149L104.956 31H104.132ZM113.051 31.1136C112.559 31.1136 112.127 30.9964 111.755 30.7621C111.386 30.5277 111.097 30.1998 110.889 29.7784C110.683 29.357 110.58 28.8646 110.58 28.3011C110.58 27.733 110.683 27.237 110.889 26.8132C111.097 26.3894 111.386 26.0604 111.755 25.826C112.127 25.5916 112.559 25.4744 113.051 25.4744C113.544 25.4744 113.975 25.5916 114.344 25.826C114.716 26.0604 115.004 26.3894 115.21 26.8132C115.419 27.237 115.523 27.733 115.523 28.3011C115.523 28.8646 115.419 29.357 115.21 29.7784C115.004 30.1998 114.716 30.5277 114.344 30.7621C113.975 30.9964 113.544 31.1136 113.051 31.1136ZM113.051 30.3608C113.425 30.3608 113.733 30.2649 113.975 30.0732C114.216 29.8814 114.395 29.6293 114.511 29.3168C114.627 29.0043 114.685 28.6657 114.685 28.3011C114.685 27.9366 114.627 27.5968 114.511 27.282C114.395 26.9671 114.216 26.7126 113.975 26.5185C113.733 26.3243 113.425 26.2273 113.051 26.2273C112.677 26.2273 112.369 26.3243 112.128 26.5185C111.887 26.7126 111.708 26.9671 111.592 27.282C111.476 27.5968 111.418 27.9366 111.418 28.3011C111.418 28.6657 111.476 29.0043 111.592 29.3168C111.708 29.6293 111.887 29.8814 112.128 30.0732C112.369 30.2649 112.677 30.3608 113.051 30.3608ZM116.802 31V25.5455H117.612V26.3693H117.669C117.768 26.0994 117.948 25.8804 118.208 25.7124C118.469 25.5443 118.762 25.4602 119.089 25.4602C119.151 25.4602 119.228 25.4614 119.32 25.4638C119.412 25.4661 119.482 25.4697 119.529 25.4744V26.3267C119.501 26.3196 119.436 26.3089 119.334 26.2947C119.235 26.2782 119.129 26.2699 119.018 26.2699C118.753 26.2699 118.516 26.3255 118.308 26.4368C118.102 26.5457 117.939 26.6972 117.818 26.8913C117.699 27.0831 117.64 27.3021 117.64 27.5483V31H116.802ZM121.304 29.0114L121.29 27.9744H121.46L123.847 25.5455H124.884L122.341 28.1165H122.27L121.304 29.0114ZM120.523 31V23.7273H121.361V31H120.523ZM123.989 31L121.858 28.3011L122.455 27.7188L125.054 31H123.989Z" fill="#E11D48"/>
<rect x="56" y="50" width="23" height="7" rx="3.5" fill="#E11D48"/>
<path d="M59 53.5H75" stroke="white" stroke-linecap="round"/>
<rect x="81.5" y="50.5" width="22" height="6" rx="3" stroke="#E11D48"/>
<path d="M84 53.5H100" stroke="#E11D48" stroke-linecap="round"/>
<path d="M58 36H101" stroke="#94A3B8" stroke-linecap="round"/>
<path d="M62.5 39L96.5 39" stroke="#94A3B8" stroke-linecap="round"/>
<path d="M69.5 42L89.5 42" stroke="#94A3B8" stroke-linecap="round"/>
<rect x="24.5" y="75.5" width="34" height="15" rx="1.5" stroke="#64748B"/>
<rect x="62.5" y="75.5" width="34" height="15" rx="1.5" stroke="#64748B"/>
<rect x="100.5" y="75.5" width="34" height="15" rx="1.5" stroke="#64748B"/>
</svg>