<svg width="160" height="100" viewBox="0 0 160 100" fill="none" xmlns="http://www.w3.org/2000/svg">
<rect x="0.05" y="0.05" width="159.9" height="99.9" rx="4.95" stroke="#94A3B8" stroke-width="0.1"/>
<rect x="27.5" y="32.5" width="41" height="15" rx="1.5" stroke="#64748B"/>
<path d="M69 45L73 48H67L69 45Z" fill="#64748B"/>
<path d="M40.5 35.5L56.5 35.5" stroke="#E11D48" stroke-linecap="round"/>
<path d="M38 39.5L59 39.5" stroke="#E11D48" stroke-linecap="round"/>
<path d="M34 43.5L64 43.5" stroke="#E11D48" stroke-linecap="round"/>
<rect x="28.5" y="71.5" width="41" height="15" rx="1.5" stroke="#64748B"/>
<path d="M70 84L74 87H68L70 84Z" fill="#64748B"/>
<path d="M41.5 74.5L57.5 74.5" stroke="#E11D48" stroke-linecap="round"/>
<path d="M39 78.5L60 78.5" stroke="#E11D48" stroke-linecap="round"/>
<path d="M35 82.5L65 82.5" stroke="#E11D48" stroke-linecap="round"/>
<rect x="-0.5" y="0.5" width="41" height="15" rx="1.5" transform="matrix(-1 0 0 1 132 50)" stroke="#64748B"/>
<path d="M91 63L87 66H93L91 63Z" fill="#64748B"/>
<path d="M119.5 53.5L103.5 53.5" stroke="#64748B" stroke-linecap="round"/>
<path d="M122 57.5L101 57.5" stroke="#64748B" stroke-linecap="round"/>
<path d="M126 61.5L96 61.5" stroke="#64748B" stroke-linecap="round"/>
<path d="M54.8807 9.72727H55.9318L58.4034 15.7642H58.4886L60.9602 9.72727H62.0114V17H61.1875V11.4744H61.1165L58.8438 17H58.0483L55.7756 11.4744H55.7045V17H54.8807V9.72727ZM65.9505 17.1136C65.4249 17.1136 64.9715 16.9976 64.5904 16.7656C64.2116 16.5312 63.9192 16.2045 63.7132 15.7855C63.5096 15.3641 63.4078 14.8741 63.4078 14.3153C63.4078 13.7566 63.5096 13.2642 63.7132 12.8381C63.9192 12.4096 64.2057 12.0758 64.5726 11.8366C64.9419 11.5952 65.3728 11.4744 65.8652 11.4744C66.1493 11.4744 66.4299 11.5218 66.7069 11.6165C66.9838 11.7112 67.236 11.8651 67.4632 12.0781C67.6905 12.2888 67.8716 12.5682 68.0066 12.9162C68.1415 13.2642 68.209 13.6927 68.209 14.2017V14.5568H64.0044V13.8324H67.3567C67.3567 13.5246 67.2952 13.25 67.1721 13.0085C67.0513 12.767 66.8785 12.5765 66.6536 12.4368C66.431 12.2971 66.1683 12.2273 65.8652 12.2273C65.5314 12.2273 65.2426 12.3101 64.9988 12.4759C64.7573 12.6392 64.5714 12.8523 64.4412 13.1151C64.311 13.3778 64.2459 13.6596 64.2459 13.9602V14.4432C64.2459 14.8551 64.3169 15.2043 64.459 15.4908C64.6034 15.7749 64.8034 15.9915 65.0591 16.1406C65.3148 16.2874 65.6119 16.3608 65.9505 16.3608C66.1706 16.3608 66.3695 16.33 66.5471 16.2685C66.727 16.2045 66.882 16.1098 67.0123 15.9844C67.1425 15.8565 67.2431 15.6979 67.3141 15.5085L68.1238 15.7358C68.0385 16.0104 67.8953 16.2519 67.6941 16.4602C67.4928 16.6662 67.2443 16.8272 66.9483 16.9432C66.6524 17.0568 66.3198 17.1136 65.9505 17.1136ZM73.3475 12.767L72.5946 12.9801C72.5473 12.8546 72.4775 12.7327 72.3851 12.6143C72.2952 12.4936 72.1721 12.3942 72.0158 12.3161C71.8596 12.2379 71.6595 12.1989 71.4157 12.1989C71.0819 12.1989 70.8037 12.2758 70.5811 12.4297C70.361 12.5812 70.2509 12.7741 70.2509 13.0085C70.2509 13.2169 70.3266 13.3814 70.4782 13.5021C70.6297 13.6229 70.8664 13.7235 71.1884 13.804L71.998 14.0028C72.4857 14.1212 72.8491 14.3023 73.0882 14.5462C73.3274 14.7876 73.4469 15.099 73.4469 15.4801C73.4469 15.7926 73.3569 16.072 73.177 16.3182C72.9995 16.5644 72.7509 16.7585 72.4313 16.9006C72.1117 17.0426 71.74 17.1136 71.3162 17.1136C70.7599 17.1136 70.2994 16.9929 69.9348 16.7514C69.5703 16.5099 69.3394 16.1572 69.2424 15.6932L70.0378 15.4943C70.1136 15.7879 70.2568 16.008 70.4675 16.1548C70.6806 16.3016 70.9587 16.375 71.302 16.375C71.6926 16.375 72.0028 16.2921 72.2324 16.1264C72.4644 15.9583 72.5804 15.7571 72.5804 15.5227C72.5804 15.3333 72.5141 15.1747 72.3816 15.0469C72.249 14.9167 72.0454 14.8196 71.7708 14.7557L70.8617 14.5426C70.3622 14.4242 69.9952 14.2408 69.7608 13.9922C69.5288 13.7412 69.4128 13.4276 69.4128 13.0511C69.4128 12.7434 69.4992 12.4711 69.6721 12.2344C69.8472 11.9976 70.0852 11.8118 70.3858 11.6768C70.6889 11.5419 71.0321 11.4744 71.4157 11.4744C71.9554 11.4744 72.3792 11.5928 72.687 11.8295C72.9971 12.0663 73.2173 12.3788 73.3475 12.767ZM78.5721 12.767L77.8192 12.9801C77.7719 12.8546 77.7021 12.7327 77.6097 12.6143C77.5198 12.4936 77.3967 12.3942 77.2404 12.3161C77.0842 12.2379 76.8841 12.1989 76.6403 12.1989C76.3065 12.1989 76.0283 12.2758 75.8058 12.4297C75.5856 12.5812 75.4755 12.7741 75.4755 13.0085C75.4755 13.2169 75.5513 13.3814 75.7028 13.5021C75.8543 13.6229 76.091 13.7235 76.413 13.804L77.2227 14.0028C77.7103 14.1212 78.0737 14.3023 78.3129 14.5462C78.552 14.7876 78.6715 15.099 78.6715 15.4801C78.6715 15.7926 78.5816 16.072 78.4016 16.3182C78.2241 16.5644 77.9755 16.7585 77.6559 16.9006C77.3363 17.0426 76.9646 17.1136 76.5408 17.1136C75.9845 17.1136 75.524 16.9929 75.1594 16.7514C74.7949 16.5099 74.564 16.1572 74.467 15.6932L75.2624 15.4943C75.3382 15.7879 75.4814 16.008 75.6921 16.1548C75.9052 16.3016 76.1834 16.375 76.5266 16.375C76.9173 16.375 77.2274 16.2921 77.457 16.1264C77.689 15.9583 77.805 15.7571 77.805 15.5227C77.805 15.3333 77.7388 15.1747 77.6062 15.0469C77.4736 14.9167 77.27 14.8196 76.9954 14.7557L76.0863 14.5426C75.5868 14.4242 75.2198 14.2408 74.9854 13.9922C74.7534 13.7412 74.6374 13.4276 74.6374 13.0511C74.6374 12.7434 74.7238 12.4711 74.8967 12.2344C75.0719 11.9976 75.3098 11.8118 75.6104 11.6768C75.9135 11.5419 76.2567 11.4744 76.6403 11.4744C77.18 11.4744 77.6038 11.5928 77.9116 11.8295C78.2217 12.0663 78.4419 12.3788 78.5721 12.767ZM81.5382 17.1278C81.1925 17.1278 80.8788 17.0627 80.5971 16.9325C80.3154 16.8 80.0917 16.6094 79.926 16.3608C79.7602 16.1098 79.6774 15.8068 79.6774 15.4517C79.6774 15.1392 79.7389 14.8859 79.862 14.6918C79.9851 14.4953 80.1497 14.3414 80.3556 14.2301C80.5616 14.1188 80.7889 14.036 81.0375 13.9815C81.2884 13.9247 81.5405 13.8797 81.7939 13.8466C82.1253 13.804 82.394 13.772 82.6 13.7507C82.8083 13.727 82.9598 13.688 83.0545 13.6335C83.1516 13.5791 83.2001 13.4844 83.2001 13.3494V13.321C83.2001 12.9706 83.1042 12.6984 82.9125 12.5043C82.7231 12.3101 82.4354 12.2131 82.0495 12.2131C81.6494 12.2131 81.3358 12.3007 81.1085 12.4759C80.8812 12.651 80.7214 12.8381 80.6291 13.0369L79.8336 12.7528C79.9757 12.4214 80.1651 12.1634 80.4018 11.9787C80.6409 11.7917 80.9013 11.6615 81.1831 11.5881C81.4672 11.5123 81.7465 11.4744 82.0211 11.4744C82.1963 11.4744 82.3975 11.4957 82.6248 11.5384C82.8545 11.5786 83.0758 11.6626 83.2889 11.7905C83.5043 11.9183 83.6831 12.1113 83.8251 12.3693C83.9672 12.6274 84.0382 12.973 84.0382 13.4062V17H83.2001V16.2614H83.1575C83.1007 16.3797 83.006 16.5064 82.8734 16.6413C82.7408 16.7763 82.5645 16.8911 82.3443 16.9858C82.1241 17.0805 81.8554 17.1278 81.5382 17.1278ZM81.666 16.375C81.9975 16.375 82.2768 16.3099 82.5041 16.1797C82.7337 16.0495 82.9065 15.8814 83.0225 15.6754C83.1409 15.4695 83.2001 15.2528 83.2001 15.0256V14.2585C83.1646 14.3011 83.0865 14.3402 82.9657 14.3757C82.8474 14.4089 82.71 14.4384 82.5538 14.4645C82.3999 14.4882 82.2496 14.5095 82.1028 14.5284C81.9584 14.545 81.8412 14.5592 81.7512 14.571C81.5334 14.5994 81.3298 14.6456 81.1404 14.7095C80.9534 14.7711 80.8019 14.8646 80.6859 14.9901C80.5723 15.1132 80.5154 15.2812 80.5154 15.4943C80.5154 15.7855 80.6232 16.0057 80.8386 16.1548C81.0564 16.3016 81.3322 16.375 81.666 16.375ZM87.7695 19.1591C87.3647 19.1591 87.0167 19.107 86.7255 19.0028C86.4343 18.901 86.1916 18.7661 85.9975 18.598C85.8058 18.4323 85.6531 18.2547 85.5394 18.0653L86.207 17.5966C86.2828 17.696 86.3787 17.8097 86.4947 17.9375C86.6107 18.0677 86.7693 18.1802 86.9705 18.2749C87.1741 18.3719 87.4405 18.4205 87.7695 18.4205C88.2099 18.4205 88.5733 18.3139 88.8597 18.1009C89.1462 17.8878 89.2894 17.554 89.2894 17.0994V15.9915H89.2184C89.1568 16.0909 89.0692 16.214 88.9556 16.3608C88.8443 16.5052 88.6834 16.6342 88.4727 16.7479C88.2643 16.8591 87.9826 16.9148 87.6275 16.9148C87.1871 16.9148 86.7918 16.8106 86.4414 16.6023C86.0934 16.3939 85.8176 16.0909 85.614 15.6932C85.4128 15.2955 85.3121 14.8125 85.3121 14.2443C85.3121 13.6856 85.4104 13.1991 85.6069 12.7848C85.8034 12.3681 86.0768 12.0462 86.4272 11.8189C86.7776 11.5893 87.1824 11.4744 87.6417 11.4744C87.9968 11.4744 88.2785 11.5336 88.4869 11.652C88.6976 11.768 88.8585 11.9006 88.9698 12.0497C89.0835 12.1965 89.171 12.3172 89.2326 12.4119H89.3178V11.5455H90.1275V17.1562C90.1275 17.625 90.021 18.0062 89.8079 18.2997C89.5972 18.5956 89.3131 18.8123 88.9556 18.9496C88.6005 19.0893 88.2051 19.1591 87.7695 19.1591ZM87.7411 16.1619C88.0773 16.1619 88.3614 16.085 88.5934 15.9311C88.8254 15.7772 89.0018 15.5559 89.1225 15.267C89.2433 14.9782 89.3036 14.6326 89.3036 14.2301C89.3036 13.8371 89.2444 13.4903 89.1261 13.1896C89.0077 12.889 88.8325 12.6534 88.6005 12.483C88.3685 12.3125 88.082 12.2273 87.7411 12.2273C87.386 12.2273 87.0901 12.3172 86.8533 12.4972C86.619 12.6771 86.4426 12.9186 86.3242 13.2216C86.2082 13.5246 86.1502 13.8608 86.1502 14.2301C86.1502 14.6089 86.2094 14.9439 86.3278 15.2351C86.4485 15.5239 86.6261 15.7512 86.8604 15.9169C87.0972 16.0803 87.3907 16.1619 87.7411 16.1619ZM91.6616 17V11.5455H92.4996V17H91.6616ZM92.0877 10.6364C91.9244 10.6364 91.7835 10.5807 91.6651 10.4695C91.5491 10.3582 91.4911 10.2244 91.4911 10.0682C91.4911 9.91193 91.5491 9.77817 91.6651 9.6669C91.7835 9.55563 91.9244 9.5 92.0877 9.5C92.2511 9.5 92.3907 9.55563 92.5067 9.6669C92.6251 9.77817 92.6843 9.91193 92.6843 10.0682C92.6843 10.2244 92.6251 10.3582 92.5067 10.4695C92.3907 10.5807 92.2511 10.6364 92.0877 10.6364ZM94.8727 13.7188V17H94.0346V11.5455H94.8443V12.3977H94.9153C95.0431 12.1207 95.2373 11.8982 95.4977 11.7301C95.7581 11.5597 96.0943 11.4744 96.5062 11.4744C96.8755 11.4744 97.1987 11.5502 97.4757 11.7017C97.7527 11.8509 97.9681 12.0781 98.122 12.3835C98.2759 12.6866 98.3528 13.0701 98.3528 13.5341V17H97.5147V13.5909C97.5147 13.1624 97.4035 12.8286 97.1809 12.5895C96.9584 12.348 96.653 12.2273 96.2647 12.2273C95.9972 12.2273 95.7581 12.2853 95.5474 12.4013C95.3391 12.5173 95.1745 12.6866 95.0538 12.9091C94.9331 13.1316 94.8727 13.4015 94.8727 13.7188ZM102.086 19.1591C101.681 19.1591 101.333 19.107 101.042 19.0028C100.751 18.901 100.508 18.7661 100.314 18.598C100.122 18.4323 99.9695 18.2547 99.8558 18.0653L100.523 17.5966C100.599 17.696 100.695 17.8097 100.811 17.9375C100.927 18.0677 101.086 18.1802 101.287 18.2749C101.491 18.3719 101.757 18.4205 102.086 18.4205C102.526 18.4205 102.89 18.3139 103.176 18.1009C103.463 17.8878 103.606 17.554 103.606 17.0994V15.9915H103.535C103.473 16.0909 103.386 16.214 103.272 16.3608C103.161 16.5052 103 16.6342 102.789 16.7479C102.581 16.8591 102.299 16.9148 101.944 16.9148C101.504 16.9148 101.108 16.8106 100.758 16.6023C100.41 16.3939 100.134 16.0909 99.9304 15.6932C99.7292 15.2955 99.6286 14.8125 99.6286 14.2443C99.6286 13.6856 99.7268 13.1991 99.9233 12.7848C100.12 12.3681 100.393 12.0462 100.744 11.8189C101.094 11.5893 101.499 11.4744 101.958 11.4744C102.313 11.4744 102.595 11.5336 102.803 11.652C103.014 11.768 103.175 11.9006 103.286 12.0497C103.4 12.1965 103.487 12.3172 103.549 12.4119H103.634V11.5455H104.444V17.1562C104.444 17.625 104.337 18.0062 104.124 18.2997C103.914 18.5956 103.629 18.8123 103.272 18.9496C102.917 19.0893 102.522 19.1591 102.086 19.1591ZM102.058 16.1619C102.394 16.1619 102.678 16.085 102.91 15.9311C103.142 15.7772 103.318 15.5559 103.439 15.267C103.56 14.9782 103.62 14.6326 103.62 14.2301C103.62 13.8371 103.561 13.4903 103.442 13.1896C103.324 12.889 103.149 12.6534 102.917 12.483C102.685 12.3125 102.398 12.2273 102.058 12.2273C101.702 12.2273 101.406 12.3172 101.17 12.4972C100.935 12.6771 100.759 12.9186 100.641 13.2216C100.525 13.5246 100.467 13.8608 100.467 14.2301C100.467 14.6089 100.526 14.9439 100.644 15.2351C100.765 15.5239 100.942 15.7512 101.177 15.9169C101.414 16.0803 101.707 16.1619 102.058 16.1619Z" fill="#E11D48"/>
</svg>