<svg width="160" height="100" viewBox="0 0 160 100" fill="none" xmlns="http://www.w3.org/2000/svg">
<rect x="0.05" y="0.05" width="159.9" height="99.9" rx="4.95" fill="none" stroke="#94A3B8" stroke-width="0.1"/>
<circle cx="68.2396" cy="78.0624" r="7.5" transform="rotate(-11.014 68.2396 78.0624)" fill="#E11D48"/>
<line x1="75.2062" y1="77.2158" x2="68.5195" y2="42.8605" stroke="#E11D48"/>
<path d="M67.7421 41.4836L83.2729 53.2329L69.6526 51.2994L67.7421 41.4836Z" fill="#E11D48"/>
<circle cx="34.6219" cy="49.3833" r="7.5" transform="rotate(20.116 34.6219 49.3833)" fill="#828282"/>
<line x1="41.0229" y1="52.2603" x2="53.0602" y2="19.3954" stroke="#828282"/>
<path d="M53.1066 17.8149L60.3267 35.9014L49.6674 27.2049L53.1066 17.8149Z" fill="#828282"/>
<circle cx="100.333" cy="56.5154" r="7.5" transform="rotate(31.9492 100.333 56.5154)" fill="#828282"/>
<line x1="106.008" y1="60.6438" x2="124.529" y2="30.9457" stroke="#828282"/>
<path d="M124.898 29.4083L128.256 48.591L119.606 37.8935L124.898 29.4083Z" fill="#828282"/>
</svg>
