<svg width="160" height="100" viewBox="0 0 160 100" fill="none" xmlns="http://www.w3.org/2000/svg">
<rect x="0.05" y="0.05" width="159.9" height="99.9" rx="4.95" stroke="#94A3B8" stroke-width="0.1"/>
<circle cx="68.2396" cy="78.0624" r="7.5" transform="rotate(-11.014 68.2396 78.0624)" fill="#E11D48"/>
<line x1="75.2062" y1="77.2158" x2="68.5195" y2="42.8605" stroke="#E11D48"/>
<path d="M67.7421 41.4836L83.2729 53.2329L69.6526 51.2994L67.7421 41.4836Z" fill="#E11D48"/>
<circle cx="34.6219" cy="49.3833" r="7.5" transform="rotate(20.116 34.6219 49.3833)" fill="#64748B"/>
<line x1="41.0229" y1="52.2603" x2="53.0602" y2="19.3954" stroke="#64748B"/>
<path d="M53.1066 17.8149L60.3267 35.9014L49.6674 27.2049L53.1066 17.8149Z" fill="#64748B"/>
<circle cx="100.333" cy="56.5154" r="7.5" transform="rotate(31.9492 100.333 56.5154)" fill="#64748B"/>
<line x1="106.008" y1="60.6438" x2="124.529" y2="30.9457" stroke="#64748B"/>
<path d="M124.898 29.4083L128.256 48.591L119.606 37.8935L124.898 29.4083Z" fill="#64748B"/>
<path d="M66.8807 10.7273H67.9318L70.4034 16.7642H70.4886L72.9602 10.7273H74.0114V18H73.1875V12.4744H73.1165L70.8438 18H70.0483L67.7756 12.4744H67.7045V18H66.8807V10.7273ZM79.101 15.7699V12.5455H79.9391V18H79.101V17.0767H79.0442C78.9164 17.3537 78.7175 17.5893 78.4476 17.7834C78.1777 17.9751 77.8368 18.071 77.4249 18.071C77.084 18.071 76.781 17.9964 76.5158 17.8473C76.2507 17.6958 76.0423 17.4685 75.8908 17.1655C75.7393 16.8601 75.6635 16.4754 75.6635 16.0114V12.5455H76.5016V15.9545C76.5016 16.3523 76.6129 16.6695 76.8354 16.9062C77.0603 17.143 77.3468 17.2614 77.6948 17.2614C77.9031 17.2614 78.115 17.2081 78.3304 17.1016C78.5482 16.995 78.7305 16.8317 78.8773 16.6115C79.0265 16.3913 79.101 16.1108 79.101 15.7699ZM85.3377 13.767L84.5849 13.9801C84.5375 13.8546 84.4677 13.7327 84.3754 13.6143C84.2854 13.4936 84.1623 13.3942 84.006 13.3161C83.8498 13.2379 83.6497 13.1989 83.4059 13.1989C83.0721 13.1989 82.7939 13.2758 82.5714 13.4297C82.3512 13.5812 82.2411 13.7741 82.2411 14.0085C82.2411 14.2169 82.3169 14.3814 82.4684 14.5021C82.6199 14.6229 82.8567 14.7235 83.1786 14.804L83.9883 15.0028C84.476 15.1212 84.8394 15.3023 85.0785 15.5462C85.3176 15.7876 85.4371 16.099 85.4371 16.4801C85.4371 16.7926 85.3472 17.072 85.1673 17.3182C84.9897 17.5644 84.7411 17.7585 84.4215 17.9006C84.1019 18.0426 83.7302 18.1136 83.3065 18.1136C82.7501 18.1136 82.2897 17.9929 81.9251 17.7514C81.5605 17.5099 81.3297 17.1572 81.2326 16.6932L82.0281 16.4943C82.1038 16.7879 82.247 17.008 82.4577 17.1548C82.6708 17.3016 82.949 17.375 83.2923 17.375C83.6829 17.375 83.993 17.2921 84.2227 17.1264C84.4547 16.9583 84.5707 16.7571 84.5707 16.5227C84.5707 16.3333 84.5044 16.1747 84.3718 16.0469C84.2392 15.9167 84.0356 15.8196 83.761 15.7557L82.8519 15.5426C82.3524 15.4242 81.9854 15.2408 81.7511 14.9922C81.5191 14.7412 81.4031 14.4276 81.4031 14.0511C81.4031 13.7434 81.4895 13.4711 81.6623 13.2344C81.8375 12.9976 82.0754 12.8118 82.3761 12.6768C82.6791 12.5419 83.0224 12.4744 83.4059 12.4744C83.9457 12.4744 84.3694 12.5928 84.6772 12.8295C84.9873 13.0663 85.2075 13.3788 85.3377 13.767ZM86.6987 18V12.5455H87.5368V18H86.6987ZM87.1248 11.6364C86.9615 11.6364 86.8206 11.5807 86.7022 11.4695C86.5862 11.3582 86.5282 11.2244 86.5282 11.0682C86.5282 10.9119 86.5862 10.7782 86.7022 10.6669C86.8206 10.5556 86.9615 10.5 87.1248 10.5C87.2882 10.5 87.4279 10.5556 87.5439 10.6669C87.6622 10.7782 87.7214 10.9119 87.7214 11.0682C87.7214 11.2244 87.6622 11.3582 87.5439 11.4695C87.4279 11.5807 87.2882 11.6364 87.1248 11.6364ZM91.2876 18.1136C90.7763 18.1136 90.3359 17.9929 89.9666 17.7514C89.5973 17.5099 89.3132 17.1773 89.1143 16.7536C88.9155 16.3298 88.8161 15.8456 88.8161 15.3011C88.8161 14.7472 88.9179 14.2583 89.1214 13.8345C89.3274 13.4084 89.6139 13.0758 89.9808 12.8366C90.3501 12.5952 90.781 12.4744 91.2734 12.4744C91.657 12.4744 92.0026 12.5455 92.3104 12.6875C92.6181 12.8295 92.8703 13.0284 93.0668 13.2841C93.2633 13.5398 93.3852 13.8381 93.4325 14.179H92.5945C92.5305 13.9304 92.3885 13.7102 92.1683 13.5185C91.9505 13.3243 91.657 13.2273 91.2876 13.2273C90.9609 13.2273 90.6745 13.3125 90.4283 13.483C90.1844 13.651 89.9938 13.889 89.8565 14.1967C89.7216 14.5021 89.6541 14.8608 89.6541 15.2727C89.6541 15.6941 89.7204 16.0611 89.853 16.3736C89.9879 16.6861 90.1773 16.9287 90.4212 17.1016C90.6674 17.2744 90.9562 17.3608 91.2876 17.3608C91.5054 17.3608 91.7031 17.3229 91.8807 17.2472C92.0582 17.1714 92.2086 17.0625 92.3317 16.9205C92.4548 16.7784 92.5424 16.608 92.5945 16.4091H93.4325C93.3852 16.7311 93.268 17.0211 93.081 17.2791C92.8963 17.5348 92.6513 17.7384 92.3459 17.8899C92.0429 18.0391 91.6901 18.1136 91.2876 18.1136Z" fill="#E11D48"/>
</svg>