<svg width="160" height="100" viewBox="0 0 160 100" fill="none" xmlns="http://www.w3.org/2000/svg">
<rect x="0.05" y="0.05" width="159.9" height="99.9" rx="4.95" stroke="#94A3B8" stroke-width="0.1"/>
<path d="M67.5 56.6667C67.5 53.3515 68.817 50.172 71.1612 47.8278C73.5054 45.4836 76.6848 44.1667 80 44.1667C83.3152 44.1667 86.4946 45.4836 88.8388 47.8278C91.183 50.172 92.5 53.3515 92.5 56.6667C92.5 71.25 98.75 75.4167 98.75 75.4167H61.25C61.25 75.4167 67.5 71.25 67.5 56.6667Z" stroke="#64748B" stroke-width="2" stroke-linecap="round" stroke-linejoin="round"/>
<path d="M76.4583 83.75C76.807 84.3843 77.3197 84.9132 77.9427 85.2816C78.5657 85.6501 79.2762 85.8444 80 85.8444C80.7238 85.8444 81.4343 85.6501 82.0573 85.2816C82.6803 84.9132 83.1929 84.3843 83.5417 83.75" stroke="#E11D48" stroke-width="2" stroke-linecap="round" stroke-linejoin="round"/>
<path d="M63.3333 44.1667C60.8333 47.7083 59.1667 51.875 59.1667 56.6667" stroke="#E11D48" stroke-width="2" stroke-linecap="round" stroke-linejoin="round"/>
<path d="M100.833 56.6667C100.833 51.875 99.1667 47.7083 96.6667 44.1667" stroke="#E11D48" stroke-width="2" stroke-linecap="round" stroke-linejoin="round"/>
<path d="M56.6477 18.7273V26H55.7955L51.8324 20.2898H51.7614V26H50.8807V18.7273H51.733L55.7102 24.4517H55.7812V18.7273H56.6477ZM60.5123 26.1136C60.0198 26.1136 59.5878 25.9964 59.2161 25.7621C58.8468 25.5277 58.5579 25.1998 58.3496 24.7784C58.1436 24.357 58.0407 23.8646 58.0407 23.3011C58.0407 22.733 58.1436 22.237 58.3496 21.8132C58.5579 21.3894 58.8468 21.0604 59.2161 20.826C59.5878 20.5916 60.0198 20.4744 60.5123 20.4744C61.0047 20.4744 61.4355 20.5916 61.8049 20.826C62.1766 21.0604 62.4654 21.3894 62.6713 21.8132C62.8797 22.237 62.9838 22.733 62.9838 23.3011C62.9838 23.8646 62.8797 24.357 62.6713 24.7784C62.4654 25.1998 62.1766 25.5277 61.8049 25.7621C61.4355 25.9964 61.0047 26.1136 60.5123 26.1136ZM60.5123 25.3608C60.8863 25.3608 61.1941 25.2649 61.4355 25.0732C61.677 24.8814 61.8558 24.6293 61.9718 24.3168C62.0878 24.0043 62.1458 23.6657 62.1458 23.3011C62.1458 22.9366 62.0878 22.5968 61.9718 22.282C61.8558 21.9671 61.677 21.7126 61.4355 21.5185C61.1941 21.3243 60.8863 21.2273 60.5123 21.2273C60.1382 21.2273 59.8304 21.3243 59.589 21.5185C59.3475 21.7126 59.1687 21.9671 59.0527 22.282C58.9367 22.5968 58.8787 22.9366 58.8787 23.3011C58.8787 23.6657 58.9367 24.0043 59.0527 24.3168C59.1687 24.6293 59.3475 24.8814 59.589 25.0732C59.8304 25.2649 60.1382 25.3608 60.5123 25.3608ZM66.6353 20.5455V21.2557H63.8086V20.5455H66.6353ZM64.6325 19.2386H65.4705V24.4375C65.4705 24.6742 65.5049 24.8518 65.5735 24.9702C65.6445 25.0862 65.7345 25.1643 65.8434 25.2045C65.9547 25.2424 66.0719 25.2614 66.195 25.2614C66.2873 25.2614 66.363 25.2566 66.4222 25.2472C66.4814 25.2353 66.5288 25.2259 66.5643 25.2188L66.7347 25.9716C66.6779 25.9929 66.5986 26.0142 66.4968 26.0355C66.395 26.0592 66.266 26.071 66.1097 26.071C65.873 26.071 65.641 26.0201 65.4137 25.9183C65.1888 25.8165 65.0018 25.6615 64.8526 25.4531C64.7058 25.2448 64.6325 24.982 64.6325 24.6648V19.2386ZM67.896 26V20.5455H68.734V26H67.896ZM68.3221 19.6364C68.1587 19.6364 68.0179 19.5807 67.8995 19.4695C67.7835 19.3582 67.7255 19.2244 67.7255 19.0682C67.7255 18.9119 67.7835 18.7782 67.8995 18.6669C68.0179 18.5556 68.1587 18.5 68.3221 18.5C68.4854 18.5 68.6251 18.5556 68.7411 18.6669C68.8595 18.7782 68.9187 18.9119 68.9187 19.0682C68.9187 19.2244 68.8595 19.3582 68.7411 19.4695C68.6251 19.5807 68.4854 19.6364 68.3221 19.6364ZM72.698 20.5455V21.2557H69.7576V20.5455H72.698ZM70.6383 26V19.7926C70.6383 19.4801 70.7117 19.2197 70.8585 19.0114C71.0053 18.803 71.1958 18.6468 71.4302 18.5426C71.6646 18.4384 71.912 18.3864 72.1724 18.3864C72.3784 18.3864 72.5465 18.4029 72.6767 18.4361C72.8069 18.4692 72.9039 18.5 72.9679 18.5284L72.7264 19.2528C72.6838 19.2386 72.6246 19.2209 72.5488 19.1996C72.4754 19.1783 72.3784 19.1676 72.2576 19.1676C71.9806 19.1676 71.7806 19.2375 71.6575 19.3771C71.5368 19.5168 71.4764 19.7216 71.4764 19.9915V26H70.6383ZM73.8725 26V20.5455H74.7106V26H73.8725ZM74.2987 19.6364C74.1353 19.6364 73.9944 19.5807 73.8761 19.4695C73.7601 19.3582 73.7021 19.2244 73.7021 19.0682C73.7021 18.9119 73.7601 18.7782 73.8761 18.6669C73.9944 18.5556 74.1353 18.5 74.2987 18.5C74.462 18.5 74.6017 18.5556 74.7177 18.6669C74.8361 18.7782 74.8952 18.9119 74.8952 19.0682C74.8952 19.2244 74.8361 19.3582 74.7177 19.4695C74.6017 19.5807 74.462 19.6364 74.2987 19.6364ZM78.4615 26.1136C77.9501 26.1136 77.5098 25.9929 77.1404 25.7514C76.7711 25.5099 76.487 25.1773 76.2882 24.7536C76.0893 24.3298 75.9899 23.8456 75.9899 23.3011C75.9899 22.7472 76.0917 22.2583 76.2953 21.8345C76.5012 21.4084 76.7877 21.0758 77.1547 20.8366C77.524 20.5952 77.9548 20.4744 78.4473 20.4744C78.8308 20.4744 79.1764 20.5455 79.4842 20.6875C79.792 20.8295 80.0441 21.0284 80.2406 21.2841C80.4371 21.5398 80.559 21.8381 80.6064 22.179H79.7683C79.7044 21.9304 79.5623 21.7102 79.3422 21.5185C79.1243 21.3243 78.8308 21.2273 78.4615 21.2273C78.1348 21.2273 77.8483 21.3125 77.6021 21.483C77.3583 21.651 77.1677 21.889 77.0304 22.1967C76.8954 22.5021 76.8279 22.8608 76.8279 23.2727C76.8279 23.6941 76.8942 24.0611 77.0268 24.3736C77.1618 24.6861 77.3511 24.9287 77.595 25.1016C77.8412 25.2744 78.13 25.3608 78.4615 25.3608C78.6793 25.3608 78.877 25.3229 79.0545 25.2472C79.2321 25.1714 79.3824 25.0625 79.5055 24.9205C79.6286 24.7784 79.7162 24.608 79.7683 24.4091H80.6064C80.559 24.7311 80.4418 25.0211 80.2548 25.2791C80.0701 25.5348 79.8251 25.7384 79.5197 25.8899C79.2167 26.0391 78.8639 26.1136 78.4615 26.1136ZM83.4366 26.1278C83.091 26.1278 82.7773 26.0627 82.4956 25.9325C82.2138 25.8 81.9901 25.6094 81.8244 25.3608C81.6587 25.1098 81.5758 24.8068 81.5758 24.4517C81.5758 24.1392 81.6374 23.8859 81.7605 23.6918C81.8836 23.4953 82.0481 23.3414 82.2541 23.2301C82.46 23.1188 82.6873 23.036 82.9359 22.9815C83.1868 22.9247 83.439 22.8797 83.6923 22.8466C84.0237 22.804 84.2924 22.772 84.4984 22.7507C84.7067 22.727 84.8583 22.688 84.9529 22.6335C85.05 22.5791 85.0985 22.4844 85.0985 22.3494V22.321C85.0985 21.9706 85.0027 21.6984 84.8109 21.5043C84.6215 21.3101 84.3339 21.2131 83.948 21.2131C83.5479 21.2131 83.2342 21.3007 83.0069 21.4759C82.7797 21.651 82.6199 21.8381 82.5275 22.0369L81.7321 21.7528C81.8741 21.4214 82.0635 21.1634 82.3002 20.9787C82.5394 20.7917 82.7998 20.6615 83.0815 20.5881C83.3656 20.5123 83.6449 20.4744 83.9196 20.4744C84.0948 20.4744 84.296 20.4957 84.5233 20.5384C84.7529 20.5786 84.9743 20.6626 85.1873 20.7905C85.4028 20.9183 85.5815 21.1113 85.7235 21.3693C85.8656 21.6274 85.9366 21.973 85.9366 22.4062V26H85.0985V25.2614H85.0559C84.9991 25.3797 84.9044 25.5064 84.7718 25.6413C84.6393 25.7763 84.4629 25.8911 84.2427 25.9858C84.0225 26.0805 83.7538 26.1278 83.4366 26.1278ZM83.5645 25.375C83.8959 25.375 84.1752 25.3099 84.4025 25.1797C84.6322 25.0495 84.805 24.8814 84.921 24.6754C85.0394 24.4695 85.0985 24.2528 85.0985 24.0256V23.2585C85.063 23.3011 84.9849 23.3402 84.8642 23.3757C84.7458 23.4089 84.6085 23.4384 84.4522 23.4645C84.2984 23.4882 84.148 23.5095 84.0012 23.5284C83.8568 23.545 83.7396 23.5592 83.6497 23.571C83.4319 23.5994 83.2283 23.6456 83.0389 23.7095C82.8519 23.7711 82.7003 23.8646 82.5843 23.9901C82.4707 24.1132 82.4139 24.2812 82.4139 24.4943C82.4139 24.7855 82.5216 25.0057 82.737 25.1548C82.9548 25.3016 83.2306 25.375 83.5645 25.375ZM89.8384 20.5455V21.2557H87.0117V20.5455H89.8384ZM87.8356 19.2386H88.6737V24.4375C88.6737 24.6742 88.708 24.8518 88.7766 24.9702C88.8477 25.0862 88.9376 25.1643 89.0465 25.2045C89.1578 25.2424 89.275 25.2614 89.3981 25.2614C89.4904 25.2614 89.5662 25.2566 89.6254 25.2472C89.6845 25.2353 89.7319 25.2259 89.7674 25.2188L89.9379 25.9716C89.881 25.9929 89.8017 26.0142 89.6999 26.0355C89.5981 26.0592 89.4691 26.071 89.3129 26.071C89.0761 26.071 88.8441 26.0201 88.6168 25.9183C88.3919 25.8165 88.2049 25.6615 88.0558 25.4531C87.909 25.2448 87.8356 24.982 87.8356 24.6648V19.2386ZM91.0991 26V20.5455H91.9371V26H91.0991ZM91.5252 19.6364C91.3619 19.6364 91.221 19.5807 91.1026 19.4695C90.9866 19.3582 90.9286 19.2244 90.9286 19.0682C90.9286 18.9119 90.9866 18.7782 91.1026 18.6669C91.221 18.5556 91.3619 18.5 91.5252 18.5C91.6886 18.5 91.8282 18.5556 91.9442 18.6669C92.0626 18.7782 92.1218 18.9119 92.1218 19.0682C92.1218 19.2244 92.0626 19.3582 91.9442 19.4695C91.8282 19.5807 91.6886 19.6364 91.5252 19.6364ZM95.688 26.1136C95.1956 26.1136 94.7636 25.9964 94.3919 25.7621C94.0225 25.5277 93.7337 25.1998 93.5254 24.7784C93.3194 24.357 93.2164 23.8646 93.2164 23.3011C93.2164 22.733 93.3194 22.237 93.5254 21.8132C93.7337 21.3894 94.0225 21.0604 94.3919 20.826C94.7636 20.5916 95.1956 20.4744 95.688 20.4744C96.1805 20.4744 96.6113 20.5916 96.9806 20.826C97.3523 21.0604 97.6412 21.3894 97.8471 21.8132C98.0555 22.237 98.1596 22.733 98.1596 23.3011C98.1596 23.8646 98.0555 24.357 97.8471 24.7784C97.6412 25.1998 97.3523 25.5277 96.9806 25.7621C96.6113 25.9964 96.1805 26.1136 95.688 26.1136ZM95.688 25.3608C96.0621 25.3608 96.3699 25.2649 96.6113 25.0732C96.8528 24.8814 97.0315 24.6293 97.1475 24.3168C97.2636 24.0043 97.3216 23.6657 97.3216 23.3011C97.3216 22.9366 97.2636 22.5968 97.1475 22.282C97.0315 21.9671 96.8528 21.7126 96.6113 21.5185C96.3699 21.3243 96.0621 21.2273 95.688 21.2273C95.314 21.2273 95.0062 21.3243 94.7647 21.5185C94.5233 21.7126 94.3445 21.9671 94.2285 22.282C94.1125 22.5968 94.0545 22.9366 94.0545 23.3011C94.0545 23.6657 94.1125 24.0043 94.2285 24.3168C94.3445 24.6293 94.5233 24.8814 94.7647 25.0732C95.0062 25.2649 95.314 25.3608 95.688 25.3608ZM100.277 22.7188V26H99.4389V20.5455H100.249V21.3977H100.32C100.447 21.1207 100.642 20.8982 100.902 20.7301C101.162 20.5597 101.499 20.4744 101.911 20.4744C102.28 20.4744 102.603 20.5502 102.88 20.7017C103.157 20.8509 103.372 21.0781 103.526 21.3835C103.68 21.6866 103.757 22.0701 103.757 22.5341V26H102.919V22.5909C102.919 22.1624 102.808 21.8286 102.585 21.5895C102.363 21.348 102.057 21.2273 101.669 21.2273C101.402 21.2273 101.162 21.2853 100.952 21.4013C100.743 21.5173 100.579 21.6866 100.458 21.9091C100.337 22.1316 100.277 22.4015 100.277 22.7188ZM109.152 21.767L108.399 21.9801C108.352 21.8546 108.282 21.7327 108.19 21.6143C108.1 21.4936 107.977 21.3942 107.82 21.3161C107.664 21.2379 107.464 21.1989 107.22 21.1989C106.887 21.1989 106.608 21.2758 106.386 21.4297C106.166 21.5812 106.056 21.7741 106.056 22.0085C106.056 22.2169 106.131 22.3814 106.283 22.5021C106.434 22.6229 106.671 22.7235 106.993 22.804L107.803 23.0028C108.29 23.1212 108.654 23.3023 108.893 23.5462C109.132 23.7876 109.252 24.099 109.252 24.4801C109.252 24.7926 109.162 25.072 108.982 25.3182C108.804 25.5644 108.556 25.7585 108.236 25.9006C107.916 26.0426 107.545 26.1136 107.121 26.1136C106.565 26.1136 106.104 25.9929 105.74 25.7514C105.375 25.5099 105.144 25.1572 105.047 24.6932L105.843 24.4943C105.918 24.7879 106.061 25.008 106.272 25.1548C106.485 25.3016 106.763 25.375 107.107 25.375C107.497 25.375 107.807 25.2921 108.037 25.1264C108.269 24.9583 108.385 24.7571 108.385 24.5227C108.385 24.3333 108.319 24.1747 108.186 24.0469C108.054 23.9167 107.85 23.8196 107.575 23.7557L106.666 23.5426C106.167 23.4242 105.8 23.2408 105.566 22.9922C105.334 22.7412 105.218 22.4276 105.218 22.0511C105.218 21.7434 105.304 21.4711 105.477 21.2344C105.652 20.9976 105.89 20.8118 106.191 20.6768C106.494 20.5419 106.837 20.4744 107.22 20.4744C107.76 20.4744 108.184 20.5928 108.492 20.8295C108.802 21.0663 109.022 21.3788 109.152 21.767Z" fill="#E11D48"/>
</svg>
