<svg width="160" height="100" viewBox="0 0 160 100" fill="none" xmlns="http://www.w3.org/2000/svg">
<rect x="0.05" y="0.05" width="159.9" height="99.9" rx="4.95" stroke="#94A3B8" stroke-width="0.1"/>
<path d="M64.017 25.3636C64.017 26.1307 63.8786 26.7936 63.6016 27.3523C63.3246 27.911 62.9446 28.3419 62.4616 28.6449C61.9787 28.9479 61.4271 29.0994 60.8068 29.0994C60.1866 29.0994 59.6349 28.9479 59.152 28.6449C58.669 28.3419 58.2891 27.911 58.0121 27.3523C57.7351 26.7936 57.5966 26.1307 57.5966 25.3636C57.5966 24.5966 57.7351 23.9337 58.0121 23.375C58.2891 22.8163 58.669 22.3854 59.152 22.0824C59.6349 21.7794 60.1866 21.6278 60.8068 21.6278C61.4271 21.6278 61.9787 21.7794 62.4616 22.0824C62.9446 22.3854 63.3246 22.8163 63.6016 23.375C63.8786 23.9337 64.017 24.5966 64.017 25.3636ZM63.1648 25.3636C63.1648 24.7339 63.0594 24.2024 62.8487 23.7692C62.6404 23.3359 62.3575 23.008 62 22.7855C61.6449 22.563 61.2472 22.4517 60.8068 22.4517C60.3665 22.4517 59.9676 22.563 59.6101 22.7855C59.255 23.008 58.9721 23.3359 58.7614 23.7692C58.553 24.2024 58.4489 24.7339 58.4489 25.3636C58.4489 25.9934 58.553 26.5249 58.7614 26.9581C58.9721 27.3913 59.255 27.7192 59.6101 27.9418C59.9676 28.1643 60.3665 28.2756 60.8068 28.2756C61.2472 28.2756 61.6449 28.1643 62 27.9418C62.3575 27.7192 62.6404 27.3913 62.8487 26.9581C63.0594 26.5249 63.1648 25.9934 63.1648 25.3636ZM68.8217 26.7699V23.5455H69.6598V29H68.8217V28.0767H68.7649C68.6371 28.3537 68.4382 28.5893 68.1683 28.7834C67.8984 28.9751 67.5575 29.071 67.1456 29.071C66.8047 29.071 66.5017 28.9964 66.2365 28.8473C65.9714 28.6958 65.763 28.4685 65.6115 28.1655C65.46 27.8601 65.3842 27.4754 65.3842 27.0114V23.5455H66.2223V26.9545C66.2223 27.3523 66.3336 27.6695 66.5561 27.9062C66.781 28.143 67.0675 28.2614 67.4155 28.2614C67.6238 28.2614 67.8357 28.2081 68.0511 28.1016C68.2689 27.995 68.4512 27.8317 68.598 27.6115C68.7472 27.3913 68.8217 27.1108 68.8217 26.7699ZM71.1948 29V23.5455H72.0044V24.3693H72.0613C72.1607 24.0994 72.3406 23.8804 72.601 23.7124C72.8614 23.5443 73.155 23.4602 73.4817 23.4602C73.5433 23.4602 73.6202 23.4614 73.7125 23.4638C73.8049 23.4661 73.8747 23.4697 73.9221 23.4744V24.3267C73.8936 24.3196 73.8285 24.3089 73.7267 24.2947C73.6273 24.2782 73.522 24.2699 73.4107 24.2699C73.1455 24.2699 72.9088 24.3255 72.7005 24.4368C72.4945 24.5457 72.3311 24.6972 72.2104 24.8913C72.092 25.0831 72.0328 25.3021 72.0328 25.5483V29H71.1948ZM80.1001 23.5455V24.2557H77.2734V23.5455H80.1001ZM78.0973 22.2386H78.9354V27.4375C78.9354 27.6742 78.9697 27.8518 79.0384 27.9702C79.1094 28.0862 79.1993 28.1643 79.3082 28.2045C79.4195 28.2424 79.5367 28.2614 79.6598 28.2614C79.7521 28.2614 79.8279 28.2566 79.8871 28.2472C79.9463 28.2353 79.9936 28.2259 80.0291 28.2188L80.1996 28.9716C80.1428 28.9929 80.0634 29.0142 79.9616 29.0355C79.8598 29.0592 79.7308 29.071 79.5746 29.071C79.3378 29.071 79.1058 29.0201 78.8786 28.9183C78.6536 28.8165 78.4666 28.6615 78.3175 28.4531C78.1707 28.2448 78.0973 27.982 78.0973 27.6648V22.2386ZM83.5891 29.1136C83.0636 29.1136 82.6102 28.9976 82.229 28.7656C81.8503 28.5312 81.5579 28.2045 81.3519 27.7855C81.1483 27.3641 81.0465 26.8741 81.0465 26.3153C81.0465 25.7566 81.1483 25.2642 81.3519 24.8381C81.5579 24.4096 81.8443 24.0758 82.2113 23.8366C82.5806 23.5952 83.0115 23.4744 83.5039 23.4744C83.788 23.4744 84.0685 23.5218 84.3455 23.6165C84.6225 23.7112 84.8746 23.8651 85.1019 24.0781C85.3292 24.2888 85.5103 24.5682 85.6452 24.9162C85.7802 25.2642 85.8477 25.6927 85.8477 26.2017V26.5568H81.6431V25.8324H84.9954C84.9954 25.5246 84.9338 25.25 84.8107 25.0085C84.69 24.767 84.5172 24.5765 84.2923 24.4368C84.0697 24.2971 83.8069 24.2273 83.5039 24.2273C83.1701 24.2273 82.8813 24.3101 82.6374 24.4759C82.396 24.6392 82.2101 24.8523 82.0799 25.1151C81.9497 25.3778 81.8846 25.6596 81.8846 25.9602V26.4432C81.8846 26.8551 81.9556 27.2043 82.0977 27.4908C82.2421 27.7749 82.4421 27.9915 82.6978 28.1406C82.9535 28.2874 83.2506 28.3608 83.5891 28.3608C83.8093 28.3608 84.0082 28.33 84.1857 28.2685C84.3656 28.2045 84.5207 28.1098 84.6509 27.9844C84.7811 27.8565 84.8817 27.6979 84.9528 27.5085L85.7624 27.7358C85.6772 28.0104 85.534 28.2519 85.3327 28.4602C85.1315 28.6662 84.8829 28.8272 84.587 28.9432C84.2911 29.0568 83.9585 29.1136 83.5891 29.1136ZM88.7276 29.1278C88.382 29.1278 88.0683 29.0627 87.7866 28.9325C87.5049 28.8 87.2811 28.6094 87.1154 28.3608C86.9497 28.1098 86.8668 27.8068 86.8668 27.4517C86.8668 27.1392 86.9284 26.8859 87.0515 26.6918C87.1746 26.4953 87.3391 26.3414 87.5451 26.2301C87.7511 26.1188 87.9783 26.036 88.2269 25.9815C88.4779 25.9247 88.73 25.8797 88.9833 25.8466C89.3147 25.804 89.5835 25.772 89.7894 25.7507C89.9978 25.727 90.1493 25.688 90.244 25.6335C90.341 25.5791 90.3896 25.4844 90.3896 25.3494V25.321C90.3896 24.9706 90.2937 24.6984 90.1019 24.5043C89.9125 24.3101 89.6249 24.2131 89.239 24.2131C88.8389 24.2131 88.5252 24.3007 88.2979 24.4759C88.0707 24.651 87.9109 24.8381 87.8185 25.0369L87.0231 24.7528C87.1651 24.4214 87.3545 24.1634 87.5913 23.9787C87.8304 23.7917 88.0908 23.6615 88.3725 23.5881C88.6566 23.5123 88.936 23.4744 89.2106 23.4744C89.3858 23.4744 89.587 23.4957 89.8143 23.5384C90.0439 23.5786 90.2653 23.6626 90.4783 23.7905C90.6938 23.9183 90.8725 24.1113 91.0146 24.3693C91.1566 24.6274 91.2276 24.973 91.2276 25.4062V29H90.3896V28.2614H90.3469C90.2901 28.3797 90.1954 28.5064 90.0629 28.6413C89.9303 28.7763 89.7539 28.8911 89.5337 28.9858C89.3136 29.0805 89.0449 29.1278 88.7276 29.1278ZM88.8555 28.375C89.1869 28.375 89.4663 28.3099 89.6935 28.1797C89.9232 28.0495 90.096 27.8814 90.212 27.6754C90.3304 27.4695 90.3896 27.2528 90.3896 27.0256V26.2585C90.354 26.3011 90.2759 26.3402 90.1552 26.3757C90.0368 26.4089 89.8995 26.4384 89.7433 26.4645C89.5894 26.4882 89.439 26.5095 89.2923 26.5284C89.1478 26.545 89.0307 26.5592 88.9407 26.571C88.7229 26.5994 88.5193 26.6456 88.3299 26.7095C88.1429 26.7711 87.9914 26.8646 87.8754 26.9901C87.7617 27.1132 87.7049 27.2812 87.7049 27.4943C87.7049 27.7855 87.8126 28.0057 88.0281 28.1548C88.2459 28.3016 88.5217 28.375 88.8555 28.375ZM92.7573 29V23.5455H93.5669V24.3977H93.638C93.7516 24.1065 93.9351 23.8804 94.1884 23.7195C94.4417 23.5561 94.7459 23.4744 95.101 23.4744C95.4609 23.4744 95.7604 23.5561 95.9995 23.7195C96.2409 23.8804 96.4292 24.1065 96.5641 24.3977H96.6209C96.7606 24.116 96.9701 23.8923 97.2495 23.7266C97.5288 23.5585 97.8638 23.4744 98.2544 23.4744C98.7421 23.4744 99.141 23.6271 99.4512 23.9325C99.7613 24.2356 99.9164 24.7079 99.9164 25.3494V29H99.0783V25.3494C99.0783 24.947 98.9682 24.6593 98.748 24.4865C98.5279 24.3137 98.2686 24.2273 97.9703 24.2273C97.5868 24.2273 97.2897 24.3433 97.079 24.5753C96.8683 24.8049 96.763 25.0961 96.763 25.4489V29H95.9107V25.2642C95.9107 24.9541 95.8101 24.7043 95.6088 24.5149C95.4076 24.3232 95.1484 24.2273 94.8311 24.2273C94.6133 24.2273 94.4097 24.2853 94.2203 24.4013C94.0333 24.5173 93.8818 24.6783 93.7658 24.8842C93.6522 25.0878 93.5953 25.3234 93.5953 25.5909V29H92.7573Z" fill="#E11D48"/>
<rect x="24.5" y="37.5" width="34" height="43" rx="1.5" stroke="#64748B"/>
<rect x="62.5" y="37.5" width="34" height="43" rx="1.5" stroke="#64748B"/>
<rect x="100.5" y="37.5" width="34" height="43" rx="1.5" stroke="#64748B"/>
<circle cx="41.5" cy="48.5" r="7" stroke="#64748B"/>
<path d="M36 59H46" stroke="#64748B" stroke-linecap="round"/>
<path d="M32 65H51" stroke="#64748B" stroke-linecap="round"/>
<path d="M34 68H49" stroke="#64748B" stroke-linecap="round"/>
<path d="M36 71H47" stroke="#64748B" stroke-linecap="round"/>
<circle cx="79.5" cy="48.5" r="7" stroke="#64748B"/>
<path d="M74 59H84" stroke="#64748B" stroke-linecap="round"/>
<path d="M70 65H89" stroke="#64748B" stroke-linecap="round"/>
<path d="M72 68H87" stroke="#64748B" stroke-linecap="round"/>
<path d="M74 71H85" stroke="#64748B" stroke-linecap="round"/>
<circle cx="117.5" cy="48.5" r="7" stroke="#64748B"/>
<path d="M112 59H122" stroke="#64748B" stroke-linecap="round"/>
<path d="M108 65H127" stroke="#64748B" stroke-linecap="round"/>
<path d="M110 68H125" stroke="#64748B" stroke-linecap="round"/>
<path d="M112 71H123" stroke="#64748B" stroke-linecap="round"/>
</svg>
