<svg width="160" height="100" viewBox="0 0 160 100" fill="none" xmlns="http://www.w3.org/2000/svg">
<rect x="0.05" y="0.05" width="159.9" height="99.9" rx="4.95" fill="white" stroke="#94A3B8" stroke-width="0.1"/>
<line x1="104.5" y1="5" x2="104.5" y2="95" stroke="#828282"/>
<rect x="134.5" y="88.5" width="16" height="6" rx="3" fill="#D9D9D9" stroke="#E11D48"/>
<path d="M137 91.5H149" stroke="#E11D48" stroke-linecap="round"/>
<rect x="111.5" y="88.5" width="16" height="6" rx="3" fill="#D9D9D9" stroke="#828282"/>
<path d="M114 91.5H126" stroke="#828282" stroke-linecap="round"/>
<path d="M111 32L145 32" stroke="#828282" stroke-linecap="round"/>
<path d="M111 35L136 35" stroke="#828282" stroke-linecap="round"/>
<path d="M111 38L140 38" stroke="#828282" stroke-linecap="round"/>
<path d="M111 41L132 41" stroke="#828282" stroke-linecap="round"/>
<path d="M111 47L145 47" stroke="#828282" stroke-linecap="round"/>
<path d="M111 50L136 50" stroke="#828282" stroke-linecap="round"/>
<path d="M111 53L140 53" stroke="#828282" stroke-linecap="round"/>
<path d="M111 56L132 56" stroke="#828282" stroke-linecap="round"/>
<path d="M111 62L145 62" stroke="#828282" stroke-linecap="round"/>
<path d="M111 65H136" stroke="#828282" stroke-linecap="round"/>
<path d="M111 68H140" stroke="#828282" stroke-linecap="round"/>
<path d="M111 71H132" stroke="#828282" stroke-linecap="round"/>
<path d="M8 35L71 35" stroke="#828282" stroke-linecap="round"/>
<path d="M8 38L54 38" stroke="#828282" stroke-linecap="round"/>
<path d="M8 41L62 41" stroke="#828282" stroke-linecap="round"/>
<path d="M8 44L47 44" stroke="#828282" stroke-linecap="round"/>
<path d="M8 50L96 50" stroke="#828282" stroke-linecap="round"/>
<path d="M8 53L73 53" stroke="#828282" stroke-linecap="round"/>
<path d="M8 56L83 56" stroke="#828282" stroke-linecap="round"/>
<path d="M8 59L62 59" stroke="#828282" stroke-linecap="round"/>
<path d="M8 65L52 65" stroke="#828282" stroke-linecap="round"/>
<path d="M8 68L40 68" stroke="#828282" stroke-linecap="round"/>
<path d="M8 71L46 71" stroke="#828282" stroke-linecap="round"/>
<path d="M8 74H35" stroke="#828282" stroke-linecap="round"/>
<path d="M23.8807 22V14.7273H26.3381C26.9086 14.7273 27.375 14.8303 27.7372 15.0362C28.1018 15.2398 28.3717 15.5156 28.5469 15.8636C28.7221 16.2116 28.8097 16.5999 28.8097 17.0284C28.8097 17.4569 28.7221 17.8464 28.5469 18.1967C28.3741 18.5471 28.1065 18.8265 27.7443 19.0348C27.3821 19.2408 26.9181 19.3438 26.3523 19.3438H24.5909V18.5625H26.3239C26.7145 18.5625 27.0282 18.495 27.2649 18.3601C27.5017 18.2251 27.6733 18.0429 27.7798 17.8132C27.8887 17.5812 27.9432 17.3196 27.9432 17.0284C27.9432 16.7372 27.8887 16.4768 27.7798 16.2472C27.6733 16.0175 27.5005 15.8376 27.2614 15.7074C27.0223 15.5748 26.705 15.5085 26.3097 15.5085H24.7614V22H23.8807ZM30.9528 14.7273V22H30.1147V14.7273H30.9528ZM34.0929 22.1278C33.7472 22.1278 33.4335 22.0627 33.1518 21.9325C32.8701 21.8 32.6464 21.6094 32.4806 21.3608C32.3149 21.1098 32.2321 20.8068 32.2321 20.4517C32.2321 20.1392 32.2936 19.8859 32.4167 19.6918C32.5398 19.4953 32.7044 19.3414 32.9103 19.2301C33.1163 19.1188 33.3436 19.036 33.5922 18.9815C33.8431 18.9247 34.0952 18.8797 34.3485 18.8466C34.68 18.804 34.9487 18.772 35.1547 18.7507C35.363 18.727 35.5145 18.688 35.6092 18.6335C35.7063 18.5791 35.7548 18.4844 35.7548 18.3494V18.321C35.7548 17.9706 35.6589 17.6984 35.4672 17.5043C35.2778 17.3101 34.9901 17.2131 34.6042 17.2131C34.2041 17.2131 33.8904 17.3007 33.6632 17.4759C33.4359 17.651 33.2761 17.8381 33.1838 18.0369L32.3883 17.7528C32.5304 17.4214 32.7198 17.1634 32.9565 16.9787C33.1956 16.7917 33.456 16.6615 33.7377 16.5881C34.0218 16.5123 34.3012 16.4744 34.5758 16.4744C34.751 16.4744 34.9522 16.4957 35.1795 16.5384C35.4092 16.5786 35.6305 16.6626 35.8436 16.7905C36.059 16.9183 36.2377 17.1113 36.3798 17.3693C36.5218 17.6274 36.5929 17.973 36.5929 18.4062V22H35.7548V21.2614H35.7122C35.6554 21.3797 35.5607 21.5064 35.4281 21.6413C35.2955 21.7763 35.1191 21.8911 34.899 21.9858C34.6788 22.0805 34.4101 22.1278 34.0929 22.1278ZM34.2207 21.375C34.5521 21.375 34.8315 21.3099 35.0588 21.1797C35.2884 21.0495 35.4612 20.8814 35.5772 20.6754C35.6956 20.4695 35.7548 20.2528 35.7548 20.0256V19.2585C35.7193 19.3011 35.6412 19.3402 35.5204 19.3757C35.402 19.4089 35.2647 19.4384 35.1085 19.4645C34.9546 19.4882 34.8043 19.5095 34.6575 19.5284C34.5131 19.545 34.3959 19.5592 34.3059 19.571C34.0881 19.5994 33.8845 19.6456 33.6951 19.7095C33.5081 19.7711 33.3566 19.8646 33.2406 19.9901C33.127 20.1132 33.0701 20.2812 33.0701 20.4943C33.0701 20.7855 33.1779 21.0057 33.3933 21.1548C33.6111 21.3016 33.8869 21.375 34.2207 21.375ZM38.467 24.0455C38.3249 24.0455 38.1983 24.0336 38.087 24.0099C37.9757 23.9886 37.8988 23.9673 37.8562 23.946L38.0692 23.2074C38.2728 23.2595 38.4528 23.2784 38.609 23.2642C38.7653 23.25 38.9038 23.1802 39.0245 23.0547C39.1476 22.9316 39.2601 22.7315 39.3619 22.4545L39.5181 22.0284L37.5011 16.5455H38.4102L39.9158 20.892H39.9727L41.4783 16.5455H42.3874L40.0721 22.7955C39.9679 23.0772 39.8389 23.3104 39.685 23.495C39.5311 23.6821 39.3524 23.8205 39.1488 23.9105C38.9476 24.0005 38.7203 24.0455 38.467 24.0455ZM45.5 24.1591C45.0952 24.1591 44.7472 24.107 44.456 24.0028C44.1648 23.901 43.9221 23.7661 43.728 23.598C43.5362 23.4323 43.3835 23.2547 43.2699 23.0653L43.9375 22.5966C44.0133 22.696 44.1091 22.8097 44.2251 22.9375C44.3411 23.0677 44.4998 23.1802 44.701 23.2749C44.9046 23.3719 45.1709 23.4205 45.5 23.4205C45.9403 23.4205 46.3037 23.3139 46.5902 23.1009C46.8767 22.8878 47.0199 22.554 47.0199 22.0994V20.9915H46.9489C46.8873 21.0909 46.7997 21.214 46.6861 21.3608C46.5748 21.5052 46.4138 21.6342 46.2031 21.7479C45.9948 21.8591 45.7131 21.9148 45.358 21.9148C44.9176 21.9148 44.5223 21.8106 44.1719 21.6023C43.8239 21.3939 43.5481 21.0909 43.3445 20.6932C43.1432 20.2955 43.0426 19.8125 43.0426 19.2443C43.0426 18.6856 43.1409 18.1991 43.3374 17.7848C43.5339 17.3681 43.8073 17.0462 44.1577 16.8189C44.508 16.5893 44.9129 16.4744 45.3722 16.4744C45.7273 16.4744 46.009 16.5336 46.2173 16.652C46.428 16.768 46.589 16.9006 46.7003 17.0497C46.8139 17.1965 46.9015 17.3172 46.9631 17.4119H47.0483V16.5455H47.858V22.1562C47.858 22.625 47.7514 23.0062 47.5384 23.2997C47.3277 23.5956 47.0436 23.8123 46.6861 23.9496C46.331 24.0893 45.9356 24.1591 45.5 24.1591ZM45.4716 21.1619C45.8078 21.1619 46.0919 21.085 46.3239 20.9311C46.5559 20.7772 46.7322 20.5559 46.853 20.267C46.9737 19.9782 47.0341 19.6326 47.0341 19.2301C47.0341 18.8371 46.9749 18.4903 46.8565 18.1896C46.7382 17.889 46.563 17.6534 46.331 17.483C46.099 17.3125 45.8125 17.2273 45.4716 17.2273C45.1165 17.2273 44.8205 17.3172 44.5838 17.4972C44.3494 17.6771 44.1731 17.9186 44.0547 18.2216C43.9387 18.5246 43.8807 18.8608 43.8807 19.2301C43.8807 19.6089 43.9399 19.9439 44.0582 20.2351C44.179 20.5239 44.3565 20.7512 44.5909 20.9169C44.8277 21.0803 45.1212 21.1619 45.4716 21.1619ZM49.392 22V16.5455H50.2017V17.3693H50.2585C50.358 17.0994 50.5379 16.8804 50.7983 16.7124C51.0587 16.5443 51.3523 16.4602 51.679 16.4602C51.7405 16.4602 51.8175 16.4614 51.9098 16.4638C52.0021 16.4661 52.072 16.4697 52.1193 16.4744V17.3267C52.0909 17.3196 52.0258 17.3089 51.924 17.2947C51.8246 17.2782 51.7192 17.2699 51.608 17.2699C51.3428 17.2699 51.1061 17.3255 50.8977 17.4368C50.6918 17.5457 50.5284 17.6972 50.4077 17.8913C50.2893 18.0831 50.2301 18.3021 50.2301 18.5483V22H49.392ZM55.1626 22.1136C54.6702 22.1136 54.2382 21.9964 53.8665 21.7621C53.4972 21.5277 53.2083 21.1998 53 20.7784C52.794 20.357 52.6911 19.8646 52.6911 19.3011C52.6911 18.733 52.794 18.237 53 17.8132C53.2083 17.3894 53.4972 17.0604 53.8665 16.826C54.2382 16.5916 54.6702 16.4744 55.1626 16.4744C55.6551 16.4744 56.0859 16.5916 56.4553 16.826C56.8269 17.0604 57.1158 17.3894 57.3217 17.8132C57.5301 18.237 57.6342 18.733 57.6342 19.3011C57.6342 19.8646 57.5301 20.357 57.3217 20.7784C57.1158 21.1998 56.8269 21.5277 56.4553 21.7621C56.0859 21.9964 55.6551 22.1136 55.1626 22.1136ZM55.1626 21.3608C55.5367 21.3608 55.8445 21.2649 56.0859 21.0732C56.3274 20.8814 56.5062 20.6293 56.6222 20.3168C56.7382 20.0043 56.7962 19.6657 56.7962 19.3011C56.7962 18.9366 56.7382 18.5968 56.6222 18.282C56.5062 17.9671 56.3274 17.7126 56.0859 17.5185C55.8445 17.3243 55.5367 17.2273 55.1626 17.2273C54.7886 17.2273 54.4808 17.3243 54.2393 17.5185C53.9979 17.7126 53.8191 17.9671 53.7031 18.282C53.5871 18.5968 53.5291 18.9366 53.5291 19.3011C53.5291 19.6657 53.5871 20.0043 53.7031 20.3168C53.8191 20.6293 53.9979 20.8814 54.2393 21.0732C54.4808 21.2649 54.7886 21.3608 55.1626 21.3608ZM62.351 19.7699V16.5455H63.1891V22H62.351V21.0767H62.2942C62.1664 21.3537 61.9675 21.5893 61.6976 21.7834C61.4277 21.9751 61.0868 22.071 60.6749 22.071C60.334 22.071 60.031 21.9964 59.7658 21.8473C59.5007 21.6958 59.2923 21.4685 59.1408 21.1655C58.9893 20.8601 58.9135 20.4754 58.9135 20.0114V16.5455H59.7516V19.9545C59.7516 20.3523 59.8629 20.6695 60.0854 20.9062C60.3103 21.143 60.5968 21.2614 60.9448 21.2614C61.1531 21.2614 61.365 21.2081 61.5804 21.1016C61.7982 20.995 61.9805 20.8317 62.1273 20.6115C62.2765 20.3913 62.351 20.1108 62.351 19.7699ZM65.5621 18.7188V22H64.7241V16.5455H65.5337V17.3977H65.6048C65.7326 17.1207 65.9267 16.8982 66.1871 16.7301C66.4476 16.5597 66.7837 16.4744 67.1957 16.4744C67.565 16.4744 67.8881 16.5502 68.1651 16.7017C68.4421 16.8509 68.6576 17.0781 68.8114 17.3835C68.9653 17.6866 69.0423 18.0701 69.0423 18.5341V22H68.2042V18.5909C68.2042 18.1624 68.0929 17.8286 67.8704 17.5895C67.6478 17.348 67.3424 17.2273 66.9542 17.2273C66.6867 17.2273 66.4476 17.2853 66.2369 17.4013C66.0285 17.5173 65.864 17.6866 65.7433 17.9091C65.6225 18.1316 65.5621 18.4015 65.5621 18.7188ZM72.6333 22.1136C72.1788 22.1136 71.7775 21.9988 71.4295 21.7692C71.0815 21.5372 70.8092 21.2105 70.6127 20.7891C70.4163 20.3653 70.318 19.8646 70.318 19.2869C70.318 18.714 70.4163 18.2169 70.6127 17.7955C70.8092 17.3741 71.0827 17.0485 71.4331 16.8189C71.7834 16.5893 72.1883 16.4744 72.6475 16.4744C73.0027 16.4744 73.2832 16.5336 73.4892 16.652C73.6975 16.768 73.8561 16.9006 73.965 17.0497C74.0763 17.1965 74.1627 17.3172 74.2243 17.4119H74.2953V14.7273H75.1333V22H74.3237V21.1619H74.2243C74.1627 21.2614 74.0751 21.3868 73.9615 21.5384C73.8478 21.6875 73.6857 21.8213 73.475 21.9396C73.2643 22.0556 72.9837 22.1136 72.6333 22.1136ZM72.747 21.3608C73.0832 21.3608 73.3672 21.2732 73.5993 21.098C73.8313 20.9205 74.0076 20.6754 74.1284 20.3629C74.2491 20.0481 74.3095 19.6847 74.3095 19.2727C74.3095 18.8655 74.2503 18.5092 74.1319 18.2038C74.0136 17.8961 73.8384 17.657 73.6064 17.4865C73.3743 17.3137 73.0879 17.2273 72.747 17.2273C72.3919 17.2273 72.0959 17.3184 71.8592 17.5007C71.6248 17.6806 71.4484 17.9257 71.3301 18.2358C71.2141 18.5436 71.1561 18.8892 71.1561 19.2727C71.1561 19.661 71.2153 20.0137 71.3336 20.331C71.4544 20.6458 71.6319 20.8968 71.8663 21.0838C72.103 21.2685 72.3966 21.3608 72.747 21.3608Z" fill="#0F172A"/>
<path d="M111 19.5H138" stroke="#E11D48" stroke-linecap="round"/>
</svg>
