<svg width="160" height="100" viewBox="0 0 160 100" fill="none" xmlns="http://www.w3.org/2000/svg">
<rect x="0.05" y="0.05" width="159.9" height="99.9" rx="4.95" stroke="#94A3B8" stroke-width="0.1"/>
<path d="M57.8807 18V10.7273H60.3381C60.9086 10.7273 61.375 10.8303 61.7372 11.0362C62.1018 11.2398 62.3717 11.5156 62.5469 11.8636C62.7221 12.2116 62.8097 12.5999 62.8097 13.0284C62.8097 13.4569 62.7221 13.8464 62.5469 14.1967C62.3741 14.5471 62.1065 14.8265 61.7443 15.0348C61.3821 15.2408 60.9181 15.3438 60.3523 15.3438H58.5909V14.5625H60.3239C60.7145 14.5625 61.0282 14.495 61.2649 14.3601C61.5017 14.2251 61.6733 14.0429 61.7798 13.8132C61.8887 13.5812 61.9432 13.3196 61.9432 13.0284C61.9432 12.7372 61.8887 12.4768 61.7798 12.2472C61.6733 12.0175 61.5005 11.8376 61.2614 11.7074C61.0223 11.5748 60.705 11.5085 60.3097 11.5085H58.7614V18H57.8807ZM64.1147 18V12.5455H64.9244V13.3693H64.9812C65.0806 13.0994 65.2605 12.8804 65.521 12.7124C65.7814 12.5443 66.0749 12.4602 66.4016 12.4602C66.4632 12.4602 66.5401 12.4614 66.6325 12.4638C66.7248 12.4661 66.7946 12.4697 66.842 12.4744V13.3267C66.8136 13.3196 66.7485 13.3089 66.6467 13.2947C66.5472 13.2782 66.4419 13.2699 66.3306 13.2699C66.0655 13.2699 65.8287 13.3255 65.6204 13.4368C65.4144 13.5457 65.2511 13.6972 65.1303 13.8913C65.012 14.0831 64.9528 14.3021 64.9528 14.5483V18H64.1147ZM67.8354 18V12.5455H68.6735V18H67.8354ZM68.2615 11.6364C68.0982 11.6364 67.9573 11.5807 67.839 11.4695C67.723 11.3582 67.665 11.2244 67.665 11.0682C67.665 10.9119 67.723 10.7782 67.839 10.6669C67.9573 10.5556 68.0982 10.5 68.2615 10.5C68.4249 10.5 68.5646 10.5556 68.6806 10.6669C68.7989 10.7782 68.8581 10.9119 68.8581 11.0682C68.8581 11.2244 68.7989 11.3582 68.6806 11.4695C68.5646 11.5807 68.4249 11.6364 68.2615 11.6364ZM72.4244 18.1136C71.913 18.1136 71.4727 17.9929 71.1033 17.7514C70.734 17.5099 70.4499 17.1773 70.2511 16.7536C70.0522 16.3298 69.9528 15.8456 69.9528 15.3011C69.9528 14.7472 70.0546 14.2583 70.2582 13.8345C70.4641 13.4084 70.7506 13.0758 71.1175 12.8366C71.4869 12.5952 71.9177 12.4744 72.4102 12.4744C72.7937 12.4744 73.1393 12.5455 73.4471 12.6875C73.7549 12.8295 74.007 13.0284 74.2035 13.2841C74.4 13.5398 74.5219 13.8381 74.5692 14.179H73.7312C73.6673 13.9304 73.5252 13.7102 73.305 13.5185C73.0872 13.3243 72.7937 13.2273 72.4244 13.2273C72.0977 13.2273 71.8112 13.3125 71.565 13.483C71.3211 13.651 71.1306 13.889 70.9933 14.1967C70.8583 14.5021 70.7908 14.8608 70.7908 15.2727C70.7908 15.6941 70.8571 16.0611 70.9897 16.3736C71.1246 16.6861 71.314 16.9287 71.5579 17.1016C71.8041 17.2744 72.0929 17.3608 72.4244 17.3608C72.6422 17.3608 72.8398 17.3229 73.0174 17.2472C73.195 17.1714 73.3453 17.0625 73.4684 16.9205C73.5915 16.7784 73.6791 16.608 73.7312 16.4091H74.5692C74.5219 16.7311 74.4047 17.0211 74.2177 17.2791C74.033 17.5348 73.788 17.7384 73.4826 17.8899C73.1796 18.0391 72.8268 18.1136 72.4244 18.1136ZM75.7944 18V12.5455H76.6325V18H75.7944ZM76.2205 11.6364C76.0572 11.6364 75.9163 11.5807 75.7979 11.4695C75.6819 11.3582 75.6239 11.2244 75.6239 11.0682C75.6239 10.9119 75.6819 10.7782 75.7979 10.6669C75.9163 10.5556 76.0572 10.5 76.2205 10.5C76.3839 10.5 76.5236 10.5556 76.6396 10.6669C76.7579 10.7782 76.8171 10.9119 76.8171 11.0682C76.8171 11.2244 76.7579 11.3582 76.6396 11.4695C76.5236 11.5807 76.3839 11.6364 76.2205 11.6364ZM79.0055 14.7188V18H78.1674V12.5455H78.9771V13.3977H79.0481C79.176 13.1207 79.3701 12.8982 79.6305 12.7301C79.8909 12.5597 80.2271 12.4744 80.639 12.4744C81.0083 12.4744 81.3315 12.5502 81.6085 12.7017C81.8855 12.8509 82.1009 13.0781 82.2548 13.3835C82.4087 13.6866 82.4856 14.0701 82.4856 14.5341V18H81.6475V14.5909C81.6475 14.1624 81.5363 13.8286 81.3137 13.5895C81.0912 13.348 80.7858 13.2273 80.3975 13.2273C80.13 13.2273 79.8909 13.2853 79.6802 13.4013C79.4719 13.5173 79.3074 13.6866 79.1866 13.9091C79.0659 14.1316 79.0055 14.4015 79.0055 14.7188ZM86.2188 20.1591C85.8139 20.1591 85.4659 20.107 85.1747 20.0028C84.8835 19.901 84.6409 19.7661 84.4467 19.598C84.255 19.4323 84.1023 19.2547 83.9886 19.0653L84.6562 18.5966C84.732 18.696 84.8279 18.8097 84.9439 18.9375C85.0599 19.0677 85.2185 19.1802 85.4197 19.2749C85.6233 19.3719 85.8897 19.4205 86.2188 19.4205C86.6591 19.4205 87.0225 19.3139 87.3089 19.1009C87.5954 18.8878 87.7386 18.554 87.7386 18.0994V16.9915H87.6676C87.6061 17.0909 87.5185 17.214 87.4048 17.3608C87.2936 17.5052 87.1326 17.6342 86.9219 17.7479C86.7135 17.8591 86.4318 17.9148 86.0767 17.9148C85.6364 17.9148 85.241 17.8106 84.8906 17.6023C84.5426 17.3939 84.2668 17.0909 84.0632 16.6932C83.862 16.2955 83.7614 15.8125 83.7614 15.2443C83.7614 14.6856 83.8596 14.1991 84.0561 13.7848C84.2526 13.3681 84.526 13.0462 84.8764 12.8189C85.2268 12.5893 85.6316 12.4744 86.0909 12.4744C86.446 12.4744 86.7277 12.5336 86.9361 12.652C87.1468 12.768 87.3078 12.9006 87.419 13.0497C87.5327 13.1965 87.6203 13.3172 87.6818 13.4119H87.767V12.5455H88.5767V18.1562C88.5767 18.625 88.4702 19.0062 88.2571 19.2997C88.0464 19.5956 87.7623 19.8123 87.4048 19.9496C87.0497 20.0893 86.6544 20.1591 86.2188 20.1591ZM86.1903 17.1619C86.5265 17.1619 86.8106 17.085 87.0426 16.9311C87.2746 16.7772 87.451 16.5559 87.5717 16.267C87.6925 15.9782 87.7528 15.6326 87.7528 15.2301C87.7528 14.8371 87.6937 14.4903 87.5753 14.1896C87.4569 13.889 87.2817 13.6534 87.0497 13.483C86.8177 13.3125 86.5313 13.2273 86.1903 13.2273C85.8352 13.2273 85.5393 13.3172 85.3026 13.4972C85.0682 13.6771 84.8918 13.9186 84.7734 14.2216C84.6574 14.5246 84.5994 14.8608 84.5994 15.2301C84.5994 15.6089 84.6586 15.9439 84.777 16.2351C84.8977 16.5239 85.0753 16.7512 85.3097 16.9169C85.5464 17.0803 85.84 17.1619 86.1903 17.1619Z" fill="#E11D48"/>
<path d="M30 28.5H61C61.8284 28.5 62.5 29.1716 62.5 30V82C62.5 82.8284 61.8284 83.5 61 83.5H30C29.1716 83.5 28.5 82.8284 28.5 82V30C28.5 29.1716 29.1716 28.5 30 28.5Z" stroke="#64748B"/>
<rect x="96.5" y="28.5" width="38" height="55" rx="1.5" stroke="#64748B"/>
<rect x="62.5" y="28.5" width="34" height="55" rx="1.5" stroke="#E11D48"/>
<path d="M35.4087 40.1119C34.9812 40.1102 34.6133 40.005 34.305 39.7962C33.9985 39.5874 33.7623 39.2849 33.5966 38.8888C33.4325 38.4928 33.3513 38.0163 33.353 37.4595C33.353 36.9044 33.435 36.4312 33.5991 36.0401C33.7648 35.649 34.0009 35.3516 34.3075 35.1477C34.6158 34.9422 34.9828 34.8395 35.4087 34.8395C35.8346 34.8395 36.2009 34.9422 36.5075 35.1477C36.8157 35.3532 37.0527 35.6515 37.2184 36.0426C37.3841 36.4321 37.4661 36.9044 37.4645 37.4595C37.4645 38.018 37.3816 38.4953 37.2159 38.8913C37.0518 39.2874 36.8165 39.5898 36.5099 39.7987C36.2034 40.0075 35.8363 40.1119 35.4087 40.1119ZM35.4087 39.2195C35.7004 39.2195 35.9332 39.0728 36.1072 38.7795C36.2813 38.4862 36.3674 38.0462 36.3658 37.4595C36.3658 37.0734 36.326 36.7519 36.2464 36.495C36.1686 36.2382 36.0575 36.0451 35.9134 35.9158C35.7708 35.7866 35.6026 35.7219 35.4087 35.7219C35.1187 35.7219 34.8867 35.867 34.7127 36.157C34.5387 36.447 34.4509 36.8812 34.4492 37.4595C34.4492 37.8506 34.4882 38.1771 34.5661 38.4389C34.6456 38.6991 34.7575 38.8946 34.9016 39.0256C35.0458 39.1548 35.2148 39.2195 35.4087 39.2195ZM38.6558 40.0646C38.4917 40.0646 38.3509 40.0066 38.2332 39.8906C38.1172 39.773 38.0592 39.6321 38.0592 39.468C38.0592 39.3056 38.1172 39.1664 38.2332 39.0504C38.3509 38.9344 38.4917 38.8764 38.6558 38.8764C38.8149 38.8764 38.9541 38.9344 39.0734 39.0504C39.1927 39.1664 39.2524 39.3056 39.2524 39.468C39.2524 39.5774 39.2242 39.6777 39.1679 39.7688C39.1132 39.8583 39.0411 39.9304 38.9516 39.9851C38.8621 40.0381 38.7635 40.0646 38.6558 40.0646ZM41.9029 40.1119C41.4753 40.1102 41.1074 40.005 40.7992 39.7962C40.4926 39.5874 40.2565 39.2849 40.0907 38.8888C39.9267 38.4928 39.8455 38.0163 39.8471 37.4595C39.8471 36.9044 39.9292 36.4312 40.0932 36.0401C40.2589 35.649 40.4951 35.3516 40.8017 35.1477C41.1099 34.9422 41.477 34.8395 41.9029 34.8395C42.3288 34.8395 42.695 34.9422 43.0016 35.1477C43.3098 35.3532 43.5468 35.6515 43.7125 36.0426C43.8783 36.4321 43.9603 36.9044 43.9586 37.4595C43.9586 38.018 43.8758 38.4953 43.71 38.8913C43.546 39.2874 43.3107 39.5898 43.0041 39.7987C42.6975 40.0075 42.3304 40.1119 41.9029 40.1119ZM41.9029 39.2195C42.1945 39.2195 42.4274 39.0728 42.6014 38.7795C42.7754 38.4862 42.8616 38.0462 42.8599 37.4595C42.8599 37.0734 42.8201 36.7519 42.7406 36.495C42.6627 36.2382 42.5517 36.0451 42.4075 35.9158C42.265 35.7866 42.0968 35.7219 41.9029 35.7219C41.6129 35.7219 41.3809 35.867 41.2069 36.157C41.0328 36.447 40.945 36.8812 40.9434 37.4595C40.9434 37.8506 40.9823 38.1771 41.0602 38.4389C41.1397 38.6991 41.2516 38.8946 41.3958 39.0256C41.54 39.1548 41.709 39.2195 41.9029 39.2195ZM46.7222 40.1119C46.2947 40.1102 45.9268 40.005 45.6185 39.7962C45.3119 39.5874 45.0758 39.2849 44.9101 38.8888C44.746 38.4928 44.6648 38.0163 44.6665 37.4595C44.6665 36.9044 44.7485 36.4312 44.9126 36.0401C45.0783 35.649 45.3144 35.3516 45.621 35.1477C45.9292 34.9422 46.2963 34.8395 46.7222 34.8395C47.1481 34.8395 47.5144 34.9422 47.8209 35.1477C48.1292 35.3532 48.3662 35.6515 48.5319 36.0426C48.6976 36.4321 48.7796 36.9044 48.778 37.4595C48.778 38.018 48.6951 38.4953 48.5294 38.8913C48.3653 39.2874 48.13 39.5898 47.8234 39.7987C47.5168 40.0075 47.1498 40.1119 46.7222 40.1119ZM46.7222 39.2195C47.0139 39.2195 47.2467 39.0728 47.4207 38.7795C47.5947 38.4862 47.6809 38.0462 47.6792 37.4595C47.6792 37.0734 47.6395 36.7519 47.5599 36.495C47.482 36.2382 47.371 36.0451 47.2268 35.9158C47.0843 35.7866 46.9161 35.7219 46.7222 35.7219C46.4322 35.7219 46.2002 35.867 46.0262 36.157C45.8522 36.447 45.7644 36.8812 45.7627 37.4595C45.7627 37.8506 45.8016 38.1771 45.8795 38.4389C45.9591 38.6991 46.0709 38.8946 46.2151 39.0256C46.3593 39.1548 46.5283 39.2195 46.7222 39.2195ZM51.2557 40.6364V34.2727H51.6634V40.6364H51.2557ZM52.337 36.3732C52.3171 36.1727 52.2318 36.0169 52.081 35.9059C51.9302 35.7949 51.7255 35.7393 51.467 35.7393C51.2913 35.7393 51.143 35.7642 51.022 35.8139C50.901 35.862 50.8082 35.9291 50.7436 36.0153C50.6806 36.1014 50.6491 36.1992 50.6491 36.3086C50.6458 36.3997 50.6649 36.4793 50.7063 36.5472C50.7494 36.6152 50.8082 36.674 50.8828 36.7237C50.9574 36.7718 51.0436 36.814 51.1413 36.8505C51.2391 36.8853 51.3435 36.9151 51.4545 36.94L51.9119 37.0494C52.134 37.0991 52.3378 37.1654 52.5234 37.2482C52.709 37.3311 52.8698 37.433 53.0057 37.554C53.1416 37.675 53.2468 37.8175 53.3214 37.9815C53.3976 38.1456 53.4366 38.3337 53.4382 38.5458C53.4366 38.8574 53.357 39.1275 53.1996 39.3562C53.0438 39.5832 52.8184 39.7597 52.5234 39.8857C52.2301 40.0099 51.8763 40.0721 51.462 40.0721C51.051 40.0721 50.6931 40.0091 50.3881 39.8832C50.0849 39.7572 49.8479 39.5708 49.6772 39.3239C49.5082 39.0753 49.4195 38.7679 49.4112 38.4016H50.4528C50.4644 38.5723 50.5133 38.7148 50.5994 38.8292C50.6873 38.9419 50.8041 39.0272 50.9499 39.0852C51.0974 39.1416 51.264 39.1697 51.4496 39.1697C51.6319 39.1697 51.7901 39.1432 51.9244 39.0902C52.0603 39.0372 52.1655 38.9634 52.2401 38.869C52.3146 38.7745 52.3519 38.666 52.3519 38.5433C52.3519 38.429 52.3179 38.3329 52.25 38.255C52.1837 38.1771 52.0859 38.1108 51.9567 38.0561C51.8291 38.0014 51.6725 37.9517 51.4869 37.907L50.9325 37.7678C50.5033 37.6634 50.1644 37.5001 49.9158 37.2781C49.6673 37.056 49.5438 36.7569 49.5455 36.3807C49.5438 36.0724 49.6258 35.8031 49.7915 35.5728C49.9589 35.3424 50.1884 35.1626 50.4801 35.0334C50.7718 34.9041 51.1032 34.8395 51.4744 34.8395C51.8523 34.8395 52.1821 34.9041 52.4638 35.0334C52.7472 35.1626 52.9676 35.3424 53.125 35.5728C53.2824 35.8031 53.3636 36.07 53.3686 36.3732H52.337Z" fill="#64748B"/>
<path d="M69.6275 34.9091V40H68.5511V35.9308H68.5213L67.3555 36.6616V35.707L68.6158 34.9091H69.6275ZM72.8335 40.1119C72.406 40.1102 72.0381 40.005 71.7298 39.7962C71.4233 39.5874 71.1871 39.2849 71.0214 38.8888C70.8573 38.4928 70.7761 38.0163 70.7778 37.4595C70.7778 36.9044 70.8598 36.4312 71.0239 36.0401C71.1896 35.649 71.4258 35.3516 71.7323 35.1477C72.0406 34.9422 72.4076 34.8395 72.8335 34.8395C73.2594 34.8395 73.6257 34.9422 73.9323 35.1477C74.2405 35.3532 74.4775 35.6515 74.6432 36.0426C74.8089 36.4321 74.891 36.9044 74.8893 37.4595C74.8893 38.018 74.8064 38.4953 74.6407 38.8913C74.4767 39.2874 74.2413 39.5898 73.9347 39.7987C73.6282 40.0075 73.2611 40.1119 72.8335 40.1119ZM72.8335 39.2195C73.1252 39.2195 73.358 39.0728 73.532 38.7795C73.7061 38.4862 73.7922 38.0462 73.7906 37.4595C73.7906 37.0734 73.7508 36.7519 73.6713 36.495C73.5934 36.2382 73.4823 36.0451 73.3382 35.9158C73.1956 35.7866 73.0274 35.7219 72.8335 35.7219C72.5435 35.7219 72.3115 35.867 72.1375 36.157C71.9635 36.447 71.8757 36.8812 71.874 37.4595C71.874 37.8506 71.913 38.1771 71.9909 38.4389C72.0704 38.6991 72.1823 38.8946 72.3264 39.0256C72.4706 39.1548 72.6396 39.2195 72.8335 39.2195ZM76.0806 40.0646C75.9165 40.0646 75.7757 40.0066 75.658 39.8906C75.542 39.773 75.484 39.6321 75.484 39.468C75.484 39.3056 75.542 39.1664 75.658 39.0504C75.7757 38.9344 75.9165 38.8764 76.0806 38.8764C76.2397 38.8764 76.3789 38.9344 76.4982 39.0504C76.6175 39.1664 76.6772 39.3056 76.6772 39.468C76.6772 39.5774 76.649 39.6777 76.5927 39.7688C76.538 39.8583 76.4659 39.9304 76.3764 39.9851C76.2869 40.0381 76.1883 40.0646 76.0806 40.0646ZM79.2544 40.0696C78.8831 40.0696 78.5525 40.0058 78.2625 39.8782C77.9742 39.7489 77.7463 39.5716 77.5789 39.3462C77.4132 39.1192 77.3279 38.8574 77.3229 38.5607H78.4067C78.4133 38.685 78.4539 38.7944 78.5285 38.8888C78.6047 38.9817 78.7058 39.0537 78.8318 39.1051C78.9577 39.1565 79.0994 39.1822 79.2568 39.1822C79.4209 39.1822 79.5659 39.1532 79.6919 39.0952C79.8178 39.0372 79.9164 38.9568 79.9877 38.854C80.0589 38.7513 80.0945 38.6328 80.0945 38.4986C80.0945 38.3627 80.0564 38.2425 79.9802 38.1381C79.9056 38.0321 79.7979 37.9492 79.657 37.8896C79.5178 37.8299 79.3521 37.8001 79.1599 37.8001H78.6851V37.0096H79.1599C79.3223 37.0096 79.4656 36.9814 79.5899 36.9251C79.7159 36.8687 79.8137 36.7908 79.8833 36.6914C79.9529 36.5903 79.9877 36.4727 79.9877 36.3384C79.9877 36.2108 79.957 36.099 79.8957 36.0028C79.836 35.9051 79.7515 35.8288 79.6421 35.7741C79.5344 35.7195 79.4085 35.6921 79.2643 35.6921C79.1185 35.6921 78.9851 35.7186 78.8641 35.7717C78.7431 35.823 78.6462 35.8968 78.5732 35.9929C78.5003 36.089 78.4614 36.2017 78.4564 36.331H77.4248C77.4298 36.0376 77.5135 35.7791 77.6759 35.5554C77.8383 35.3317 78.057 35.1568 78.3321 35.0309C78.6089 34.9033 78.9213 34.8395 79.2693 34.8395C79.6206 34.8395 79.928 34.9033 80.1915 35.0309C80.455 35.1585 80.6597 35.3308 80.8055 35.5479C80.953 35.7634 81.0259 36.0053 81.0242 36.2738C81.0259 36.5588 80.9372 36.7966 80.7583 36.9872C80.5809 37.1778 80.3498 37.2988 80.0647 37.3501V37.3899C80.4392 37.438 80.7243 37.5681 80.9198 37.7802C81.117 37.9906 81.2148 38.2541 81.2132 38.5707C81.2148 38.8607 81.1311 39.1184 80.9621 39.3438C80.7947 39.5691 80.5635 39.7464 80.2686 39.8757C79.9736 40.005 79.6355 40.0696 79.2544 40.0696ZM83.983 40.1119C83.5554 40.1102 83.1875 40.005 82.8793 39.7962C82.5727 39.5874 82.3365 39.2849 82.1708 38.8888C82.0067 38.4928 81.9255 38.0163 81.9272 37.4595C81.9272 36.9044 82.0092 36.4312 82.1733 36.0401C82.339 35.649 82.5752 35.3516 82.8817 35.1477C83.19 34.9422 83.5571 34.8395 83.983 34.8395C84.4089 34.8395 84.7751 34.9422 85.0817 35.1477C85.3899 35.3532 85.6269 35.6515 85.7926 36.0426C85.9583 36.4321 86.0404 36.9044 86.0387 37.4595C86.0387 38.018 85.9558 38.4953 85.7901 38.8913C85.6261 39.2874 85.3907 39.5898 85.0842 39.7987C84.7776 40.0075 84.4105 40.1119 83.983 40.1119ZM83.983 39.2195C84.2746 39.2195 84.5075 39.0728 84.6815 38.7795C84.8555 38.4862 84.9416 38.0462 84.94 37.4595C84.94 37.0734 84.9002 36.7519 84.8207 36.495C84.7428 36.2382 84.6317 36.0451 84.4876 35.9158C84.3451 35.7866 84.1768 35.7219 83.983 35.7219C83.6929 35.7219 83.4609 35.867 83.2869 36.157C83.1129 36.447 83.0251 36.8812 83.0234 37.4595C83.0234 37.8506 83.0624 38.1771 83.1403 38.4389C83.2198 38.6991 83.3317 38.8946 83.4759 39.0256C83.62 39.1548 83.7891 39.2195 83.983 39.2195ZM88.5164 40.6364V34.2727H88.9241V40.6364H88.5164ZM89.5977 36.3732C89.5779 36.1727 89.4925 36.0169 89.3417 35.9059C89.1909 35.7949 88.9862 35.7393 88.7277 35.7393C88.5521 35.7393 88.4037 35.7642 88.2828 35.8139C88.1618 35.862 88.069 35.9291 88.0044 36.0153C87.9414 36.1014 87.9099 36.1992 87.9099 36.3086C87.9066 36.3997 87.9256 36.4793 87.9671 36.5472C88.0102 36.6152 88.069 36.674 88.1436 36.7237C88.2181 36.7718 88.3043 36.814 88.4021 36.8505C88.4999 36.8853 88.6043 36.9151 88.7153 36.94L89.1727 37.0494C89.3947 37.0991 89.5986 37.1654 89.7842 37.2482C89.9698 37.3311 90.1305 37.433 90.2664 37.554C90.4023 37.675 90.5075 37.8175 90.5821 37.9815C90.6584 38.1456 90.6973 38.3337 90.699 38.5458C90.6973 38.8574 90.6178 39.1275 90.4603 39.3562C90.3045 39.5832 90.0792 39.7597 89.7842 39.8857C89.4909 40.0099 89.137 40.0721 88.7227 40.0721C88.3118 40.0721 87.9538 40.0091 87.6489 39.8832C87.3456 39.7572 87.1086 39.5708 86.9379 39.3239C86.7689 39.0753 86.6802 38.7679 86.672 38.4016H87.7135C87.7251 38.5723 87.774 38.7148 87.8602 38.8292C87.948 38.9419 88.0648 39.0272 88.2107 39.0852C88.3582 39.1416 88.5247 39.1697 88.7103 39.1697C88.8926 39.1697 89.0509 39.1432 89.1851 39.0902C89.321 39.0372 89.4262 38.9634 89.5008 38.869C89.5754 38.7745 89.6127 38.666 89.6127 38.5433C89.6127 38.429 89.5787 38.3329 89.5107 38.255C89.4445 38.1771 89.3467 38.1108 89.2174 38.0561C89.0898 38.0014 88.9332 37.9517 88.7476 37.907L88.1933 37.7678C87.7641 37.6634 87.4252 37.5001 87.1766 37.2781C86.928 37.056 86.8045 36.7569 86.8062 36.3807C86.8045 36.0724 86.8866 35.8031 87.0523 35.5728C87.2197 35.3424 87.4492 35.1626 87.7409 35.0334C88.0325 34.9041 88.364 34.8395 88.7352 34.8395C89.113 34.8395 89.4428 34.9041 89.7245 35.0334C90.0079 35.1626 90.2283 35.3424 90.3857 35.5728C90.5432 35.8031 90.6244 36.07 90.6294 36.3732H89.5977Z" fill="#E11D48"/>
<path d="M102.413 40V39.2244L104.225 37.5465C104.379 37.3974 104.508 37.2631 104.613 37.1438C104.719 37.0245 104.799 36.9077 104.854 36.7933C104.908 36.6773 104.936 36.5522 104.936 36.418C104.936 36.2688 104.902 36.1404 104.834 36.0327C104.766 35.9233 104.673 35.8396 104.555 35.7816C104.438 35.7219 104.304 35.6921 104.155 35.6921C103.999 35.6921 103.864 35.7236 103.748 35.7866C103.632 35.8496 103.542 35.9399 103.479 36.0575C103.416 36.1752 103.385 36.3152 103.385 36.4776H102.363C102.363 36.1445 102.438 35.8554 102.589 35.6101C102.74 35.3648 102.951 35.1751 103.223 35.0408C103.495 34.9066 103.808 34.8395 104.163 34.8395C104.527 34.8395 104.845 34.9041 105.115 35.0334C105.386 35.161 105.598 35.3383 105.749 35.5653C105.899 35.7924 105.975 36.0526 105.975 36.3459C105.975 36.5381 105.937 36.7279 105.86 36.9151C105.786 37.1024 105.652 37.3104 105.46 37.5391C105.268 37.7661 104.997 38.0387 104.647 38.3569L103.904 39.0852V39.12H106.042V40H102.413ZM108.818 40.1119C108.39 40.1102 108.022 40.005 107.714 39.7962C107.408 39.5874 107.171 39.2849 107.006 38.8888C106.842 38.4928 106.761 38.0163 106.762 37.4595C106.762 36.9044 106.844 36.4312 107.008 36.0401C107.174 35.649 107.41 35.3516 107.717 35.1477C108.025 34.9422 108.392 34.8395 108.818 34.8395C109.244 34.8395 109.61 34.9422 109.917 35.1477C110.225 35.3532 110.462 35.6515 110.628 36.0426C110.793 36.4321 110.875 36.9044 110.874 37.4595C110.874 38.018 110.791 38.4953 110.625 38.8913C110.461 39.2874 110.226 39.5898 109.919 39.7987C109.613 40.0075 109.245 40.1119 108.818 40.1119ZM108.818 39.2195C109.11 39.2195 109.342 39.0728 109.516 38.7795C109.69 38.4862 109.777 38.0462 109.775 37.4595C109.775 37.0734 109.735 36.7519 109.656 36.495C109.578 36.2382 109.467 36.0451 109.323 35.9158C109.18 35.7866 109.012 35.7219 108.818 35.7219C108.528 35.7219 108.296 35.867 108.122 36.157C107.948 36.447 107.86 36.8812 107.858 37.4595C107.858 37.8506 107.897 38.1771 107.975 38.4389C108.055 38.6991 108.167 38.8946 108.311 39.0256C108.455 39.1548 108.624 39.2195 108.818 39.2195ZM112.065 40.0646C111.901 40.0646 111.76 40.0066 111.642 39.8906C111.526 39.773 111.468 39.6321 111.468 39.468C111.468 39.3056 111.526 39.1664 111.642 39.0504C111.76 38.9344 111.901 38.8764 112.065 38.8764C112.224 38.8764 112.363 38.9344 112.483 39.0504C112.602 39.1664 112.662 39.3056 112.662 39.468C112.662 39.5774 112.633 39.6777 112.577 39.7688C112.522 39.8583 112.45 39.9304 112.361 39.9851C112.271 40.0381 112.173 40.0646 112.065 40.0646ZM115.267 34.8395C115.529 34.8395 115.781 34.8834 116.023 34.9712C116.267 35.0591 116.484 35.1991 116.674 35.3913C116.867 35.5836 117.018 35.8388 117.129 36.157C117.242 36.4735 117.299 36.8621 117.301 37.3228C117.301 37.7553 117.252 38.1415 117.154 38.4812C117.058 38.8192 116.92 39.1068 116.739 39.3438C116.558 39.5807 116.34 39.7614 116.085 39.8857C115.83 40.0083 115.545 40.0696 115.23 40.0696C114.89 40.0696 114.59 40.0041 114.33 39.8732C114.07 39.7406 113.86 39.5608 113.701 39.3338C113.544 39.1051 113.449 38.8482 113.415 38.5632H114.477C114.518 38.7488 114.605 38.893 114.738 38.9957C114.87 39.0968 115.034 39.1474 115.23 39.1474C115.561 39.1474 115.813 39.0032 115.986 38.7148C116.158 38.4248 116.245 38.0279 116.247 37.5241H116.212C116.136 37.6733 116.033 37.8017 115.904 37.9094C115.774 38.0155 115.626 38.0975 115.459 38.1555C115.293 38.2135 115.117 38.2425 114.929 38.2425C114.629 38.2425 114.362 38.1721 114.126 38.0312C113.891 37.8904 113.705 37.6965 113.57 37.4496C113.434 37.2027 113.366 36.9209 113.366 36.6044C113.364 36.263 113.443 35.9589 113.602 35.6921C113.761 35.4253 113.983 35.2165 114.268 35.0657C114.555 34.9132 114.888 34.8378 115.267 34.8395ZM115.275 35.6847C115.107 35.6847 114.958 35.7244 114.827 35.804C114.698 35.8835 114.595 35.9904 114.519 36.1246C114.445 36.2589 114.408 36.4089 114.41 36.5746C114.41 36.742 114.446 36.8928 114.519 37.027C114.594 37.1596 114.695 37.2656 114.822 37.3452C114.952 37.4231 115.099 37.462 115.265 37.462C115.389 37.462 115.504 37.4388 115.61 37.3924C115.716 37.346 115.808 37.2822 115.886 37.201C115.966 37.1181 116.028 37.0228 116.073 36.9151C116.117 36.8074 116.14 36.6931 116.14 36.5721C116.138 36.4113 116.1 36.2638 116.025 36.1296C115.951 35.9954 115.848 35.8877 115.717 35.8065C115.586 35.7253 115.439 35.6847 115.275 35.6847ZM119.888 34.8395C120.15 34.8395 120.402 34.8834 120.644 34.9712C120.888 35.0591 121.105 35.1991 121.295 35.3913C121.488 35.5836 121.639 35.8388 121.75 36.157C121.863 36.4735 121.92 36.8621 121.922 37.3228C121.922 37.7553 121.873 38.1415 121.775 38.4812C121.679 38.8192 121.541 39.1068 121.36 39.3438C121.179 39.5807 120.961 39.7614 120.706 39.8857C120.451 40.0083 120.166 40.0696 119.851 40.0696C119.511 40.0696 119.211 40.0041 118.951 39.8732C118.691 39.7406 118.481 39.5608 118.322 39.3338C118.165 39.1051 118.07 38.8482 118.036 38.5632H119.098C119.139 38.7488 119.226 38.893 119.359 38.9957C119.492 39.0968 119.656 39.1474 119.851 39.1474C120.183 39.1474 120.434 39.0032 120.607 38.7148C120.779 38.4248 120.866 38.0279 120.868 37.5241H120.833C120.757 37.6733 120.654 37.8017 120.525 37.9094C120.396 38.0155 120.247 38.0975 120.08 38.1555C119.914 38.2135 119.738 38.2425 119.55 38.2425C119.25 38.2425 118.983 38.1721 118.747 38.0312C118.512 37.8904 118.326 37.6965 118.191 37.4496C118.055 37.2027 117.987 36.9209 117.987 36.6044C117.985 36.263 118.064 35.9589 118.223 35.6921C118.382 35.4253 118.604 35.2165 118.889 35.0657C119.176 34.9132 119.509 34.8378 119.888 34.8395ZM119.896 35.6847C119.728 35.6847 119.579 35.7244 119.448 35.804C119.319 35.8835 119.216 35.9904 119.14 36.1246C119.066 36.2589 119.029 36.4089 119.031 36.5746C119.031 36.742 119.067 36.8928 119.14 37.027C119.215 37.1596 119.316 37.2656 119.443 37.3452C119.573 37.4231 119.72 37.462 119.886 37.462C120.01 37.462 120.125 37.4388 120.231 37.3924C120.338 37.346 120.429 37.2822 120.507 37.201C120.587 37.1181 120.649 37.0228 120.694 36.9151C120.739 36.8074 120.761 36.6931 120.761 36.5721C120.759 36.4113 120.721 36.2638 120.647 36.1296C120.572 35.9954 120.469 35.8877 120.338 35.8065C120.207 35.7253 120.06 35.6847 119.896 35.6847ZM124.378 40.6364V34.2727H124.785V40.6364H124.378ZM125.459 36.3732C125.439 36.1727 125.354 36.0169 125.203 35.9059C125.052 35.7949 124.848 35.7393 124.589 35.7393C124.413 35.7393 124.265 35.7642 124.144 35.8139C124.023 35.862 123.93 35.9291 123.866 36.0153C123.803 36.1014 123.771 36.1992 123.771 36.3086C123.768 36.3997 123.787 36.4793 123.828 36.5472C123.871 36.6152 123.93 36.674 124.005 36.7237C124.079 36.7718 124.166 36.814 124.263 36.8505C124.361 36.8853 124.466 36.9151 124.577 36.94L125.034 37.0494C125.256 37.0991 125.46 37.1654 125.646 37.2482C125.831 37.3311 125.992 37.433 126.128 37.554C126.264 37.675 126.369 37.8175 126.443 37.9815C126.52 38.1456 126.559 38.3337 126.56 38.5458C126.559 38.8574 126.479 39.1275 126.322 39.3562C126.166 39.5832 125.94 39.7597 125.646 39.8857C125.352 40.0099 124.998 40.0721 124.584 40.0721C124.173 40.0721 123.815 40.0091 123.51 39.8832C123.207 39.7572 122.97 39.5708 122.799 39.3239C122.63 39.0753 122.542 38.7679 122.533 38.4016H123.575C123.586 38.5723 123.635 38.7148 123.722 38.8292C123.809 38.9419 123.926 39.0272 124.072 39.0852C124.219 39.1416 124.386 39.1697 124.572 39.1697C124.754 39.1697 124.912 39.1432 125.046 39.0902C125.182 39.0372 125.288 38.9634 125.362 38.869C125.437 38.7745 125.474 38.666 125.474 38.5433C125.474 38.429 125.44 38.3329 125.372 38.255C125.306 38.1771 125.208 38.1108 125.079 38.0561C124.951 38.0014 124.795 37.9517 124.609 37.907L124.055 37.7678C123.625 37.6634 123.286 37.5001 123.038 37.2781C122.789 37.056 122.666 36.7569 122.668 36.3807C122.666 36.0724 122.748 35.8031 122.914 35.5728C123.081 35.3424 123.311 35.1626 123.602 35.0334C123.894 34.9041 124.225 34.8395 124.597 34.8395C124.974 34.8395 125.304 34.9041 125.586 35.0334C125.869 35.1626 126.09 35.3424 126.247 35.5728C126.405 35.8031 126.486 36.07 126.491 36.3732H125.459Z" fill="#64748B"/>
<rect x="33.5" y="48" width="17" height="5" rx="2.5" stroke="#64748B"/>
<path d="M39.2642 51.5V49.3182H40.027C40.179 49.3182 40.3043 49.3445 40.4031 49.397C40.5018 49.4489 40.5753 49.5188 40.6236 49.6069C40.6719 49.6942 40.696 49.7912 40.696 49.8977C40.696 49.9915 40.6793 50.0689 40.646 50.13C40.6133 50.1911 40.57 50.2393 40.516 50.2749C40.4627 50.3104 40.4048 50.3366 40.3423 50.3537V50.375C40.4091 50.3793 40.4762 50.4027 40.5437 50.4453C40.6112 50.4879 40.6676 50.549 40.7131 50.6286C40.7585 50.7081 40.7812 50.8054 40.7812 50.9205C40.7812 51.0298 40.7564 51.1282 40.7067 51.2156C40.657 51.3029 40.5785 51.3722 40.4712 51.4233C40.364 51.4744 40.2244 51.5 40.0526 51.5H39.2642ZM39.5284 51.2656H40.0526C40.2251 51.2656 40.3477 51.2322 40.4201 51.1655C40.4933 51.098 40.5298 51.0163 40.5298 50.9205C40.5298 50.8466 40.511 50.7784 40.4734 50.7159C40.4357 50.6527 40.3821 50.6023 40.3125 50.5646C40.2429 50.5263 40.1605 50.5071 40.0653 50.5071H39.5284V51.2656ZM39.5284 50.277H40.0185C40.098 50.277 40.1697 50.2614 40.2337 50.2301C40.2983 50.1989 40.3494 50.1548 40.3871 50.098C40.4254 50.0412 40.4446 49.9744 40.4446 49.8977C40.4446 49.8018 40.4112 49.7205 40.3445 49.6538C40.2777 49.5863 40.1719 49.5526 40.027 49.5526H39.5284V50.277ZM42.2125 50.831V49.8636H42.464V51.5H42.2125V51.223H42.1955C42.1571 51.3061 42.0975 51.3768 42.0165 51.435C41.9355 51.4925 41.8333 51.5213 41.7097 51.5213C41.6074 51.5213 41.5165 51.4989 41.437 51.4542C41.3574 51.4087 41.2949 51.3406 41.2495 51.2496C41.204 51.158 41.1813 51.0426 41.1813 50.9034V49.8636H41.4327V50.8864C41.4327 51.0057 41.4661 51.1009 41.5328 51.1719C41.6003 51.2429 41.6863 51.2784 41.7907 51.2784C41.8532 51.2784 41.9167 51.2624 41.9814 51.2305C42.0467 51.1985 42.1014 51.1495 42.1454 51.0835C42.1902 51.0174 42.2125 50.9332 42.2125 50.831ZM43.0864 52.1136C43.0438 52.1136 43.0058 52.1101 42.9724 52.103C42.939 52.0966 42.9159 52.0902 42.9031 52.0838L42.9671 51.8622C43.0281 51.8778 43.0821 51.8835 43.129 51.8793C43.1759 51.875 43.2174 51.854 43.2536 51.8164C43.2906 51.7795 43.3243 51.7195 43.3548 51.6364L43.4017 51.5085L42.7966 49.8636H43.0693L43.521 51.1676H43.5381L43.9898 49.8636H44.2625L43.5679 51.7386C43.5367 51.8232 43.498 51.8931 43.4518 51.9485C43.4056 52.0046 43.352 52.0462 43.2909 52.0732C43.2306 52.1001 43.1624 52.1136 43.0864 52.1136Z" fill="#64748B"/>
<rect x="67.5" y="48" width="17" height="5" rx="2.5" stroke="#E11D48"/>
<path d="M73.2642 51.5V49.3182H74.027C74.179 49.3182 74.3043 49.3445 74.4031 49.397C74.5018 49.4489 74.5753 49.5188 74.6236 49.6069C74.6719 49.6942 74.696 49.7912 74.696 49.8977C74.696 49.9915 74.6793 50.0689 74.646 50.13C74.6133 50.1911 74.57 50.2393 74.516 50.2749C74.4627 50.3104 74.4048 50.3366 74.3423 50.3537V50.375C74.4091 50.3793 74.4762 50.4027 74.5437 50.4453C74.6112 50.4879 74.6676 50.549 74.7131 50.6286C74.7585 50.7081 74.7812 50.8054 74.7812 50.9205C74.7812 51.0298 74.7564 51.1282 74.7067 51.2156C74.657 51.3029 74.5785 51.3722 74.4712 51.4233C74.364 51.4744 74.2244 51.5 74.0526 51.5H73.2642ZM73.5284 51.2656H74.0526C74.2251 51.2656 74.3477 51.2322 74.4201 51.1655C74.4933 51.098 74.5298 51.0163 74.5298 50.9205C74.5298 50.8466 74.511 50.7784 74.4734 50.7159C74.4357 50.6527 74.3821 50.6023 74.3125 50.5646C74.2429 50.5263 74.1605 50.5071 74.0653 50.5071H73.5284V51.2656ZM73.5284 50.277H74.0185C74.098 50.277 74.1697 50.2614 74.2337 50.2301C74.2983 50.1989 74.3494 50.1548 74.3871 50.098C74.4254 50.0412 74.4446 49.9744 74.4446 49.8977C74.4446 49.8018 74.4112 49.7205 74.3445 49.6538C74.2777 49.5863 74.1719 49.5526 74.027 49.5526H73.5284V50.277ZM76.2125 50.831V49.8636H76.464V51.5H76.2125V51.223H76.1955C76.1571 51.3061 76.0975 51.3768 76.0165 51.435C75.9355 51.4925 75.8333 51.5213 75.7097 51.5213C75.6074 51.5213 75.5165 51.4989 75.437 51.4542C75.3574 51.4087 75.2949 51.3406 75.2495 51.2496C75.204 51.158 75.1813 51.0426 75.1813 50.9034V49.8636H75.4327V50.8864C75.4327 51.0057 75.4661 51.1009 75.5328 51.1719C75.6003 51.2429 75.6863 51.2784 75.7907 51.2784C75.8532 51.2784 75.9167 51.2624 75.9814 51.2305C76.0467 51.1985 76.1014 51.1495 76.1454 51.0835C76.1902 51.0174 76.2125 50.9332 76.2125 50.831ZM77.0864 52.1136C77.0438 52.1136 77.0058 52.1101 76.9724 52.103C76.939 52.0966 76.9159 52.0902 76.9031 52.0838L76.9671 51.8622C77.0281 51.8778 77.0821 51.8835 77.129 51.8793C77.1759 51.875 77.2174 51.854 77.2536 51.8164C77.2906 51.7795 77.3243 51.7195 77.3548 51.6364L77.4017 51.5085L76.7966 49.8636H77.0693L77.521 51.1676H77.5381L77.9898 49.8636H78.2625L77.5679 51.7386C77.5367 51.8232 77.498 51.8931 77.4518 51.9485C77.4056 52.0046 77.352 52.0462 77.2909 52.0732C77.2306 52.1001 77.1624 52.1136 77.0864 52.1136Z" fill="#E11D48"/>
<rect x="102.5" y="48" width="17" height="5" rx="2.5" stroke="#64748B"/>
<path d="M108.264 51.5V49.3182H109.027C109.179 49.3182 109.304 49.3445 109.403 49.397C109.502 49.4489 109.575 49.5188 109.624 49.6069C109.672 49.6942 109.696 49.7912 109.696 49.8977C109.696 49.9915 109.679 50.0689 109.646 50.13C109.613 50.1911 109.57 50.2393 109.516 50.2749C109.463 50.3104 109.405 50.3366 109.342 50.3537V50.375C109.409 50.3793 109.476 50.4027 109.544 50.4453C109.611 50.4879 109.668 50.549 109.713 50.6286C109.759 50.7081 109.781 50.8054 109.781 50.9205C109.781 51.0298 109.756 51.1282 109.707 51.2156C109.657 51.3029 109.578 51.3722 109.471 51.4233C109.364 51.4744 109.224 51.5 109.053 51.5H108.264ZM108.528 51.2656H109.053C109.225 51.2656 109.348 51.2322 109.42 51.1655C109.493 51.098 109.53 51.0163 109.53 50.9205C109.53 50.8466 109.511 50.7784 109.473 50.7159C109.436 50.6527 109.382 50.6023 109.312 50.5646C109.243 50.5263 109.161 50.5071 109.065 50.5071H108.528V51.2656ZM108.528 50.277H109.018C109.098 50.277 109.17 50.2614 109.234 50.2301C109.298 50.1989 109.349 50.1548 109.387 50.098C109.425 50.0412 109.445 49.9744 109.445 49.8977C109.445 49.8018 109.411 49.7205 109.344 49.6538C109.278 49.5863 109.172 49.5526 109.027 49.5526H108.528V50.277ZM111.213 50.831V49.8636H111.464V51.5H111.213V51.223H111.195C111.157 51.3061 111.097 51.3768 111.017 51.435C110.936 51.4925 110.833 51.5213 110.71 51.5213C110.607 51.5213 110.517 51.4989 110.437 51.4542C110.357 51.4087 110.295 51.3406 110.249 51.2496C110.204 51.158 110.181 51.0426 110.181 50.9034V49.8636H110.433V50.8864C110.433 51.0057 110.466 51.1009 110.533 51.1719C110.6 51.2429 110.686 51.2784 110.791 51.2784C110.853 51.2784 110.917 51.2624 110.981 51.2305C111.047 51.1985 111.101 51.1495 111.145 51.0835C111.19 51.0174 111.213 50.9332 111.213 50.831ZM112.086 52.1136C112.044 52.1136 112.006 52.1101 111.972 52.103C111.939 52.0966 111.916 52.0902 111.903 52.0838L111.967 51.8622C112.028 51.8778 112.082 51.8835 112.129 51.8793C112.176 51.875 112.217 51.854 112.254 51.8164C112.291 51.7795 112.324 51.7195 112.355 51.6364L112.402 51.5085L111.797 49.8636H112.069L112.521 51.1676H112.538L112.99 49.8636H113.263L112.568 51.7386C112.537 51.8232 112.498 51.8931 112.452 51.9485C112.406 52.0046 112.352 52.0462 112.291 52.0732C112.231 52.1001 112.162 52.1136 112.086 52.1136Z" fill="#64748B"/>
<path d="M33 44H51" stroke="#64748B" stroke-linecap="round"/>
<path d="M67 44H85" stroke="#64748B" stroke-linecap="round"/>
<path d="M102 44H120" stroke="#64748B" stroke-linecap="round"/>
<path d="M33 61H57" stroke="#64748B" stroke-linecap="round"/>
<path d="M33 65H57" stroke="#64748B" stroke-linecap="round"/>
<path d="M33 69H57" stroke="#64748B" stroke-linecap="round"/>
<path d="M33 73H57" stroke="#64748B" stroke-linecap="round"/>
<path d="M67 61H91" stroke="#64748B" stroke-linecap="round"/>
<path d="M67 65H91" stroke="#64748B" stroke-linecap="round"/>
<path d="M67 69H91" stroke="#64748B" stroke-linecap="round"/>
<path d="M67 73H91" stroke="#64748B" stroke-linecap="round"/>
<path d="M102 61H126" stroke="#64748B" stroke-linecap="round"/>
<path d="M102 65H126" stroke="#64748B" stroke-linecap="round"/>
<path d="M102 69H126" stroke="#64748B" stroke-linecap="round"/>
<path d="M102 73H126" stroke="#64748B" stroke-linecap="round"/>
</svg>
