<svg width="160" height="100" viewBox="0 0 160 100" fill="none" xmlns="http://www.w3.org/2000/svg">
<rect x="0.05" y="0.05" width="159.9" height="99.9" rx="4.95" stroke="#94A3B8" stroke-width="0.1"/>
<rect x="19.5" y="37.5" width="34" height="34" rx="3.5" stroke="#64748B"/>
<rect x="19.5" y="74.5" width="9" height="9" rx="2.5" stroke="#64748B"/>
<rect x="31.5" y="74.5" width="9" height="9" rx="2.5" stroke="#64748B"/>
<rect x="43.5" y="74.5" width="9" height="9" rx="2.5" stroke="#64748B"/>
<rect x="66.5" y="78.5" width="5" height="5" rx="0.5" stroke="#64748B"/>
<rect x="64.5" y="75.5" width="42" height="15" rx="2.5" stroke="#64748B"/>
<path d="M74 81H86" stroke="#64748B" stroke-linecap="round"/>
<path d="M74 84H81" stroke="#64748B" stroke-linecap="round"/>
<path d="M95 87H102" stroke="#64748B" stroke-linecap="round"/>
<path d="M64 37H89" stroke="#64748B" stroke-linecap="round"/>
<path d="M64 40H76" stroke="#64748B" stroke-linecap="round"/>
<path d="M64 46H106" stroke="#64748B" stroke-linecap="round"/>
<path d="M64 49H97" stroke="#64748B" stroke-linecap="round"/>
<path d="M64 52H106" stroke="#64748B" stroke-linecap="round"/>
<rect x="64.5" y="57.5" width="28" height="9" rx="3.5" stroke="#E11D48"/>
<path d="M68.4403 64V60.3636H69.7116C69.965 60.3636 70.1739 60.4074 70.3384 60.495C70.503 60.5814 70.6255 60.698 70.706 60.8448C70.7865 60.9904 70.8267 61.152 70.8267 61.3295C70.8267 61.4858 70.7989 61.6148 70.7433 61.7166C70.6888 61.8184 70.6166 61.8989 70.5266 61.9581C70.4379 62.0173 70.3414 62.0611 70.2372 62.0895V62.125C70.3485 62.1321 70.4603 62.1712 70.5728 62.2422C70.6853 62.3132 70.7794 62.415 70.8551 62.5476C70.9309 62.6802 70.9688 62.8423 70.9688 63.0341C70.9688 63.2164 70.9273 63.3803 70.8445 63.5259C70.7616 63.6715 70.6308 63.7869 70.4521 63.8722C70.2733 63.9574 70.0407 64 69.7543 64H68.4403ZM68.8807 63.6094H69.7543C70.0419 63.6094 70.2461 63.5537 70.3668 63.4425C70.4888 63.33 70.5497 63.1939 70.5497 63.0341C70.5497 62.911 70.5183 62.7973 70.4556 62.6932C70.3929 62.5878 70.3035 62.5038 70.1875 62.4411C70.0715 62.3771 69.9342 62.3452 69.7756 62.3452H68.8807V63.6094ZM68.8807 61.9616H69.6974C69.83 61.9616 69.9496 61.9356 70.0561 61.8835C70.1638 61.8314 70.2491 61.758 70.3118 61.6634C70.3757 61.5687 70.4077 61.4574 70.4077 61.3295C70.4077 61.1697 70.352 61.0342 70.2408 60.9229C70.1295 60.8105 69.9531 60.7543 69.7116 60.7543H68.8807V61.9616ZM73.3542 62.8849V61.2727H73.7733V64H73.3542V63.5384H73.3258C73.2619 63.6768 73.1625 63.7946 73.0275 63.8917C72.8926 63.9876 72.7221 64.0355 72.5162 64.0355C72.3457 64.0355 72.1942 63.9982 72.0616 63.9237C71.929 63.8479 71.8249 63.7343 71.7491 63.5827C71.6734 63.43 71.6355 63.2377 71.6355 63.0057V61.2727H72.0545V62.9773C72.0545 63.1761 72.1101 63.3348 72.2214 63.4531C72.3339 63.5715 72.4771 63.6307 72.6511 63.6307C72.7553 63.6307 72.8612 63.604 72.9689 63.5508C73.0778 63.4975 73.169 63.4158 73.2424 63.3058C73.3169 63.1957 73.3542 63.0554 73.3542 62.8849ZM74.8106 65.0227C74.7396 65.0227 74.6763 65.0168 74.6206 65.005C74.565 64.9943 74.5265 64.9837 74.5052 64.973L74.6118 64.6037C74.7136 64.6297 74.8035 64.6392 74.8817 64.6321C74.9598 64.625 75.029 64.5901 75.0894 64.5273C75.151 64.4658 75.2072 64.3658 75.2581 64.2273L75.3362 64.0142L74.3277 61.2727H74.7822L75.5351 63.446H75.5635L76.3163 61.2727H76.7709L75.6132 64.3977C75.5611 64.5386 75.4966 64.6552 75.4197 64.7475C75.3427 64.841 75.2533 64.9103 75.1515 64.9553C75.0509 65.0002 74.9373 65.0227 74.8106 65.0227ZM79.1492 62.3594V64H78.7302V61.2727H79.135V61.6989H79.1705C79.2345 61.5604 79.3315 61.4491 79.4617 61.3651C79.5919 61.2798 79.76 61.2372 79.966 61.2372C80.1507 61.2372 80.3122 61.2751 80.4507 61.3509C80.5892 61.4254 80.6969 61.5391 80.7739 61.6918C80.8508 61.8433 80.8893 62.035 80.8893 62.267V64H80.4703V62.2955C80.4703 62.0812 80.4146 61.9143 80.3034 61.7947C80.1921 61.674 80.0394 61.6136 79.8453 61.6136C79.7115 61.6136 79.5919 61.6426 79.4866 61.7006C79.3824 61.7586 79.3002 61.8433 79.2398 61.9545C79.1794 62.0658 79.1492 62.2008 79.1492 62.3594ZM82.763 64.0568C82.5167 64.0568 82.3007 63.9982 82.1149 63.881C81.9302 63.7638 81.7858 63.5999 81.6816 63.3892C81.5787 63.1785 81.5272 62.9323 81.5272 62.6506C81.5272 62.3665 81.5787 62.1185 81.6816 61.9066C81.7858 61.6947 81.9302 61.5302 82.1149 61.413C82.3007 61.2958 82.5167 61.2372 82.763 61.2372C83.0092 61.2372 83.2246 61.2958 83.4093 61.413C83.5951 61.5302 83.7395 61.6947 83.8425 61.9066C83.9467 62.1185 83.9988 62.3665 83.9988 62.6506C83.9988 62.9323 83.9467 63.1785 83.8425 63.3892C83.7395 63.5999 83.5951 63.7638 83.4093 63.881C83.2246 63.9982 83.0092 64.0568 82.763 64.0568ZM82.763 63.6804C82.95 63.6804 83.1039 63.6325 83.2246 63.5366C83.3453 63.4407 83.4347 63.3146 83.4927 63.1584C83.5507 63.0021 83.5797 62.8329 83.5797 62.6506C83.5797 62.4683 83.5507 62.2984 83.4927 62.141C83.4347 61.9835 83.3453 61.8563 83.2246 61.7592C83.1039 61.6622 82.95 61.6136 82.763 61.6136C82.5759 61.6136 82.4221 61.6622 82.3013 61.7592C82.1806 61.8563 82.0912 61.9835 82.0332 62.141C81.9752 62.2984 81.9462 62.4683 81.9462 62.6506C81.9462 62.8329 81.9752 63.0021 82.0332 63.1584C82.0912 63.3146 82.1806 63.4407 82.3013 63.5366C82.4221 63.6325 82.5759 63.6804 82.763 63.6804ZM85.1635 64L84.3326 61.2727H84.7729L85.3624 63.3608H85.3908L85.9732 61.2727H86.4206L86.9959 63.3537H87.0243L87.6138 61.2727H88.0542L87.2232 64H86.8113L86.2147 61.9048H86.1721L85.5755 64H85.1635Z" fill="#E11D48"/>
<path d="M38.8807 26V18.7273H41.3381C41.9086 18.7273 42.375 18.8303 42.7372 19.0362C43.1018 19.2398 43.3717 19.5156 43.5469 19.8636C43.7221 20.2116 43.8097 20.5999 43.8097 21.0284C43.8097 21.4569 43.7221 21.8464 43.5469 22.1967C43.3741 22.5471 43.1065 22.8265 42.7443 23.0348C42.3821 23.2408 41.9181 23.3438 41.3523 23.3438H39.5909V22.5625H41.3239C41.7145 22.5625 42.0282 22.495 42.2649 22.3601C42.5017 22.2251 42.6733 22.0429 42.7798 21.8132C42.8887 21.5812 42.9432 21.3196 42.9432 21.0284C42.9432 20.7372 42.8887 20.4768 42.7798 20.2472C42.6733 20.0175 42.5005 19.8376 42.2614 19.7074C42.0223 19.5748 41.705 19.5085 41.3097 19.5085H39.7614V26H38.8807ZM45.1147 26V20.5455H45.9244V21.3693H45.9812C46.0806 21.0994 46.2605 20.8804 46.521 20.7124C46.7814 20.5443 47.0749 20.4602 47.4016 20.4602C47.4632 20.4602 47.5401 20.4614 47.6325 20.4638C47.7248 20.4661 47.7946 20.4697 47.842 20.4744V21.3267C47.8136 21.3196 47.7485 21.3089 47.6467 21.2947C47.5472 21.2782 47.4419 21.2699 47.3306 21.2699C47.0655 21.2699 46.8287 21.3255 46.6204 21.4368C46.4144 21.5457 46.2511 21.6972 46.1303 21.8913C46.012 22.0831 45.9528 22.3021 45.9528 22.5483V26H45.1147ZM50.8853 26.1136C50.3929 26.1136 49.9608 25.9964 49.5891 25.7621C49.2198 25.5277 48.931 25.1998 48.7227 24.7784C48.5167 24.357 48.4137 23.8646 48.4137 23.3011C48.4137 22.733 48.5167 22.237 48.7227 21.8132C48.931 21.3894 49.2198 21.0604 49.5891 20.826C49.9608 20.5916 50.3929 20.4744 50.8853 20.4744C51.3777 20.4744 51.8086 20.5916 52.1779 20.826C52.5496 21.0604 52.8384 21.3894 53.0444 21.8132C53.2527 22.237 53.3569 22.733 53.3569 23.3011C53.3569 23.8646 53.2527 24.357 53.0444 24.7784C52.8384 25.1998 52.5496 25.5277 52.1779 25.7621C51.8086 25.9964 51.3777 26.1136 50.8853 26.1136ZM50.8853 25.3608C51.2594 25.3608 51.5671 25.2649 51.8086 25.0732C52.0501 24.8814 52.2288 24.6293 52.3448 24.3168C52.4608 24.0043 52.5188 23.6657 52.5188 23.3011C52.5188 22.9366 52.4608 22.5968 52.3448 22.282C52.2288 21.9671 52.0501 21.7126 51.8086 21.5185C51.5671 21.3243 51.2594 21.2273 50.8853 21.2273C50.5112 21.2273 50.2035 21.3243 49.962 21.5185C49.7205 21.7126 49.5418 21.9671 49.4258 22.282C49.3098 22.5968 49.2518 22.9366 49.2518 23.3011C49.2518 23.6657 49.3098 24.0043 49.4258 24.3168C49.5418 24.6293 49.7205 24.8814 49.962 25.0732C50.2035 25.2649 50.5112 25.3608 50.8853 25.3608ZM56.6958 26.1136C56.2413 26.1136 55.84 25.9988 55.492 25.7692C55.144 25.5372 54.8717 25.2105 54.6752 24.7891C54.4788 24.3653 54.3805 23.8646 54.3805 23.2869C54.3805 22.714 54.4788 22.2169 54.6752 21.7955C54.8717 21.3741 55.1452 21.0485 55.4956 20.8189C55.8459 20.5893 56.2508 20.4744 56.71 20.4744C57.0652 20.4744 57.3457 20.5336 57.5517 20.652C57.76 20.768 57.9186 20.9006 58.0275 21.0497C58.1388 21.1965 58.2252 21.3172 58.2868 21.4119H58.3578V18.7273H59.1958V26H58.3862V25.1619H58.2868C58.2252 25.2614 58.1376 25.3868 58.024 25.5384C57.9103 25.6875 57.7482 25.8213 57.5375 25.9396C57.3268 26.0556 57.0462 26.1136 56.6958 26.1136ZM56.8095 25.3608C57.1457 25.3608 57.4297 25.2732 57.6618 25.098C57.8938 24.9205 58.0701 24.6754 58.1909 24.3629C58.3116 24.0481 58.372 23.6847 58.372 23.2727C58.372 22.8655 58.3128 22.5092 58.1944 22.2038C58.0761 21.8961 57.9009 21.657 57.6689 21.4865C57.4368 21.3137 57.1504 21.2273 56.8095 21.2273C56.4544 21.2273 56.1584 21.3184 55.9217 21.5007C55.6873 21.6806 55.5109 21.9257 55.3926 22.2358C55.2766 22.5436 55.2186 22.8892 55.2186 23.2727C55.2186 23.661 55.2778 24.0137 55.3961 24.331C55.5169 24.6458 55.6944 24.8968 55.9288 25.0838C56.1655 25.2685 56.4591 25.3608 56.8095 25.3608ZM64.2846 23.7699V20.5455H65.1227V26H64.2846V25.0767H64.2278C64.1 25.3537 63.9011 25.5893 63.6312 25.7834C63.3613 25.9751 63.0204 26.071 62.6085 26.071C62.2676 26.071 61.9645 25.9964 61.6994 25.8473C61.4342 25.6958 61.2259 25.4685 61.0744 25.1655C60.9229 24.8601 60.8471 24.4754 60.8471 24.0114V20.5455H61.6852V23.9545C61.6852 24.3523 61.7965 24.6695 62.019 24.9062C62.2439 25.143 62.5304 25.2614 62.8784 25.2614C63.0867 25.2614 63.2986 25.2081 63.514 25.1016C63.7318 24.995 63.9141 24.8317 64.0609 24.6115C64.21 24.3913 64.2846 24.1108 64.2846 23.7699ZM68.8736 26.1136C68.3622 26.1136 67.9219 25.9929 67.5526 25.7514C67.1832 25.5099 66.8991 25.1773 66.7003 24.7536C66.5014 24.3298 66.402 23.8456 66.402 23.3011C66.402 22.7472 66.5038 22.2583 66.7074 21.8345C66.9134 21.4084 67.1998 21.0758 67.5668 20.8366C67.9361 20.5952 68.367 20.4744 68.8594 20.4744C69.2429 20.4744 69.5885 20.5455 69.8963 20.6875C70.2041 20.8295 70.4562 21.0284 70.6527 21.2841C70.8492 21.5398 70.9711 21.8381 71.0185 22.179H70.1804C70.1165 21.9304 69.9744 21.7102 69.7543 21.5185C69.5365 21.3243 69.2429 21.2273 68.8736 21.2273C68.5469 21.2273 68.2604 21.3125 68.0142 21.483C67.7704 21.651 67.5798 21.889 67.4425 22.1967C67.3075 22.5021 67.2401 22.8608 67.2401 23.2727C67.2401 23.6941 67.3063 24.0611 67.4389 24.3736C67.5739 24.6861 67.7633 24.9287 68.0071 25.1016C68.2533 25.2744 68.5421 25.3608 68.8736 25.3608C69.0914 25.3608 69.2891 25.3229 69.4666 25.2472C69.6442 25.1714 69.7945 25.0625 69.9176 24.9205C70.0407 24.7784 70.1283 24.608 70.1804 24.4091H71.0185C70.9711 24.7311 70.8539 25.0211 70.6669 25.2791C70.4822 25.5348 70.2372 25.7384 69.9318 25.8899C69.6288 26.0391 69.276 26.1136 68.8736 26.1136ZM74.6158 20.5455V21.2557H71.7891V20.5455H74.6158ZM72.6129 19.2386H73.451V24.4375C73.451 24.6742 73.4853 24.8518 73.554 24.9702C73.625 25.0862 73.715 25.1643 73.8239 25.2045C73.9351 25.2424 74.0523 25.2614 74.1754 25.2614C74.2678 25.2614 74.3435 25.2566 74.4027 25.2472C74.4619 25.2353 74.5092 25.2259 74.5447 25.2188L74.7152 25.9716C74.6584 25.9929 74.5791 26.0142 74.4773 26.0355C74.3755 26.0592 74.2464 26.071 74.0902 26.071C73.8535 26.071 73.6214 26.0201 73.3942 25.9183C73.1693 25.8165 72.9822 25.6615 72.8331 25.4531C72.6863 25.2448 72.6129 24.982 72.6129 24.6648V19.2386ZM80.9048 26.1136C80.4124 26.1136 79.9804 25.9964 79.6087 25.7621C79.2393 25.5277 78.9505 25.1998 78.7422 24.7784C78.5362 24.357 78.4332 23.8646 78.4332 23.3011C78.4332 22.733 78.5362 22.237 78.7422 21.8132C78.9505 21.3894 79.2393 21.0604 79.6087 20.826C79.9804 20.5916 80.4124 20.4744 80.9048 20.4744C81.3973 20.4744 81.8281 20.5916 82.1974 20.826C82.5691 21.0604 82.858 21.3894 83.0639 21.8132C83.2723 22.237 83.3764 22.733 83.3764 23.3011C83.3764 23.8646 83.2723 24.357 83.0639 24.7784C82.858 25.1998 82.5691 25.5277 82.1974 25.7621C81.8281 25.9964 81.3973 26.1136 80.9048 26.1136ZM80.9048 25.3608C81.2789 25.3608 81.5866 25.2649 81.8281 25.0732C82.0696 24.8814 82.2483 24.6293 82.3643 24.3168C82.4804 24.0043 82.5384 23.6657 82.5384 23.3011C82.5384 22.9366 82.4804 22.5968 82.3643 22.282C82.2483 21.9671 82.0696 21.7126 81.8281 21.5185C81.5866 21.3243 81.2789 21.2273 80.9048 21.2273C80.5308 21.2273 80.223 21.3243 79.9815 21.5185C79.7401 21.7126 79.5613 21.9671 79.4453 22.282C79.3293 22.5968 79.2713 22.9366 79.2713 23.3011C79.2713 23.6657 79.3293 24.0043 79.4453 24.3168C79.5613 24.6293 79.7401 24.8814 79.9815 25.0732C80.223 25.2649 80.5308 25.3608 80.9048 25.3608ZM88.9206 20.5455L86.9036 26H86.0513L84.0343 20.5455H84.9434L86.449 24.892H86.5059L88.0115 20.5455H88.9206ZM92.1184 26.1136C91.5929 26.1136 91.1395 25.9976 90.7583 25.7656C90.3796 25.5312 90.0872 25.2045 89.8812 24.7855C89.6776 24.3641 89.5758 23.8741 89.5758 23.3153C89.5758 22.7566 89.6776 22.2642 89.8812 21.8381C90.0872 21.4096 90.3736 21.0758 90.7406 20.8366C91.1099 20.5952 91.5408 20.4744 92.0332 20.4744C92.3173 20.4744 92.5978 20.5218 92.8748 20.6165C93.1518 20.7112 93.4039 20.8651 93.6312 21.0781C93.8585 21.2888 94.0396 21.5682 94.1745 21.9162C94.3095 22.2642 94.377 22.6927 94.377 23.2017V23.5568H90.1724V22.8324H93.5247C93.5247 22.5246 93.4631 22.25 93.34 22.0085C93.2193 21.767 93.0465 21.5765 92.8216 21.4368C92.599 21.2971 92.3362 21.2273 92.0332 21.2273C91.6994 21.2273 91.4106 21.3101 91.1667 21.4759C90.9252 21.6392 90.7394 21.8523 90.6092 22.1151C90.479 22.3778 90.4139 22.6596 90.4139 22.9602V23.4432C90.4139 23.8551 90.4849 24.2043 90.627 24.4908C90.7714 24.7749 90.9714 24.9915 91.2271 25.1406C91.4828 25.2874 91.7799 25.3608 92.1184 25.3608C92.3386 25.3608 92.5375 25.33 92.715 25.2685C92.8949 25.2045 93.05 25.1098 93.1802 24.9844C93.3104 24.8565 93.411 24.6979 93.4821 24.5085L94.2917 24.7358C94.2065 25.0104 94.0633 25.2519 93.862 25.4602C93.6608 25.6662 93.4122 25.8272 93.1163 25.9432C92.8204 26.0568 92.4877 26.1136 92.1184 26.1136ZM95.6518 26V20.5455H96.4615V21.3693H96.5183C96.6177 21.0994 96.7976 20.8804 97.0581 20.7124C97.3185 20.5443 97.612 20.4602 97.9387 20.4602C98.0003 20.4602 98.0772 20.4614 98.1696 20.4638C98.2619 20.4661 98.3317 20.4697 98.3791 20.4744V21.3267C98.3507 21.3196 98.2856 21.3089 98.1838 21.2947C98.0843 21.2782 97.979 21.2699 97.8677 21.2699C97.6026 21.2699 97.3658 21.3255 97.1575 21.4368C96.9515 21.5457 96.7882 21.6972 96.6674 21.8913C96.5491 22.0831 96.4899 22.3021 96.4899 22.5483V26H95.6518ZM103.999 20.5455L101.982 26H101.129L99.1124 20.5455H100.021L101.527 24.892H101.584L103.09 20.5455H103.999ZM105.105 26V20.5455H105.943V26H105.105ZM105.531 19.6364C105.368 19.6364 105.227 19.5807 105.108 19.4695C104.992 19.3582 104.934 19.2244 104.934 19.0682C104.934 18.9119 104.992 18.7782 105.108 18.6669C105.227 18.5556 105.368 18.5 105.531 18.5C105.694 18.5 105.834 18.5556 105.95 18.6669C106.068 18.7782 106.128 18.9119 106.128 19.0682C106.128 19.2244 106.068 19.3582 105.95 19.4695C105.834 19.5807 105.694 19.6364 105.531 19.6364ZM109.765 26.1136C109.239 26.1136 108.786 25.9976 108.405 25.7656C108.026 25.5312 107.734 25.2045 107.528 24.7855C107.324 24.3641 107.222 23.8741 107.222 23.3153C107.222 22.7566 107.324 22.2642 107.528 21.8381C107.734 21.4096 108.02 21.0758 108.387 20.8366C108.756 20.5952 109.187 20.4744 109.68 20.4744C109.964 20.4744 110.244 20.5218 110.521 20.6165C110.798 20.7112 111.05 20.8651 111.278 21.0781C111.505 21.2888 111.686 21.5682 111.821 21.9162C111.956 22.2642 112.023 22.6927 112.023 23.2017V23.5568H107.819V22.8324H111.171C111.171 22.5246 111.11 22.25 110.987 22.0085C110.866 21.767 110.693 21.5765 110.468 21.4368C110.246 21.2971 109.983 21.2273 109.68 21.2273C109.346 21.2273 109.057 21.3101 108.813 21.4759C108.572 21.6392 108.386 21.8523 108.256 22.1151C108.125 22.3778 108.06 22.6596 108.06 22.9602V23.4432C108.06 23.8551 108.131 24.2043 108.273 24.4908C108.418 24.7749 108.618 24.9915 108.874 25.1406C109.129 25.2874 109.426 25.3608 109.765 25.3608C109.985 25.3608 110.184 25.33 110.362 25.2685C110.541 25.2045 110.696 25.1098 110.827 24.9844C110.957 24.8565 111.058 24.6979 111.129 24.5085L111.938 24.7358C111.853 25.0104 111.71 25.2519 111.509 25.4602C111.307 25.6662 111.059 25.8272 110.763 25.9432C110.467 26.0568 110.134 26.1136 109.765 26.1136ZM114.534 26L112.872 20.5455H113.753L114.932 24.7216H114.989L116.153 20.5455H117.048L118.199 24.7074H118.256L119.435 20.5455H120.315L118.653 26H117.83L116.636 21.8097H116.551L115.358 26H114.534Z" fill="#E11D48"/>
</svg>
