<svg width="160" height="100" viewBox="0 0 160 100" fill="none" xmlns="http://www.w3.org/2000/svg">
<rect x="0.05" y="0.05" width="159.9" height="99.9" rx="4.95" stroke="#94A3B8" stroke-width="0.1"/>
<rect x="19.5" y="8.5" width="93" height="32" rx="3.5" stroke="#64748B"/>
<path d="M25.5963 21L23.6902 20.2376L24.4472 18.7236L24.4538 18.7105L24.4596 18.697L25.9216 15.2855L27.7701 13.437L30.4261 12.5517L31.7226 13.416L31.8486 13.5H32H34H36H36.1514L36.2774 13.416L37.5585 12.5619L39.7455 13.4367L42.0631 15.2908L43.0192 18.6374L43.032 18.682L43.0528 18.7236L43.8662 20.3504L42.3333 21.5H40.5H40V22V24.5V24.5136L40.0007 24.5272L40.5 33.6803V34.691L39.795 35.0435L37.3699 36.0135L34 36.4949L30.5962 36.0087L28.7053 35.5359L27.5 34.7324V33.6803L27.9993 24.5272L28 24.5136V24.5V21.5V21H27.5H25.5963Z" stroke="#E11D48"/>
<path d="M47.5 19H55.5" stroke="#64748B" stroke-linecap="round"/>
<path d="M47.5 27H61.5" stroke="#64748B" stroke-linecap="round"/>
<path d="M47.5 30H61.5" stroke="#64748B" stroke-linecap="round"/>
<path d="M47.5 22H70.5" stroke="#64748B" stroke-linecap="round"/>
<rect x="19.5" y="45.5" width="93" height="32" rx="3.5" stroke="#64748B"/>
<path d="M25.5963 58L23.6902 57.2376L24.4472 55.7236L24.4538 55.7105L24.4596 55.697L25.9216 52.2855L27.7701 50.437L30.4261 49.5517L31.7226 50.416L31.8486 50.5H32H34H36H36.1514L36.2774 50.416L37.5585 49.5619L39.7455 50.4367L42.0631 52.2908L43.0192 55.6374L43.032 55.682L43.0528 55.7236L43.8662 57.3504L42.3333 58.5H40.5H40V59V61.5V61.5136L40.0007 61.5272L40.5 70.6803V71.691L39.795 72.0435L37.3699 73.0135L34 73.4949L30.5962 73.0087L28.7053 72.5359L27.5 71.7324V70.6803L27.9993 61.5272L28 61.5136V61.5V58.5V58H27.5H25.5963Z" stroke="#94A3B8"/>
<path d="M47.5 56H55.5" stroke="#64748B" stroke-linecap="round"/>
<path d="M47.5 64H61.5" stroke="#64748B" stroke-linecap="round"/>
<path d="M47.5 67H61.5" stroke="#64748B" stroke-linecap="round"/>
<path d="M47.5 59H70.5" stroke="#64748B" stroke-linecap="round"/>
<rect x="19.5" y="83.5" width="93" height="9" rx="4.5" stroke="#E11D48"/>
<path d="M57.8665 87.5H57.4261C57.4001 87.3733 57.3545 87.2621 57.2894 87.1662C57.2255 87.0703 57.1474 86.9898 57.055 86.9247C56.9639 86.8584 56.8627 86.8087 56.7514 86.7756C56.6402 86.7424 56.5241 86.7259 56.4034 86.7259C56.1832 86.7259 55.9838 86.7815 55.805 86.8928C55.6275 87.004 55.486 87.168 55.3807 87.3846C55.2765 87.6012 55.2244 87.867 55.2244 88.1818C55.2244 88.4967 55.2765 88.7624 55.3807 88.979C55.486 89.1957 55.6275 89.3596 55.805 89.4709C55.9838 89.5821 56.1832 89.6378 56.4034 89.6378C56.5241 89.6378 56.6402 89.6212 56.7514 89.5881C56.8627 89.5549 56.9639 89.5058 57.055 89.4407C57.1474 89.3744 57.2255 89.2933 57.2894 89.1974C57.3545 89.1004 57.4001 88.9891 57.4261 88.8636H57.8665C57.8333 89.0495 57.773 89.2158 57.6854 89.3626C57.5978 89.5094 57.4889 89.6342 57.3587 89.7372C57.2285 89.839 57.0823 89.9165 56.9201 89.9698C56.7591 90.0231 56.5869 90.0497 56.4034 90.0497C56.0933 90.0497 55.8175 89.974 55.576 89.8224C55.3345 89.6709 55.1445 89.4555 55.006 89.1761C54.8675 88.8968 54.7983 88.5653 54.7983 88.1818C54.7983 87.7983 54.8675 87.4669 55.006 87.1875C55.1445 86.9081 55.3345 86.6927 55.576 86.5412C55.8175 86.3897 56.0933 86.3139 56.4034 86.3139C56.5869 86.3139 56.7591 86.3406 56.9201 86.3938C57.0823 86.4471 57.2285 86.5252 57.3587 86.6282C57.4889 86.73 57.5978 86.8543 57.6854 87.0011C57.773 87.1467 57.8333 87.313 57.8665 87.5ZM58.9403 88.3594V90H58.5212V86.3636H58.9403V87.6989H58.9758C59.0397 87.558 59.1356 87.4461 59.2634 87.3633C59.3924 87.2792 59.5641 87.2372 59.7783 87.2372C59.9642 87.2372 60.1269 87.2745 60.2666 87.3491C60.4063 87.4225 60.5146 87.5355 60.5915 87.6882C60.6697 87.8397 60.7087 88.0327 60.7087 88.267V90H60.2897V88.2955C60.2897 88.0788 60.2335 87.9113 60.121 87.793C60.0097 87.6734 59.8553 87.6136 59.6576 87.6136C59.5203 87.6136 59.3972 87.6426 59.2883 87.7006C59.1805 87.7586 59.0953 87.8433 59.0326 87.9545C58.971 88.0658 58.9403 88.2008 58.9403 88.3594ZM62.6188 90.0568C62.356 90.0568 62.1293 89.9988 61.9387 89.8828C61.7493 89.7656 61.6032 89.6023 61.5002 89.3928C61.3984 89.1821 61.3475 88.937 61.3475 88.6577C61.3475 88.3783 61.3984 88.1321 61.5002 87.919C61.6032 87.7048 61.7464 87.5379 61.9299 87.4183C62.1145 87.2976 62.33 87.2372 62.5762 87.2372C62.7182 87.2372 62.8585 87.2609 62.997 87.3082C63.1355 87.3556 63.2615 87.4325 63.3752 87.5391C63.4888 87.6444 63.5794 87.7841 63.6468 87.9581C63.7143 88.1321 63.748 88.3464 63.748 88.6009V88.7784H61.6458V88.4162H63.3219C63.3219 88.2623 63.2911 88.125 63.2296 88.0043C63.1692 87.8835 63.0828 87.7882 62.9703 87.7184C62.8591 87.6486 62.7277 87.6136 62.5762 87.6136C62.4093 87.6136 62.2649 87.6551 62.1429 87.7379C62.0222 87.8196 61.9293 87.9261 61.8642 88.0575C61.7991 88.1889 61.7665 88.3298 61.7665 88.4801V88.7216C61.7665 88.9276 61.802 89.1022 61.873 89.2454C61.9453 89.3874 62.0453 89.4957 62.1731 89.5703C62.301 89.6437 62.4495 89.6804 62.6188 89.6804C62.7289 89.6804 62.8283 89.665 62.9171 89.6342C63.007 89.6023 63.0846 89.5549 63.1497 89.4922C63.2148 89.4283 63.2651 89.349 63.3006 89.2543L63.7054 89.3679C63.6628 89.5052 63.5912 89.6259 63.4906 89.7301C63.39 89.8331 63.2657 89.9136 63.1177 89.9716C62.9698 90.0284 62.8034 90.0568 62.6188 90.0568ZM65.4934 90.0568C65.2377 90.0568 65.0176 89.9964 64.8329 89.8757C64.6483 89.755 64.5062 89.5887 64.4068 89.3768C64.3074 89.1649 64.2576 88.9228 64.2576 88.6506C64.2576 88.3736 64.3085 88.1291 64.4103 87.9173C64.5133 87.7042 64.6565 87.5379 64.84 87.4183C65.0247 87.2976 65.2401 87.2372 65.4863 87.2372C65.6781 87.2372 65.8509 87.2727 66.0048 87.3438C66.1587 87.4148 66.2847 87.5142 66.383 87.642C66.4812 87.7699 66.5422 87.919 66.5659 88.0895H66.1468C66.1149 87.9652 66.0439 87.8551 65.9338 87.7592C65.8249 87.6622 65.6781 87.6136 65.4934 87.6136C65.3301 87.6136 65.1868 87.6562 65.0637 87.7415C64.9418 87.8255 64.8465 87.9445 64.7779 88.0984C64.7104 88.2511 64.6767 88.4304 64.6767 88.6364C64.6767 88.8471 64.7098 89.0305 64.7761 89.1868C64.8436 89.343 64.9383 89.4644 65.0602 89.5508C65.1833 89.6372 65.3277 89.6804 65.4934 89.6804C65.6023 89.6804 65.7012 89.6615 65.79 89.6236C65.8787 89.5857 65.9539 89.5312 66.0154 89.4602C66.077 89.3892 66.1208 89.304 66.1468 89.2045H66.5659C66.5422 89.3655 66.4836 89.5105 66.3901 89.6396C66.2978 89.7674 66.1752 89.8692 66.0225 89.945C65.871 90.0195 65.6947 90.0568 65.4934 90.0568ZM67.5691 89.0057L67.562 88.4872H67.6472L68.8404 87.2727H69.3588L68.0875 88.5582H68.052L67.5691 89.0057ZM67.1784 90V86.3636H67.5975V90H67.1784ZM68.9114 90L67.8461 88.6506L68.1444 88.3594L69.4441 90H68.9114ZM70.8938 90.0568C70.6476 90.0568 70.4316 89.9982 70.2457 89.881C70.0611 89.7638 69.9167 89.5999 69.8125 89.3892C69.7095 89.1785 69.658 88.9323 69.658 88.6506C69.658 88.3665 69.7095 88.1185 69.8125 87.9066C69.9167 87.6947 70.0611 87.5302 70.2457 87.413C70.4316 87.2958 70.6476 87.2372 70.8938 87.2372C71.14 87.2372 71.3555 87.2958 71.5401 87.413C71.726 87.5302 71.8704 87.6947 71.9734 87.9066C72.0775 88.1185 72.1296 88.3665 72.1296 88.6506C72.1296 88.9323 72.0775 89.1785 71.9734 89.3892C71.8704 89.5999 71.726 89.7638 71.5401 89.881C71.3555 89.9982 71.14 90.0568 70.8938 90.0568ZM70.8938 89.6804C71.0808 89.6804 71.2347 89.6325 71.3555 89.5366C71.4762 89.4407 71.5656 89.3146 71.6236 89.1584C71.6816 89.0021 71.7106 88.8329 71.7106 88.6506C71.7106 88.4683 71.6816 88.2984 71.6236 88.141C71.5656 87.9835 71.4762 87.8563 71.3555 87.7592C71.2347 87.6622 71.0808 87.6136 70.8938 87.6136C70.7068 87.6136 70.5529 87.6622 70.4322 87.7592C70.3114 87.8563 70.2221 87.9835 70.1641 88.141C70.1061 88.2984 70.0771 88.4683 70.0771 88.6506C70.0771 88.8329 70.1061 89.0021 70.1641 89.1584C70.2221 89.3146 70.3114 89.4407 70.4322 89.5366C70.5529 89.6325 70.7068 89.6804 70.8938 89.6804ZM74.488 88.8849V87.2727H74.907V90H74.488V89.5384H74.4596C74.3957 89.6768 74.2963 89.7946 74.1613 89.8917C74.0264 89.9876 73.8559 90.0355 73.6499 90.0355C73.4795 90.0355 73.328 89.9982 73.1954 89.9237C73.0628 89.8479 72.9587 89.7343 72.8829 89.5827C72.8071 89.43 72.7693 89.2377 72.7693 89.0057V87.2727H73.1883V88.9773C73.1883 89.1761 73.2439 89.3348 73.3552 89.4531C73.4677 89.5715 73.6109 89.6307 73.7849 89.6307C73.8891 89.6307 73.995 89.604 74.1027 89.5508C74.2116 89.4975 74.3028 89.4158 74.3762 89.3058C74.4507 89.1957 74.488 89.0554 74.488 88.8849ZM76.8606 87.2727V87.6278H75.4473V87.2727H76.8606ZM75.8592 86.6193H76.2782V89.2188C76.2782 89.3371 76.2954 89.4259 76.3297 89.4851C76.3652 89.5431 76.4102 89.5821 76.4647 89.6023C76.5203 89.6212 76.5789 89.6307 76.6404 89.6307C76.6866 89.6307 76.7245 89.6283 76.7541 89.6236C76.7837 89.6177 76.8074 89.6129 76.8251 89.6094L76.9103 89.9858C76.8819 89.9964 76.8423 90.0071 76.7914 90.0178C76.7405 90.0296 76.676 90.0355 76.5978 90.0355C76.4795 90.0355 76.3635 90.0101 76.2498 89.9592C76.1374 89.9083 76.0439 89.8307 75.9693 89.7266C75.8959 89.6224 75.8592 89.491 75.8592 89.3324V86.6193Z" fill="#E11D48"/>
</svg>