<svg width="160" height="100" viewBox="0 0 160 100" fill="none" xmlns="http://www.w3.org/2000/svg">
<rect x="0.05" y="0.05" width="159.9" height="99.9" rx="4.95" stroke="#94A3B8" stroke-width="0.1"/>
<rect x="47.5" y="8.5" width="101" height="84" rx="3.5" stroke="#64748B"/>
<path d="M0 5C0 2.23858 2.23858 0 5 0H41V100H5C2.23858 100 0 97.7614 0 95V5Z" fill="#64748B"/>
<path d="M3 24H18" stroke="#94A3B8" stroke-linecap="round"/>
<path d="M3 29H27" stroke="#94A3B8" stroke-linecap="round"/>
<path d="M3 34H27" stroke="#94A3B8" stroke-linecap="round"/>
<path d="M3 39H27" stroke="#94A3B8" stroke-linecap="round"/>
<path d="M3 44H27" stroke="#94A3B8" stroke-linecap="round"/>
<path d="M3 49H21" stroke="#94A3B8" stroke-linecap="round"/>
<path d="M3 54H25" stroke="#94A3B8" stroke-linecap="round"/>
<path d="M3 59H15" stroke="#94A3B8" stroke-linecap="round"/>
<circle cx="10" cy="91" r="3.5" stroke="#94A3B8"/>
<path d="M16 91H29" stroke="#94A3B8" stroke-linecap="round"/>
<path d="M7.03977 12H6.51136C6.48011 11.848 6.42543 11.7145 6.3473 11.5994C6.2706 11.4844 6.17685 11.3878 6.06605 11.3097C5.95668 11.2301 5.83523 11.1705 5.7017 11.1307C5.56818 11.0909 5.42898 11.071 5.28409 11.071C5.01989 11.071 4.78054 11.1378 4.56605 11.2713C4.35298 11.4048 4.18324 11.6016 4.05682 11.8615C3.93182 12.1214 3.86932 12.4403 3.86932 12.8182C3.86932 13.196 3.93182 13.5149 4.05682 13.7749C4.18324 14.0348 4.35298 14.2315 4.56605 14.3651C4.78054 14.4986 5.01989 14.5653 5.28409 14.5653C5.42898 14.5653 5.56818 14.5455 5.7017 14.5057C5.83523 14.4659 5.95668 14.407 6.06605 14.3288C6.17685 14.2493 6.2706 14.152 6.3473 14.0369C6.42543 13.9205 6.48011 13.7869 6.51136 13.6364H7.03977C7 13.8594 6.92756 14.0589 6.82244 14.2351C6.71733 14.4112 6.58665 14.5611 6.4304 14.6847C6.27415 14.8068 6.09872 14.8999 5.90412 14.9638C5.71094 15.0277 5.50426 15.0597 5.28409 15.0597C4.91193 15.0597 4.58097 14.9688 4.29119 14.7869C4.00142 14.6051 3.77344 14.3466 3.60724 14.0114C3.44105 13.6761 3.35795 13.2784 3.35795 12.8182C3.35795 12.358 3.44105 11.9602 3.60724 11.625C3.77344 11.2898 4.00142 11.0312 4.29119 10.8494C4.58097 10.6676 4.91193 10.5767 5.28409 10.5767C5.50426 10.5767 5.71094 10.6087 5.90412 10.6726C6.09872 10.7365 6.27415 10.8303 6.4304 10.9538C6.58665 11.076 6.71733 11.2251 6.82244 11.4013C6.92756 11.576 7 11.7756 7.03977 12ZM8.3283 13.0312V15H7.82546V10.6364H8.3283V12.2386H8.37092C8.44762 12.0696 8.56268 11.9354 8.71609 11.8359C8.87092 11.7351 9.07688 11.6847 9.33398 11.6847C9.557 11.6847 9.75231 11.7294 9.91992 11.8189C10.0875 11.907 10.2175 12.0426 10.3098 12.2259C10.4036 12.4077 10.4505 12.6392 10.4505 12.9205V15H9.94762V12.9545C9.94762 12.6946 9.88015 12.4936 9.74521 12.3516C9.61168 12.2081 9.42631 12.1364 9.1891 12.1364C9.02433 12.1364 8.8766 12.1712 8.74592 12.2408C8.61665 12.3104 8.51438 12.4119 8.4391 12.5455C8.36523 12.679 8.3283 12.8409 8.3283 13.0312ZM11.3704 15V11.7273H11.8732V15H11.3704ZM11.6261 11.1818C11.5281 11.1818 11.4435 11.1484 11.3725 11.0817C11.3029 11.0149 11.2681 10.9347 11.2681 10.8409C11.2681 10.7472 11.3029 10.6669 11.3725 10.6001C11.4435 10.5334 11.5281 10.5 11.6261 10.5C11.7241 10.5 11.8079 10.5334 11.8775 10.6001C11.9485 10.6669 11.984 10.7472 11.984 10.8409C11.984 10.9347 11.9485 11.0149 11.8775 11.0817C11.8079 11.1484 11.7241 11.1818 11.6261 11.1818ZM14.2175 11.7273V12.1534H12.5215V11.7273H14.2175ZM13.0158 10.9432H13.5186V14.0625C13.5186 14.2045 13.5392 14.3111 13.5804 14.3821C13.623 14.4517 13.677 14.4986 13.7424 14.5227C13.8091 14.5455 13.8794 14.5568 13.9533 14.5568C14.0087 14.5568 14.0542 14.554 14.0897 14.5483C14.1252 14.5412 14.1536 14.5355 14.1749 14.5312L14.2772 14.983C14.2431 14.9957 14.1955 15.0085 14.1344 15.0213C14.0733 15.0355 13.9959 15.0426 13.9022 15.0426C13.7601 15.0426 13.6209 15.0121 13.4846 14.951C13.3496 14.8899 13.2374 14.7969 13.1479 14.6719C13.0598 14.5469 13.0158 14.3892 13.0158 14.1989V10.9432ZM18.5534 12H18.025C17.9938 11.848 17.9391 11.7145 17.861 11.5994C17.7843 11.4844 17.6905 11.3878 17.5797 11.3097C17.4703 11.2301 17.3489 11.1705 17.2154 11.1307C17.0819 11.0909 16.9426 11.071 16.7978 11.071C16.5336 11.071 16.2942 11.1378 16.0797 11.2713C15.8667 11.4048 15.6969 11.6016 15.5705 11.8615C15.4455 12.1214 15.383 12.4403 15.383 12.8182C15.383 13.196 15.4455 13.5149 15.5705 13.7749C15.6969 14.0348 15.8667 14.2315 16.0797 14.3651C16.2942 14.4986 16.5336 14.5653 16.7978 14.5653C16.9426 14.5653 17.0819 14.5455 17.2154 14.5057C17.3489 14.4659 17.4703 14.407 17.5797 14.3288C17.6905 14.2493 17.7843 14.152 17.861 14.0369C17.9391 13.9205 17.9938 13.7869 18.025 13.6364H18.5534C18.5137 13.8594 18.4412 14.0589 18.3361 14.2351C18.231 14.4112 18.1003 14.5611 17.9441 14.6847C17.7878 14.8068 17.6124 14.8999 17.4178 14.9638C17.2246 15.0277 17.0179 15.0597 16.7978 15.0597C16.4256 15.0597 16.0946 14.9688 15.8049 14.7869C15.5151 14.6051 15.2871 14.3466 15.1209 14.0114C14.9547 13.6761 14.8716 13.2784 14.8716 12.8182C14.8716 12.358 14.9547 11.9602 15.1209 11.625C15.2871 11.2898 15.5151 11.0312 15.8049 10.8494C16.0946 10.6676 16.4256 10.5767 16.7978 10.5767C17.0179 10.5767 17.2246 10.6087 17.4178 10.6726C17.6124 10.7365 17.7878 10.8303 17.9441 10.9538C18.1003 11.076 18.231 11.2251 18.3361 11.4013C18.4412 11.576 18.5137 11.7756 18.5534 12ZM19.842 13.0312V15H19.3391V10.6364H19.842V12.2386H19.8846C19.9613 12.0696 20.0763 11.9354 20.2298 11.8359C20.3846 11.7351 20.5906 11.6847 20.8477 11.6847C21.0707 11.6847 21.266 11.7294 21.4336 11.8189C21.6012 11.907 21.7312 12.0426 21.8235 12.2259C21.9173 12.4077 21.9641 12.6392 21.9641 12.9205V15H21.4613V12.9545C21.4613 12.6946 21.3938 12.4936 21.2589 12.3516C21.1254 12.2081 20.94 12.1364 20.7028 12.1364C20.538 12.1364 20.3903 12.1712 20.2596 12.2408C20.1303 12.3104 20.0281 12.4119 19.9528 12.5455C19.8789 12.679 19.842 12.8409 19.842 13.0312ZM23.8471 15.0767C23.6397 15.0767 23.4515 15.0376 23.2825 14.9595C23.1135 14.88 22.9792 14.7656 22.8798 14.6165C22.7804 14.4659 22.7306 14.2841 22.7306 14.071C22.7306 13.8835 22.7676 13.7315 22.8414 13.6151C22.9153 13.4972 23.014 13.4048 23.1376 13.3381C23.2612 13.2713 23.3975 13.2216 23.5467 13.1889C23.6973 13.1548 23.8485 13.1278 24.0005 13.108C24.1994 13.0824 24.3606 13.0632 24.4842 13.0504C24.6092 13.0362 24.7001 13.0128 24.7569 12.9801C24.8152 12.9474 24.8443 12.8906 24.8443 12.8097V12.7926C24.8443 12.5824 24.7868 12.419 24.6717 12.3026C24.5581 12.1861 24.3855 12.1278 24.1539 12.1278C23.9139 12.1278 23.7257 12.1804 23.5893 12.2855C23.4529 12.3906 23.3571 12.5028 23.3017 12.6222L22.8244 12.4517C22.9096 12.2528 23.0233 12.098 23.1653 11.9872C23.3088 11.875 23.465 11.7969 23.6341 11.7528C23.8045 11.7074 23.9721 11.6847 24.1369 11.6847C24.242 11.6847 24.3627 11.6974 24.4991 11.723C24.6369 11.7472 24.7697 11.7976 24.8975 11.8743C25.0268 11.951 25.1341 12.0668 25.2193 12.2216C25.3045 12.3764 25.3471 12.5838 25.3471 12.8438V15H24.8443V14.5568H24.8187C24.7846 14.6278 24.7278 14.7038 24.6483 14.7848C24.5687 14.8658 24.4629 14.9347 24.3308 14.9915C24.1987 15.0483 24.0375 15.0767 23.8471 15.0767ZM23.9238 14.625C24.1227 14.625 24.2903 14.5859 24.4267 14.5078C24.5645 14.4297 24.6681 14.3288 24.7377 14.2053C24.8088 14.0817 24.8443 13.9517 24.8443 13.8153V13.3551C24.823 13.3807 24.7761 13.4041 24.7037 13.4254C24.6326 13.4453 24.5502 13.4631 24.4565 13.4787C24.3642 13.4929 24.274 13.5057 24.1859 13.517C24.0993 13.527 24.0289 13.5355 23.975 13.5426C23.8443 13.5597 23.7221 13.5874 23.6085 13.6257C23.4963 13.6626 23.4054 13.7187 23.3358 13.794C23.2676 13.8679 23.2335 13.9687 23.2335 14.0966C23.2335 14.2713 23.2981 14.4034 23.4274 14.4929C23.5581 14.581 23.7235 14.625 23.9238 14.625ZM27.6882 11.7273V12.1534H25.9922V11.7273H27.6882ZM26.4865 10.9432H26.9893V14.0625C26.9893 14.2045 27.0099 14.3111 27.0511 14.3821C27.0938 14.4517 27.1477 14.4986 27.2131 14.5227C27.2798 14.5455 27.3501 14.5568 27.424 14.5568C27.4794 14.5568 27.5249 14.554 27.5604 14.5483C27.5959 14.5412 27.6243 14.5355 27.6456 14.5312L27.7479 14.983C27.7138 14.9957 27.6662 15.0085 27.6051 15.0213C27.544 15.0355 27.4666 15.0426 27.3729 15.0426C27.2308 15.0426 27.0916 15.0121 26.9553 14.951C26.8203 14.8899 26.7081 14.7969 26.6186 14.6719C26.5305 14.5469 26.4865 14.3892 26.4865 14.1989V10.9432Z" fill="#E11D48"/>
<path d="M84.858 48.5455C84.8153 48.1856 84.6425 47.9062 84.3395 47.7074C84.0365 47.5085 83.6648 47.4091 83.2244 47.4091C82.9025 47.4091 82.6207 47.4612 82.3793 47.5653C82.1402 47.6695 81.9531 47.8127 81.8182 47.995C81.6856 48.1773 81.6193 48.3845 81.6193 48.6165C81.6193 48.8106 81.6655 48.9775 81.7578 49.1172C81.8525 49.2545 81.9732 49.3693 82.12 49.4616C82.2668 49.5516 82.4207 49.6262 82.5817 49.6854C82.7427 49.7422 82.8906 49.7884 83.0256 49.8239L83.7642 50.0227C83.9536 50.0724 84.1643 50.1411 84.3963 50.2287C84.6307 50.3163 84.8544 50.4358 85.0675 50.5874C85.2829 50.7365 85.4605 50.9283 85.6001 51.1626C85.7398 51.397 85.8097 51.6847 85.8097 52.0256C85.8097 52.4186 85.7067 52.7737 85.5007 53.0909C85.2971 53.4081 84.9988 53.6603 84.6058 53.8473C84.2152 54.0343 83.7405 54.1278 83.1818 54.1278C82.661 54.1278 82.21 54.0438 81.8288 53.8757C81.45 53.7076 81.1518 53.4732 80.9339 53.1726C80.7185 52.8719 80.5966 52.5227 80.5682 52.125H81.4773C81.5009 52.3996 81.5933 52.6269 81.7543 52.8068C81.9176 52.9844 82.1236 53.117 82.3722 53.2045C82.6231 53.2898 82.893 53.3324 83.1818 53.3324C83.518 53.3324 83.8198 53.2779 84.0874 53.169C84.3549 53.0578 84.5668 52.9039 84.723 52.7074C84.8793 52.5085 84.9574 52.2765 84.9574 52.0114C84.9574 51.7699 84.8899 51.5734 84.755 51.4219C84.62 51.2704 84.4425 51.1473 84.2223 51.0526C84.0021 50.9579 83.7642 50.875 83.5085 50.804L82.6136 50.5483C82.0455 50.3849 81.5956 50.1518 81.2642 49.8487C80.9328 49.5457 80.767 49.1491 80.767 48.6591C80.767 48.2519 80.8771 47.8968 81.0973 47.5938C81.3198 47.2884 81.6181 47.0516 81.9922 46.8835C82.3686 46.7131 82.7888 46.6278 83.2528 46.6278C83.7216 46.6278 84.1383 46.7119 84.5028 46.88C84.8674 47.0457 85.1563 47.273 85.3693 47.5618C85.5848 47.8506 85.6984 48.1785 85.7102 48.5455H84.858ZM87.144 54V48.5455H87.9821V54H87.144ZM87.5701 47.6364C87.4068 47.6364 87.2659 47.5807 87.1475 47.4695C87.0315 47.3582 86.9735 47.2244 86.9735 47.0682C86.9735 46.9119 87.0315 46.7782 87.1475 46.6669C87.2659 46.5556 87.4068 46.5 87.5701 46.5C87.7335 46.5 87.8732 46.5556 87.9892 46.6669C88.1075 46.7782 88.1667 46.9119 88.1667 47.0682C88.1667 47.2244 88.1075 47.3582 87.9892 47.4695C87.8732 47.5807 87.7335 47.6364 87.5701 47.6364ZM91.5767 54.1136C91.1222 54.1136 90.7209 53.9988 90.3729 53.7692C90.0249 53.5372 89.7526 53.2105 89.5561 52.7891C89.3596 52.3653 89.2614 51.8646 89.2614 51.2869C89.2614 50.714 89.3596 50.2169 89.5561 49.7955C89.7526 49.3741 90.026 49.0485 90.3764 48.8189C90.7268 48.5893 91.1316 48.4744 91.5909 48.4744C91.946 48.4744 92.2266 48.5336 92.4325 48.652C92.6409 48.768 92.7995 48.9006 92.9084 49.0497C93.0196 49.1965 93.1061 49.3172 93.1676 49.4119H93.2386V46.7273H94.0767V54H93.267V53.1619H93.1676C93.1061 53.2614 93.0185 53.3868 92.9048 53.5384C92.7912 53.6875 92.629 53.8213 92.4183 53.9396C92.2076 54.0556 91.9271 54.1136 91.5767 54.1136ZM91.6903 53.3608C92.0265 53.3608 92.3106 53.2732 92.5426 53.098C92.7746 52.9205 92.951 52.6754 93.0717 52.3629C93.1925 52.0481 93.2528 51.6847 93.2528 51.2727C93.2528 50.8655 93.1937 50.5092 93.0753 50.2038C92.9569 49.8961 92.7817 49.657 92.5497 49.4865C92.3177 49.3137 92.0313 49.2273 91.6903 49.2273C91.3352 49.2273 91.0393 49.3184 90.8026 49.5007C90.5682 49.6806 90.3918 49.9257 90.2734 50.2358C90.1574 50.5436 90.0994 50.8892 90.0994 51.2727C90.0994 51.661 90.1586 52.0137 90.277 52.331C90.3977 52.6458 90.5753 52.8968 90.8097 53.0838C91.0464 53.2685 91.34 53.3608 91.6903 53.3608ZM98.0149 54.1136C97.4893 54.1136 97.036 53.9976 96.6548 53.7656C96.276 53.5312 95.9837 53.2045 95.7777 52.7855C95.5741 52.3641 95.4723 51.8741 95.4723 51.3153C95.4723 50.7566 95.5741 50.2642 95.7777 49.8381C95.9837 49.4096 96.2701 49.0758 96.6371 48.8366C97.0064 48.5952 97.4373 48.4744 97.9297 48.4744C98.2138 48.4744 98.4943 48.5218 98.7713 48.6165C99.0483 48.7112 99.3004 48.8651 99.5277 49.0781C99.755 49.2888 99.9361 49.5682 100.071 49.9162C100.206 50.2642 100.273 50.6927 100.273 51.2017V51.5568H96.0689V50.8324H99.4212C99.4212 50.5246 99.3596 50.25 99.2365 50.0085C99.1158 49.767 98.9429 49.5765 98.718 49.4368C98.4955 49.2971 98.2327 49.2273 97.9297 49.2273C97.5959 49.2273 97.3071 49.3101 97.0632 49.4759C96.8217 49.6392 96.6359 49.8523 96.5057 50.1151C96.3755 50.3778 96.3104 50.6596 96.3104 50.9602V51.4432C96.3104 51.8551 96.3814 52.2043 96.5234 52.4908C96.6679 52.7749 96.8679 52.9915 97.1236 53.1406C97.3793 53.2874 97.6764 53.3608 98.0149 53.3608C98.2351 53.3608 98.4339 53.33 98.6115 53.2685C98.7914 53.2045 98.9465 53.1098 99.0767 52.9844C99.2069 52.8565 99.3075 52.6979 99.3786 52.5085L100.188 52.7358C100.103 53.0104 99.9598 53.2519 99.7585 53.4602C99.5573 53.6662 99.3087 53.8272 99.0128 53.9432C98.7169 54.0568 98.3842 54.1136 98.0149 54.1136ZM101.662 54V46.7273H102.5V49.4119H102.571C102.633 49.3172 102.718 49.1965 102.827 49.0497C102.938 48.9006 103.097 48.768 103.303 48.652C103.511 48.5336 103.793 48.4744 104.148 48.4744C104.607 48.4744 105.012 48.5893 105.362 48.8189C105.713 49.0485 105.986 49.3741 106.183 49.7955C106.379 50.2169 106.477 50.714 106.477 51.2869C106.477 51.8646 106.379 52.3653 106.183 52.7891C105.986 53.2105 105.714 53.5372 105.366 53.7692C105.018 53.9988 104.616 54.1136 104.162 54.1136C103.812 54.1136 103.531 54.0556 103.32 53.9396C103.11 53.8213 102.947 53.6875 102.834 53.5384C102.72 53.3868 102.633 53.2614 102.571 53.1619H102.472V54H101.662ZM102.486 51.2727C102.486 51.6847 102.546 52.0481 102.667 52.3629C102.788 52.6754 102.964 52.9205 103.196 53.098C103.428 53.2732 103.712 53.3608 104.048 53.3608C104.399 53.3608 104.691 53.2685 104.925 53.0838C105.162 52.8968 105.34 52.6458 105.458 52.331C105.579 52.0137 105.639 51.661 105.639 51.2727C105.639 50.8892 105.58 50.5436 105.462 50.2358C105.346 49.9257 105.169 49.6806 104.933 49.5007C104.698 49.3184 104.403 49.2273 104.048 49.2273C103.707 49.2273 103.421 49.3137 103.189 49.4865C102.957 49.657 102.782 49.8961 102.663 50.2038C102.545 50.5092 102.486 50.8655 102.486 51.2727ZM109.364 54.1278C109.019 54.1278 108.705 54.0627 108.423 53.9325C108.142 53.8 107.918 53.6094 107.752 53.3608C107.586 53.1098 107.504 52.8068 107.504 52.4517C107.504 52.1392 107.565 51.8859 107.688 51.6918C107.811 51.4953 107.976 51.3414 108.182 51.2301C108.388 51.1188 108.615 51.036 108.864 50.9815C109.115 50.9247 109.367 50.8797 109.62 50.8466C109.951 50.804 110.22 50.772 110.426 50.7507C110.634 50.727 110.786 50.688 110.881 50.6335C110.978 50.5791 111.026 50.4844 111.026 50.3494V50.321C111.026 49.9706 110.93 49.6984 110.739 49.5043C110.549 49.3101 110.262 49.2131 109.876 49.2131C109.476 49.2131 109.162 49.3007 108.935 49.4759C108.707 49.651 108.548 49.8381 108.455 50.0369L107.66 49.7528C107.802 49.4214 107.991 49.1634 108.228 48.9787C108.467 48.7917 108.728 48.6615 109.009 48.5881C109.293 48.5123 109.573 48.4744 109.847 48.4744C110.022 48.4744 110.224 48.4957 110.451 48.5384C110.681 48.5786 110.902 48.6626 111.115 48.7905C111.33 48.9183 111.509 49.1113 111.651 49.3693C111.793 49.6274 111.864 49.973 111.864 50.4062V54H111.026V53.2614H110.984C110.927 53.3797 110.832 53.5064 110.7 53.6413C110.567 53.7763 110.391 53.8911 110.17 53.9858C109.95 54.0805 109.682 54.1278 109.364 54.1278ZM109.492 53.375C109.824 53.375 110.103 53.3099 110.33 53.1797C110.56 53.0495 110.733 52.8814 110.849 52.6754C110.967 52.4695 111.026 52.2528 111.026 52.0256V51.2585C110.991 51.3011 110.913 51.3402 110.792 51.3757C110.674 51.4089 110.536 51.4384 110.38 51.4645C110.226 51.4882 110.076 51.5095 109.929 51.5284C109.785 51.545 109.667 51.5592 109.577 51.571C109.36 51.5994 109.156 51.6456 108.967 51.7095C108.78 51.7711 108.628 51.8646 108.512 51.9901C108.398 52.1132 108.342 52.2812 108.342 52.4943C108.342 52.7855 108.449 53.0057 108.665 53.1548C108.883 53.3016 109.158 53.375 109.492 53.375ZM113.394 54V48.5455H114.204V49.3693H114.26C114.36 49.0994 114.54 48.8804 114.8 48.7124C115.061 48.5443 115.354 48.4602 115.681 48.4602C115.742 48.4602 115.819 48.4614 115.912 48.4638C116.004 48.4661 116.074 48.4697 116.121 48.4744V49.3267C116.093 49.3196 116.028 49.3089 115.926 49.2947C115.827 49.2782 115.721 49.2699 115.61 49.2699C115.345 49.2699 115.108 49.3255 114.9 49.4368C114.694 49.5457 114.53 49.6972 114.41 49.8913C114.291 50.0831 114.232 50.3021 114.232 50.5483V54H113.394Z" fill="#E11D48"/>
</svg>
