<svg width="160" height="100" viewBox="0 0 160 100" fill="none" xmlns="http://www.w3.org/2000/svg">
<rect x="0.05" y="0.05" width="159.9" height="99.9" rx="4.95" stroke="#94A3B8" stroke-width="0.1"/>
<path d="M30.483 30.5085V29.7273H35.9375V30.5085H33.6506V37H32.7699V30.5085H30.483ZM36.6167 37V31.5455H37.4263V32.3693H37.4831C37.5826 32.0994 37.7625 31.8804 38.0229 31.7124C38.2833 31.5443 38.5769 31.4602 38.9036 31.4602C38.9651 31.4602 39.0421 31.4614 39.1344 31.4638C39.2267 31.4661 39.2966 31.4697 39.3439 31.4744V32.3267C39.3155 32.3196 39.2504 32.3089 39.1486 32.2947C39.0492 32.2782 38.9438 32.2699 38.8326 32.2699C38.5674 32.2699 38.3307 32.3255 38.1223 32.4368C37.9164 32.5457 37.753 32.6972 37.6323 32.8913C37.5139 33.0831 37.4547 33.3021 37.4547 33.5483V37H36.6167ZM43.7749 34.7699V31.5455H44.6129V37H43.7749V36.0767H43.718C43.5902 36.3537 43.3913 36.5893 43.1214 36.7834C42.8516 36.9751 42.5107 37.071 42.0987 37.071C41.7578 37.071 41.4548 36.9964 41.1896 36.8473C40.9245 36.6958 40.7161 36.4685 40.5646 36.1655C40.4131 35.8601 40.3374 35.4754 40.3374 35.0114V31.5455H41.1754V34.9545C41.1754 35.3523 41.2867 35.6695 41.5092 35.9062C41.7341 36.143 42.0206 36.2614 42.3686 36.2614C42.5769 36.2614 42.7888 36.2081 43.0043 36.1016C43.2221 35.995 43.4044 35.8317 43.5511 35.6115C43.7003 35.3913 43.7749 35.1108 43.7749 34.7699ZM50.0115 32.767L49.2587 32.9801C49.2114 32.8546 49.1415 32.7327 49.0492 32.6143C48.9592 32.4936 48.8361 32.3942 48.6799 32.3161C48.5236 32.2379 48.3236 32.1989 48.0797 32.1989C47.7459 32.1989 47.4677 32.2758 47.2452 32.4297C47.025 32.5812 46.915 32.7741 46.915 33.0085C46.915 33.2169 46.9907 33.3814 47.1422 33.5021C47.2937 33.6229 47.5305 33.7235 47.8525 33.804L48.6621 34.0028C49.1498 34.1212 49.5132 34.3023 49.7523 34.5462C49.9914 34.7876 50.111 35.099 50.111 35.4801C50.111 35.7926 50.021 36.072 49.8411 36.3182C49.6635 36.5644 49.415 36.7585 49.0953 36.9006C48.7757 37.0426 48.4041 37.1136 47.9803 37.1136C47.4239 37.1136 46.9635 36.9929 46.5989 36.7514C46.2343 36.5099 46.0035 36.1572 45.9064 35.6932L46.7019 35.4943C46.7776 35.7879 46.9209 36.008 47.1316 36.1548C47.3446 36.3016 47.6228 36.375 47.9661 36.375C48.3567 36.375 48.6668 36.2921 48.8965 36.1264C49.1285 35.9583 49.2445 35.7571 49.2445 35.5227C49.2445 35.3333 49.1782 35.1747 49.0456 35.0469C48.9131 34.9167 48.7095 34.8196 48.4348 34.7557L47.5257 34.5426C47.0262 34.4242 46.6593 34.2408 46.4249 33.9922C46.1929 33.7412 46.0769 33.4276 46.0769 33.0511C46.0769 32.7434 46.1633 32.4711 46.3361 32.2344C46.5113 31.9976 46.7492 31.8118 47.0499 31.6768C47.3529 31.5419 47.6962 31.4744 48.0797 31.4744C48.6195 31.4744 49.0433 31.5928 49.351 31.8295C49.6612 32.0663 49.8813 32.3788 50.0115 32.767ZM53.7447 31.5455V32.2557H50.918V31.5455H53.7447ZM51.7418 30.2386H52.5799V35.4375C52.5799 35.6742 52.6142 35.8518 52.6829 35.9702C52.7539 36.0862 52.8439 36.1643 52.9528 36.2045C53.064 36.2424 53.1812 36.2614 53.3043 36.2614C53.3967 36.2614 53.4724 36.2566 53.5316 36.2472C53.5908 36.2353 53.6381 36.2259 53.6737 36.2188L53.8441 36.9716C53.7873 36.9929 53.708 37.0142 53.6062 37.0355C53.5044 37.0592 53.3754 37.071 53.2191 37.071C52.9824 37.071 52.7504 37.0201 52.5231 36.9183C52.2982 36.8165 52.1112 36.6615 51.962 36.4531C51.8152 36.2448 51.7418 35.982 51.7418 35.6648V30.2386ZM57.2337 37.1136C56.7081 37.1136 56.2547 36.9976 55.8736 36.7656C55.4948 36.5312 55.2024 36.2045 54.9964 35.7855C54.7929 35.3641 54.6911 34.8741 54.6911 34.3153C54.6911 33.7566 54.7929 33.2642 54.9964 32.8381C55.2024 32.4096 55.4889 32.0758 55.8558 31.8366C56.2251 31.5952 56.656 31.4744 57.1484 31.4744C57.4325 31.4744 57.7131 31.5218 57.9901 31.6165C58.267 31.7112 58.5192 31.8651 58.7464 32.0781C58.9737 32.2888 59.1548 32.5682 59.2898 32.9162C59.4247 33.2642 59.4922 33.6927 59.4922 34.2017V34.5568H55.2876V33.8324H58.6399C58.6399 33.5246 58.5784 33.25 58.4553 33.0085C58.3345 32.767 58.1617 32.5765 57.9368 32.4368C57.7143 32.2971 57.4515 32.2273 57.1484 32.2273C56.8146 32.2273 56.5258 32.3101 56.282 32.4759C56.0405 32.6392 55.8546 32.8523 55.7244 33.1151C55.5942 33.3778 55.5291 33.6596 55.5291 33.9602V34.4432C55.5291 34.8551 55.6001 35.2043 55.7422 35.4908C55.8866 35.7749 56.0866 35.9915 56.3423 36.1406C56.598 36.2874 56.8951 36.3608 57.2337 36.3608C57.4538 36.3608 57.6527 36.33 57.8303 36.2685C58.0102 36.2045 58.1652 36.1098 58.2955 35.9844C58.4257 35.8565 58.5263 35.6979 58.5973 35.5085L59.407 35.7358C59.3217 36.0104 59.1785 36.2519 58.9773 36.4602C58.776 36.6662 58.5275 36.8272 58.2315 36.9432C57.9356 37.0568 57.603 37.1136 57.2337 37.1136ZM62.8267 37.1136C62.3722 37.1136 61.9709 36.9988 61.6229 36.7692C61.2749 36.5372 61.0026 36.2105 60.8061 35.7891C60.6096 35.3653 60.5114 34.8646 60.5114 34.2869C60.5114 33.714 60.6096 33.2169 60.8061 32.7955C61.0026 32.3741 61.276 32.0485 61.6264 31.8189C61.9768 31.5893 62.3816 31.4744 62.8409 31.4744C63.196 31.4744 63.4766 31.5336 63.6825 31.652C63.8909 31.768 64.0495 31.9006 64.1584 32.0497C64.2696 32.1965 64.3561 32.3172 64.4176 32.4119H64.4886V29.7273H65.3267V37H64.517V36.1619H64.4176C64.3561 36.2614 64.2685 36.3868 64.1548 36.5384C64.0412 36.6875 63.879 36.8213 63.6683 36.9396C63.4576 37.0556 63.1771 37.1136 62.8267 37.1136ZM62.9403 36.3608C63.2765 36.3608 63.5606 36.2732 63.7926 36.098C64.0246 35.9205 64.201 35.6754 64.3217 35.3629C64.4425 35.0481 64.5028 34.6847 64.5028 34.2727C64.5028 33.8655 64.4437 33.5092 64.3253 33.2038C64.2069 32.8961 64.0317 32.657 63.7997 32.4865C63.5677 32.3137 63.2813 32.2273 62.9403 32.2273C62.5852 32.2273 62.2893 32.3184 62.0526 32.5007C61.8182 32.6806 61.6418 32.9257 61.5234 33.2358C61.4074 33.5436 61.3494 33.8892 61.3494 34.2727C61.3494 34.661 61.4086 35.0137 61.527 35.331C61.6477 35.6458 61.8253 35.8968 62.0597 36.0838C62.2964 36.2685 62.59 36.3608 62.9403 36.3608ZM69.9041 37V29.7273H70.7422V32.4119H70.8132C70.8748 32.3172 70.96 32.1965 71.0689 32.0497C71.1802 31.9006 71.3388 31.768 71.5447 31.652C71.7531 31.5336 72.0348 31.4744 72.3899 31.4744C72.8492 31.4744 73.254 31.5893 73.6044 31.8189C73.9548 32.0485 74.2282 32.3741 74.4247 32.7955C74.6212 33.2169 74.7195 33.714 74.7195 34.2869C74.7195 34.8646 74.6212 35.3653 74.4247 35.7891C74.2282 36.2105 73.956 36.5372 73.608 36.7692C73.2599 36.9988 72.8587 37.1136 72.4041 37.1136C72.0537 37.1136 71.7732 37.0556 71.5625 36.9396C71.3518 36.8213 71.1896 36.6875 71.076 36.5384C70.9624 36.3868 70.8748 36.2614 70.8132 36.1619H70.7138V37H69.9041ZM70.728 34.2727C70.728 34.6847 70.7884 35.0481 70.9091 35.3629C71.0298 35.6754 71.2062 35.9205 71.4382 36.098C71.6702 36.2732 71.9543 36.3608 72.2905 36.3608C72.6409 36.3608 72.9332 36.2685 73.1676 36.0838C73.4044 35.8968 73.5819 35.6458 73.7003 35.331C73.821 35.0137 73.8814 34.661 73.8814 34.2727C73.8814 33.8892 73.8222 33.5436 73.7038 33.2358C73.5878 32.9257 73.4115 32.6806 73.1747 32.5007C72.9403 32.3184 72.6456 32.2273 72.2905 32.2273C71.9496 32.2273 71.6631 32.3137 71.4311 32.4865C71.1991 32.657 71.0239 32.8961 70.9055 33.2038C70.7872 33.5092 70.728 33.8655 70.728 34.2727ZM76.3459 39.0455C76.2038 39.0455 76.0772 39.0336 75.9659 39.0099C75.8546 38.9886 75.7777 38.9673 75.7351 38.946L75.9482 38.2074C76.1518 38.2595 76.3317 38.2784 76.4879 38.2642C76.6442 38.25 76.7827 38.1802 76.9034 38.0547C77.0265 37.9316 77.139 37.7315 77.2408 37.4545L77.397 37.0284L75.38 31.5455H76.2891L77.7947 35.892H77.8516L79.3572 31.5455H80.2663L77.951 37.7955C77.8468 38.0772 77.7178 38.3104 77.5639 38.495C77.41 38.6821 77.2313 38.8205 77.0277 38.9105C76.8265 39.0005 76.5992 39.0455 76.3459 39.0455ZM86.2447 37.1136C85.7901 37.1136 85.3888 36.9988 85.0408 36.7692C84.6928 36.5372 84.4206 36.2105 84.2241 35.7891C84.0276 35.3653 83.9293 34.8646 83.9293 34.2869C83.9293 33.714 84.0276 33.2169 84.2241 32.7955C84.4206 32.3741 84.694 32.0485 85.0444 31.8189C85.3948 31.5893 85.7996 31.4744 86.2589 31.4744C86.614 31.4744 86.8945 31.5336 87.1005 31.652C87.3088 31.768 87.4674 31.9006 87.5763 32.0497C87.6876 32.1965 87.774 32.3172 87.8356 32.4119H87.9066V29.7273H88.7447V37H87.935V36.1619H87.8356C87.774 36.2614 87.6864 36.3868 87.5728 36.5384C87.4592 36.6875 87.297 36.8213 87.0863 36.9396C86.8756 37.0556 86.5951 37.1136 86.2447 37.1136ZM86.3583 36.3608C86.6945 36.3608 86.9786 36.2732 87.2106 36.098C87.4426 35.9205 87.619 35.6754 87.7397 35.3629C87.8604 35.0481 87.9208 34.6847 87.9208 34.2727C87.9208 33.8655 87.8616 33.5092 87.7433 33.2038C87.6249 32.8961 87.4497 32.657 87.2177 32.4865C86.9857 32.3137 86.6992 32.2273 86.3583 32.2273C86.0032 32.2273 85.7073 32.3184 85.4705 32.5007C85.2362 32.6806 85.0598 32.9257 84.9414 33.2358C84.8254 33.5436 84.7674 33.8892 84.7674 34.2727C84.7674 34.661 84.8266 35.0137 84.945 35.331C85.0657 35.6458 85.2433 35.8968 85.4776 36.0838C85.7144 36.2685 86.0079 36.3608 86.3583 36.3608ZM92.6829 37.1136C92.1573 37.1136 91.704 36.9976 91.3228 36.7656C90.944 36.5312 90.6516 36.2045 90.4457 35.7855C90.2421 35.3641 90.1403 34.8741 90.1403 34.3153C90.1403 33.7566 90.2421 33.2642 90.4457 32.8381C90.6516 32.4096 90.9381 32.0758 91.305 31.8366C91.6744 31.5952 92.1052 31.4744 92.5977 31.4744C92.8817 31.4744 93.1623 31.5218 93.4393 31.6165C93.7163 31.7112 93.9684 31.8651 94.1957 32.0781C94.4229 32.2888 94.604 32.5682 94.739 32.9162C94.8739 33.2642 94.9414 33.6927 94.9414 34.2017V34.5568H90.7369V33.8324H94.0891C94.0891 33.5246 94.0276 33.25 93.9045 33.0085C93.7837 32.767 93.6109 32.5765 93.386 32.4368C93.1635 32.2971 92.9007 32.2273 92.5977 32.2273C92.2638 32.2273 91.975 32.3101 91.7312 32.4759C91.4897 32.6392 91.3039 32.8523 91.1737 33.1151C91.0434 33.3778 90.9783 33.6596 90.9783 33.9602V34.4432C90.9783 34.8551 91.0494 35.2043 91.1914 35.4908C91.3358 35.7749 91.5359 35.9915 91.7915 36.1406C92.0472 36.2874 92.3443 36.3608 92.6829 36.3608C92.9031 36.3608 93.1019 36.33 93.2795 36.2685C93.4594 36.2045 93.6145 36.1098 93.7447 35.9844C93.8749 35.8565 93.9755 35.6979 94.0465 35.5085L94.8562 35.7358C94.771 36.0104 94.6277 36.2519 94.4265 36.4602C94.2253 36.6662 93.9767 36.8272 93.6808 36.9432C93.3848 37.0568 93.0522 37.1136 92.6829 37.1136ZM100.08 32.767L99.3271 32.9801C99.2797 32.8546 99.2099 32.7327 99.1175 32.6143C99.0276 32.4936 98.9045 32.3942 98.7482 32.3161C98.592 32.2379 98.3919 32.1989 98.1481 32.1989C97.8143 32.1989 97.5361 32.2758 97.3136 32.4297C97.0934 32.5812 96.9833 32.7741 96.9833 33.0085C96.9833 33.2169 97.0591 33.3814 97.2106 33.5021C97.3621 33.6229 97.5988 33.7235 97.9208 33.804L98.7305 34.0028C99.2182 34.1212 99.5816 34.3023 99.8207 34.5462C100.06 34.7876 100.179 35.099 100.179 35.4801C100.179 35.7926 100.089 36.072 99.9094 36.3182C99.7319 36.5644 99.4833 36.7585 99.1637 36.9006C98.8441 37.0426 98.4724 37.1136 98.0487 37.1136C97.4923 37.1136 97.0318 36.9929 96.6673 36.7514C96.3027 36.5099 96.0719 36.1572 95.9748 35.6932L96.7702 35.4943C96.846 35.7879 96.9892 36.008 97.1999 36.1548C97.413 36.3016 97.6912 36.375 98.0344 36.375C98.4251 36.375 98.7352 36.2921 98.9648 36.1264C99.1969 35.9583 99.3129 35.7571 99.3129 35.5227C99.3129 35.3333 99.2466 35.1747 99.114 35.0469C98.9814 34.9167 98.7778 34.8196 98.5032 34.7557L97.5941 34.5426C97.0946 34.4242 96.7276 34.2408 96.4933 33.9922C96.2612 33.7412 96.1452 33.4276 96.1452 33.0511C96.1452 32.7434 96.2317 32.4711 96.4045 32.2344C96.5797 31.9976 96.8176 31.8118 97.1183 31.6768C97.4213 31.5419 97.7646 31.4744 98.1481 31.4744C98.6879 31.4744 99.1116 31.5928 99.4194 31.8295C99.7295 32.0663 99.9497 32.3788 100.08 32.767ZM101.441 37V31.5455H102.279V37H101.441ZM101.867 30.6364C101.704 30.6364 101.563 30.5807 101.444 30.4695C101.328 30.3582 101.27 30.2244 101.27 30.0682C101.27 29.9119 101.328 29.7782 101.444 29.6669C101.563 29.5556 101.704 29.5 101.867 29.5C102.03 29.5 102.17 29.5556 102.286 29.6669C102.404 29.7782 102.464 29.9119 102.464 30.0682C102.464 30.2244 102.404 30.3582 102.286 30.4695C102.17 30.5807 102.03 30.6364 101.867 30.6364ZM106.016 39.1591C105.611 39.1591 105.263 39.107 104.972 39.0028C104.68 38.901 104.438 38.7661 104.244 38.598C104.052 38.4323 103.899 38.2547 103.786 38.0653L104.453 37.5966C104.529 37.696 104.625 37.8097 104.741 37.9375C104.857 38.0677 105.015 38.1802 105.217 38.2749C105.42 38.3719 105.687 38.4205 106.016 38.4205C106.456 38.4205 106.819 38.3139 107.106 38.1009C107.392 37.8878 107.536 37.554 107.536 37.0994V35.9915H107.464C107.403 36.0909 107.315 36.214 107.202 36.3608C107.09 36.5052 106.929 36.6342 106.719 36.7479C106.51 36.8591 106.229 36.9148 105.874 36.9148C105.433 36.9148 105.038 36.8106 104.688 36.6023C104.339 36.3939 104.064 36.0909 103.86 35.6932C103.659 35.2955 103.558 34.8125 103.558 34.2443C103.558 33.6856 103.656 33.1991 103.853 32.7848C104.049 32.3681 104.323 32.0462 104.673 31.8189C105.024 31.5893 105.429 31.4744 105.888 31.4744C106.243 31.4744 106.525 31.5336 106.733 31.652C106.944 31.768 107.105 31.9006 107.216 32.0497C107.33 32.1965 107.417 32.3172 107.479 32.4119H107.564V31.5455H108.374V37.1562C108.374 37.625 108.267 38.0062 108.054 38.2997C107.843 38.5956 107.559 38.8123 107.202 38.9496C106.847 39.0893 106.451 39.1591 106.016 39.1591ZM105.987 36.1619C106.323 36.1619 106.607 36.085 106.839 35.9311C107.071 35.7772 107.248 35.5559 107.369 35.267C107.489 34.9782 107.55 34.6326 107.55 34.2301C107.55 33.8371 107.491 33.4903 107.372 33.1896C107.254 32.889 107.079 32.6534 106.847 32.483C106.615 32.3125 106.328 32.2273 105.987 32.2273C105.632 32.2273 105.336 32.3172 105.099 32.4972C104.865 32.6771 104.689 32.9186 104.57 33.2216C104.454 33.5246 104.396 33.8608 104.396 34.2301C104.396 34.6089 104.455 34.9439 104.574 35.2351C104.695 35.5239 104.872 35.7512 105.107 35.9169C105.343 36.0803 105.637 36.1619 105.987 36.1619ZM110.746 33.7188V37H109.908V31.5455H110.717V32.3977H110.788C110.916 32.1207 111.11 31.8982 111.371 31.7301C111.631 31.5597 111.967 31.4744 112.379 31.4744C112.749 31.4744 113.072 31.5502 113.349 31.7017C113.626 31.8509 113.841 32.0781 113.995 32.3835C114.149 32.6866 114.226 33.0701 114.226 33.5341V37H113.388V33.5909C113.388 33.1624 113.277 32.8286 113.054 32.5895C112.831 32.348 112.526 32.2273 112.138 32.2273C111.87 32.2273 111.631 32.2853 111.42 32.4013C111.212 32.5173 111.048 32.6866 110.927 32.9091C110.806 33.1316 110.746 33.4015 110.746 33.7188ZM118.044 37.1136C117.519 37.1136 117.065 36.9976 116.684 36.7656C116.305 36.5312 116.013 36.2045 115.807 35.7855C115.603 35.3641 115.502 34.8741 115.502 34.3153C115.502 33.7566 115.603 33.2642 115.807 32.8381C116.013 32.4096 116.299 32.0758 116.666 31.8366C117.036 31.5952 117.467 31.4744 117.959 31.4744C118.243 31.4744 118.524 31.5218 118.801 31.6165C119.078 31.7112 119.33 31.8651 119.557 32.0781C119.784 32.2888 119.965 32.5682 120.1 32.9162C120.235 33.2642 120.303 33.6927 120.303 34.2017V34.5568H116.098V33.8324H119.45C119.45 33.5246 119.389 33.25 119.266 33.0085C119.145 32.767 118.972 32.5765 118.747 32.4368C118.525 32.2971 118.262 32.2273 117.959 32.2273C117.625 32.2273 117.336 32.3101 117.093 32.4759C116.851 32.6392 116.665 32.8523 116.535 33.1151C116.405 33.3778 116.34 33.6596 116.34 33.9602V34.4432C116.34 34.8551 116.411 35.2043 116.553 35.4908C116.697 35.7749 116.897 35.9915 117.153 36.1406C117.409 36.2874 117.706 36.3608 118.044 36.3608C118.264 36.3608 118.463 36.33 118.641 36.2685C118.821 36.2045 118.976 36.1098 119.106 35.9844C119.236 35.8565 119.337 35.6979 119.408 35.5085L120.218 35.7358C120.132 36.0104 119.989 36.2519 119.788 36.4602C119.587 36.6662 119.338 36.8272 119.042 36.9432C118.746 37.0568 118.414 37.1136 118.044 37.1136ZM121.578 37V31.5455H122.387V32.3693H122.444C122.544 32.0994 122.723 31.8804 122.984 31.7124C123.244 31.5443 123.538 31.4602 123.865 31.4602C123.926 31.4602 124.003 31.4614 124.095 31.4638C124.188 31.4661 124.258 31.4697 124.305 31.4744V32.3267C124.276 32.3196 124.211 32.3089 124.11 32.2947C124.01 32.2782 123.905 32.2699 123.794 32.2699C123.528 32.2699 123.292 32.3255 123.083 32.4368C122.877 32.5457 122.714 32.6972 122.593 32.8913C122.475 33.0831 122.416 33.3021 122.416 33.5483V37H121.578ZM129.162 32.767L128.409 32.9801C128.362 32.8546 128.292 32.7327 128.2 32.6143C128.11 32.4936 127.987 32.3942 127.83 32.3161C127.674 32.2379 127.474 32.1989 127.23 32.1989C126.896 32.1989 126.618 32.2758 126.396 32.4297C126.175 32.5812 126.065 32.7741 126.065 33.0085C126.065 33.2169 126.141 33.3814 126.293 33.5021C126.444 33.6229 126.681 33.7235 127.003 33.804L127.812 34.0028C128.3 34.1212 128.664 34.3023 128.903 34.5462C129.142 34.7876 129.261 35.099 129.261 35.4801C129.261 35.7926 129.171 36.072 128.991 36.3182C128.814 36.5644 128.565 36.7585 128.246 36.9006C127.926 37.0426 127.554 37.1136 127.131 37.1136C126.574 37.1136 126.114 36.9929 125.749 36.7514C125.385 36.5099 125.154 36.1572 125.057 35.6932L125.852 35.4943C125.928 35.7879 126.071 36.008 126.282 36.1548C126.495 36.3016 126.773 36.375 127.116 36.375C127.507 36.375 127.817 36.2921 128.047 36.1264C128.279 35.9583 128.395 35.7571 128.395 35.5227C128.395 35.3333 128.329 35.1747 128.196 35.0469C128.063 34.9167 127.86 34.8196 127.585 34.7557L126.676 34.5426C126.177 34.4242 125.81 34.2408 125.575 33.9922C125.343 33.7412 125.227 33.4276 125.227 33.0511C125.227 32.7434 125.314 32.4711 125.487 32.2344C125.662 31.9976 125.9 31.8118 126.2 31.6768C126.503 31.5419 126.847 31.4744 127.23 31.4744C127.77 31.4744 128.194 31.5928 128.501 31.8295C128.812 32.0663 129.032 32.3788 129.162 32.767Z" fill="#E11D48"/>
<rect x="24.5" y="48.5" width="34" height="23" rx="1.5" stroke="#64748B"/>
<rect x="62.5" y="48.5" width="34" height="23" rx="1.5" stroke="#64748B"/>
<rect x="100.5" y="48.5" width="34" height="23" rx="1.5" stroke="#64748B"/>
<path d="M32.4261 63.7273V56.4545H32.892V63.7273H32.4261ZM33.6619 58.8551C33.6392 58.6259 33.5417 58.4479 33.3693 58.321C33.197 58.1941 32.9631 58.1307 32.6676 58.1307C32.4669 58.1307 32.2973 58.1591 32.1591 58.2159C32.0208 58.2708 31.9148 58.3475 31.8409 58.446C31.7689 58.5445 31.733 58.6562 31.733 58.7812C31.7292 58.8854 31.7509 58.9763 31.7983 59.054C31.8475 59.1316 31.9148 59.1989 32 59.2557C32.0852 59.3106 32.1837 59.3589 32.2955 59.4006C32.4072 59.4403 32.5265 59.4744 32.6534 59.5028L33.1761 59.6278C33.4299 59.6847 33.6629 59.7604 33.875 59.8551C34.0871 59.9498 34.2708 60.0663 34.4261 60.2045C34.5814 60.3428 34.7017 60.5057 34.7869 60.6932C34.8741 60.8807 34.9186 61.0956 34.9205 61.3381C34.9186 61.6941 34.8277 62.0028 34.6477 62.2642C34.4697 62.5237 34.2121 62.7254 33.875 62.8693C33.5398 63.0114 33.1354 63.0824 32.6619 63.0824C32.1922 63.0824 31.7831 63.0104 31.4347 62.8665C31.0881 62.7225 30.8172 62.5095 30.6222 62.2273C30.429 61.9432 30.3277 61.5919 30.3182 61.1733H31.5085C31.5218 61.3684 31.5777 61.5312 31.6761 61.6619C31.7765 61.7907 31.91 61.8883 32.0767 61.9545C32.2453 62.0189 32.4356 62.0511 32.6477 62.0511C32.8561 62.0511 33.0369 62.0208 33.1903 61.9602C33.3456 61.8996 33.4659 61.8153 33.5511 61.7074C33.6364 61.5994 33.679 61.4754 33.679 61.3352C33.679 61.2045 33.6402 61.0947 33.5625 61.0057C33.4867 60.9167 33.375 60.8409 33.2273 60.7784C33.0814 60.7159 32.9025 60.6591 32.6903 60.608L32.0568 60.4489C31.5663 60.3295 31.179 60.143 30.8949 59.8892C30.6108 59.6354 30.4697 59.2936 30.4716 58.8636C30.4697 58.5114 30.5634 58.2036 30.7528 57.9403C30.9441 57.6771 31.2064 57.4716 31.5398 57.3239C31.8731 57.1761 32.2519 57.1023 32.6761 57.1023C33.108 57.1023 33.4848 57.1761 33.8068 57.3239C34.1307 57.4716 34.3826 57.6771 34.5625 57.9403C34.7424 58.2036 34.8352 58.5085 34.8409 58.8551H33.6619ZM35.6257 61.9773V61.0085L38.0547 57.1818H38.8899V58.5227H38.3956L36.8643 60.946V60.9915H40.3161V61.9773H35.6257ZM38.4183 63V61.6818L38.4411 61.2528V57.1818H39.5945V63H38.4183ZM43.4169 63.1278C42.9283 63.1259 42.5078 63.0057 42.1555 62.767C41.8052 62.5284 41.5353 62.1828 41.3459 61.7301C41.1584 61.2775 41.0656 60.733 41.0675 60.0966C41.0675 59.4621 41.1612 58.9214 41.3487 58.4744C41.5381 58.0275 41.808 57.6875 42.1584 57.4545C42.5107 57.2197 42.9302 57.1023 43.4169 57.1023C43.9036 57.1023 44.3222 57.2197 44.6726 57.4545C45.0249 57.6894 45.2957 58.0303 45.4851 58.4773C45.6745 58.9223 45.7682 59.4621 45.7663 60.0966C45.7663 60.7348 45.6716 61.2803 45.4822 61.733C45.2947 62.1856 45.0258 62.5312 44.6754 62.7699C44.325 63.0085 43.9055 63.1278 43.4169 63.1278ZM43.4169 62.108C43.7502 62.108 44.0163 61.9403 44.2152 61.6051C44.4141 61.2699 44.5125 60.767 44.5107 60.0966C44.5107 59.6553 44.4652 59.2879 44.3743 58.9943C44.2853 58.7008 44.1584 58.4801 43.9936 58.3324C43.8307 58.1847 43.6385 58.1108 43.4169 58.1108C43.0855 58.1108 42.8203 58.2765 42.6214 58.608C42.4226 58.9394 42.3222 59.4356 42.3203 60.0966C42.3203 60.5436 42.3648 60.9167 42.4538 61.2159C42.5447 61.5133 42.6726 61.7367 42.8374 61.8864C43.0021 62.0341 43.1953 62.108 43.4169 62.108ZM46.6776 57.1818H48.1946L49.7969 61.0909H49.8651L51.4673 57.1818H52.9844V63H51.7912V59.2131H51.7429L50.2372 62.9716H49.4247L47.919 59.1989H47.8707V63H46.6776V57.1818Z" fill="#64748B"/>
<path d="M74.4261 63.7273V56.4545H74.892V63.7273H74.4261ZM75.6619 58.8551C75.6392 58.6259 75.5417 58.4479 75.3693 58.321C75.197 58.1941 74.9631 58.1307 74.6676 58.1307C74.4669 58.1307 74.2973 58.1591 74.1591 58.2159C74.0208 58.2708 73.9148 58.3475 73.8409 58.446C73.7689 58.5445 73.733 58.6562 73.733 58.7812C73.7292 58.8854 73.7509 58.9763 73.7983 59.054C73.8475 59.1316 73.9148 59.1989 74 59.2557C74.0852 59.3106 74.1837 59.3589 74.2955 59.4006C74.4072 59.4403 74.5265 59.4744 74.6534 59.5028L75.1761 59.6278C75.4299 59.6847 75.6629 59.7604 75.875 59.8551C76.0871 59.9498 76.2708 60.0663 76.4261 60.2045C76.5814 60.3428 76.7017 60.5057 76.7869 60.6932C76.8741 60.8807 76.9186 61.0956 76.9205 61.3381C76.9186 61.6941 76.8277 62.0028 76.6477 62.2642C76.4697 62.5237 76.2121 62.7254 75.875 62.8693C75.5398 63.0114 75.1354 63.0824 74.6619 63.0824C74.1922 63.0824 73.7831 63.0104 73.4347 62.8665C73.0881 62.7225 72.8172 62.5095 72.6222 62.2273C72.429 61.9432 72.3277 61.5919 72.3182 61.1733H73.5085C73.5218 61.3684 73.5777 61.5312 73.6761 61.6619C73.7765 61.7907 73.91 61.8883 74.0767 61.9545C74.2453 62.0189 74.4356 62.0511 74.6477 62.0511C74.8561 62.0511 75.0369 62.0208 75.1903 61.9602C75.3456 61.8996 75.4659 61.8153 75.5511 61.7074C75.6364 61.5994 75.679 61.4754 75.679 61.3352C75.679 61.2045 75.6402 61.0947 75.5625 61.0057C75.4867 60.9167 75.375 60.8409 75.2273 60.7784C75.0814 60.7159 74.9025 60.6591 74.6903 60.608L74.0568 60.4489C73.5663 60.3295 73.179 60.143 72.8949 59.8892C72.6108 59.6354 72.4697 59.2936 72.4716 58.8636C72.4697 58.5114 72.5634 58.2036 72.7528 57.9403C72.9441 57.6771 73.2064 57.4716 73.5398 57.3239C73.8731 57.1761 74.2519 57.1023 74.6761 57.1023C75.108 57.1023 75.4848 57.1761 75.8068 57.3239C76.1307 57.4716 76.3826 57.6771 76.5625 57.9403C76.7424 58.2036 76.8352 58.5085 76.8409 58.8551H75.6619ZM77.7138 63V62.1136L79.7848 60.196C79.9609 60.0256 80.1087 59.8722 80.228 59.7358C80.3492 59.5994 80.4411 59.4659 80.5036 59.3352C80.5661 59.2027 80.5973 59.0597 80.5973 58.9062C80.5973 58.7358 80.5585 58.589 80.4808 58.4659C80.4032 58.3409 80.2971 58.2453 80.1626 58.179C80.0282 58.1108 79.8757 58.0767 79.7053 58.0767C79.5272 58.0767 79.3719 58.1127 79.2393 58.1847C79.1068 58.2566 79.0045 58.3598 78.9325 58.4943C78.8606 58.6288 78.8246 58.7888 78.8246 58.9744H77.657C77.657 58.5937 77.7431 58.2633 77.9155 57.983C78.0878 57.7027 78.3293 57.4858 78.6399 57.3324C78.9505 57.179 79.3085 57.1023 79.7138 57.1023C80.1304 57.1023 80.4931 57.1761 80.8018 57.3239C81.1125 57.4697 81.3539 57.6723 81.5263 57.9318C81.6986 58.1913 81.7848 58.4886 81.7848 58.8239C81.7848 59.0436 81.7412 59.2604 81.6541 59.4744C81.5689 59.6884 81.4164 59.9261 81.1967 60.1875C80.977 60.447 80.6674 60.7585 80.2678 61.1222L79.4183 61.9545V61.9943H81.8615V63H77.7138ZM82.7869 63V57.1818H85.1165C85.5445 57.1818 85.9015 57.2453 86.1875 57.3722C86.4735 57.4991 86.6884 57.6752 86.8324 57.9006C86.9763 58.1241 87.0483 58.3816 87.0483 58.6733C87.0483 58.9006 87.0028 59.1004 86.9119 59.2727C86.821 59.4432 86.696 59.5833 86.5369 59.6932C86.3797 59.8011 86.1998 59.8778 85.9972 59.9233V59.9801C86.2188 59.9896 86.4261 60.0521 86.6193 60.1676C86.8144 60.2831 86.9725 60.4451 87.0938 60.6534C87.215 60.8598 87.2756 61.1061 87.2756 61.392C87.2756 61.7008 87.1989 61.9763 87.0455 62.2188C86.8939 62.4593 86.6695 62.6496 86.3722 62.7898C86.0748 62.9299 85.7083 63 85.2727 63H82.7869ZM84.017 61.9943H85.0199C85.3627 61.9943 85.6127 61.929 85.7699 61.7983C85.9271 61.6657 86.0057 61.4896 86.0057 61.2699C86.0057 61.1089 85.9669 60.9669 85.8892 60.8438C85.8116 60.7206 85.7008 60.6241 85.5568 60.554C85.4148 60.4839 85.2453 60.4489 85.0483 60.4489H84.017V61.9943ZM84.017 59.6165H84.929C85.0975 59.6165 85.2472 59.5871 85.3778 59.5284C85.5104 59.4678 85.6146 59.3826 85.6903 59.2727C85.768 59.1629 85.8068 59.0312 85.8068 58.8778C85.8068 58.6676 85.732 58.4981 85.5824 58.3693C85.4347 58.2405 85.2244 58.1761 84.9517 58.1761H84.017V59.6165Z" fill="#64748B"/>
<path d="M112.384 61.9773V61.0085L114.812 57.1818H115.648V58.5227H115.153L113.622 60.946V60.9915H117.074V61.9773H112.384ZM115.176 63V61.6818L115.199 61.2528V57.1818H116.352V63H115.176ZM117.805 61.9773V61.0085L120.234 57.1818H121.07V58.5227H120.575L119.044 60.946V60.9915H122.496V61.9773H117.805ZM120.598 63V61.6818L120.621 61.2528V57.1818H121.774V63H120.598Z" fill="#64748B"/>
</svg>
