<svg width="160" height="100" viewBox="0 0 160 100" fill="none" xmlns="http://www.w3.org/2000/svg">
<rect x="0.05" y="0.05" width="159.9" height="99.9" rx="4.95" stroke="#94A3B8" stroke-width="0.1"/>
<rect x="16.5" y="24.5" width="127" height="66" rx="1.5" stroke="#64748B"/>
<line x1="16" y1="32.5" x2="144" y2="32.5" stroke="#64748B"/>
<line x1="17" y1="42.5" x2="143" y2="42.5" stroke="#64748B"/>
<line x1="17" y1="52.5" x2="143" y2="52.5" stroke="#64748B"/>
<line x1="17" y1="62.5" x2="143" y2="62.5" stroke="#64748B"/>
<line x1="17" y1="72.5" x2="143" y2="72.5001" stroke="#64748B"/>
<line x1="17" y1="82.5001" x2="143" y2="82.5001" stroke="#64748B"/>
<line x1="27.5" y1="25" x2="27.5" y2="90" stroke="#64748B"/>
<line x1="56.5" y1="25" x2="56.5" y2="90" stroke="#64748B"/>
<line x1="85.5" y1="24" x2="85.5" y2="90" stroke="#64748B"/>
<line x1="114.5" y1="24" x2="114.5" y2="90" stroke="#64748B"/>
<path d="M19 29H25" stroke="#E11D48" stroke-linecap="round"/>
<path d="M36 29H49" stroke="#E11D48" stroke-linecap="round"/>
<path d="M65 29L77 29" stroke="#E11D48" stroke-linecap="round"/>
<path d="M95 29L107 29" stroke="#E11D48" stroke-linecap="round"/>
<path d="M123 29L135 29" stroke="#E11D48" stroke-linecap="round"/>
<path d="M67.483 11.5085V10.7273H72.9375V11.5085H70.6506V18H69.7699V11.5085H67.483ZM75.046 18.1278C74.7003 18.1278 74.3867 18.0627 74.1049 17.9325C73.8232 17.8 73.5995 17.6094 73.4338 17.3608C73.2681 17.1098 73.1852 16.8068 73.1852 16.4517C73.1852 16.1392 73.2467 15.8859 73.3699 15.6918C73.493 15.4953 73.6575 15.3414 73.8635 15.2301C74.0694 15.1188 74.2967 15.036 74.5453 14.9815C74.7962 14.9247 75.0484 14.8797 75.3017 14.8466C75.6331 14.804 75.9018 14.772 76.1078 14.7507C76.3161 14.727 76.4676 14.688 76.5623 14.6335C76.6594 14.5791 76.7079 14.4844 76.7079 14.3494V14.321C76.7079 13.9706 76.612 13.6984 76.4203 13.5043C76.2309 13.3101 75.9432 13.2131 75.5574 13.2131C75.1573 13.2131 74.8436 13.3007 74.6163 13.4759C74.389 13.651 74.2292 13.8381 74.1369 14.0369L73.3414 13.7528C73.4835 13.4214 73.6729 13.1634 73.9096 12.9787C74.1487 12.7917 74.4092 12.6615 74.6909 12.5881C74.975 12.5123 75.2543 12.4744 75.5289 12.4744C75.7041 12.4744 75.9054 12.4957 76.1326 12.5384C76.3623 12.5786 76.5836 12.6626 76.7967 12.7905C77.0121 12.9183 77.1909 13.1113 77.3329 13.3693C77.475 13.6274 77.546 13.973 77.546 14.4062V18H76.7079V17.2614H76.6653C76.6085 17.3797 76.5138 17.5064 76.3812 17.6413C76.2486 17.7763 76.0723 17.8911 75.8521 17.9858C75.6319 18.0805 75.3632 18.1278 75.046 18.1278ZM75.1738 17.375C75.5053 17.375 75.7846 17.3099 76.0119 17.1797C76.2415 17.0495 76.4144 16.8814 76.5304 16.6754C76.6487 16.4695 76.7079 16.2528 76.7079 16.0256V15.2585C76.6724 15.3011 76.5943 15.3402 76.4735 15.3757C76.3552 15.4089 76.2179 15.4384 76.0616 15.4645C75.9077 15.4882 75.7574 15.5095 75.6106 15.5284C75.4662 15.545 75.349 15.5592 75.2591 15.571C75.0413 15.5994 74.8377 15.6456 74.6483 15.7095C74.4612 15.7711 74.3097 15.8646 74.1937 15.9901C74.0801 16.1132 74.0233 16.2812 74.0233 16.4943C74.0233 16.7855 74.131 17.0057 74.3464 17.1548C74.5642 17.3016 74.84 17.375 75.1738 17.375ZM79.1893 18V10.7273H80.0273V13.4119H80.0984C80.1599 13.3172 80.2451 13.1965 80.354 13.0497C80.4653 12.9006 80.6239 12.768 80.8299 12.652C81.0382 12.5336 81.32 12.4744 81.6751 12.4744C82.1344 12.4744 82.5392 12.5893 82.8896 12.8189C83.2399 13.0485 83.5134 13.3741 83.7099 13.7955C83.9064 14.2169 84.0046 14.714 84.0046 15.2869C84.0046 15.8646 83.9064 16.3653 83.7099 16.7891C83.5134 17.2105 83.2411 17.5372 82.8931 17.7692C82.5451 17.9988 82.1438 18.1136 81.6893 18.1136C81.3389 18.1136 81.0584 18.0556 80.8477 17.9396C80.637 17.8213 80.4748 17.6875 80.3612 17.5384C80.2475 17.3868 80.1599 17.2614 80.0984 17.1619H79.9989V18H79.1893ZM80.0131 15.2727C80.0131 15.6847 80.0735 16.0481 80.1942 16.3629C80.315 16.6754 80.4914 16.9205 80.7234 17.098C80.9554 17.2732 81.2395 17.3608 81.5756 17.3608C81.926 17.3608 82.2184 17.2685 82.4528 17.0838C82.6895 16.8968 82.8671 16.6458 82.9854 16.331C83.1062 16.0137 83.1665 15.661 83.1665 15.2727C83.1665 14.8892 83.1074 14.5436 82.989 14.2358C82.873 13.9257 82.6966 13.6806 82.4599 13.5007C82.2255 13.3184 81.9308 13.2273 81.5756 13.2273C81.2347 13.2273 80.9483 13.3137 80.7163 13.4865C80.4843 13.657 80.3091 13.8961 80.1907 14.2038C80.0723 14.5092 80.0131 14.8655 80.0131 15.2727ZM86.1246 10.7273V18H85.2866V10.7273H86.1246ZM89.9466 18.1136C89.421 18.1136 88.9676 17.9976 88.5865 17.7656C88.2077 17.5312 87.9153 17.2045 87.7093 16.7855C87.5057 16.3641 87.4039 15.8741 87.4039 15.3153C87.4039 14.7566 87.5057 14.2642 87.7093 13.8381C87.9153 13.4096 88.2018 13.0758 88.5687 12.8366C88.938 12.5952 89.3689 12.4744 89.8613 12.4744C90.1454 12.4744 90.426 12.5218 90.7029 12.6165C90.9799 12.7112 91.2321 12.8651 91.4593 13.0781C91.6866 13.2888 91.8677 13.5682 92.0027 13.9162C92.1376 14.2642 92.2051 14.6927 92.2051 15.2017V15.5568H88.0005V14.8324H91.3528C91.3528 14.5246 91.2913 14.25 91.1681 14.0085C91.0474 13.767 90.8746 13.5765 90.6497 13.4368C90.4271 13.2971 90.1644 13.2273 89.8613 13.2273C89.5275 13.2273 89.2387 13.3101 88.9949 13.4759C88.7534 13.6392 88.5675 13.8523 88.4373 14.1151C88.3071 14.3778 88.242 14.6596 88.242 14.9602V15.4432C88.242 15.8551 88.313 16.2043 88.4551 16.4908C88.5995 16.7749 88.7995 16.9915 89.0552 17.1406C89.3109 17.2874 89.608 17.3608 89.9466 17.3608C90.1667 17.3608 90.3656 17.33 90.5431 17.2685C90.7231 17.2045 90.8781 17.1098 91.0083 16.9844C91.1386 16.8565 91.2392 16.6979 91.3102 16.5085L92.1199 16.7358C92.0346 17.0104 91.8914 17.2519 91.6902 17.4602C91.4889 17.6662 91.2404 17.8272 90.9444 17.9432C90.6485 18.0568 90.3159 18.1136 89.9466 18.1136Z" fill="#E11D48"/>
</svg>