<svg width="160" height="100" viewBox="0 0 160 100" fill="none" xmlns="http://www.w3.org/2000/svg">
<rect x="0.05" y="0.05" width="159.9" height="99.9" rx="4.95" stroke="#94A3B8" stroke-width="0.1"/>
<path d="M50.483 24.5085V23.7273H55.9375V24.5085H53.6506V31H52.7699V24.5085H50.483ZM58.679 31.1136C58.1534 31.1136 57.7 30.9976 57.3189 30.7656C56.9401 30.5312 56.6477 30.2045 56.4418 29.7855C56.2382 29.3641 56.1364 28.8741 56.1364 28.3153C56.1364 27.7566 56.2382 27.2642 56.4418 26.8381C56.6477 26.4096 56.9342 26.0758 57.3011 25.8366C57.6705 25.5952 58.1013 25.4744 58.5938 25.4744C58.8778 25.4744 59.1584 25.5218 59.4354 25.6165C59.7124 25.7112 59.9645 25.8651 60.1918 26.0781C60.419 26.2888 60.6001 26.5682 60.7351 26.9162C60.87 27.2642 60.9375 27.6927 60.9375 28.2017V28.5568H56.733V27.8324H60.0852C60.0852 27.5246 60.0237 27.25 59.9006 27.0085C59.7798 26.767 59.607 26.5765 59.3821 26.4368C59.1596 26.2971 58.8968 26.2273 58.5938 26.2273C58.2599 26.2273 57.9711 26.3101 57.7273 26.4759C57.4858 26.6392 57.3 26.8523 57.1697 27.1151C57.0395 27.3778 56.9744 27.6596 56.9744 27.9602V28.4432C56.9744 28.8551 57.0455 29.2043 57.1875 29.4908C57.3319 29.7749 57.532 29.9915 57.7876 30.1406C58.0433 30.2874 58.3404 30.3608 58.679 30.3608C58.8991 30.3608 59.098 30.33 59.2756 30.2685C59.4555 30.2045 59.6106 30.1098 59.7408 29.9844C59.871 29.8565 59.9716 29.6979 60.0426 29.5085L60.8523 29.7358C60.767 30.0104 60.6238 30.2519 60.4226 30.4602C60.2214 30.6662 59.9728 30.8272 59.6768 30.9432C59.3809 31.0568 59.0483 31.1136 58.679 31.1136ZM66.076 26.767L65.3232 26.9801C65.2758 26.8546 65.206 26.7327 65.1136 26.6143C65.0237 26.4936 64.9006 26.3942 64.7443 26.3161C64.5881 26.2379 64.388 26.1989 64.1442 26.1989C63.8104 26.1989 63.5322 26.2758 63.3097 26.4297C63.0895 26.5812 62.9794 26.7741 62.9794 27.0085C62.9794 27.2169 63.0552 27.3814 63.2067 27.5021C63.3582 27.6229 63.5949 27.7235 63.9169 27.804L64.7266 28.0028C65.2143 28.1212 65.5777 28.3023 65.8168 28.5462C66.0559 28.7876 66.1754 29.099 66.1754 29.4801C66.1754 29.7926 66.0855 30.072 65.9055 30.3182C65.728 30.5644 65.4794 30.7585 65.1598 30.9006C64.8402 31.0426 64.4685 31.1136 64.0447 31.1136C63.4884 31.1136 63.0279 30.9929 62.6634 30.7514C62.2988 30.5099 62.0679 30.1572 61.9709 29.6932L62.7663 29.4943C62.8421 29.7879 62.9853 30.008 63.196 30.1548C63.4091 30.3016 63.6873 30.375 64.0305 30.375C64.4212 30.375 64.7313 30.2921 64.9609 30.1264C65.1929 29.9583 65.3089 29.7571 65.3089 29.5227C65.3089 29.3333 65.2427 29.1747 65.1101 29.0469C64.9775 28.9167 64.7739 28.8196 64.4993 28.7557L63.5902 28.5426C63.0907 28.4242 62.7237 28.2408 62.4893 27.9922C62.2573 27.7412 62.1413 27.4276 62.1413 27.0511C62.1413 26.7434 62.2277 26.4711 62.4006 26.2344C62.5758 25.9976 62.8137 25.8118 63.1143 25.6768C63.4174 25.5419 63.7607 25.4744 64.1442 25.4744C64.6839 25.4744 65.1077 25.5928 65.4155 25.8295C65.7256 26.0663 65.9458 26.3788 66.076 26.767ZM69.8091 25.5455V26.2557H66.9824V25.5455H69.8091ZM67.8063 24.2386H68.6444V29.4375C68.6444 29.6742 68.6787 29.8518 68.7473 29.9702C68.8184 30.0862 68.9083 30.1643 69.0172 30.2045C69.1285 30.2424 69.2457 30.2614 69.3688 30.2614C69.4611 30.2614 69.5369 30.2566 69.5961 30.2472C69.6552 30.2353 69.7026 30.2259 69.7381 30.2188L69.9086 30.9716C69.8517 30.9929 69.7724 31.0142 69.6706 31.0355C69.5688 31.0592 69.4398 31.071 69.2836 31.071C69.0468 31.071 68.8148 31.0201 68.5875 30.9183C68.3626 30.8165 68.1756 30.6615 68.0265 30.4531C67.8797 30.2448 67.8063 29.982 67.8063 29.6648V24.2386ZM71.0698 31V25.5455H71.9078V31H71.0698ZM71.4959 24.6364C71.3326 24.6364 71.1917 24.5807 71.0733 24.4695C70.9573 24.3582 70.8993 24.2244 70.8993 24.0682C70.8993 23.9119 70.9573 23.7782 71.0733 23.6669C71.1917 23.5556 71.3326 23.5 71.4959 23.5C71.6593 23.5 71.7989 23.5556 71.915 23.6669C72.0333 23.7782 72.0925 23.9119 72.0925 24.0682C72.0925 24.2244 72.0333 24.3582 71.915 24.4695C71.7989 24.5807 71.6593 24.6364 71.4959 24.6364ZM73.4428 31V25.5455H74.2525V26.3977H74.3235C74.4371 26.1065 74.6206 25.8804 74.8739 25.7195C75.1272 25.5561 75.4315 25.4744 75.7866 25.4744C76.1464 25.4744 76.4459 25.5561 76.685 25.7195C76.9265 25.8804 77.1147 26.1065 77.2496 26.3977H77.3065C77.4461 26.116 77.6557 25.8923 77.935 25.7266C78.2144 25.5585 78.5494 25.4744 78.94 25.4744C79.4277 25.4744 79.8266 25.6271 80.1367 25.9325C80.4469 26.2356 80.6019 26.7079 80.6019 27.3494V31H79.7638V27.3494C79.7638 26.947 79.6538 26.6593 79.4336 26.4865C79.2134 26.3137 78.9542 26.2273 78.6559 26.2273C78.2724 26.2273 77.9753 26.3433 77.7646 26.5753C77.5539 26.8049 77.4485 27.0961 77.4485 27.4489V31H76.5962V27.2642C76.5962 26.9541 76.4956 26.7043 76.2944 26.5149C76.0932 26.3232 75.8339 26.2273 75.5167 26.2273C75.2989 26.2273 75.0953 26.2853 74.9059 26.4013C74.7189 26.5173 74.5674 26.6783 74.4513 26.8842C74.3377 27.0878 74.2809 27.3234 74.2809 27.5909V31H73.4428ZM84.3501 31.1136C83.8577 31.1136 83.4257 30.9964 83.054 30.7621C82.6847 30.5277 82.3958 30.1998 82.1875 29.7784C81.9815 29.357 81.8786 28.8646 81.8786 28.3011C81.8786 27.733 81.9815 27.237 82.1875 26.8132C82.3958 26.3894 82.6847 26.0604 83.054 25.826C83.4257 25.5916 83.8577 25.4744 84.3501 25.4744C84.8426 25.4744 85.2734 25.5916 85.6428 25.826C86.0144 26.0604 86.3033 26.3894 86.5092 26.8132C86.7176 27.237 86.8217 27.733 86.8217 28.3011C86.8217 28.8646 86.7176 29.357 86.5092 29.7784C86.3033 30.1998 86.0144 30.5277 85.6428 30.7621C85.2734 30.9964 84.8426 31.1136 84.3501 31.1136ZM84.3501 30.3608C84.7242 30.3608 85.032 30.2649 85.2734 30.0732C85.5149 29.8814 85.6937 29.6293 85.8097 29.3168C85.9257 29.0043 85.9837 28.6657 85.9837 28.3011C85.9837 27.9366 85.9257 27.5968 85.8097 27.282C85.6937 26.9671 85.5149 26.7126 85.2734 26.5185C85.032 26.3243 84.7242 26.2273 84.3501 26.2273C83.9761 26.2273 83.6683 26.3243 83.4268 26.5185C83.1854 26.7126 83.0066 26.9671 82.8906 27.282C82.7746 27.5968 82.7166 27.9366 82.7166 28.3011C82.7166 28.6657 82.7746 29.0043 82.8906 29.3168C83.0066 29.6293 83.1854 29.8814 83.4268 30.0732C83.6683 30.2649 83.9761 30.3608 84.3501 30.3608ZM88.9391 27.7188V31H88.101V25.5455H88.9107V26.3977H88.9817C89.1096 26.1207 89.3037 25.8982 89.5641 25.7301C89.8245 25.5597 90.1607 25.4744 90.5726 25.4744C90.9419 25.4744 91.2651 25.5502 91.5421 25.7017C91.8191 25.8509 92.0345 26.0781 92.1884 26.3835C92.3423 26.6866 92.4192 27.0701 92.4192 27.5341V31H91.5811V27.5909C91.5811 27.1624 91.4699 26.8286 91.2473 26.5895C91.0248 26.348 90.7194 26.2273 90.3311 26.2273C90.0636 26.2273 89.8245 26.2853 89.6138 26.4013C89.4055 26.5173 89.2409 26.6866 89.1202 26.9091C88.9995 27.1316 88.9391 27.4015 88.9391 27.7188ZM93.9506 31V25.5455H94.7887V31H93.9506ZM94.3768 24.6364C94.2134 24.6364 94.0726 24.5807 93.9542 24.4695C93.8382 24.3582 93.7802 24.2244 93.7802 24.0682C93.7802 23.9119 93.8382 23.7782 93.9542 23.6669C94.0726 23.5556 94.2134 23.5 94.3768 23.5C94.5401 23.5 94.6798 23.5556 94.7958 23.6669C94.9142 23.7782 94.9734 23.9119 94.9734 24.0682C94.9734 24.2244 94.9142 24.3582 94.7958 24.4695C94.6798 24.5807 94.5401 24.6364 94.3768 24.6364ZM97.9288 31.1278C97.5832 31.1278 97.2695 31.0627 96.9877 30.9325C96.706 30.8 96.4823 30.6094 96.3166 30.3608C96.1509 30.1098 96.068 29.8068 96.068 29.4517C96.068 29.1392 96.1296 28.8859 96.2527 28.6918C96.3758 28.4953 96.5403 28.3414 96.7463 28.2301C96.9522 28.1188 97.1795 28.036 97.4281 27.9815C97.679 27.9247 97.9312 27.8797 98.1845 27.8466C98.5159 27.804 98.7846 27.772 98.9906 27.7507C99.1989 27.727 99.3504 27.688 99.4451 27.6335C99.5422 27.5791 99.5907 27.4844 99.5907 27.3494V27.321C99.5907 26.9706 99.4949 26.6984 99.3031 26.5043C99.1137 26.3101 98.8261 26.2131 98.4402 26.2131C98.0401 26.2131 97.7264 26.3007 97.4991 26.4759C97.2718 26.651 97.112 26.8381 97.0197 27.0369L96.2243 26.7528C96.3663 26.4214 96.5557 26.1634 96.7924 25.9787C97.0315 25.7917 97.292 25.6615 97.5737 25.5881C97.8578 25.5123 98.1371 25.4744 98.4118 25.4744C98.5869 25.4744 98.7882 25.4957 99.0154 25.5384C99.2451 25.5786 99.4664 25.6626 99.6795 25.7905C99.8949 25.9183 100.074 26.1113 100.216 26.3693C100.358 26.6274 100.429 26.973 100.429 27.4062V31H99.5907V30.2614H99.5481C99.4913 30.3797 99.3966 30.5064 99.264 30.6413C99.1315 30.7763 98.9551 30.8911 98.7349 30.9858C98.5147 31.0805 98.246 31.1278 97.9288 31.1278ZM98.0566 30.375C98.3881 30.375 98.6674 30.3099 98.8947 30.1797C99.1243 30.0495 99.2972 29.8814 99.4132 29.6754C99.5315 29.4695 99.5907 29.2528 99.5907 29.0256V28.2585C99.5552 28.3011 99.4771 28.3402 99.3564 28.3757C99.238 28.4089 99.1007 28.4384 98.9444 28.4645C98.7905 28.4882 98.6402 28.5095 98.4934 28.5284C98.349 28.545 98.2318 28.5592 98.1419 28.571C97.9241 28.5994 97.7205 28.6456 97.5311 28.7095C97.344 28.7711 97.1925 28.8646 97.0765 28.9901C96.9629 29.1132 96.9061 29.2812 96.9061 29.4943C96.9061 29.7855 97.0138 30.0057 97.2292 30.1548C97.447 30.3016 97.7228 30.375 98.0566 30.375ZM102.797 23.7273V31H101.958V23.7273H102.797ZM108.195 26.767L107.442 26.9801C107.395 26.8546 107.325 26.7327 107.233 26.6143C107.143 26.4936 107.02 26.3942 106.863 26.3161C106.707 26.2379 106.507 26.1989 106.263 26.1989C105.93 26.1989 105.651 26.2758 105.429 26.4297C105.209 26.5812 105.099 26.7741 105.099 27.0085C105.099 27.2169 105.174 27.3814 105.326 27.5021C105.477 27.6229 105.714 27.7235 106.036 27.804L106.846 28.0028C107.333 28.1212 107.697 28.3023 107.936 28.5462C108.175 28.7876 108.295 29.099 108.295 29.4801C108.295 29.7926 108.205 30.072 108.025 30.3182C107.847 30.5644 107.599 30.7585 107.279 30.9006C106.959 31.0426 106.588 31.1136 106.164 31.1136C105.608 31.1136 105.147 30.9929 104.782 30.7514C104.418 30.5099 104.187 30.1572 104.09 29.6932L104.885 29.4943C104.961 29.7879 105.104 30.008 105.315 30.1548C105.528 30.3016 105.806 30.375 106.15 30.375C106.54 30.375 106.85 30.2921 107.08 30.1264C107.312 29.9583 107.428 29.7571 107.428 29.5227C107.428 29.3333 107.362 29.1747 107.229 29.0469C107.097 28.9167 106.893 28.8196 106.618 28.7557L105.709 28.5426C105.21 28.4242 104.843 28.2408 104.608 27.9922C104.376 27.7412 104.26 27.4276 104.26 27.0511C104.26 26.7434 104.347 26.4711 104.52 26.2344C104.695 25.9976 104.933 25.8118 105.233 25.6768C105.537 25.5419 105.88 25.4744 106.263 25.4744C106.803 25.4744 107.227 25.5928 107.535 25.8295C107.845 26.0663 108.065 26.3788 108.195 26.767Z" fill="#E11D48"/>
<path d="M58 36H101" stroke="#94A3B8" stroke-linecap="round"/>
<path d="M62.5 39L96.5 39" stroke="#94A3B8" stroke-linecap="round"/>
<path d="M69.5 42L89.5 42" stroke="#94A3B8" stroke-linecap="round"/>
<rect x="24.5" y="50.5" width="34" height="23" rx="1.5" stroke="#64748B"/>
<rect x="62.5" y="50.5" width="34" height="23" rx="1.5" stroke="#64748B"/>
<rect x="100.5" y="50.5" width="34" height="23" rx="1.5" stroke="#64748B"/>
<path d="M29 62H48" stroke="#64748B" stroke-linecap="round"/>
<path d="M29 65H44" stroke="#64748B" stroke-linecap="round"/>
<path d="M29 68H40" stroke="#64748B" stroke-linecap="round"/>
<circle cx="31" cy="56" r="1.5" stroke="#64748B"/>
<path d="M35 56H45" stroke="#64748B" stroke-linecap="round"/>
<path d="M67 62H86" stroke="#64748B" stroke-linecap="round"/>
<path d="M67 65H82" stroke="#64748B" stroke-linecap="round"/>
<path d="M67 68H78" stroke="#64748B" stroke-linecap="round"/>
<circle cx="69" cy="56" r="1.5" stroke="#64748B"/>
<path d="M73 56H83" stroke="#64748B" stroke-linecap="round"/>
<path d="M105 62H124" stroke="#64748B" stroke-linecap="round"/>
<path d="M105 65H120" stroke="#64748B" stroke-linecap="round"/>
<path d="M105 68H116" stroke="#64748B" stroke-linecap="round"/>
<circle cx="107" cy="56" r="1.5" stroke="#64748B"/>
<path d="M111 56H121" stroke="#64748B" stroke-linecap="round"/>
</svg>
