<svg width="160" height="100" viewBox="0 0 160 100" fill="none" xmlns="http://www.w3.org/2000/svg">
<rect x="0.05" y="0.05" width="159.9" height="99.9" rx="4.95" stroke="#94A3B8" stroke-width="0.1"/>
<rect x="22.5" y="20.5" width="34" height="34" rx="1.5" stroke="#64748B"/>
<path d="M25 36H36" stroke="#E11D48" stroke-linecap="round"/>
<path d="M25 51H33" stroke="#94A3B8" stroke-linecap="round"/>
<path d="M46 51L54 51" stroke="#E11D48" stroke-linecap="round"/>
<path d="M25 39H50" stroke="#94A3B8" stroke-linecap="round"/>
<path d="M28 41L47 41" stroke="#94A3B8" stroke-linecap="round"/>
<path d="M32 43L43 43" stroke="#94A3B8" stroke-linecap="round"/>
<rect x="62.5" y="20.5" width="34" height="34" rx="1.5" stroke="#64748B"/>
<path d="M65 36H76" stroke="#E11D48" stroke-linecap="round"/>
<path d="M65 51H73" stroke="#94A3B8" stroke-linecap="round"/>
<path d="M86 51L94 51" stroke="#E11D48" stroke-linecap="round"/>
<path d="M65 39H90" stroke="#94A3B8" stroke-linecap="round"/>
<path d="M68 41L87 41" stroke="#94A3B8" stroke-linecap="round"/>
<path d="M72 43L83 43" stroke="#94A3B8" stroke-linecap="round"/>
<rect x="102.5" y="20.5" width="34" height="34" rx="1.5" stroke="#64748B"/>
<path d="M105 36H116" stroke="#E11D48" stroke-linecap="round"/>
<path d="M105 51H113" stroke="#94A3B8" stroke-linecap="round"/>
<path d="M126 51L134 51" stroke="#E11D48" stroke-linecap="round"/>
<path d="M105 39H130" stroke="#94A3B8" stroke-linecap="round"/>
<path d="M108 41L127 41" stroke="#94A3B8" stroke-linecap="round"/>
<path d="M112 43L123 43" stroke="#94A3B8" stroke-linecap="round"/>
<rect x="22.5" y="60.5" width="34" height="34" rx="1.5" stroke="#64748B"/>
<path d="M25 76H36" stroke="#E11D48" stroke-linecap="round"/>
<path d="M25 91H33" stroke="#94A3B8" stroke-linecap="round"/>
<path d="M46 91L54 91" stroke="#E11D48" stroke-linecap="round"/>
<path d="M25 79H50" stroke="#94A3B8" stroke-linecap="round"/>
<path d="M28 81L47 81" stroke="#94A3B8" stroke-linecap="round"/>
<path d="M32 83L43 83" stroke="#94A3B8" stroke-linecap="round"/>
<rect x="62.5" y="60.5" width="34" height="34" rx="1.5" stroke="#64748B"/>
<path d="M65 76H76" stroke="#E11D48" stroke-linecap="round"/>
<path d="M65 91H73" stroke="#94A3B8" stroke-linecap="round"/>
<path d="M86 91L94 91" stroke="#E11D48" stroke-linecap="round"/>
<path d="M65 79H90" stroke="#94A3B8" stroke-linecap="round"/>
<path d="M68 81L87 81" stroke="#94A3B8" stroke-linecap="round"/>
<path d="M72 83L83 83" stroke="#94A3B8" stroke-linecap="round"/>
<rect x="102.5" y="60.5" width="34" height="34" rx="1.5" stroke="#64748B"/>
<path d="M105 76H116" stroke="#E11D48" stroke-linecap="round"/>
<path d="M105 91H113" stroke="#94A3B8" stroke-linecap="round"/>
<path d="M126 91L134 91" stroke="#E11D48" stroke-linecap="round"/>
<path d="M105 79H130" stroke="#94A3B8" stroke-linecap="round"/>
<path d="M108 81L127 81" stroke="#94A3B8" stroke-linecap="round"/>
<path d="M112 83L123 83" stroke="#94A3B8" stroke-linecap="round"/>
<path d="M72.733 9H71.8523C71.8002 8.74669 71.709 8.52415 71.5788 8.33239C71.451 8.14062 71.2947 7.97964 71.1101 7.84943C70.9278 7.71686 70.7254 7.61742 70.5028 7.55114C70.2803 7.48485 70.0483 7.4517 69.8068 7.4517C69.3665 7.4517 68.9676 7.56297 68.6101 7.78551C68.255 8.00805 67.9721 8.33594 67.7614 8.76918C67.553 9.20241 67.4489 9.7339 67.4489 10.3636C67.4489 10.9934 67.553 11.5249 67.7614 11.9581C67.9721 12.3913 68.255 12.7192 68.6101 12.9418C68.9676 13.1643 69.3665 13.2756 69.8068 13.2756C70.0483 13.2756 70.2803 13.2424 70.5028 13.1761C70.7254 13.1098 70.9278 13.0116 71.1101 12.8814C71.2947 12.7488 71.451 12.5866 71.5788 12.3949C71.709 12.2008 71.8002 11.9782 71.8523 11.7273H72.733C72.6667 12.099 72.5459 12.4316 72.3707 12.7251C72.1955 13.0187 71.9777 13.2685 71.7173 13.4744C71.4569 13.678 71.1645 13.8331 70.8402 13.9396C70.5182 14.0462 70.1738 14.0994 69.8068 14.0994C69.1866 14.0994 68.6349 13.9479 68.152 13.6449C67.669 13.3419 67.2891 12.911 67.0121 12.3523C66.7351 11.7936 66.5966 11.1307 66.5966 10.3636C66.5966 9.59659 66.7351 8.93371 67.0121 8.375C67.2891 7.81629 67.669 7.38542 68.152 7.08239C68.6349 6.77936 69.1866 6.62784 69.8068 6.62784C70.1738 6.62784 70.5182 6.68111 70.8402 6.78764C71.1645 6.89418 71.4569 7.05043 71.7173 7.25639C71.9777 7.45999 72.1955 7.70857 72.3707 8.00213C72.5459 8.29332 72.6667 8.62595 72.733 9ZM75.6475 14.1278C75.3019 14.1278 74.9882 14.0627 74.7065 13.9325C74.4248 13.8 74.2011 13.6094 74.0353 13.3608C73.8696 13.1098 73.7868 12.8068 73.7868 12.4517C73.7868 12.1392 73.8483 11.8859 73.9714 11.6918C74.0945 11.4953 74.2591 11.3414 74.465 11.2301C74.671 11.1188 74.8983 11.036 75.1468 10.9815C75.3978 10.9247 75.6499 10.8797 75.9032 10.8466C76.2347 10.804 76.5034 10.772 76.7093 10.7507C76.9177 10.727 77.0692 10.688 77.1639 10.6335C77.2609 10.5791 77.3095 10.4844 77.3095 10.3494V10.321C77.3095 9.97064 77.2136 9.69839 77.0218 9.50426C76.8324 9.31013 76.5448 9.21307 76.1589 9.21307C75.7588 9.21307 75.4451 9.30066 75.2179 9.47585C74.9906 9.65104 74.8308 9.83807 74.7385 10.0369L73.943 9.75284C74.085 9.4214 74.2744 9.16335 74.5112 8.97869C74.7503 8.79167 75.0107 8.66146 75.2924 8.58807C75.5765 8.51231 75.8559 8.47443 76.1305 8.47443C76.3057 8.47443 76.5069 8.49574 76.7342 8.53835C76.9638 8.5786 77.1852 8.66264 77.3983 8.79048C77.6137 8.91832 77.7924 9.11127 77.9345 9.36932C78.0765 9.62737 78.1475 9.97301 78.1475 10.4062V14H77.3095V13.2614H77.2669C77.21 13.3797 77.1154 13.5064 76.9828 13.6413C76.8502 13.7763 76.6738 13.8911 76.4537 13.9858C76.2335 14.0805 75.9648 14.1278 75.6475 14.1278ZM75.7754 13.375C76.1068 13.375 76.3862 13.3099 76.6135 13.1797C76.8431 13.0495 77.0159 12.8814 77.1319 12.6754C77.2503 12.4695 77.3095 12.2528 77.3095 12.0256V11.2585C77.274 11.3011 77.1958 11.3402 77.0751 11.3757C76.9567 11.4089 76.8194 11.4384 76.6632 11.4645C76.5093 11.4882 76.359 11.5095 76.2122 11.5284C76.0678 11.545 75.9506 11.5592 75.8606 11.571C75.6428 11.5994 75.4392 11.6456 75.2498 11.7095C75.0628 11.7711 74.9113 11.8646 74.7953 11.9901C74.6816 12.1132 74.6248 12.2812 74.6248 12.4943C74.6248 12.7855 74.7325 13.0057 74.948 13.1548C75.1658 13.3016 75.4416 13.375 75.7754 13.375ZM79.6772 14V8.54545H80.4869V9.36932H80.5437C80.6431 9.09943 80.823 8.88045 81.0835 8.71236C81.3439 8.54427 81.6374 8.46023 81.9641 8.46023C82.0257 8.46023 82.1026 8.46141 82.195 8.46378C82.2873 8.46615 82.3571 8.4697 82.4045 8.47443V9.3267C82.3761 9.3196 82.311 9.30895 82.2092 9.29474C82.1097 9.27817 82.0044 9.26989 81.8931 9.26989C81.628 9.26989 81.3912 9.32552 81.1829 9.43679C80.9769 9.54569 80.8136 9.69721 80.6928 9.89134C80.5745 10.0831 80.5153 10.3021 80.5153 10.5483V14H79.6772ZM85.2915 14.1136C84.837 14.1136 84.4357 13.9988 84.0877 13.7692C83.7397 13.5372 83.4674 13.2105 83.271 12.7891C83.0745 12.3653 82.9762 11.8646 82.9762 11.2869C82.9762 10.714 83.0745 10.2169 83.271 9.79545C83.4674 9.37405 83.7409 9.04853 84.0913 8.81889C84.4416 8.58925 84.8465 8.47443 85.3058 8.47443C85.6609 8.47443 85.9414 8.53362 86.1474 8.65199C86.3557 8.76799 86.5143 8.90057 86.6232 9.04972C86.7345 9.1965 86.8209 9.31723 86.8825 9.41193H86.9535V6.72727H87.7915V14H86.9819V13.1619H86.8825C86.8209 13.2614 86.7333 13.3868 86.6197 13.5384C86.506 13.6875 86.3439 13.8213 86.1332 13.9396C85.9225 14.0556 85.6419 14.1136 85.2915 14.1136ZM85.4052 13.3608C85.7414 13.3608 86.0254 13.2732 86.2575 13.098C86.4895 12.9205 86.6658 12.6754 86.7866 12.3629C86.9073 12.0481 86.9677 11.6847 86.9677 11.2727C86.9677 10.8655 86.9085 10.5092 86.7901 10.2038C86.6718 9.89607 86.4966 9.65696 86.2646 9.48651C86.0326 9.31368 85.7461 9.22727 85.4052 9.22727C85.0501 9.22727 84.7541 9.31842 84.5174 9.50071C84.283 9.68063 84.1067 9.92566 83.9883 10.2358C83.8723 10.5436 83.8143 10.8892 83.8143 11.2727C83.8143 11.661 83.8735 12.0137 83.9918 12.331C84.1126 12.6458 84.2901 12.8968 84.5245 13.0838C84.7612 13.2685 85.0548 13.3608 85.4052 13.3608ZM93.3065 9.76705L92.5536 9.98011C92.5063 9.85464 92.4364 9.73272 92.3441 9.61435C92.2541 9.49361 92.131 9.39418 91.9748 9.31605C91.8185 9.23793 91.6185 9.19886 91.3746 9.19886C91.0408 9.19886 90.7627 9.2758 90.5401 9.42969C90.32 9.5812 90.2099 9.77415 90.2099 10.0085C90.2099 10.2169 90.2856 10.3814 90.4371 10.5021C90.5887 10.6229 90.8254 10.7235 91.1474 10.804L91.957 11.0028C92.4447 11.1212 92.8081 11.3023 93.0472 11.5462C93.2863 11.7876 93.4059 12.099 93.4059 12.4801C93.4059 12.7926 93.3159 13.072 93.136 13.3182C92.9585 13.5644 92.7099 13.7585 92.3903 13.9006C92.0707 14.0426 91.699 14.1136 91.2752 14.1136C90.7189 14.1136 90.2584 13.9929 89.8938 13.7514C89.5292 13.5099 89.2984 13.1572 89.2013 12.6932L89.9968 12.4943C90.0726 12.7879 90.2158 13.008 90.4265 13.1548C90.6396 13.3016 90.9177 13.375 91.261 13.375C91.6516 13.375 91.9618 13.2921 92.1914 13.1264C92.4234 12.9583 92.5394 12.7571 92.5394 12.5227C92.5394 12.3333 92.4731 12.1747 92.3406 12.0469C92.208 11.9167 92.0044 11.8196 91.7298 11.7557L90.8207 11.5426C90.3211 11.4242 89.9542 11.2408 89.7198 10.9922C89.4878 10.7412 89.3718 10.4276 89.3718 10.0511C89.3718 9.74337 89.4582 9.47112 89.631 9.23438C89.8062 8.99763 90.0442 8.81179 90.3448 8.67685C90.6478 8.5419 90.9911 8.47443 91.3746 8.47443C91.9144 8.47443 92.3382 8.5928 92.646 8.82955C92.9561 9.06629 93.1763 9.37879 93.3065 9.76705Z" fill="#E11D48"/>
</svg>